<svg width="241" height="90" viewBox="0 0 241 90" fill="none" xmlns="http://www.w3.org/2000/svg">
<path d="M15.365 21.4119C10.9437 21.4284 6.54434 22.0337 2.28321 23.2119L3.45667 30.489C6.93377 29.7462 10.4766 29.353 14.0321 29.3152C20.1436 29.3152 21.3191 30.381 21.3191 34.6086V36.5661H11.6962C3.94047 36.5661 1.03046 41.9933 1.03046 49.7387C1.03046 56.315 4.00354 61.0875 10.9779 61.0875C15.0102 61.0857 18.9555 59.9164 22.3364 57.7212L23.1063 60.5909H30.875V35.1841C30.875 25.6371 27.3492 21.4119 15.365 21.4119ZM21.3191 51.5394C19.0455 52.9577 16.4795 53.8424 13.8143 54.1269C9.6792 54.2785 9.77267 50.2683 9.77267 47.6075C9.77267 44.7138 11.1342 43.8063 14.2674 43.8063H21.3191V51.5394ZM61.4467 22.531C58.0604 21.8276 54.6134 21.4566 51.1549 21.4236C42.2131 21.4236 38.4129 26.0597 38.4129 34.5982V47.727C38.4129 56.502 42.5282 61.0886 50.2839 61.0886C54.6784 61.0984 58.9573 59.6827 62.4771 57.0543L63.5132 60.592H71.1036V5.55701L61.4476 6.90183L61.4467 22.531ZM61.4467 49.3859C59.0668 51.5193 56.0129 52.7507 52.8173 52.8655C49.2561 52.8655 48.0685 51.1251 48.0685 47.9605V34.3602C48.0685 30.8819 49.4136 29.6448 52.8975 29.6448C55.7744 29.6997 58.6385 30.0442 61.4462 30.6731L61.4467 49.3859ZM198.151 21.4076C185.068 21.4076 181.544 28.6076 181.544 36.4347V46.0611C181.544 53.8897 185.068 61.0911 198.151 61.0911C211.238 61.0911 214.764 53.8911 214.764 46.0611V36.4338C214.764 28.6071 211.238 21.4076 198.151 21.4076ZM205.207 46.3725C205.207 50.6792 203.245 52.9512 198.151 52.9512C193.063 52.9512 191.103 50.6787 191.103 46.3725V36.1197C191.103 31.8152 193.063 29.5454 198.151 29.5454C203.245 29.5454 205.207 31.8152 205.207 36.1197V46.3725ZM130.24 37.0896C125.027 36.0042 124.783 35.7824 124.637 32.7413C124.527 30.4013 125.183 29.4322 129.32 29.2389C132.836 29.1627 136.352 29.3625 139.836 29.8365L140.412 22.2275C136.635 21.5266 132.79 21.2619 128.953 21.4386C118.105 21.9505 114.902 25.4619 115.263 33.106C115.61 40.4361 116.811 42.7257 126.209 44.5473C132.445 45.7382 132.968 46.8852 133.083 49.2273C133.219 52.1145 132.638 53.079 128.42 53.2791C124.59 53.4247 120.757 53.0528 117.027 52.1736L116.039 59.4884C120.342 60.6657 124.797 61.1937 129.256 61.0551C140.736 60.5124 142.788 55.885 142.44 48.5527C142.071 40.7526 140.989 39.3975 130.24 37.0896ZM163.618 37.0896C158.405 36.0065 158.158 35.7846 158.013 32.7435C157.903 30.4035 158.563 29.4322 162.698 29.2389C166.213 29.1625 169.728 29.3624 173.212 29.8365L173.793 22.2297C170.016 21.5273 166.171 21.2618 162.333 21.4386C151.48 21.9505 148.282 25.4641 148.643 33.106C148.991 40.4361 150.191 42.7257 159.588 44.5495C165.824 45.7404 166.349 46.8873 166.459 49.2275C166.596 52.1147 166.015 53.0815 161.801 53.2793C157.969 53.4248 154.135 53.053 150.403 52.1739L149.417 59.4886C153.721 60.6655 158.177 61.1943 162.636 61.0575C174.111 60.5126 176.164 55.8852 175.818 48.555C175.447 40.7547 174.369 39.399 163.618 37.0896ZM94.4711 21.3903C82.245 21.3903 78.641 28.2017 78.641 36.2657V46.3666C78.641 55.527 82.795 61.0839 94.7835 61.0839C99.096 61.221 103.394 60.5195 107.439 59.0184L108.452 51.873C104.376 53.2508 100.078 53.8545 95.7795 53.6528C90.0101 53.077 88.202 51.4554 88.202 46.8369V44.8794H109.438V36.7359C109.439 28.5138 106.695 21.3903 94.4711 21.3903ZM100.348 37.2062H88.2029V35.3274C88.2029 31.7241 89.8471 29.2191 94.5508 29.2191C99.2546 29.2191 100.349 31.7241 100.349 35.3274L100.348 37.2062Z" fill="#006EC7"/>
<path d="M239.727 0.0269775H236.162V66.1432L213.245 89.0392H218.285L239.727 67.617V0.0269775Z" fill="#887D75"/>
</svg>
