<svg width="116" height="40" viewBox="0 0 116 40" fill="none" xmlns="http://www.w3.org/2000/svg">
<g clip-path="url(#clip0_1219_6300)">
<path fill-rule="evenodd" clip-rule="evenodd" d="M56.4507 9.09778L59.5071 31.5907L65.8178 25.3156L56.4507 9.09778Z" fill="#2FB4E9"/>
<path d="M56.4507 9.09771L75.8678 7.14136L65.8178 25.3155L56.4507 9.09771Z" fill="#0098D8"/>
<path d="M90.1342 20.8324L75.8678 7.14136L65.8177 25.3155L90.1342 20.8324Z" fill="#87D0F4"/>
<path d="M107.434 18.5847L90.1343 20.8325L98.784 3.8103L107.434 18.5847Z" fill="#0098D8"/>
<path d="M75.8678 7.14139L90.1342 20.8325L98.784 3.8103L75.8678 7.14139Z" fill="#2FB4E9"/>
<path d="M81.9917 0L75.8678 7.14141L98.784 3.81033L81.9917 0Z" fill="#87D0F4"/>
<path d="M56.4507 9.09776L81.9917 0L75.8678 7.14141L56.4507 9.09776Z" fill="#2FB4E9"/>
<path d="M73.2541 40L65.8178 25.3156L59.5071 31.5907L73.2541 40Z" fill="#0098D8"/>
<path d="M90.1342 20.8325L73.254 40L65.8177 25.3145L90.1342 20.8325Z" fill="#2FB4E9"/>
<path d="M94.1705 31.0958L73.2542 40L90.1343 20.8325L94.1705 31.0958Z" fill="#0098D8"/>
<path d="M107.434 18.5847L94.1705 31.0957L90.1343 20.8324L107.434 18.5847Z" fill="#2FB4E9"/>
<path d="M100.803 36.076L107.434 18.5847L94.1705 31.0957L100.803 36.076Z" fill="#87D0F4"/>
<path d="M73.2542 40L100.803 36.076L94.1705 31.0957L73.2542 40Z" fill="#2FB4E9"/>
<path d="M2.4669 26.6655L0 26.6644L6.61437 12.8091L13.2198 26.6644L10.7518 26.6622L6.6355 17.3282L2.4669 26.6655Z" fill="#010101"/>
<path d="M16.5276 19.0157H16.9424C18.1592 19.0157 18.9667 18.8818 19.3648 18.6152C19.7641 18.3486 19.9632 17.8749 19.9632 17.1943C19.9632 16.4721 19.7474 15.958 19.317 15.6508C18.8855 15.3448 18.0947 15.1907 16.9424 15.1907H16.5276V19.0157ZM16.383 20.6998V26.6645H14.2308V13.3334H17.4351C18.3805 13.3334 19.1113 13.3896 19.6262 13.5021C20.1412 13.6146 20.5816 13.807 20.9486 14.0804C21.3869 14.4021 21.7239 14.8172 21.9619 15.328C22.0709 15.571 22.1576 15.8365 22.2221 16.1245C22.2866 16.4125 22.3189 16.7061 22.3189 17.0031C22.3189 18.0718 22.0486 18.9066 21.5081 19.5073C20.9675 20.108 20.1567 20.4725 19.0757 20.5997L23.9405 26.6645L21.3401 26.6667L16.6399 20.702L16.383 20.6998Z" fill="#010101"/>
<path d="M36.1661 16.4686C35.511 15.9331 34.8158 15.5327 34.0829 15.2649C33.7192 15.1344 33.3477 15.0343 32.9684 14.9668C32.5892 14.8982 32.1943 14.8644 31.785 14.8644C30.2268 14.8644 28.96 15.3425 27.9824 16.2976C27.0058 17.2539 26.5164 18.497 26.5164 20.0281C26.5164 21.5592 26.9936 22.7292 27.9479 23.6843C28.9022 24.6405 30.1 25.1175 31.5403 25.1175C31.9685 25.1175 32.3756 25.0827 32.7616 25.014C33.1475 24.9454 33.5423 24.8363 33.945 24.6855C34.7046 24.4043 35.4376 23.97 36.1449 23.3817V25.8983C35.5221 26.3291 34.8436 26.6498 34.1096 26.8613C33.7525 26.9614 33.3711 27.039 32.9651 27.0953C32.5591 27.1515 32.1454 27.1796 31.7239 27.1796C30.6339 27.1796 29.6296 27.0098 28.7109 26.6711C27.7922 26.3325 26.9814 25.8308 26.2762 25.1682C25.5722 24.5055 25.0327 23.7304 24.6602 22.8439C24.2864 21.9563 24.1007 21.0125 24.1007 20.0101C24.1007 19.0077 24.2876 18.0807 24.6602 17.1909C25.0339 16.301 25.5722 15.5225 26.2762 14.8565C26.9802 14.1905 27.7933 13.6854 28.7153 13.3389C29.6373 12.9936 30.6272 12.8203 31.6849 12.8203C32.1131 12.8203 32.5224 12.8484 32.9117 12.9047C33.301 12.9609 33.6903 13.0509 34.0807 13.1758C34.8459 13.3997 35.5833 13.7507 36.2906 14.2299L36.1638 16.4698L36.1661 16.4686Z" fill="#010101"/>
<path d="M38.5896 26.6667V13.3334H40.8863V18.2518H47.8344V13.3334H50.1311V26.6667H47.8344V20.1913H40.8863V26.6667H38.5896Z" fill="#010101"/>
<path d="M54.7245 13.3334H52.4277V26.6667H54.7245V13.3334Z" fill="#010101"/>
<path d="M112.422 15.1727V26.6667H110.222V15.1727H106.626V13.3334H116V15.1727H112.422Z" fill="#010101"/>
<path d="M69.1934 26.6667V13.3334H77.069V15.1727H71.4879V18.5151H76.5618V20.4185H71.4879V24.7272H77.069V26.6667H69.1934Z" fill="white"/>
<path d="M90.3812 16.4686C89.745 15.9331 89.071 15.5326 88.3592 15.2649C88.0066 15.1344 87.6462 15.0343 87.277 14.9668C86.9088 14.8981 86.5262 14.8644 86.1292 14.8644C84.6177 14.8644 83.3875 15.3425 82.4388 16.2976C81.4901 17.2539 81.0163 18.497 81.0163 20.0281C81.0163 21.5592 81.479 22.7292 82.4054 23.6843C83.3308 24.6405 84.4942 25.1175 85.8923 25.1175C86.3082 25.1175 86.7031 25.0826 87.0779 25.014C87.4527 24.9454 87.8353 24.8363 88.2257 24.6855C88.9631 24.4043 89.6749 23.97 90.3612 23.3817V25.8982C89.7561 26.3291 89.0977 26.6497 88.3859 26.8612C88.04 26.9614 87.6696 27.039 87.2759 27.0952C86.8821 27.1515 86.4806 27.1796 86.0713 27.1796C85.0125 27.1796 84.0382 27.0097 83.1473 26.6711C82.2553 26.3325 81.4679 25.8307 80.7849 25.1681C80.1009 24.5055 79.5782 23.7304 79.2167 22.8439C78.8541 21.9574 78.674 21.0124 78.674 20.0101C78.674 19.0077 78.8541 18.0807 79.2167 17.1909C79.5793 16.301 80.102 15.5225 80.7849 14.8565C81.469 14.1905 82.2575 13.6854 83.1517 13.34C84.046 12.9947 85.0069 12.8214 86.0335 12.8214C86.4495 12.8214 86.8465 12.8495 87.2236 12.9058C87.6017 12.962 87.9799 13.052 88.3569 13.1769C89.0999 13.4008 89.8151 13.7518 90.5024 14.231L90.3801 16.4709L90.3812 16.4686Z" fill="white"/>
<path d="M104.329 13.3334H102.035V18.2518H95.0947V13.3334H92.8002V26.6667H95.0947V20.1913H102.035V26.6667H104.329V13.9949V13.3334Z" fill="white"/>
<path d="M57.0201 13.3334L57.2626 15.1727H60.884V26.6667H63.1785V15.1727H66.9089V13.3334H57.0201Z" fill="white"/>
</g>
<defs>
<clipPath id="clip0_1219_6300">
<rect width="116" height="40" fill="white"/>
</clipPath>
</defs>
</svg>
