<svg xmlns="http://www.w3.org/2000/svg" xmlns:xlink="http://www.w3.org/1999/xlink" version="1.1" id="Laag_1" x="0px" y="0px" viewBox="0 0 50 67" style="enable-background:new 0 0 50 67;" xml:space="preserve" width="54"  height="72" >
<style type="text/css">
	.st0{fill:#EC6608;}
	.st1{fill:#E30613;}
	.st2{fill:#7B173D;}
	.st3{fill:#B71833;}
	.st4{fill:#1D466B;}
</style>
<g>
	<path class="st0" d="M3.3,1.2c0,0-2.6,0-2.6,2.6v3.5c0,0,0,2.6,2.6,2.6h3.5c0,0,2.6,0,2.6-2.6V3.8c0,0,0-2.6-2.6-2.6L3.3,1.2z"/>
	<path class="st0" d="M3.3,21.2c0,0-2.6,0-2.6,2.6v3.5c0,0,0,2.6,2.6,2.6h3.5c0,0,2.6,0,2.6-2.6v-3.5c0,0,0-2.6-2.6-2.6L3.3,21.2z"/>
	<path class="st0" d="M3.3,41.2c0,0-2.6,0-2.6,2.6v3.5c0,0,0,2.6,2.6,2.6h3.5c0,0,2.6,0,2.6-2.6v-3.5c0,0,0-2.6-2.6-2.6H3.3z"/>
	<path class="st0" d="M16.7,1.2h-3.5c0,0-2.6,0-2.6,2.6v3.1l0,0V7c0,4.1-4.1,4.1-4.1,4.1H3.3c0,0-2.6,0-2.6,2.6v3.5   c0,0,0,2.6,2.6,2.6h3.5c0,0,2.6,0,2.6-2.6v-3.1l0,0V14c0-3.9,3.6-4.1,4.1-4.1h3.3c0,0,2.6,0,2.6-2.6V3.8   C19.3,3.8,19.3,1.2,16.7,1.2z"/>
	<path class="st0" d="M9.3,34.2V34c0-3.9,3.6-4.1,4.1-4.1h3.3c0,0,2.6,0,2.6-2.6v-3.5c0,0,0-2.6-2.6-2.6h-3.5c0,0-2.6,0-2.6,2.6v3.1   l0,0V27c0,4.1-4.1,4.1-4.1,4.1H3.3c0,0-2.6,0-2.6,2.6v3.5c0,0,0,2.6,2.6,2.6h3.3c0.5,0,4.1,0.3,4.1,4.1v0.2l0,0v3.1   c0,0,0,2.6,2.6,2.6h3.5c0,0,2.6,0,2.6-2.6v-3.5c0,0,0-2.6-2.6-2.6h-3.2c0,0-4.1,0-4.1-4.1V34.2z"/>
	<path class="st1" d="M23.3,1.2c0,0-2.6,0-2.6,2.6v3.5c0,0,0,2.6,2.6,2.6h3.5c0,0,2.6,0,2.6-2.6V3.8c0,0,0-2.6-2.6-2.6L23.3,1.2z"/>
	<path class="st1" d="M26.7,21.2h-3.3c0,0-4.1,0-4.1-4.1v-3.2c0,0,0-2.6-2.6-2.6h-3.5c0,0-2.6,0-2.6,2.6v3.5c0,0,0,2.6,2.6,2.6h3.3   c0.5,0,4.1,0.3,4.1,4.1v0.2l0,0V27c0,4.1-4.1,4.1-4.1,4.1h-3.3c0,0-2.6,0-2.6,2.6v3.5c0,0,0,2.6,2.6,2.6h3.5c0,0,2.6,0,2.6-2.6   v-3.1l0,0V34c0-3.9,3.6-4.1,4.1-4.1h3.3c0,0,2.6,0,2.6-2.6v-3.5C29.3,23.8,29.3,21.2,26.7,21.2z"/>
	<path class="st1" d="M23.3,41.2c0,0-2.6,0-2.6,2.6v3.5c0,0,0,2.6,2.6,2.6h3.5c0,0,2.6,0,2.6-2.6v-3.5c0,0,0-2.6-2.6-2.6H23.3z"/>
	<path class="st2" d="M33.3,11.2c0,0-2.6,0-2.6,2.6v3.5c0,0,0,2.6,2.6,2.6h3.5c0,0,2.6,0,2.6-2.6v-3.5c0,0,0-2.6-2.6-2.6H33.3z"/>
	<path class="st3" d="M36.7,21.2h-3.3c0,0-4.1,0-4.1-4.1v-3.2c0,0,0-2.6-2.6-2.6h-3.5c0,0-2.6,0-2.6,2.6v3.5c0,0,0,2.6,2.6,2.6h3.3   c0.5,0,4.1,0.3,4.1,4.1v3.3c0,0,0,2.6,2.6,2.6h3.5c0,0,2.6,0,2.6-2.6v-3.5C39.3,23.8,39.4,21.2,36.7,21.2z"/>
	<path class="st3" d="M36.7,41.2h-3.3c0,0-4.1,0-4.1-4.1v-3.3c0,0,0-2.6-2.6-2.6h-3.5c0,0-2.6,0-2.6,2.6v3.5c0,0,0,2.6,2.6,2.6h3.3   c0.5,0,4.1,0.3,4.1,4.1v3.3c0,0,0,2.6,2.6,2.6h3.5c0,0,2.6,0,2.6-2.6v-3.5C39.3,43.8,39.4,41.2,36.7,41.2z"/>
	<path class="st4" d="M43.3,1.2c0,0-2.6,0-2.6,2.6v3.5c0,0,0,2.6,2.6,2.6h3.5c0,0,2.6,0,2.6-2.6V3.8c0,0,0-2.6-2.6-2.6L43.3,1.2z"/>
	<path class="st4" d="M46.7,11.2h-3.3c0,0-4.1,0-4.1-4.1V3.8c0,0,0-2.6-2.6-2.6h-3.5c0,0-2.6,0-2.6,2.6v3.5c0,0,0,2.6,2.6,2.6h3.3   c0.5,0,4.1,0.3,4.1,4.1v0.2l0,0v3.1c0,0,0,2.6,2.6,2.6h3.5c0,0,2.6,0,2.6-2.6v-3.5C49.4,13.8,49.4,11.2,46.7,11.2z"/>
	<path class="st2" d="M43.3,31.2c0,0-2.6,0-2.6,2.6v3.5c0,0,0,2.6,2.6,2.6h3.5c0,0,2.6,0,2.6-2.6v-3.5c0,0,0-2.6-2.6-2.6L43.3,31.2z   "/>
	<path class="st2" d="M39.4,34.2V34c0-3.9,3.6-4.1,4.1-4.1h3.3c0,0,2.6,0,2.6-2.6v-3.5c0,0,0-2.6-2.6-2.6h-3.5c0,0-2.6,0-2.6,2.6V27   c0,4.1-4.1,4.1-4.1,4.1h-3.3c0,0-2.6,0-2.6,2.6v3.5c0,0,0,2.6,2.6,2.6h3.3c0.5,0,4.1,0.3,4.1,4.1v0.2l0,0v3.1c0,0,0,2.6,2.6,2.6   h3.5c0,0,2.6,0,2.6-2.6v-3.5c0,0,0-2.6-2.6-2.6h-3.3c0,0-4.1,0-4.1-4.1V34.2z"/>
	<path class="st0" d="M8.2,66.4H7c-0.3,0-0.4-0.1-0.5-0.4l-0.3-0.9H3.3L3,66.1c-0.1,0.3-0.2,0.4-0.5,0.4H1.2C1,66.4,1,66.2,1,66.1   L3.7,59c0.1-0.2,0.2-0.4,0.5-0.4h1.1c0.3,0,0.4,0.1,0.5,0.4l2.6,7.1C8.5,66.2,8.5,66.4,8.2,66.4z M5.6,63.5l-0.9-2.6l-0.9,2.6H5.6z   "/>
	<path class="st0" d="M15.7,66.4h-1.4c-0.3,0-0.4-0.1-0.6-0.4l-1.3-1.9c-0.1-0.1-0.1-0.3-0.1-0.6v-1c0-0.2,0.1-0.3,0.3-0.3h0.2   c0.6,0,1.1-0.4,1.1-1c0-0.6-0.5-1-1.1-1h-1.6v5.8c0,0.3-0.1,0.3-0.3,0.3H9.8c-0.2,0-0.3-0.1-0.3-0.3v-7.1c0-0.2,0.1-0.3,0.3-0.3h3   c1.3,0,1.9,0.3,2.4,0.8c0.4,0.4,0.7,1.1,0.7,1.9c0,1.1-0.7,2-1.7,2.4l1.7,2.4C16,66.2,16,66.4,15.7,66.4z"/>
	<path class="st0" d="M24.8,58.9v7.2c0,0.3-0.1,0.3-0.3,0.3h-1.1c-0.2,0-0.3-0.1-0.3-0.3v-4l-1.2,2.1c-0.1,0.1-0.2,0.2-0.3,0.3h-0.6   c-0.2,0-0.3-0.2-0.3-0.3L19.3,62v4c0,0.3-0.1,0.3-0.3,0.3h-1.2c-0.2,0-0.3-0.1-0.3-0.3v-7.2c0-0.2,0.1-0.3,0.3-0.3h1.2   c0.4,0,0.5,0.3,0.5,0.4l1.6,2.9l1.6-2.9c0.1-0.1,0.1-0.4,0.5-0.4h1.1C24.7,58.6,24.8,58.7,24.8,58.9z"/>
	<path class="st0" d="M33.1,66.4h-1.2c-0.3,0-0.4-0.1-0.5-0.4L31,65.1h-2.9l-0.3,0.9c-0.1,0.3-0.2,0.4-0.5,0.4h-1.2   c-0.3,0-0.3-0.2-0.2-0.3l2.6-7.1c0.1-0.2,0.2-0.4,0.5-0.4h1.1c0.3,0,0.4,0.1,0.5,0.4l2.6,7.1C33.3,66.2,33.3,66.4,33.1,66.4z    M30.5,63.5l-0.9-2.6l-0.9,2.6H30.5z"/>
	<path class="st0" d="M40.5,61.3v2.5c0,1.9-1.8,2.7-3.2,2.7h-2.7c-0.3,0-0.3-0.1-0.3-0.3v-7.1c0-0.2,0.1-0.3,0.3-0.3h2.7   C38.8,58.6,40.5,59.4,40.5,61.3z M38.7,61.4c0-0.7-0.5-1.2-1.3-1.2h-1.1v4.5h1.1c0.8,0,1.3-0.4,1.3-1.2V61.4z"/>
	<path class="st0" d="M48.6,66.4h-1.2c-0.3,0-0.4-0.1-0.5-0.4l-0.3-0.9h-2.9l-0.3,0.9c-0.1,0.3-0.2,0.4-0.5,0.4h-1.2   c-0.3,0-0.3-0.2-0.2-0.3l2.6-7.1c0.1-0.2,0.2-0.4,0.5-0.4h1.1c0.3,0,0.4,0.1,0.5,0.4l2.6,7.1C48.9,66.2,48.9,66.4,48.6,66.4z    M46,63.5l-0.9-2.6l-0.9,2.6H46z"/>
</g>
</svg>