<svg width="137" height="41" viewBox="0 0 137 41" fill="none" xmlns="http://www.w3.org/2000/svg">
<g clip-path="url(#clip0_2265_10522)">
<path fill-rule="evenodd" clip-rule="evenodd" d="M10.0277 7.70864C10.1042 7.78585 10.2052 7.8252 10.3073 7.8252C10.3926 7.8252 10.479 7.79782 10.5512 7.7411C11.5261 6.97795 12.5878 6.33382 13.7144 5.82134V20.2834C13.7144 20.32 13.7185 20.3554 13.7271 20.3884C13.7708 23.0544 15.4591 25.4479 17.9556 26.3691C17.9998 26.3852 18.0459 26.3932 18.0924 26.3932C18.172 26.3932 18.2509 26.3691 18.3181 26.3217C18.4246 26.2475 18.4879 26.1258 18.4879 25.9968V20.6425C18.4879 20.6203 18.4854 20.5977 18.482 20.5761C18.4737 20.5233 18.4668 20.4726 18.4619 20.4251C18.4786 20.381 18.4879 20.3326 18.4879 20.2834V19.9257V14.5711V4.15898V2.39628V0.415045C18.4879 0.302909 18.4403 0.195692 18.3569 0.119951C18.2842 0.0542102 18.1892 0.0187988 18.0924 0.0187988C18.0783 0.0187988 18.0644 0.0187988 18.0506 0.0206022C14.1467 0.432095 10.4712 1.97282 7.42132 4.47506C7.33494 4.54588 7.28292 4.65031 7.27753 4.76228C7.27164 4.87393 7.31335 4.98311 7.39285 5.06164L10.0277 7.70864Z" fill="#FE2D5B"/>
<path fill-rule="evenodd" clip-rule="evenodd" d="M35.8078 7.36067C35.7371 7.27362 35.6331 7.22099 35.5212 7.21493H35.5011C35.3961 7.21493 35.296 7.2564 35.2214 7.33116L32.5852 9.97964C32.4439 10.1206 32.4306 10.3454 32.5528 10.5023C34.7165 13.2924 35.8606 16.636 35.8606 20.1734C35.8606 28.8598 28.8264 35.9271 20.1791 35.9271C11.532 35.9271 4.49713 28.8598 4.49713 20.1734C4.49713 16.636 5.64124 13.2914 7.80446 10.5023C7.92715 10.3449 7.91292 10.1201 7.77207 9.97914L5.13593 7.33051C5.06166 7.25591 4.96122 7.2146 4.85636 7.2146H4.83608C4.72419 7.2205 4.62064 7.27313 4.54964 7.36018C1.61807 10.9636 0.00366211 15.5143 0.00366211 20.1734C0.00366211 31.3476 9.05473 40.4388 20.1791 40.4388C31.3031 40.4388 40.3541 31.3476 40.3541 20.1734C40.3541 15.5133 38.7404 10.9636 35.8078 7.36067Z" fill="#FE2D5B"/>
<path fill-rule="evenodd" clip-rule="evenodd" d="M20.1791 29.3104C15.1637 29.3104 11.0839 25.2109 11.0839 20.1733C11.0839 18.407 11.5879 16.6919 12.5432 15.2129C12.6443 15.0564 12.6227 14.8505 12.4902 14.7187L9.88204 12.0982C9.80745 12.023 9.70668 11.9813 9.60166 11.9813C9.59184 11.9813 9.58219 11.9817 9.57238 11.9826C9.45754 11.991 9.35203 12.0497 9.28284 12.143C7.56848 14.4851 6.66272 17.2624 6.66272 20.1733C6.66272 27.6599 12.7261 33.7496 20.1791 33.7496C27.6315 33.7496 33.695 27.6599 33.695 20.1733C33.695 15.0895 30.9269 10.505 26.4535 8.14937V5.73533C27.6508 6.26109 28.7772 6.93423 29.8072 7.74017C29.8793 7.79657 29.9657 7.82476 30.0515 7.82476C30.1531 7.82476 30.2542 7.78476 30.3311 7.70771L32.9655 5.06169C33.044 4.983 33.0855 4.87382 33.0798 4.76234C33.0744 4.6502 33.0219 4.54577 32.936 4.47511C29.8337 1.92894 26.0905 0.381492 22.1122 0.0019673C22.1006 0.000491825 22.0873 0 22.0751 0C21.9769 0 21.8827 0.0359032 21.8091 0.102791C21.7261 0.17804 21.6795 0.284111 21.6795 0.396411V2.39617V4.13624V7.13293V10.3103V10.8305C21.6795 11.019 21.812 11.1816 21.9965 11.219C26.2132 12.0777 29.2744 15.8436 29.2744 20.1733C29.2744 25.2109 25.1946 29.3104 20.1791 29.3104Z" fill="#FE2D5B"/>
<path fill-rule="evenodd" clip-rule="evenodd" d="M56.2769 12.6428L50.7672 27.7799H52.6325L53.9838 23.5623H59.9645L61.2543 27.7799H63.0579L57.7917 12.6428H56.2769ZM54.536 22.0322L57.0166 14.9766L59.43 22.0322H54.536Z" fill="black"/>
<path fill-rule="evenodd" clip-rule="evenodd" d="M62.1428 14.1725H66.527V27.7796H68.0429V14.1725H72.5493V12.6426H62.1428V14.1725Z" fill="black"/>
<path fill-rule="evenodd" clip-rule="evenodd" d="M83.2303 13.3755C82.5062 12.8255 81.2496 12.5474 79.4607 12.5474C78.2187 12.5474 77.2097 12.6938 76.429 12.9836C75.951 13.1614 75.5597 13.4272 75.2523 13.7797C74.9443 14.1295 74.6643 14.5895 74.403 15.1552C74.1437 15.7217 73.9519 16.4355 73.8293 17.2934C73.7051 18.1575 73.6425 19.1615 73.6425 20.3072C73.6425 21.449 73.6963 22.4394 73.8069 23.2753C73.9176 24.1066 74.0937 24.7989 74.3394 25.3512C74.584 25.903 74.858 26.3468 75.1594 26.6849C75.4579 27.0232 75.8485 27.2788 76.3259 27.4529C76.8063 27.6226 77.2761 27.7371 77.7398 27.7908C78.2031 27.8468 78.8079 27.8749 79.5543 27.8749C80.2971 27.8749 80.9403 27.827 81.4873 27.7332C82.0362 27.633 82.5646 27.4372 83.0758 27.1411C83.5874 26.8452 83.9886 26.4187 84.285 25.869C84.5767 25.3188 84.8107 24.5813 84.9811 23.6649C85.1522 22.7471 85.2346 21.4915 85.2346 19.8932C85.2346 18.2935 85.0662 16.8852 84.7257 15.6737C84.4271 14.6815 83.9262 13.9158 83.2303 13.3755ZM83.149 24.6711C82.9573 25.1233 82.6833 25.4726 82.3291 25.713C81.9725 25.9548 81.5755 26.1185 81.1421 26.2087C80.7054 26.3011 80.0968 26.3431 79.3187 26.3431C78.5388 26.3431 77.9045 26.2809 77.4134 26.1588C76.9219 26.0326 76.4884 25.7591 76.1097 25.3313C75.7371 24.9025 75.4843 24.2971 75.3532 23.5106C75.2272 22.7253 75.1595 21.827 75.1595 20.8231C75.1595 19.8153 75.1781 19.0377 75.2204 18.4857C75.2624 17.9351 75.3142 17.4477 75.3729 17.0374C75.4368 16.6235 75.5335 16.2618 75.6705 15.9495C75.8094 15.6417 75.9355 15.3819 76.049 15.1777C76.1675 14.9677 76.3319 14.7914 76.554 14.6455C76.7705 14.5057 76.9621 14.3934 77.1269 14.3173C77.2911 14.244 77.526 14.1853 77.8322 14.1515C78.1407 14.1158 78.3919 14.0956 78.5907 14.0895C78.5237 14.092 78.6498 14.0882 78.6802 14.0875C78.7107 14.0868 78.5907 14.0895 78.5907 14.0895H79.4662H80.3417C80.393 14.0906 80.2979 14.0882 80.3417 14.0895C80.5489 14.0956 80.8035 14.1158 81.1088 14.1515C81.4179 14.1853 81.65 14.244 81.8045 14.3173C81.9631 14.3934 82.149 14.5059 82.3712 14.6455C82.5001 14.7265 82.8216 15.1066 82.8598 15.1777C82.9692 15.3818 83.0916 15.6435 83.2304 15.9593C83.5575 16.7073 83.7196 18.1594 83.7196 20.3251C83.7195 22.3112 83.5298 23.7588 83.149 24.6711ZM89.3211 26.1262C89.0343 26.0178 88.888 25.6979 88.888 25.1738V12.6428H87.3719V25.1738C87.3719 26.2921 87.6721 27.0221 88.2762 27.3679C88.7538 27.644 89.3799 27.7797 90.1599 27.7797H96.427V26.2501H90.1599C89.8183 26.2501 89.5385 26.2123 89.3211 26.1262Z" fill="black"/>
<path fill-rule="evenodd" clip-rule="evenodd" d="M100.912 20.584L97.0416 12.6426H95.382L100.156 22.4019V27.7796H101.672V22.4019L106.854 12.6426H105.194L100.912 20.584Z" fill="black"/>
<path fill-rule="evenodd" clip-rule="evenodd" d="M110.722 12.6116C110.025 12.6116 109.442 12.8196 108.973 13.2396C108.501 13.6616 108.265 14.3454 108.265 15.2994V25.205C108.265 26.9449 109.092 27.8109 110.745 27.8109H111.051H117.318V26.2809H111.051C110.779 26.2809 110.573 26.2709 110.437 26.2505C110.298 26.229 110.159 26.135 110.006 25.9689C109.857 25.8068 109.779 25.553 109.779 25.205V21.0669H116.5V19.4334H109.779V15.2998C109.779 15.0494 109.791 14.8634 109.811 14.7314C109.833 14.6015 109.928 14.4696 110.097 14.336C110.27 14.2057 110.518 14.1415 110.847 14.1415H117.318V12.6117H110.847C110.805 12.6116 110.766 12.6116 110.722 12.6116Z" fill="black"/>
<path fill-rule="evenodd" clip-rule="evenodd" d="M118.796 14.3385V16.5304L121.481 15.9302V27.7796H124.84V12.6426H121.5L118.796 14.3385Z" fill="black"/>
<path fill-rule="evenodd" clip-rule="evenodd" d="M136.152 19.2063C135.586 18.5102 134.727 18.1262 133.584 18.0586C133.132 18.0302 132.742 18.0186 132.414 18.0186C131.444 18.0186 130.725 18.1845 130.264 18.5164L130.386 15.6824H136.406V12.6006H127.129L126.677 22.0719H129.876C129.876 21.3404 130.244 20.9761 130.98 20.9761H132.455C132.92 20.9761 133.233 21.0944 133.396 21.3282C133.561 21.5622 133.642 21.8784 133.642 22.2785V23.334C133.642 23.6641 133.584 23.9444 133.46 24.182C133.297 24.4842 132.898 24.638 132.268 24.638H126.659V27.7376C127.261 27.7376 129 27.7376 129.762 27.7376C130.524 27.7376 131.593 27.7376 133 27.7376C133.995 27.7376 134.925 27.5379 135.689 26.9719C136.087 26.698 136.404 26.2999 136.644 25.7861C136.884 25.2679 137 24.6717 137 23.9981V21.9483C137 20.8178 136.717 19.9046 136.152 19.2063Z" fill="black"/>
</g>
<defs>
<clipPath id="clip0_2265_10522">
<rect width="137" height="41" fill="white"/>
</clipPath>
</defs>
</svg>
