<svg xmlns="http://www.w3.org/2000/svg" width="134.705" height="57.681" viewBox="0 0 134.705 57.681">
  <g id="bbs-logo-purple" transform="translate(-181 -39)">
    <path id="Path_3726" data-name="Path 3726" d="M49.582,295.207h4.093a2.717,2.717,0,0,1,2.381,1,2.315,2.315,0,0,1,.415,1.362,2.139,2.139,0,0,1-.513,1.478,2.467,2.467,0,0,1-.765.559,3.211,3.211,0,0,1,1.1.628,2.28,2.28,0,0,1,.643,1.721,2.663,2.663,0,0,1-.577,1.666,3.257,3.257,0,0,1-2.745,1.116H49.582v-9.53m4.047,8.428a1.966,1.966,0,0,0,1.694-.688,1.732,1.732,0,0,0,.317-1.051,1.4,1.4,0,0,0-.927-1.413,3.553,3.553,0,0,0-1.3-.2H50.846v3.355Zm-.434-4.4a2.907,2.907,0,0,0,1.271-.227,1.31,1.31,0,0,0,.715-1.285,1.235,1.235,0,0,0-.76-1.257,3.417,3.417,0,0,0-1.272-.183h-2.3v2.952Z" transform="translate(131.418 -210.994)" fill-rule="evenodd"/>
    <path id="Path_3727" data-name="Path 3727" d="M81.181,295.207h1.187v1.323H81.181Zm0,2.613h1.187v6.917H81.181Z" transform="translate(108.815 -210.994)" fill-rule="evenodd"/>
    <rect id="Rectangle_2161" data-name="Rectangle 2161" width="1.168" height="9.531" transform="translate(193.238 84.211)"/>
    <path id="Path_3728" data-name="Path 3728" d="M106.6,305.5a1.707,1.707,0,0,0-1.356-.622,1.675,1.675,0,0,0-1.687,1.155,4.529,4.529,0,0,0-.239,1.615,2.9,2.9,0,0,0,.473,1.791,1.553,1.553,0,0,0,1.285.61,1.8,1.8,0,0,0,1.77-1.136,3.659,3.659,0,0,0,.287-1.5,2.9,2.9,0,0,0-.532-1.913m-.143-1.252a3.229,3.229,0,0,1,.676.662v-.876H108.2v6.319a4.661,4.661,0,0,1-.389,2.089,2.8,2.8,0,0,1-2.744,1.413,3.358,3.358,0,0,1-1.888-.5,1.955,1.955,0,0,1-.856-1.571h1.187a1.32,1.32,0,0,0,.337.72,2.134,2.134,0,0,0,3-.557,5.355,5.355,0,0,0,.227-1.992,2.284,2.284,0,0,1-.843.792,3.034,3.034,0,0,1-3.282-.539,3.542,3.542,0,0,1-.843-2.652,4.031,4.031,0,0,1,.848-2.726,2.655,2.655,0,0,1,2.064-.978A2.536,2.536,0,0,1,106.452,304.247Z" transform="translate(93.844 -217.174)" fill-rule="evenodd"/>
    <path id="Path_3729" data-name="Path 3729" d="M130.583,295.207h1.187v1.323h-1.187Zm0,2.613h1.187v6.917h-1.187Z" transform="translate(73.479 -210.994)" fill-rule="evenodd"/>
    <path id="Path_3730" data-name="Path 3730" d="M156.164,295.207h4.094a2.717,2.717,0,0,1,2.381,1,2.321,2.321,0,0,1,.416,1.362,2.148,2.148,0,0,1-.513,1.478,2.511,2.511,0,0,1-.767.559,3.225,3.225,0,0,1,1.1.628,2.282,2.282,0,0,1,.643,1.721,2.66,2.66,0,0,1-.577,1.666,3.255,3.255,0,0,1-2.744,1.116h-4.029v-9.53m4.047,8.428a1.965,1.965,0,0,0,1.694-.688,1.73,1.73,0,0,0,.318-1.051,1.4,1.4,0,0,0-.927-1.413,3.555,3.555,0,0,0-1.305-.2h-2.562v3.355Zm-.434-4.4a2.907,2.907,0,0,0,1.271-.227,1.307,1.307,0,0,0,.714-1.285,1.235,1.235,0,0,0-.76-1.257,3.415,3.415,0,0,0-1.271-.183h-2.3v2.952Z" transform="translate(55.182 -210.994)" fill-rule="evenodd"/>
    <path id="Path_3731" data-name="Path 3731" d="M187.758,295.207h1.187v1.323h-1.187Zm0,2.613h1.187v6.917h-1.187Z" transform="translate(32.583 -210.994)" fill-rule="evenodd"/>
    <path id="Path_3732" data-name="Path 3732" d="M199.145,303.887h1.11v1.2a2.6,2.6,0,0,1,.667-.848,1.722,1.722,0,0,1,1.227-.507c.021,0,.058,0,.11.007s.14.013.266.025V305c-.07-.012-.135-.02-.2-.025s-.12-.008-.188-.008a1.661,1.661,0,0,0-1.356.573,1.962,1.962,0,0,0-.474,1.3v4h-1.168v-6.948" transform="translate(24.438 -217.092)"/>
    <path id="Path_3733" data-name="Path 3733" d="M215.478,295.207h1.188v1.323h-1.188Zm0,2.613h1.188v6.917h-1.188Z" transform="translate(12.755 -210.994)" fill-rule="evenodd"/>
    <path id="Path_3734" data-name="Path 3734" d="M226.658,295.207h1.122v5.535l3-2.952h1.493l-2.661,2.6,2.809,4.347h-1.492l-2.166-3.5-.981.9v2.608h-1.122v-9.53" transform="translate(4.759 -210.994)"/>
    <path id="Path_3735" data-name="Path 3735" d="M250.991,295.207h1.187v1.323h-1.187Zm0,2.613h1.187v6.917h-1.187Z" transform="translate(-12.646 -210.994)" fill-rule="evenodd"/>
    <path id="Path_3736" data-name="Path 3736" d="M262.265,303.887h1.154v.986a3.873,3.873,0,0,1,.753-.745,2.249,2.249,0,0,1,1.31-.4,2.063,2.063,0,0,1,1.338.41,2.119,2.119,0,0,1,.518.687,2.511,2.511,0,0,1,.915-.825,2.538,2.538,0,0,1,1.181-.271,1.932,1.932,0,0,1,1.907,1.011,3.3,3.3,0,0,1,.274,1.466v4.627H270.4v-4.826a1.117,1.117,0,0,0-.351-.953,1.356,1.356,0,0,0-.844-.26,1.7,1.7,0,0,0-1.187.46,2.034,2.034,0,0,0-.493,1.538v4.042h-1.186V306.3a2.358,2.358,0,0,0-.169-1.033,1.03,1.03,0,0,0-.993-.486,1.727,1.727,0,0,0-1.207.512,2.535,2.535,0,0,0-.538,1.858v3.684h-1.167v-6.948" transform="translate(-20.711 -217.092)"/>
    <path id="Path_3737" data-name="Path 3737" d="M316.372,301.058a2.592,2.592,0,0,0,.384,1.316,2.535,2.535,0,0,0,2.264.949,4.06,4.06,0,0,0,1.323-.208,1.472,1.472,0,0,0,1.155-1.441,1.247,1.247,0,0,0-.486-1.11,4.907,4.907,0,0,0-1.545-.562l-1.29-.293a5.861,5.861,0,0,1-1.792-.63,2,2,0,0,1-.908-1.785,2.746,2.746,0,0,1,.889-2.106,3.563,3.563,0,0,1,2.518-.825,4.347,4.347,0,0,1,2.543.725,2.6,2.6,0,0,1,1.051,2.311h-1.214a2.362,2.362,0,0,0-.415-1.174,2.412,2.412,0,0,0-2-.745,2.328,2.328,0,0,0-1.641.478,1.512,1.512,0,0,0-.5,1.117,1.084,1.084,0,0,0,.585,1.025,8.537,8.537,0,0,0,1.731.52l1.336.3a4.1,4.1,0,0,1,1.493.6,2.259,2.259,0,0,1,.908,1.941,2.42,2.42,0,0,1-1.153,2.263,5.141,5.141,0,0,1-2.675.681,4.006,4.006,0,0,1-2.783-.908,3.065,3.065,0,0,1-.985-2.446h1.212" transform="translate(-58.546 -210.391)"/>
    <path id="Path_3738" data-name="Path 3738" d="M347.939,295.207h1.188v1.323h-1.188Zm0,2.613h1.188v6.917h-1.188Z" transform="translate(-81.992 -210.994)" fill-rule="evenodd"/>
    <path id="Path_3739" data-name="Path 3739" d="M358.833,308.588a1.686,1.686,0,0,0,.292.895,1.828,1.828,0,0,0,1.53.565,2.273,2.273,0,0,0,1.142-.28.942.942,0,0,0,.494-.875.746.746,0,0,0-.4-.681,4.8,4.8,0,0,0-1-.331l-.928-.234a4.534,4.534,0,0,1-1.311-.494,1.47,1.47,0,0,1-.753-1.31,2,2,0,0,1,.708-1.6,2.846,2.846,0,0,1,1.914-.609,2.651,2.651,0,0,1,2.263.921,2,2,0,0,1,.422,1.26h-1.1a1.366,1.366,0,0,0-.278-.722,1.782,1.782,0,0,0-1.4-.461,1.689,1.689,0,0,0-1.005.253.791.791,0,0,0-.336.669.822.822,0,0,0,.447.726,2.692,2.692,0,0,0,.766.286l.772.189a5.948,5.948,0,0,1,1.686.589,1.564,1.564,0,0,1,.682,1.407,2.144,2.144,0,0,1-.708,1.6,2.981,2.981,0,0,1-2.14.676,2.894,2.894,0,0,1-2.2-.7,2.684,2.684,0,0,1-.687-1.745h1.122" transform="translate(-88.982 -217.025)"/>
    <path id="Path_3740" data-name="Path 3740" d="M381.91,297.463h1.183V299.4H384.2v.954h-1.109v4.535a.49.49,0,0,0,.245.486,1.058,1.058,0,0,0,.453.071h.182c.066,0,.142-.01.229-.018v.921a2.906,2.906,0,0,1-.421.085,3.9,3.9,0,0,1-.466.025,1.271,1.271,0,0,1-1.111-.417,1.867,1.867,0,0,1-.293-1.089v-4.6h-.939V299.4h.939v-1.939" transform="translate(-105.619 -212.607)"/>
    <path id="Path_3741" data-name="Path 3741" d="M401.1,306.806a3,3,0,0,0-.329-1.213,1.7,1.7,0,0,0-1.6-.844,1.763,1.763,0,0,0-1.349.584,2.172,2.172,0,0,0-.577,1.473H401.1m-.427-2.726a2.607,2.607,0,0,1,1.058.9,3.094,3.094,0,0,1,.468,1.227,8.154,8.154,0,0,1,.1,1.529H397.21a2.98,2.98,0,0,0,.5,1.7,1.676,1.676,0,0,0,1.448.634,1.872,1.872,0,0,0,1.459-.6,2.064,2.064,0,0,0,.441-.812H402.2a2.385,2.385,0,0,1-.3.856,2.935,2.935,0,0,1-.57.765,2.723,2.723,0,0,1-1.317.7,4.127,4.127,0,0,1-.955.1,2.925,2.925,0,0,1-2.2-.943,3.683,3.683,0,0,1-.9-2.646,4,4,0,0,1,.908-2.718,3,3,0,0,1,2.375-1.044A3.16,3.16,0,0,1,400.674,304.08Z" transform="translate(-116.34 -217.092)" fill-rule="evenodd"/>
    <path id="Path_3742" data-name="Path 3742" d="M424.181,303.887h1.154v.986a3.835,3.835,0,0,1,.754-.745,2.245,2.245,0,0,1,1.309-.4,2.057,2.057,0,0,1,1.337.41,2.112,2.112,0,0,1,.519.687,2.51,2.51,0,0,1,.915-.825,2.539,2.539,0,0,1,1.181-.271,1.934,1.934,0,0,1,1.907,1.011,3.317,3.317,0,0,1,.273,1.466v4.627h-1.213v-4.826a1.114,1.114,0,0,0-.35-.953,1.355,1.355,0,0,0-.844-.26,1.693,1.693,0,0,0-1.186.46,2.031,2.031,0,0,0-.494,1.538v4.042h-1.187V306.3a2.362,2.362,0,0,0-.169-1.033,1.031,1.031,0,0,0-.993-.486,1.725,1.725,0,0,0-1.207.512,2.531,2.531,0,0,0-.538,1.858v3.684h-1.167v-6.948" transform="translate(-136.527 -217.092)"/>
    <rect id="Rectangle_2162" data-name="Rectangle 2162" width="1.168" height="9.531" transform="translate(299.012 84.211)"/>
    <path id="Path_3743" data-name="Path 3743" d="M479.011,306.806a3.01,3.01,0,0,0-.331-1.213,1.7,1.7,0,0,0-1.6-.844,1.767,1.767,0,0,0-1.349.584,2.17,2.17,0,0,0-.577,1.473h3.86m-.429-2.726a2.612,2.612,0,0,1,1.056.9,3.081,3.081,0,0,1,.467,1.227,7.933,7.933,0,0,1,.1,1.529h-5.092a3,3,0,0,0,.5,1.7,1.674,1.674,0,0,0,1.446.634,1.873,1.873,0,0,0,1.461-.6,2.059,2.059,0,0,0,.442-.812h1.147a2.371,2.371,0,0,1-.306.856,2.935,2.935,0,0,1-.57.765,2.722,2.722,0,0,1-1.317.7,4.118,4.118,0,0,1-.954.1,2.927,2.927,0,0,1-2.2-.943,3.679,3.679,0,0,1-.9-2.646,3.992,3.992,0,0,1,.908-2.718,3,3,0,0,1,2.374-1.044A3.167,3.167,0,0,1,478.582,304.08Z" transform="translate(-172.065 -217.092)" fill-rule="evenodd"/>
    <path id="Path_3744" data-name="Path 3744" d="M502.206,303.887h1.108v1.2a2.631,2.631,0,0,1,.668-.848,1.723,1.723,0,0,1,1.227-.507c.021,0,.058,0,.11.007s.14.013.267.025V305c-.07-.012-.135-.02-.2-.025s-.118-.008-.188-.008a1.664,1.664,0,0,0-1.356.573,1.974,1.974,0,0,0-.474,1.3v4h-1.166v-6.948" transform="translate(-192.337 -217.092)"/>
    <path id="Path_3745" data-name="Path 3745" d="M518.538,295.207h1.187v1.323h-1.187Zm0,2.613h1.187v6.917h-1.187Z" transform="translate(-204.02 -210.994)" fill-rule="evenodd"/>
    <rect id="Rectangle_2163" data-name="Rectangle 2163" width="19.798" height="38.207" transform="translate(229.389 39)" fill="#d5027f"/>
    <path id="Path_3746" data-name="Path 3746" d="M296.4,136.411h10.3a9.734,9.734,0,0,1,9.387,9.961,10.211,10.211,0,0,1-6.271,9.142,10.213,10.213,0,0,1,6.271,9.142,9.734,9.734,0,0,1-9.387,9.961H296.4V136.411" transform="translate(-45.127 -97.41)" fill="#d5027f"/>
    <path id="Path_3747" data-name="Path 3747" d="M423.465,159.416a9.035,9.035,0,0,1-12.774,12.776l-20.449-20.451a9.034,9.034,0,0,1,12.775-12.775l20.449,20.45" transform="translate(-110.422 -97.41)" fill="#d5027f"/>
    <path id="Path_3748" data-name="Path 3748" d="M465.679,159.182,443.091,136.6h22.588v22.586" transform="translate(-150.053 -97.543)" fill="#d5027f"/>
    <path id="Path_3749" data-name="Path 3749" d="M387.505,191.455l22.588,22.588H387.505V191.455" transform="translate(-110.293 -136.783)" fill="#d5027f"/>
    <rect id="Rectangle_2164" data-name="Rectangle 2164" width="19.798" height="38.207" transform="translate(181.012 39)" fill="#d5027f"/>
    <path id="Path_3750" data-name="Path 3750" d="M126.487,136.411h10.3a9.735,9.735,0,0,1,9.388,9.961,10.213,10.213,0,0,1-6.273,9.142,10.215,10.215,0,0,1,6.273,9.142,9.735,9.735,0,0,1-9.388,9.961h-10.3V136.411" transform="translate(76.409 -97.41)" fill="#d5027f"/>
  </g>
</svg>
