<?xml version="1.0" encoding="utf-8"?>
<!-- Generator: Adobe Illustrator 28.2.0, SVG Export Plug-In . SVG Version: 6.00 Build 0)  -->
<svg version="1.1" id="Layer_1" xmlns="http://www.w3.org/2000/svg" xmlns:xlink="http://www.w3.org/1999/xlink" x="0px" y="0px"
	 viewBox="0 0 323 55" style="enable-background:new 0 0 323 55;" xml:space="preserve">
<style type="text/css">
	.st0{fill:#414B59;}
	.st1{fill:#1C97C3;}
	.st2{fill:#2462AA;}
	.st3{fill:#095AA5;}
	.st4{fill:#0767A3;}
	.st5{fill:#169CAB;}
</style>
<path class="st0" d="M60.3,18.8h8c4,0,6.8,2,6.8,5.6c0.1,1.9-0.9,3.8-2.7,4.7v0.1c2.2,0.7,3.7,2.8,3.5,5.1c0,4.4-3.5,6.4-7.6,6.4
	h-8.1L60.3,18.8z M68.4,27.8c1.4,0,2.6-1.1,2.7-2.5c0-0.1,0-0.2,0-0.3c0.1-1.4-0.9-2.6-2.3-2.7c-0.1,0-0.3,0-0.5,0h-3.9v5.6
	L68.4,27.8z M68.8,37.4c1.7,0.1,3-1.2,3.1-2.9c0-0.1,0-0.2,0-0.3c0.1-1.7-1.2-3.1-2.8-3.2c-0.1,0-0.2,0-0.3,0h-4.4v6.4H68.8z"/>
<rect x="78.3" y="24.9" transform="matrix(1 -2.967029e-03 2.967029e-03 1 -9.696589e-02 0.2382)" class="st0" width="3.9" height="15.8"/>
<rect x="85.5" y="18.7" transform="matrix(1 -2.967029e-03 2.967029e-03 1 -8.773652e-02 0.2596)" class="st0" width="3.9" height="22"/>
<path class="st0" d="M107.4,24.7l0.1,15c0,5.4-4.2,7.5-8.3,7.5c-1.9,0-3.9-0.5-5.6-1.3l1.2-3.1c1.4,0.7,2.9,1,4.4,1
	c2.4,0,4.5-1,4.4-3.9v-0.7c0-0.4,0-0.8,0-0.8h-0.1c-1,1.4-2.7,2.2-4.4,2.1c-4.5,0-7.1-3.6-7.1-8s2.4-7.9,7-7.9
	c3.7,0,4.9,2.2,4.9,2.2h0.1c0,0,0-1.8,0-2L107.4,24.7z M103.6,32.4c0-3.6-1.8-4.6-3.9-4.6c-2.4,0-3.7,1.8-3.7,4.4s1.4,4.8,4,4.8
	C101.9,37,103.7,35.9,103.6,32.4"/>
<path class="st0" d="M117.8,24.4c4.5,0,7,3.3,7,7.5c0,0.5-0.1,1.5-0.1,1.5h-10.9c0.2,2.5,2.3,4.4,4.8,4.2c1.6-0.1,3.2-0.7,4.4-1.8
	l1.7,2.7c-1.7,1.5-4,2.4-6.3,2.4c-4.5,0.2-8.3-3.2-8.5-7.7c0-0.2,0-0.4,0-0.6C109.8,27.9,113.1,24.5,117.8,24.4 M120.8,30.7
	c0.1-1.7-1.3-3.1-3-3.2l0,0c-1.9-0.1-3.6,1.3-3.9,3.2H120.8z"/>
<path class="st0" d="M142.1,40.5l-2.1-5.6h-7.4l-1.9,5.7h-4.6l8.1-22h4.2l8,22L142.1,40.5z M139.1,31.5l-2.8-8.5h-0.1l-2.7,8.5
	H139.1z"/>
<path class="st0" d="M158.6,40.5c0-0.3,0-1.7,0-1.7h-0.1c0,0-1.3,2-4.9,2c-4.3,0-7-3.4-7.1-8.2s3-8.3,7.2-8.3c3.4,0,4.6,1.7,4.6,1.7
	v-7.6h3.9l0.1,22L158.6,40.5z M158.4,32.6c0-2.5-1.3-4.9-3.9-4.9c-2.2,0-4,1.8-3.9,4.9s1.6,5,3.9,4.9
	C156.5,37.6,158.5,36.1,158.4,32.6"/>
<path class="st0" d="M201.8,40.4v-9.2c0-1.8-0.6-3.3-2.6-3.3c-2.8,0-3.6,2.4-3.6,4.3c0,0.7,0,8.1,0,8.1h-3.9v-9.6c0-1.7-0.6-3-2.7-3
	c-2.2,0-3.5,1.6-3.5,3.9v1.8v6.9h-3.9V24.8h3.7c0,0.3,0,1.5,0,1.5c1.3-1.5,3.2-2.3,5.2-2.2c2-0.2,3.9,1.1,4.5,3
	c1.1-2.1,3-2.9,5.6-2.9c2.3,0,5.2,1.9,5.2,6.1v9.9L201.8,40.4z"/>
<path class="st0" d="M82.8,20.5c0,1.4-1.1,2.5-2.6,2.5c-1.4,0-2.5-1.1-2.5-2.5s1.1-2.5,2.5-2.5C81.6,18,82.8,19.1,82.8,20.5"/>
<path class="st0" d="M178.5,40.4v-9.9c0-3.5-1.6-6.3-6.8-6.3c-2,0.1-4,0.7-5.7,1.9l1.7,2.7c1.1-0.9,2.5-1.4,4-1.5
	c2,0,2.9,0.6,2.9,2.8v0.1H174c-2.6,0-9.4,0.7-9.4,5.7c0,3.2,2.6,4.9,5.4,4.9c3.6,0,4.8-2.1,4.8-2.1v1.8L178.5,40.4z M174.6,34
	c0.1,2-1.4,3.6-3.3,3.8c-0.1,0-0.2,0-0.3,0c-1.2,0.2-2.2-0.7-2.4-1.8c0-0.1,0-0.1,0-0.2c0-2.2,3.2-2.8,5.3-2.8h0.7V34z"/>
<polygon class="st1" points="215.8,21.4 209.3,21.4 209.3,19.1 225.3,19.1 225.3,21.4 218.7,21.4 218.7,40.7 215.8,40.7 "/>
<path class="st1" d="M225.3,33.4c0.1,3.8,2.5,5.4,5.3,5.4c1.5,0,2.9-0.2,4.3-0.8l0.5,2c-1.6,0.7-3.4,1-5.2,1c-4.8,0-7.6-3.1-7.6-7.8
	s2.8-8.4,7.3-8.4c5.1,0,6.4,4.5,6.4,7.3c0,0.4,0,0.9-0.1,1.3L225.3,33.4z M233.6,31.4c0-1.8-0.7-4.6-3.9-4.6c-2.9,0-4.1,2.6-4.3,4.6
	H233.6z"/>
<path class="st1" d="M241,32.3L241,32.3c0.4-0.5,0.9-1.2,1.4-1.8l4.6-5.4h3.4l-6,6.4l6.8,9.1h-3.4l-5.4-7.4l-1.5,1.6v5.8h-2.8V17.9
	h2.8L241,32.3L241,32.3z"/>
<path class="st1" d="M252.2,29.4c0-1.6,0-2.9-0.1-4.2h2.5l0.2,2.6h0.1c1-1.9,3-3,5.1-2.9c2.1,0,5.5,1.3,5.5,6.6v9.3h-2.8v-9
	c0-2.5-0.9-4.6-3.6-4.6c-2.3,0.1-4,1.9-4,4.2v9.4h-2.8L252.2,29.4z"/>
<path class="st1" d="M282.5,32.8c0,5.7-4,8.2-7.7,8.2c-4.2,0-7.5-3.1-7.5-8c0-5.2,3.4-8.3,7.7-8.3C279.4,24.8,282.5,28.1,282.5,32.8
	 M270.1,33c0,3.4,2,6,4.7,6s4.7-2.5,4.7-6c0-2.6-1.3-6-4.7-6S270.1,30.1,270.1,33"/>
<rect x="284.4" y="17.9" class="st1" width="2.8" height="22.8"/>
<path class="st1" d="M304.5,32.8c0,5.7-4,8.2-7.7,8.2c-4.2,0-7.5-3.1-7.5-8c0-5.2,3.4-8.3,7.7-8.3C301.4,24.8,304.5,28.1,304.5,32.8
	 M292.1,33c0,3.4,2,6,4.7,6s4.7-2.5,4.7-6c0-2.6-1.3-6-4.7-6S292.1,30.1,292.1,33"/>
<path class="st1" d="M302.6,45.2c1.1,0,2.2-0.4,3.1-1.2c0.8-0.9,1.1-2.1,1.1-5.8v-13h2.8v14.1c0,3-0.5,5-1.9,6.4
	c-1.3,1.2-3,1.8-4.8,1.8L302.6,45.2z M309.9,20.8c0,0.9-0.7,1.7-1.6,1.7c-0.1,0-0.1,0-0.2,0c-0.9,0-1.7-0.7-1.7-1.6v-0.1
	c0-0.9,0.7-1.8,1.6-1.8c0.1,0,0.1,0,0.2,0c0.9,0,1.7,0.7,1.7,1.6C309.9,20.7,309.9,20.7,309.9,20.8"/>
<path class="st1" d="M315.8,20.8c0,1-0.8,1.8-1.8,1.8s-1.8-0.8-1.8-1.8c0-0.9,0.7-1.8,1.6-1.8h0.1c0.9,0,1.7,0.7,1.7,1.6
	C315.7,20.7,315.7,20.7,315.8,20.8 M312.6,25.1h2.8v15.6h-2.8V25.1z"/>
<path class="st0" d="M27.5,52.9c-14,0-25.3-11.3-25.3-25.3c0-13.9,11.3-25.3,25.3-25.3l0,0c14,0,25.3,11.3,25.3,25.3
	S41.5,52.9,27.5,52.9 M27.5,6.1c-11.9,0-21.6,9.6-21.6,21.5s9.6,21.6,21.5,21.6S49,39.6,49,27.7c0-5.7-2.3-11.2-6.3-15.3
	S33.2,6.1,27.5,6.1"/>
<path class="st0" d="M27.5,31.1c-2.1,0-3.8-1.7-3.8-3.8s1.7-3.8,3.8-3.8s3.8,1.7,3.8,3.8l0,0C31.3,29.5,29.6,31.1,27.5,31.1
	C27.5,31.2,27.5,31.1,27.5,31.1"/>
<path class="st2" d="M37.7,36.9c-2.1,0-3.8-1.7-3.8-3.8s1.7-3.8,3.8-3.8c1.7,0,3.2,1.1,3.6,2.8c0.5,2-0.7,4.1-2.7,4.6
	C38.3,36.9,38,36.9,37.7,36.9"/>
<path class="st1" d="M37.9,25.1c-1.3,0-2.6-0.7-3.2-1.9c-1-1.8-0.5-4.1,1.3-5.1c1.8-1.1,4.1-0.5,5.1,1.3s0.5,4.1-1.3,5.1
	C39.2,25,38.6,25.1,37.9,25.1"/>
<path class="st3" d="M27.5,19.1c-2.1,0-3.8-1.7-3.8-3.8s1.7-3.8,3.8-3.8s3.8,1.7,3.8,3.8S29.6,19.1,27.5,19.1L27.5,19.1z"/>
<path class="st4" d="M17.1,25.1c-2.1,0-3.8-1.7-3.8-3.8s1.7-3.8,3.8-3.8c1.7,0,3.2,1.1,3.6,2.8c0.3,1,0.1,2-0.4,2.9
	C19.7,24.4,18.4,25.1,17.1,25.1"/>
<path class="st5" d="M17.1,37.1c-2.1,0-3.8-1.7-3.8-3.7c0-1.3,0.7-2.6,1.9-3.3c0.6-0.3,1.2-0.5,1.9-0.5c1.3,0,2.6,0.7,3.3,1.9
	c1,1.8,0.4,4.1-1.4,5.1C18.5,37,17.8,37.1,17.1,37.1"/>
<path class="st0" d="M24.2,50.7V38c0.1-1.8,1.7-3.3,3.5-3.2c1.7,0.1,3.1,1.5,3.2,3.2v12.7"/>
</svg>
