<?xml version="1.0" encoding="UTF-8"?> <!-- Generator: Adobe Illustrator 23.0.2, SVG Export Plug-In . SVG Version: 6.00 Build 0) --> <svg xmlns="http://www.w3.org/2000/svg" xmlns:xlink="http://www.w3.org/1999/xlink" version="1.1" id="Layer_1" x="0px" y="0px" viewBox="0 0 492 110" style="enable-background:new 0 0 492 110;" xml:space="preserve"> <style type="text/css"> .st0{fill:#4D4E4F;} .st1{fill:#58595B;} .st2{fill:#00ADEE;} </style> <g> <path class="st0" d="M295.1,17.4c-2.3,0-4.2,1.9-4.2,4.2v4c0,2.3,1.9,4.2,4.2,4.2c2.3,0,4.2-1.9,4.2-4.2v-4 C299.3,19.3,297.4,17.4,295.1,17.4"></path> <path class="st0" d="M230.2,17.3c-2.3,0-4.2,1.9-4.2,4.2v4c0,2.3,1.9,4.2,4.2,4.2c2.3,0,4.2-1.9,4.2-4.2v-4 C234.4,19.2,232.5,17.3,230.2,17.3"></path> <path class="st0" d="M230.2,37.4c-2.3,0-4.2,2-4.2,4.5v56.6c0,2.5,1.9,4.5,4.2,4.5c2.3,0,4.2-2,4.2-4.5V42 C234.5,39.5,232.6,37.4,230.2,37.4"></path> <path class="st0" d="M262.7,5.4c-2.3,0-4.2,1.9-4.2,4.3v89.2c0,2.4,1.9,4.3,4.2,4.3c2.3,0,4.2-1.9,4.2-4.3V9.7 C266.9,7.3,265.1,5.4,262.7,5.4"></path> <path class="st0" d="M295.1,37.4c-2.3,0-4.2,2-4.2,4.5v56.6c0,2.5,1.9,4.5,4.2,4.5c2.3,0,4.2-2,4.2-4.5V42 C299.3,39.5,297.4,37.4,295.1,37.4"></path> <path class="st0" d="M486,70.1c-0.1-18-14.8-32.7-32.8-32.7c-18.1,0-32.8,14.7-32.8,32.8c0,18.1,14.7,32.8,32.8,32.8 c9.1,0,17.9-3.9,24.1-10.6l0.3-0.3v6.6c0,2.3,1.9,4.2,4.2,4.2c2.3,0,4.2-1.9,4.2-4.2L486,70.1z M453.2,94.5 c-13.4,0-24.4-10.9-24.4-24.4c0-13.4,10.9-24.4,24.4-24.4c13.4,0,24.4,10.9,24.4,24.4C477.6,83.6,466.6,94.5,453.2,94.5"></path> <path class="st0" d="M357.8,92.5c-3,1.3-6.3,2-9.6,2h-0.1c-12.7-0.1-23.5-10.5-24.2-23.2c-0.3-6.7,2.1-13.1,6.7-18 c4.6-4.9,10.9-7.6,17.6-7.6c3.3,0,6.5,0.7,9.5,1.9c2,0.8,4.2,0.2,5.3-1.6c0.7-1,0.8-2.3,0.4-3.5c-0.4-1.1-1.2-2-2.2-2.5 c-5.1-2.2-10.8-3.1-16.5-2.5c-15.1,1.6-27.4,13.8-29,28.9c-1,9.5,1.8,18.6,8.2,25.6c6.2,6.9,15.1,10.9,24.5,10.9 c4.5,0,8.8-0.9,12.8-2.6c1.2-0.5,2-1.5,2.4-2.7c0.4-1.2,0.2-2.5-0.4-3.6C361.9,92.5,359.7,91.7,357.8,92.5"></path> <path class="st0" d="M413.2,37.4c-9.1,0-17.9,3.9-24.1,10.6l-0.3,0.3v-6.6c0-2.3-1.9-4.2-4.2-4.2c-2.3,0-4.2,1.9-4.2,4.2v57.2 c0,2.3,1.9,4.2,4.2,4.2c2.3,0,4.2-1.9,4.2-4.2V70.4c0-12.9,10.1-23.6,23-24.3l1.4-0.1c2.4,0,4.3-1.9,4.3-4.3 C417.4,39.4,415.5,37.4,413.2,37.4"></path> <path class="st0" d="M177.6,37.6c-9.6,0-18.2,4.1-24.2,10.7V9.8h0c0-2.4-1.9-4.3-4.3-4.3c-2.4,0-4.3,1.9-4.3,4.3h0v0v0v60.5 c0,18.1,14.7,32.8,32.8,32.8s32.8-14.7,32.8-32.8C210.4,52.2,195.7,37.6,177.6,37.6 M177.7,94.7c-13.4,0-24.3-10.9-24.3-24.3 c0-13.4,10.9-24.3,24.3-24.3S202,57,202,70.4C202,83.8,191.1,94.7,177.7,94.7"></path> <polyline class="st1" points="10.4,72.6 22.2,65.2 22.7,64.9 23.2,64.6 23.8,64.4 24.4,64.3 25,64.2 25.5,64.1 26.1,64.1 26.7,64.1 27.3,64.2 27.9,64.4 28.4,64.6 29,64.8 29.5,65.1 30,65.4 30.4,65.8 30.9,66.2 31.3,66.6 31.6,67.1 32,67.6 32.2,68.1 32.4,68.7 32.6,69.3 32.7,69.8 32.8,70.4 32.9,71 32.8,71.6 32.8,72.2 32.7,72.7 32.5,73.3 32.3,73.9 32,74.4 31.7,74.9 31.4,75.4 31,75.8 30.5,76.2 30.1,76.6 29.6,77 17.8,84.4 17.8,84.4 17.2,84.7 16.7,84.9 16.2,85.1 15.6,85.3 15,85.4 14.4,85.4 13.8,85.4 13.2,85.4 12.6,85.3 12.1,85.2 11.5,85 11,84.7 10.5,84.5 10,84.1 9.5,83.8 9.1,83.4 8.7,82.9 8.3,82.4 8,81.9 7.7,81.4 7.5,80.9 7.3,80.3 7.2,79.7 7.1,79.1 7.1,78.5 7.1,78 7.2,77.4 7.3,76.8 7.5,76.2 7.7,75.7 7.9,75.1 8.3,74.6 8.6,74.2 9,73.7 9.4,73.3 9.9,72.9 10.4,72.6 "></polyline> <polyline class="st2" points="70.9,51.1 71.8,50.5 72.7,50.1 73.6,49.6 74.5,49.3 75.5,48.9 76.5,48.6 77.4,48.4 78.4,48.2 79.4,48 80.4,47.9 81.4,47.9 82.5,47.9 83.5,47.9 84.5,48 85.5,48.2 86.5,48.4 87.5,48.6 88.5,48.9 89.4,49.2 90.3,49.6 91.3,50.1 92.2,50.5 93,51 93.9,51.6 94.7,52.2 95.5,52.8 96.2,53.5 97,54.2 97.7,55 98.3,55.8 98.9,56.5 99.5,57.4 100,58.2 100.5,59.1 101,60.1 101.4,61 101.7,61.9 102,62.9 102.3,63.9 102.5,64.9 102.7,65.9 102.8,66.9 102.9,67.9 102.9,68.9 102.9,69.9 102.8,70.9 102.6,71.9 102.5,72.9 102.2,73.9 102,74.9 101.6,75.9 101.3,76.8 100.9,77.7 100.4,78.6 99.9,79.5 99.4,80.4 98.8,81.2 98.2,82 97.5,82.8 96.8,83.5 96.1,84.2 95.3,84.9 94.5,85.5 93.6,86.1 92.8,86.6 91.9,87.1 91,87.6 90.1,88 89.1,88.4 88.2,88.7 87.2,89 86.2,89.2 85.2,89.4 84.2,89.5 83.2,89.6 82.2,89.7 81.2,89.6 80.2,89.6 79.2,89.5 78.2,89.3 77.2,89.1 76.2,88.8 75.2,88.5 74.3,88.2 73.3,87.8 72.4,87.3 71.5,86.8 70.7,86.3 69.8,85.8 69,85.1 68.2,84.5 67.5,83.8 66.8,83.1 66.1,82.3 65.5,81.5 64.9,80.7 64.3,79.9 19.9,9 19.5,8.6 19.2,8.1 18.8,7.7 18.3,7.3 17.8,7 17.3,6.6 16.8,6.4 16.2,6.2 15.7,6 15.1,5.9 14.5,5.8 13.9,5.8 13.3,5.8 12.7,5.9 12.2,6 11.6,6.2 11.1,6.4 10.5,6.7 10,7 9.6,7.4 9.1,7.8 8.7,8.2 8.4,8.7 8,9.1 7.7,9.7 7.5,10.2 7.3,10.8 7.2,11.3 7.1,11.9 7,12.5 7,13.1 7.1,13.7 7.2,14.3 7.3,14.8 7.5,15.4 7.8,15.9 8.1,16.4 52.5,87.3 53.2,88.4 54,89.4 54.8,90.5 55.6,91.5 56.5,92.4 57.4,93.4 58.3,94.3 59.3,95.1 60.3,96 61.3,96.8 62.4,97.5 63.5,98.2 64.6,98.9 65.7,99.5 66.9,100.1 68,100.7 69.3,101.2 70.5,101.6 71.7,102 73,102.4 74.2,102.7 75.5,103 76.8,103.2 78.1,103.4 79.4,103.5 80.7,103.6 82,103.6 83.3,103.6 84.6,103.5 85.9,103.4 87.2,103.2 88.5,103 89.7,102.7 91,102.4 92.2,102 93.5,101.6 94.7,101.2 95.9,100.7 97.1,100.2 98.2,99.6 99.4,98.9 100.5,98.3 101.5,97.6 102.4,97 103.3,96.2 104.2,95.5 105.1,94.7 105.9,93.9 106.7,93 107.4,92.1 108.2,91.2 108.8,90.2 109.4,89.2 110,88.2 110.6,87.2 111.1,86.1 111.6,85.1 112,84 112.3,82.9 112.6,81.8 112.9,80.6 113.1,79.5 113.3,78.3 113.4,77.2 113.5,76 113.5,74.8 113.5,73.7 113.5,72.5 113.4,71.3 113.2,70.2 113,69 112.7,67.9 112.4,66.8 112,65.6 111.6,64.5 111.2,63.5 110.7,62.4 110.2,61.4 109.6,60.4 109,59.4 108.3,58.4 107.6,57.5 106.9,56.6 106.1,55.7 105.3,54.9 104.4,54.1 103.6,53.3 102.7,52.6 101.7,51.9 100.7,51.2 99.7,50.6 98.7,50 97.7,49.5 96.6,49 95.5,48.6 94.4,48.2 93.3,47.9 92.2,47.6 91.1,47.3 89.9,47.1 88.7,47 87.6,46.9 86.4,46.8 85.3,46.8 84.1,46.9 82.9,46.9 81.8,47.1 80.6,47.3 79.5,47.5 78.3,47.8 77.2,48.1 76.1,48.5 75,48.9 74,49.4 72.9,49.9 71.9,50.5 70.9,51.1 "></polyline> <polygon class="st1" points="63.5,39.3 57.6,43 57.1,43.3 56.6,43.7 56.2,44.1 55.8,44.5 55.5,45 55.2,45.5 54.9,46 54.7,46.6 54.5,47.2 54.4,47.7 54.4,48.3 54.3,48.9 54.4,49.5 54.4,50.1 54.6,50.7 54.7,51.2 55,51.8 55.2,52.3 55.5,52.8 55.9,53.3 56.3,53.7 56.7,54.1 57.2,54.5 57.7,54.8 58.2,55.1 58.8,55.3 59.3,55.5 59.9,55.7 60.5,55.8 61,55.8 61.6,55.8 62.2,55.7 62.8,55.7 63.4,55.5 63.9,55.3 64.5,55.1 65,54.8 70.9,51.1 71.9,50.5 72.9,49.9 74,49.4 75,48.9 76.1,48.5 77.2,48.1 78.3,47.8 79.5,47.5 80.6,47.3 81.8,47.1 82.9,46.9 84.1,46.9 85.3,46.8 86.4,46.8 87.6,46.9 88.7,47 89.9,47.1 91,47.3 92.2,47.6 93.3,47.9 94.4,48.2 95.5,48.6 96.6,49 97.7,49.5 98.7,50 99.7,50.6 100.7,51.2 101.7,51.9 102.7,52.6 103.6,53.3 104.4,54.1 105.3,54.9 106.1,55.7 106.9,56.6 107.6,57.5 108.3,58.4 109,59.4 109.6,60.4 110.2,61.4 110.7,62.4 111.2,63.5 111.6,64.5 112,65.6 112.4,66.8 112.7,67.9 113,69 113.2,70.2 113.4,71.3 113.5,72.5 113.5,73.7 113.5,74.8 113.5,76 113.4,77.2 113.3,78.3 113.1,79.5 112.9,80.6 112.6,81.8 112.3,82.9 112,84 111.6,85.1 111.1,86.1 110.6,87.2 110,88.2 109.4,89.2 108.8,90.2 108.2,91.2 107.4,92.1 106.7,93 105.9,93.8 105.1,94.7 104.2,95.5 103.3,96.2 102.4,97 101.5,97.6 100.5,98.3 101.6,97.6 102.7,96.8 103.7,96 104.7,95.2 105.7,94.3 106.6,93.4 107.5,92.5 108.4,91.5 109.2,90.5 110,89.5 110.8,88.4 111.5,87.3 112.1,86.2 112.8,85.1 113.4,83.9 113.9,82.7 114.4,81.5 114.9,80.3 115.3,79.1 115.6,77.8 115.9,76.6 116.2,75.3 116.4,74 116.6,72.7 116.7,71.4 116.8,70.1 116.8,68.8 116.8,67.5 116.7,66.2 116.6,64.9 116.4,63.6 116.2,62.3 115.9,61.1 115.6,59.8 115.3,58.5 114.9,57.3 114.4,56.1 113.9,54.9 113.4,53.7 112.8,52.5 112.2,51.4 111.5,50.3 110.8,49.2 110,48.1 109.2,47.1 108.4,46.1 107.5,45.1 106.6,44.2 105.7,43.3 104.7,42.4 103.7,41.6 102.7,40.8 101.6,40 100.5,39.3 99.4,38.6 98.3,38 97.1,37.4 96,36.9 94.7,36.4 93.5,35.9 92.3,35.5 91,35.1 89.8,34.8 88.5,34.6 87.2,34.3 85.9,34.2 84.6,34 83.3,34 82,33.9 80.7,34 79.4,34 78.1,34.2 76.8,34.3 75.5,34.6 74.3,34.8 73,35.1 71.8,35.5 70.5,35.9 69.3,36.3 68.1,36.8 66.9,37.4 65.8,38 64.6,38.6 "></polygon> </g> </svg> 