<svg width="36" height="31" viewBox="0 0 36 31" fill="none" xmlns="http://www.w3.org/2000/svg">
<g clip-path="url(#clip0_612_1257)">
<path d="M27.1401 0C30.1701 0.06 32.3401 0.96 33.8701 2.62C35.2901 4.19 35.9901 6.15 36.0001 8.63C36.0001 8.8 36.0001 9.02 35.9901 9.2C35.7201 11.85 34.7001 13.96 32.8301 15.7C30.9501 17.39 28.5601 18.32 25.4701 18.39C22.5101 18.32 20.3401 17.4 18.8401 15.75C17.4901 14.26 16.8301 12.48 16.8301 10.27C16.8301 9.98 16.8301 9.66 16.8701 9.31C17.0601 6.55 18.0801 4.38 19.9001 2.65C21.7201 0.96 24.1101 0.06 27.1401 0Z" fill="#FFC629"/>
<path d="M13.7696 5.88988C14.5696 5.89988 15.3296 5.95988 16.0496 6.05988C15.7196 7.04988 15.4896 8.10988 15.4196 9.21988C15.4196 9.56988 15.3796 9.94988 15.3796 10.2799C15.3796 12.7899 16.1896 14.9899 17.7696 16.7399C19.5896 18.7799 22.2196 19.7999 25.4496 19.8799C24.9196 22.6999 23.5696 25.0799 21.4596 27.0499C18.9596 29.3799 15.7096 30.5899 11.6396 30.6899C7.79962 30.5899 4.79962 29.3799 2.73962 27.0499C0.64962 24.7199 -0.26038 21.8299 0.0596198 18.3499C0.29962 14.7099 1.64962 11.7199 4.12962 9.44988C6.60962 7.12988 9.82962 5.93988 13.7696 5.87988" fill="#F68F34"/>
</g>
<defs>
<clipPath id="clip0_612_1257">
<rect width="36" height="30.67" fill="white"/>
</clipPath>
</defs>
</svg>
