<svg width="269" height="85" viewBox="0 0 269 85" fill="none" xmlns="http://www.w3.org/2000/svg">
<path fill-rule="evenodd" clip-rule="evenodd" d="M128.388 23.0383C129.469 23.9236 130.661 24.3674 131.965 24.3674C134.225 24.3674 135.605 23.2517 136.106 21.0227C136.206 20.5651 136.257 20.1342 136.257 19.7299C136.257 18.2609 135.743 17.0571 134.712 16.1176C133.684 15.1806 132.519 14.7125 131.213 14.7125C129.104 14.7125 127.7 15.829 126.997 18.058C126.846 18.5633 126.772 19.0726 126.772 19.5779C126.772 20.996 127.31 22.1497 128.388 23.0383Z" fill="#E2000F"/>
<path fill-rule="evenodd" clip-rule="evenodd" d="M168.586 23.0383C169.665 23.9236 170.856 24.3674 172.163 24.3674C174.42 24.3674 175.801 23.2517 176.301 21.0227C176.402 20.5651 176.452 20.1342 176.452 19.7299C176.452 18.2609 175.938 17.0571 174.911 16.1176C173.882 15.1806 172.714 14.7125 171.41 14.7125C169.301 14.7125 167.894 15.829 167.192 18.058C167.041 18.5633 166.966 19.0726 166.966 19.5779C166.966 20.996 167.507 22.1497 168.585 23.0383H168.586Z" fill="#E2000F"/>
<path fill-rule="evenodd" clip-rule="evenodd" d="M215.837 23.0383C216.916 23.9236 218.107 24.3674 219.41 24.3674C221.671 24.3674 223.051 23.2517 223.552 21.0227C223.653 20.5651 223.703 20.1342 223.703 19.7299C223.703 18.2609 223.189 17.0571 222.158 16.1176C221.13 15.1806 219.964 14.7125 218.659 14.7125C216.55 14.7125 215.146 15.829 214.443 18.058C214.292 18.5633 214.217 19.0726 214.217 19.5779C214.217 20.996 214.755 22.1497 215.837 23.0383Z" fill="#E2000F"/>
<path fill-rule="evenodd" clip-rule="evenodd" d="M268.982 39.8799C268.28 39.3713 264.817 42.3636 258.593 48.8501C255.782 51.7922 253.827 53.2612 252.722 53.2612C252.071 53.2612 251.742 52.9564 251.742 52.346C251.742 51.5836 253.549 48.7353 257.162 43.8035C260.625 39.0738 262.183 35.7162 261.831 33.7354C261.38 31.1903 259.748 29.8441 256.938 29.6921C254.879 29.5903 251.416 30.9574 246.548 33.7968C245.998 31.9721 245.192 30.8555 244.14 30.4513C242.884 29.9428 241.806 29.6921 240.902 29.6921C238.844 29.6921 236.335 30.706 233.373 32.732C233.575 32.023 233.675 31.5169 233.675 31.2121V29.9193H225.093C225.043 30.0729 224.955 30.313 224.828 30.6429C224.704 30.972 224.616 31.2396 224.566 31.4401C223.863 33.2139 222.91 34.9756 221.704 36.726C220.499 38.4731 219.319 40.1863 218.167 41.8582C217.81 42.4096 217.463 42.9449 217.125 43.4655C214.715 46.0616 213.468 47.4021 213.387 47.4837C211.029 49.8655 209.098 51.0564 207.591 51.0564C206.486 51.0564 205.935 50.4484 205.935 49.2309C205.935 48.0133 206.563 46.4456 207.816 44.671C209.925 41.6278 212.134 38.7407 214.442 36.0024C215.997 34.1267 216.851 32.9358 217.002 32.4305C217.503 31.0601 217.855 30.1748 218.057 29.7673H209.324C208.871 31.1886 208.582 31.9995 208.458 32.2001C208.333 32.4046 207.339 33.4419 205.485 35.3176C204.287 36.4972 203.113 37.8886 201.961 39.491C201.487 39.8346 200.65 40.6997 199.45 42.0862C196.339 45.6347 194.331 47.8912 193.427 48.8517C190.667 51.7938 188.658 53.2628 187.405 53.2628C186.702 53.2628 186.35 52.9095 186.35 52.1972C186.35 51.8956 187.153 50.6263 188.758 48.3973C190.365 46.1683 191.019 44.0881 190.717 42.1614C190.415 40.0844 188.534 39.0439 185.071 39.0439C183.966 39.0439 182.864 39.1458 181.759 39.3487C188.534 34.1784 193.302 31.8985 196.061 32.5065C196.413 32.5574 196.651 32.9746 196.775 33.7612C196.903 34.5455 197.115 34.9392 197.417 34.9392C197.968 34.9392 198.646 34.5083 199.45 33.6464C200.252 32.7846 200.578 32.0004 200.43 31.2889C200.179 30.0236 198.623 29.5927 195.761 29.9961C193.603 30.3009 191.12 31.4546 188.309 33.4573C185.498 35.4591 182.686 37.4738 179.875 39.5023C189.561 25.6642 194.656 17.7313 195.16 15.7037C195.207 15.55 195.207 15.3237 195.16 15.0189C195.059 14.6656 195.009 14.4376 195.009 14.3357L187.63 14.7157C187.529 15.1709 187.328 15.6794 187.028 16.2356C180.804 25.7661 175.007 34.4339 169.637 42.2399C168.442 44.1164 167.38 45.7519 166.453 47.1506C166.265 47.3511 166.16 47.4635 166.14 47.4853C163.779 49.8671 161.848 51.058 160.343 51.058C159.238 51.058 158.684 50.4501 158.684 49.2325C158.684 48.0149 159.313 46.4472 160.569 44.6726C162.675 41.6294 164.885 38.7423 167.193 36.004C168.75 34.1283 169.604 32.9374 169.753 32.4321C170.256 31.0617 170.605 30.1764 170.807 29.7689H162.074C161.624 31.1903 161.335 32.0012 161.208 32.2017C161.083 32.4062 160.092 33.4435 158.235 35.3192C157.193 36.3468 156.166 37.5353 155.158 38.8838C155.147 38.8588 155.133 38.8361 155.115 38.8175C154.762 38.6146 153.684 39.6042 151.877 41.7831C149.519 44.6734 147.813 46.5734 146.758 47.4861C144.699 49.2608 142.993 50.1461 141.64 50.1461C140.837 50.1461 140.434 49.7661 140.434 49.0061C140.434 48.1952 140.861 47.0544 141.713 45.5854C142.416 44.3678 144.576 41.8332 148.189 37.9824C151.299 34.7363 152.854 32.5817 152.854 31.5193C152.854 30.4028 151.474 29.8474 148.716 29.8474C148.263 29.8474 146.03 30.1999 142.016 30.9097C141.663 30.9606 141.438 30.5564 141.338 29.6945C141.237 28.8327 140.985 28.3751 140.586 28.3242C139.48 28.2247 137.674 29.4407 135.165 31.9745C132.505 34.5592 131.175 36.6896 131.175 38.3624C131.175 39.2234 131.628 39.8314 132.532 40.1871C132.582 40.2073 132.633 40.2259 132.683 40.2437C132.384 40.5461 132.046 40.9067 131.667 41.3271C127.953 45.3307 126.045 47.3827 125.944 47.4845C123.586 49.8663 121.652 51.0572 120.148 51.0572C119.042 51.0572 118.492 50.4492 118.492 49.2317C118.492 48.0141 119.12 46.4464 120.373 44.6718C122.482 41.6286 124.689 38.7415 126.998 36.0032C128.554 34.1275 129.408 32.9366 129.558 32.4313C130.058 31.0609 130.411 30.1756 130.612 29.7681H121.88C121.427 31.1894 121.139 32.0004 121.014 32.2009C120.889 32.4054 119.896 33.4427 118.039 35.3184C116.033 37.2968 114.088 39.8678 112.204 43.0362C110.323 46.2047 109.382 49.0045 109.382 51.4372C109.382 54.8838 110.965 56.6075 114.125 56.6075C117.941 56.6075 122.267 53.9476 127.111 48.6245C130.688 44.692 132.944 41.9795 133.88 40.4822C133.956 40.4862 134.033 40.4887 134.11 40.4887C135.416 40.4887 136.972 39.8031 138.779 38.4351C141.087 36.7624 142.416 35.8496 142.768 35.6976C143.47 35.3952 143.974 35.2432 144.274 35.2432C144.425 35.2432 144.499 35.3176 144.499 35.4704C144.499 35.8269 143.421 37.1189 141.264 39.3487C138.504 42.2391 136.519 44.4681 135.316 46.0398C133.157 48.8792 132.079 51.1591 132.079 52.8828C132.079 55.4166 133.258 56.6859 135.618 56.6859C137.372 56.6859 139.582 55.8111 142.242 54.0608C144.901 52.3136 147.787 49.5381 150.9 45.7382C150.968 45.6541 151.034 45.5716 151.101 45.4892C150.087 47.6705 149.578 49.6537 149.578 51.4388C149.578 54.8854 151.16 56.6091 154.321 56.6091C156.429 56.6091 158.694 55.795 161.115 54.1707C160.413 54.9331 159.716 55.6947 159.025 56.4571H168.434C168.484 56.2049 168.534 55.951 168.585 55.6972C168.937 54.8862 169.79 53.4681 171.145 51.4396C173.703 47.7408 175.512 45.2571 176.566 43.9886C178.574 41.6068 180.33 40.39 181.836 40.3391C183.491 40.2882 184.321 40.7967 184.321 41.8615C184.321 42.7233 183.767 44.0396 182.665 45.815C181.711 47.284 180.73 48.753 179.729 50.2253C179.377 50.7823 179.202 51.4162 179.202 52.1252C179.202 53.241 179.679 54.2419 180.633 55.1288C181.584 56.0173 182.789 56.4587 184.243 56.4587C187.608 56.4587 191.044 54.2297 194.558 49.7677C195.988 47.9914 197.417 46.2281 198.848 44.4786C197.501 47.0625 196.828 49.3837 196.828 51.4413C196.828 54.8879 198.411 56.6115 201.571 56.6115C204.731 56.6115 208.301 54.7553 212.204 51.0435C209.868 54.6235 208.669 56.4296 208.608 56.4587H218.094C218.094 56.6115 220.905 52.1252 226.527 43.0023C230.591 36.3597 233.779 33.0409 236.086 33.0409C236.939 33.0409 237.365 33.5979 237.365 34.7136C237.365 35.8294 236.865 37.2483 235.861 38.8183C228.183 50.6287 224.243 56.5081 224.041 56.4579H233.677C233.677 56.7118 236.511 52.2271 242.185 43.0015C244.193 39.7578 246.224 37.1723 248.281 35.2456C250.088 33.5729 251.518 32.7345 252.573 32.7345C253.326 32.7345 253.702 33.1654 253.702 34.0272C253.702 36.0048 251.844 39.1466 248.133 43.4558C245.271 46.8005 243.84 49.7418 243.84 52.2764C243.84 55.2145 245.422 56.6867 248.582 56.6867C252.448 56.6867 256.186 54.3801 259.801 49.7661C261.457 47.6381 263.64 45.3073 266.351 42.771C268.258 40.9996 269.135 40.0359 268.983 39.8831L268.982 39.8799Z" fill="#E2000F"/>
<path fill-rule="evenodd" clip-rule="evenodd" d="M108.346 1.92863C111.942 4.38078 115.116 8.90993 114.462 13.8166C112.688 22.4958 104.001 28.7227 96.7156 33.0142C94.38 34.1485 92.2324 35.797 89.6639 36.7429C94.9875 36.5998 101.107 37.6848 103.767 42.7807C105.449 46.0357 104.841 50.9869 102.46 53.8198C95.5005 61.3647 86.0668 64.9511 76.6796 67.9239C61.5941 72.8274 46.4615 77.498 30.6293 80.3755C49.6375 72.0739 69.2533 63.9122 87.4692 52.9701C89.5222 51.6499 92.3733 49.855 92.0451 47.0722C90.4123 44.0533 86.2541 44.9022 83.4527 44.9022C76.0721 45.705 69.4406 49.1023 62.3425 50.9408C60.2871 48.9131 58.8871 46.8862 57.159 44.9022C59.6331 43.2036 62.5298 42.1194 65.236 40.8476C77.1462 34.6668 89.4766 28.0646 99.3305 18.9117C101.528 16.4596 104.188 13.676 102.601 10.1857C99.846 7.35601 95.1748 9.10073 91.9067 9.42979C82.7995 12.1665 74.7193 17.6376 66.9185 23.4409C54.4504 33.5365 44.2676 44.1495 36.1417 57.5931C31.5177 64.5735 27.6421 72.1685 24.7935 79.7626L12.3222 85C20.0278 61.8853 33.8534 40.0448 53.6556 23.5355C66.5463 12.3994 81.3964 2.307 98.771 0.0408115C102.319 -0.194459 105.449 0.607562 108.346 1.92863Z" fill="#E2000F"/>
<path fill-rule="evenodd" clip-rule="evenodd" d="M33.3411 12.4762C29.5071 11.4672 24.7983 8.84202 15.2117 17.4411C15.2061 17.4459 15.1973 17.4459 15.1925 17.4395L14.1351 16.1491C13.915 15.8807 13.6013 15.7069 13.2579 15.6681C13.0322 15.6422 12.7496 15.6277 12.4302 15.6495C10.6437 15.7708 7.26196 16.9495 4.68383 23.4829C4.03229 25.1339 3.64889 26.4921 3.54403 27.5197C3.45599 28.3791 3.56164 29.0227 3.8578 29.4326C4.19397 29.8991 4.69023 29.9694 5.05202 29.9452C5.06322 29.9452 5.07043 29.9565 5.06402 29.9662C-3.57806 43.9644 0.981105 49.8324 3.20306 50.2277C3.20306 50.2277 23.8129 55.4182 23.8161 55.4134C38.7983 30.3389 55.6527 19.5052 55.6423 19.5019C50.089 17.7823 33.3435 12.4754 33.3435 12.4754H33.3419L33.3411 12.4762ZM4.10513 29.2531C3.8546 28.9055 3.76815 28.3339 3.84819 27.5521C3.95145 26.5511 4.32844 25.2212 4.96797 23.5985C7.48368 17.222 10.7358 16.0748 12.4503 15.9583C12.744 15.9381 12.9961 15.9486 13.1954 15.9688C13.4716 15.9963 13.7453 16.1233 13.8878 16.2656C14.0711 16.4491 14.1535 16.8048 14.1431 17.0652C14.0863 18.4824 13.6773 21.9298 11.216 25.4112C10.1723 26.8875 9.13013 27.8302 8.19845 28.4398C8.19044 28.4446 8.19044 28.4559 8.19765 28.4616L11.4729 31.1611C11.485 31.1717 11.4729 31.1911 11.4585 31.1846L6.86015 29.1488C6.86015 29.1488 6.85295 29.1472 6.84975 29.1488C6.29426 29.372 5.42341 29.5636 5.413 29.566C5.4002 29.5692 4.55256 29.8732 4.10513 29.2531ZM27.7598 26.5584C18.6463 42.1719 8.112 47.8103 5.34577 47.5193C2.57633 47.2266 2.22335 45.3517 2.22335 45.3517C1.79833 43.0322 2.31059 38.5443 7.25956 30.7981C7.26356 30.7925 7.27077 30.79 7.27717 30.7933L11.7579 33.0441C12.0861 33.209 12.6544 33.315 13.0153 33.2527C14.3048 33.0304 15.7224 32.0683 18.1812 28.6087C19.1601 27.2335 20.019 25.3125 20.0598 24.5526C20.0758 24.2623 20.0782 24.0464 20.0686 23.875C20.0502 23.5355 19.9237 23.2113 19.7092 22.9493L16.6388 19.2052C16.634 19.1996 16.6348 19.1915 16.6404 19.1858C20.2975 15.7813 23.3927 14.2282 25.7708 13.5765C25.7708 13.5765 36.8741 10.9433 27.7582 26.5576L27.7598 26.5584Z" fill="#0055B8"/>
<path fill-rule="evenodd" clip-rule="evenodd" d="M10.2739 24.7304C11.7619 22.6276 12.4406 20.5279 12.7456 18.9554C12.9121 18.1041 12.9697 17.4112 12.9865 16.9673L12.8385 16.9609C12.4278 16.9528 11.8195 17.0126 11.1032 17.3166C9.69683 17.91 7.65417 19.5286 5.90046 23.9721C4.87913 26.5592 4.75826 27.8472 4.84471 28.4155C4.86392 28.54 4.85111 28.5934 4.86632 28.6225C4.86632 28.6225 4.95357 28.6193 5.15527 28.5861C5.41781 28.5433 5.82762 28.447 6.33508 28.2255C7.3388 27.7865 8.78435 26.8349 10.2731 24.7288L10.2739 24.7304Z" fill="#0055B8"/>
<path fill-rule="evenodd" clip-rule="evenodd" d="M187.429 68.3516C187.193 68.3516 186.946 68.4017 186.69 68.5004C186.433 68.5998 186.18 68.7373 185.931 68.9119C185.682 69.0873 185.446 69.2959 185.22 69.5393C184.995 69.7826 184.794 70.0454 184.618 70.3276C185.579 70.3381 186.342 70.2305 186.906 70.0058C187.469 69.781 187.836 69.4544 188.006 69.0251C188.083 68.8318 188.073 68.671 187.976 68.5424C187.879 68.4147 187.696 68.35 187.428 68.35L187.429 68.3516Z" fill="#0055B8"/>
<path fill-rule="evenodd" clip-rule="evenodd" d="M112.862 65.6529L110.708 69.1601H111.899C112.312 69.1601 112.69 69.1043 113.032 68.9911C113.375 68.8787 113.68 68.7267 113.948 68.5359C114.217 68.3451 114.448 68.1244 114.642 67.873C114.835 67.6215 114.987 67.358 115.096 67.0807C115.268 66.6465 115.256 66.2997 115.058 66.0409C114.86 65.7822 114.469 65.6529 113.884 65.6529H112.862Z" fill="#0055B8"/>
<path fill-rule="evenodd" clip-rule="evenodd" d="M244.62 59.7954H99.7387C89.5134 66.3773 79.5995 70.3098 49.0132 78.0171H239.785C243.456 78.0171 247.23 75.0119 248.216 71.3026L249.488 66.5074C250.47 62.8005 248.293 59.7954 244.62 59.7954ZM117.915 66.9085C117.696 67.4631 117.387 67.9926 116.988 68.4971C116.59 69.0016 116.106 69.4455 115.537 69.8271C114.967 70.2087 114.315 70.5135 113.582 70.7407C112.848 70.9679 112.033 71.0819 111.138 71.0819H109.521L107.15 74.9578H104.527L111.436 63.7068H115.394C116.048 63.7068 116.581 63.7893 116.993 63.9542C117.405 64.1192 117.709 64.3439 117.905 64.6293C118.1 64.9147 118.196 65.2519 118.191 65.6416C118.187 66.0312 118.095 66.4533 117.915 66.9085H117.915ZM131.066 73.0667C131.164 73.1451 131.296 73.1848 131.462 73.1848C131.602 73.1848 131.748 73.1702 131.902 73.1419C132.055 73.1136 132.2 73.0756 132.337 73.0279C132.144 73.3416 131.954 73.6521 131.768 73.9577C131.582 74.2633 131.393 74.5737 131.199 74.8874C131.092 74.9133 130.97 74.94 130.834 74.9659C130.698 74.9917 130.554 75.0168 130.403 75.0402C130.251 75.0637 130.097 75.0823 129.938 75.0952C129.781 75.1081 129.626 75.1146 129.476 75.1146C129.116 75.1146 128.827 75.0685 128.609 74.9772C128.39 74.8858 128.23 74.7573 128.129 74.5923C128.029 74.4274 127.984 74.2317 127.997 74.0038C128.009 73.7766 128.069 73.5267 128.177 73.2543C128.222 73.1395 128.28 73.0109 128.349 72.8702C128.418 72.7288 128.494 72.5816 128.577 72.4272C128.659 72.2728 128.747 72.1159 128.839 71.9567C128.932 71.7974 129.024 71.6446 129.114 71.4974C129.171 71.4085 129.272 71.2452 129.417 71.0075C129.561 70.7698 129.729 70.4965 129.918 70.1877C130.107 69.8788 130.307 69.5538 130.519 69.211C130.729 68.8682 130.929 68.5432 131.119 68.2344C131.308 67.9255 131.475 67.6523 131.621 67.4146C131.766 67.1769 131.867 67.0136 131.923 66.9238H134.498L131.727 71.4433C131.611 71.626 131.484 71.8313 131.346 72.0593C131.207 72.2865 131.105 72.4846 131.038 72.652C130.96 72.8508 130.969 72.9891 131.067 73.0675L131.066 73.0667ZM136.214 64.335C136.134 64.5388 136.021 64.7223 135.877 64.884C135.732 65.0465 135.568 65.1864 135.384 65.3036C135.201 65.4216 135.004 65.5114 134.794 65.5744C134.585 65.6375 134.373 65.6682 134.158 65.6682C133.944 65.6682 133.777 65.6383 133.627 65.5777C133.476 65.5179 133.359 65.4338 133.275 65.3262C133.192 65.2187 133.142 65.0926 133.128 64.9454C133.114 64.7991 133.141 64.639 133.209 64.4668C133.29 64.2631 133.401 64.0796 133.543 63.9179C133.684 63.7562 133.848 63.6155 134.031 63.4983C134.214 63.3802 134.412 63.2905 134.625 63.2274C134.838 63.1643 135.054 63.1336 135.273 63.1336C135.476 63.1336 135.653 63.1635 135.801 63.2242C135.949 63.284 136.064 63.3681 136.148 63.4748C136.231 63.5823 136.281 63.7093 136.295 63.8556C136.31 64.0019 136.282 64.1612 136.214 64.3342V64.335ZM148.652 73.0667C148.75 73.1451 148.882 73.1848 149.048 73.1848C149.188 73.1848 149.334 73.1702 149.488 73.1419C149.641 73.1136 149.786 73.0756 149.923 73.0279C149.729 73.3416 149.54 73.6521 149.354 73.9577C149.168 74.2633 148.979 74.5737 148.785 74.8874C148.678 74.9133 148.556 74.94 148.42 74.9659C148.284 74.9917 148.14 75.0168 147.989 75.0402C147.837 75.0637 147.683 75.0823 147.524 75.0952C147.367 75.1081 147.212 75.1146 147.062 75.1146C146.702 75.1146 146.413 75.0685 146.195 74.9772C145.976 74.8858 145.816 74.7573 145.715 74.5923C145.615 74.4274 145.57 74.2317 145.583 74.0038C145.595 73.7758 145.655 73.5267 145.763 73.2543C145.808 73.1395 145.866 73.0109 145.935 72.8702C146.004 72.7288 146.08 72.5816 146.163 72.4272C146.245 72.2728 146.333 72.1159 146.426 71.9567C146.519 71.7974 146.61 71.6446 146.701 71.4974C146.744 71.4295 146.846 71.2638 147.006 70.9994C147.167 70.735 147.367 70.41 147.607 70.0228C147.846 69.6355 148.11 69.2054 148.399 68.7324C148.688 68.2594 148.986 67.7752 149.292 67.2812C149.597 66.7872 149.895 66.3029 150.184 65.8299C150.473 65.357 150.738 64.9268 150.977 64.5396C151.216 64.1523 151.416 63.8273 151.577 63.5629C151.738 63.2986 151.84 63.1328 151.883 63.0649H154.457L149.312 71.4441C149.196 71.6268 149.069 71.8321 148.931 72.0601C148.792 72.2873 148.69 72.4854 148.623 72.6528C148.545 72.8517 148.554 72.9899 148.652 73.0683V73.0667ZM166.238 73.0667C166.336 73.1451 166.468 73.1848 166.634 73.1848C166.774 73.1848 166.92 73.1702 167.074 73.1419C167.227 73.1136 167.372 73.0756 167.509 73.0279C167.315 73.3416 167.126 73.6521 166.94 73.9577C166.754 74.2633 166.565 74.5737 166.371 74.8874C166.264 74.9133 166.142 74.94 166.006 74.9659C165.87 74.9917 165.726 75.0168 165.574 75.0402C165.423 75.0637 165.269 75.0823 165.11 75.0952C164.953 75.1081 164.798 75.1146 164.648 75.1146C164.288 75.1146 163.999 75.0685 163.781 74.9772C163.562 74.8858 163.402 74.7573 163.301 74.5923C163.2 74.4274 163.156 74.2317 163.168 74.0038C163.181 73.7758 163.24 73.5267 163.349 73.2543C163.394 73.1395 163.452 73.0109 163.521 72.8702C163.589 72.7288 163.665 72.5816 163.749 72.4272C163.831 72.2728 163.919 72.1159 164.012 71.9567C164.105 71.7974 164.196 71.6446 164.287 71.4974C164.33 71.4295 164.431 71.2638 164.592 70.9994C164.753 70.735 164.953 70.41 165.193 70.0228C165.432 69.6355 165.696 69.2054 165.985 68.7324C166.274 68.2594 166.572 67.7752 166.878 67.2812C167.183 66.7872 167.481 66.3029 167.77 65.8299C168.059 65.357 168.324 64.9268 168.562 64.5396C168.802 64.1523 169.002 63.8273 169.163 63.5629C169.324 63.2986 169.426 63.1328 169.469 63.0649H172.043L166.898 71.4441C166.782 71.6268 166.655 71.8321 166.517 72.0601C166.378 72.2873 166.276 72.4854 166.209 72.6528C166.131 72.8517 166.14 72.9899 166.238 73.0683V73.0667ZM190.44 68.9952C190.277 69.4083 190.037 69.7875 189.72 70.1327C189.404 70.4779 188.985 70.7763 188.465 71.0269C187.944 71.2775 187.307 71.4756 186.553 71.6195C185.799 71.7634 184.898 71.8427 183.851 71.8588C183.828 71.8904 183.812 71.9178 183.802 71.9413C183.793 71.9647 183.783 71.9898 183.773 72.0157C183.709 72.1782 183.671 72.3399 183.661 72.5024C183.65 72.6649 183.685 72.8112 183.764 72.9414C183.844 73.0724 183.974 73.1783 184.157 73.2591C184.339 73.34 184.592 73.3804 184.913 73.3804C185.106 73.3804 185.323 73.3634 185.565 73.3295C185.807 73.2955 186.058 73.2462 186.32 73.1807C186.581 73.1152 186.847 73.0368 187.117 72.9454C187.387 72.8541 187.642 72.753 187.884 72.6431L186.757 74.4945C186.557 74.5786 186.335 74.6594 186.089 74.7379C185.843 74.8163 185.583 74.8866 185.31 74.9497C185.035 75.0127 184.75 75.0621 184.454 75.0984C184.158 75.1348 183.862 75.1534 183.567 75.1534C182.945 75.1534 182.446 75.0645 182.072 74.8866C181.697 74.7087 181.426 74.4694 181.258 74.1687C181.09 73.8679 181.018 73.5162 181.044 73.1136C181.07 72.711 181.172 72.2817 181.352 71.8265C181.624 71.1417 181.998 70.4901 182.476 69.8732C182.954 69.2563 183.501 68.7146 184.117 68.2489C184.733 67.7832 185.4 67.4138 186.117 67.1389C186.834 66.864 187.569 66.7274 188.32 66.7274C188.862 66.7274 189.298 66.7904 189.629 66.9157C189.961 67.041 190.205 67.21 190.362 67.4218C190.519 67.6337 190.6 67.8754 190.605 68.1479C190.61 68.4195 190.555 68.7025 190.439 68.9952H190.44ZM209.511 69.207H209.495C209.405 69.1496 209.282 69.097 209.127 69.0501C208.971 69.0033 208.818 68.9798 208.668 68.9798C208.352 68.9798 208.04 69.0493 207.733 69.1876C207.426 69.3258 207.13 69.5134 206.843 69.7487C206.557 69.9839 206.285 70.2596 206.028 70.5766C205.771 70.8927 205.533 71.229 205.311 71.5847L203.251 74.9586H200.677L203.832 69.8352C203.982 69.5894 204.135 69.3355 204.291 69.0744C204.445 68.8133 204.596 68.5553 204.741 68.3015C204.887 68.0476 205.025 67.8035 205.153 67.5682C205.281 67.3329 205.394 67.1187 205.492 66.9246H208.01C207.934 67.0766 207.854 67.2335 207.772 67.3952C207.688 67.5577 207.608 67.7129 207.531 67.8617C207.453 68.0104 207.381 68.1454 207.315 68.2659C207.248 68.3864 207.196 68.4802 207.158 68.5481H207.19C207.761 67.9466 208.291 67.493 208.779 67.1866C209.268 66.8802 209.753 66.7274 210.236 66.7274C210.375 66.7274 210.507 66.7403 210.631 66.7662C210.754 66.7928 210.867 66.8131 210.968 66.8292L209.511 69.2062V69.207ZM223.71 73.0667C223.808 73.1451 223.94 73.1848 224.106 73.1848C224.246 73.1848 224.392 73.1702 224.546 73.1419C224.7 73.1136 224.844 73.0756 224.981 73.0279C224.788 73.3416 224.598 73.6521 224.412 73.9577C224.227 74.2633 224.037 74.5737 223.843 74.8874C223.736 74.9133 223.614 74.94 223.478 74.9659C223.342 74.9917 223.198 75.0168 223.047 75.0402C222.895 75.0637 222.741 75.0823 222.582 75.0952C222.425 75.1081 222.27 75.1146 222.12 75.1146C221.76 75.1146 221.471 75.0685 221.253 74.9772C221.034 74.8858 220.874 74.7573 220.774 74.5923C220.673 74.4274 220.628 74.2317 220.641 74.0038C220.653 73.7758 220.713 73.5267 220.821 73.2543C220.866 73.1395 220.924 73.0109 220.993 72.8702C221.062 72.7288 221.138 72.5816 221.221 72.4272C221.303 72.2728 221.391 72.1159 221.484 71.9567C221.577 71.7974 221.668 71.6446 221.759 71.4974C221.816 71.4085 221.916 71.2452 222.061 71.0075C222.206 70.7698 222.374 70.4965 222.563 70.1877C222.752 69.8788 222.952 69.5538 223.164 69.211C223.374 68.8682 223.574 68.5432 223.764 68.2344C223.953 67.9255 224.12 67.6523 224.266 67.4146C224.411 67.1769 224.511 67.0136 224.568 66.9238H227.142L224.371 71.4433C224.256 71.626 224.129 71.8313 223.99 72.0593C223.852 72.2865 223.749 72.4846 223.683 72.652C223.605 72.8508 223.614 72.9891 223.712 73.0675L223.71 73.0667ZM228.858 64.335C228.777 64.5388 228.664 64.7223 228.52 64.884C228.375 65.0465 228.211 65.1864 228.028 65.3036C227.844 65.4216 227.647 65.5114 227.438 65.5744C227.228 65.6375 227.016 65.6682 226.801 65.6682C226.587 65.6682 226.42 65.6383 226.27 65.5777C226.119 65.5179 226.003 65.4338 225.919 65.3262C225.835 65.2187 225.786 65.0926 225.771 64.9454C225.757 64.7991 225.784 64.639 225.852 64.4668C225.933 64.2631 226.044 64.0796 226.186 63.9179C226.328 63.7562 226.491 63.6155 226.674 63.4983C226.857 63.3802 227.055 63.2905 227.268 63.2274C227.481 63.1643 227.697 63.1336 227.916 63.1336C228.12 63.1336 228.296 63.1635 228.444 63.2242C228.592 63.284 228.707 63.3681 228.791 63.4748C228.874 63.5823 228.924 63.7093 228.939 63.8556C228.953 64.0019 228.926 64.1612 228.858 64.3342V64.335Z" fill="#0055B8"/>
</svg>
