<svg xmlns="http://www.w3.org/2000/svg" width="447" height="81" viewBox="0 0 447 81" fill="none"><g clip-path="url(#clip0_5434_2800)"><path d="M57.0486 53.8337C56.3186 53.1137 55.2786 52.7538 53.9586 52.7538H15.2486C13.4386 52.7538 12.5986 51.8738 12.5986 49.9838V39.9738C12.5986 38.2038 13.4186 37.3838 15.1686 37.3838H45.5986C48.3486 37.3838 49.7986 35.8737 49.7986 33.0237V30.7038C49.7986 27.8538 48.3186 26.3438 45.5186 26.3438H15.1686C13.4186 26.3438 12.5986 25.4938 12.5986 23.6638V14.5837C12.5986 12.7537 13.4386 11.9037 15.2486 11.9037H53.3186C54.6386 11.9037 55.6786 11.5237 56.4186 10.7737C57.1486 10.0237 57.5186 8.93376 57.5186 7.54376V4.95377C57.5186 2.10377 56.0386 0.59375 53.2386 0.59375H10.5486C7.22858 0.59375 4.62859 1.42374 2.80859 3.05374C0.978594 4.69374 0.0585938 7.36376 0.0585938 10.9838V53.9937C0.0585938 57.6137 0.988594 60.2738 2.80859 61.9238C4.61859 63.5538 7.25857 64.3838 10.6286 64.3838H53.9586C56.7086 64.3838 58.1586 62.8737 58.1586 60.0237V57.1537C58.1586 55.6937 57.7886 54.5938 57.0486 53.8737V53.8337Z" fill="#009FF2"></path><path d="M114.338 29.3342C113.768 26.4842 112.598 24.2442 110.878 22.6842C109.158 21.1342 106.688 20.0842 103.518 19.5742C100.408 19.0842 96.2484 18.8242 91.1584 18.8242H75.2284C71.3584 18.8242 68.6384 19.7442 67.1384 21.5542C65.6584 23.3442 64.8984 25.7642 64.8984 28.7442V59.4242C64.8984 60.9242 65.2284 62.1242 65.8884 62.9842C66.5684 63.8842 67.5984 64.3342 68.9384 64.3342H72.5984C73.9384 64.3342 74.9584 63.8742 75.6484 62.9842C76.3084 62.1142 76.6384 60.9142 76.6384 59.4242V33.0042C76.6384 30.1342 77.9984 28.7442 80.7984 28.7442H89.9584C93.0584 28.7442 95.5384 28.8842 97.3484 29.1542C99.0884 29.4142 100.418 30.0442 101.308 31.0342C102.208 32.0242 102.788 33.5142 103.048 35.4642C103.308 37.4842 103.448 40.3042 103.448 43.8542V59.4242C103.448 60.9242 103.778 62.1242 104.438 62.9842C105.118 63.8842 106.148 64.3342 107.488 64.3342H111.228C112.568 64.3342 113.588 63.8742 114.238 62.9742C114.868 62.1042 115.188 60.9142 115.188 59.4142V40.4142C115.188 35.8342 114.908 32.0942 114.348 29.3142V29.3342H114.338Z" fill="#009FF2"></path><path d="M199.528 53.4733L195.388 50.6033C195.068 50.3733 194.908 50.1033 194.908 49.7933C194.908 49.6733 194.938 49.3533 195.138 48.5933C195.298 47.9533 195.468 47.0033 195.628 45.7633C195.788 44.5233 195.948 42.8933 196.108 40.8833C196.268 38.8833 196.348 36.3033 196.348 33.2033V31.7233C196.348 27.1533 196.188 23.1633 195.868 19.8733C195.548 16.5533 194.938 13.6733 194.058 11.3433C193.158 8.98329 191.888 7.0333 190.258 5.5433C188.628 4.0633 186.508 2.91329 183.948 2.12329C181.408 1.34329 178.268 0.813295 174.628 0.533295C171.008 0.253295 166.648 0.113281 161.658 0.113281H159.268C154.278 0.113281 149.918 0.253295 146.298 0.533295C142.648 0.813295 139.518 1.34329 136.978 2.12329C134.418 2.91329 132.288 4.0633 130.658 5.5433C129.028 7.0333 127.748 8.98329 126.858 11.3433C125.978 13.6833 125.368 16.5533 125.048 19.8733C124.728 23.1833 124.568 27.1733 124.568 31.7233V33.2033C124.568 37.7633 124.728 41.7433 125.048 45.0533C125.368 48.3733 125.978 51.2433 126.858 53.5833C127.748 55.9433 129.028 57.8833 130.668 59.3433C132.298 60.7933 134.418 61.9433 136.978 62.7533C139.518 63.5633 142.648 64.1133 146.298 64.3933C149.908 64.6733 154.278 64.8133 159.268 64.8133H161.658C165.518 64.8133 168.918 64.7333 171.748 64.5833C174.588 64.4333 177.088 64.1633 179.198 63.7933C181.318 63.4133 183.188 62.9233 184.758 62.3333C186.348 61.7333 187.818 60.9933 189.088 60.1133C189.688 59.7333 189.888 59.7133 189.918 59.7133C189.998 59.7133 190.228 59.7533 190.718 60.1833L194.228 63.0633C195.088 63.7333 195.918 64.0733 196.688 64.0733C197.788 64.0733 198.748 63.3533 199.568 61.9333L200.848 59.6933C201.408 58.5933 201.688 57.6333 201.688 56.8333C201.688 55.6633 200.968 54.5333 199.538 53.4633H199.528V53.4733ZM172.118 38.3733L170.848 40.5033C170.228 41.5433 169.918 42.5433 169.918 43.4733C169.918 44.6533 170.668 45.7833 172.148 46.8433L178.018 50.4333C178.258 50.6733 178.378 50.8933 178.378 51.0933C178.378 51.2333 178.328 51.4233 177.968 51.5833C176.888 52.0633 175.088 52.4833 172.608 52.8533C170.128 53.2233 166.488 53.4033 161.788 53.4033H159.558C154.338 53.4033 150.168 53.1833 147.188 52.7533C144.258 52.3333 142.018 51.4233 140.538 50.0233C139.068 48.6333 138.118 46.5733 137.708 43.8933C137.288 41.1533 137.078 37.3933 137.078 32.7333V32.0833C137.078 27.4233 137.288 23.6533 137.708 20.8733C138.118 18.1633 139.088 16.0833 140.578 14.6933C142.078 13.3033 144.328 12.3833 147.268 11.9633C150.268 11.5333 154.428 11.3133 159.638 11.3133H161.228C166.438 11.3133 170.618 11.5333 173.638 11.9633C176.598 12.3833 178.878 13.3033 180.408 14.6933C181.928 16.0733 182.908 18.1533 183.318 20.8733C183.738 23.6533 183.948 27.4233 183.948 32.0833V32.7333C183.948 34.5833 183.918 36.2133 183.868 37.6333C183.818 39.0233 183.658 40.2033 183.398 41.1733C183.308 41.5333 183.188 41.5333 183.128 41.5333C182.968 41.5333 182.668 41.4533 182.158 41.0533L177.358 37.3333C176.498 36.6633 175.698 36.3233 174.978 36.3233C173.888 36.3233 172.918 37.0133 172.108 38.3633H172.118V38.3733Z" fill="#112D69"></path><path d="M255.718 20.4633C255.038 19.5633 254.008 19.1133 252.668 19.1133H249.008C247.668 19.1133 246.648 19.5733 245.958 20.4633C245.298 21.3333 244.968 22.5333 244.968 24.0233V50.3433C244.968 53.2133 243.608 54.6033 240.808 54.6033H230.928C227.988 54.6033 225.638 54.4633 223.938 54.1933C222.308 53.9333 221.078 53.3033 220.268 52.3333C219.448 51.3433 218.898 49.8533 218.638 47.8933C218.378 45.8833 218.248 43.0533 218.248 39.5033V24.0233C218.248 22.5333 217.918 21.3333 217.258 20.4633C216.568 19.5633 215.548 19.1133 214.208 19.1133H210.468C209.128 19.1133 208.108 19.5733 207.458 20.4733C206.828 21.3433 206.508 22.5333 206.508 24.0333V43.0333C206.508 47.6733 206.778 51.4433 207.318 54.2233C207.858 57.0733 208.998 59.2933 210.698 60.8333C212.398 62.3633 214.788 63.3933 217.818 63.8933C220.798 64.3933 224.818 64.6433 229.748 64.6433H246.388C250.258 64.6433 252.978 63.7233 254.488 61.9133C255.968 60.1233 256.728 57.7033 256.728 54.7233V24.0433C256.728 22.5433 256.398 21.3433 255.738 20.4833L255.718 20.4633Z" fill="#112D69"></path><path d="M313.408 29.2842C312.868 26.4742 311.788 24.2542 310.198 22.6942C308.608 21.1342 306.338 20.0842 303.428 19.5742C300.588 19.0842 296.798 18.8242 292.178 18.8242H286.128C282.378 18.8242 279.308 18.8842 276.988 19.0142C274.658 19.1442 272.818 19.3942 271.528 19.7742C270.158 20.1742 269.258 20.7042 268.778 21.4042C268.308 22.0842 268.078 22.9642 268.078 24.0242V24.5842C268.078 25.8742 268.458 26.8442 269.208 27.4642C269.938 28.0742 270.888 28.3842 272.038 28.3842H291.148C293.658 28.3842 295.718 28.4642 297.278 28.6142C298.788 28.7642 299.938 29.0642 300.718 29.4942C301.458 29.9142 301.938 30.4642 302.178 31.1842C302.428 31.9442 302.558 32.9742 302.558 34.2142C302.558 34.9942 302.368 35.5142 301.978 35.7442C301.668 35.9342 300.998 36.1542 299.508 36.1542H284.058C280.598 36.1542 277.688 36.3542 275.388 36.7642C273.068 37.1742 271.168 37.8642 269.748 38.8142C268.308 39.7842 267.278 41.1242 266.698 42.8042C266.128 44.4442 265.838 46.5142 265.838 48.9542V51.3642C265.838 53.9142 266.068 56.0542 266.528 57.7242C266.998 59.4342 267.908 60.8242 269.248 61.8642C270.568 62.8842 272.408 63.6142 274.708 64.0242C276.978 64.4242 279.938 64.6342 283.498 64.6342H303.888C307.708 64.6342 310.418 63.6942 311.948 61.8542C313.458 60.0342 314.228 57.6242 314.228 54.7042V40.1542C314.228 35.7042 313.958 32.0542 313.428 29.2842H313.408ZM277.718 53.1942C277.468 52.5042 277.338 51.5442 277.338 50.3542V49.4242C277.338 48.3542 277.468 47.4842 277.708 46.8242C277.938 46.1942 278.388 45.7242 279.088 45.3542C279.818 44.9742 280.858 44.7042 282.178 44.5642C283.558 44.4142 285.388 44.3342 287.628 44.3342H293.918C296.078 44.3342 297.788 44.3842 298.988 44.4742C300.138 44.5642 301.008 44.7742 301.568 45.1142C302.098 45.4342 302.418 45.8642 302.558 46.4142C302.708 47.0342 302.788 47.8942 302.788 48.9642V50.6342C302.788 51.8342 302.708 52.7842 302.558 53.4742C302.418 54.0842 302.088 54.5342 301.538 54.8542C300.948 55.1942 300.038 55.4242 298.818 55.5442C297.578 55.6642 295.788 55.7242 293.518 55.7242H287.938C285.628 55.7242 283.738 55.6442 282.328 55.4942C280.948 55.3442 279.868 55.0742 279.108 54.6942C278.388 54.3342 277.938 53.8442 277.698 53.1842H277.718V53.1942Z" fill="#112D69"></path><path d="M335.159 1.97421C334.449 1.04421 333.409 0.574219 332.069 0.574219H328.489C327.149 0.574219 326.129 1.03422 325.439 1.92422C324.779 2.79422 324.449 3.99422 324.449 5.48422V59.3342C324.449 60.8342 324.799 62.0542 325.479 62.9442C326.189 63.8742 327.229 64.3442 328.569 64.3442H332.149C333.489 64.3442 334.509 63.8842 335.199 62.9942C335.859 62.1242 336.189 60.9242 336.189 59.4342V5.5842C336.189 4.0842 335.839 2.87421 335.159 1.97421Z" fill="#112D69"></path><path d="M354.378 0.574219H350.878C349.538 0.574219 348.508 1.02422 347.798 1.92422C347.108 2.79422 346.758 3.9942 346.758 5.4942V7.7142C346.758 11.7742 348.998 12.6342 350.878 12.6342H354.378C355.718 12.6342 356.758 12.1842 357.458 11.2842C358.148 10.4142 358.498 9.2142 358.498 7.7142V5.4942C358.498 1.4342 356.258 0.574219 354.378 0.574219Z" fill="#112D69"></path><path d="M354.458 19.1137H350.798C349.458 19.1137 348.438 19.5737 347.748 20.4637C347.088 21.3337 346.758 22.5337 346.758 24.0237V59.3337C346.758 60.8337 347.108 62.0538 347.788 62.9438C348.498 63.8738 349.538 64.3438 350.878 64.3438H354.538C355.878 64.3438 356.898 63.8838 357.548 62.9838C358.178 62.1138 358.498 60.9238 358.498 59.4238V24.1137C358.498 22.6137 358.168 21.4038 357.508 20.5038C356.828 19.5738 355.798 19.0938 354.458 19.0938V19.1137Z" fill="#112D69"></path><path d="M389.178 0.113495H387.588C382.528 0.113495 378.628 1.28351 375.988 3.59351C373.338 5.91351 371.998 9.54352 371.998 14.3935V16.8935C371.998 18.4335 371.398 19.1135 370.068 19.1135H368.478C367.418 19.1135 366.518 19.4735 365.788 20.1935C365.048 20.9135 364.678 21.9835 364.678 23.3835V24.5835C364.678 25.9835 365.038 27.0435 365.748 27.7235C366.458 28.4135 367.378 28.7535 368.478 28.7535H370.148C371.488 28.7535 372.078 29.4035 372.078 30.8835V59.3335C372.078 60.8335 372.408 62.0435 373.068 62.9435C373.748 63.8735 374.778 64.3435 376.118 64.3435H379.698C381.038 64.3435 382.058 63.8835 382.708 62.9835C383.338 62.1135 383.658 60.9235 383.658 59.4235V30.8735C383.658 29.4235 384.348 28.7435 385.828 28.7435H391.558C392.708 28.7435 393.678 28.4035 394.438 27.7235C395.208 27.0335 395.598 25.9735 395.598 24.5735V23.2735C395.598 21.8735 395.218 20.8135 394.478 20.1235C393.738 19.4435 392.758 19.0935 391.558 19.0935H385.748C384.208 19.0935 383.498 18.4435 383.498 17.0635V14.4635C383.498 12.8335 383.858 11.5935 384.558 10.7735C385.248 9.9635 386.428 9.56351 388.058 9.56351H393.788C394.948 9.56351 395.888 9.2335 396.598 8.5835C397.318 7.9235 397.678 6.97351 397.678 5.75351V4.5535C397.678 1.5935 394.818 0.103516 389.178 0.103516V0.113495Z" fill="#112D69"></path><path d="M445.499 20.0335C444.789 19.4135 443.879 19.1035 442.779 19.1035H439.359C438.039 19.1035 437.039 19.4335 436.389 20.0935C435.769 20.7135 435.179 21.6735 434.639 22.9535L423.009 51.4035C422.519 52.6135 422.149 52.7435 422.009 52.7435C421.849 52.7435 421.729 52.6835 421.619 52.5535C421.509 52.4335 421.319 52.1135 421.009 51.3135L409.139 22.8635C408.649 21.5835 408.079 20.6335 407.459 20.0435C406.809 19.4235 405.889 19.1035 404.729 19.1035H400.829C399.729 19.1035 398.809 19.4135 398.079 20.0235C397.329 20.6535 396.949 21.5235 396.949 22.6335C396.949 23.1035 397.019 23.5835 397.159 24.0835C397.299 24.5635 397.449 24.9935 397.619 25.3835L412.589 59.5835C413.149 60.8935 416.869 67.4235 413.889 69.1735C412.489 69.9035 411.129 70.2735 409.189 70.2735H405.209C404.059 70.2735 403.089 70.6035 402.339 71.2435C401.569 71.9035 401.169 72.9535 401.169 74.3535V75.4635C401.169 77.0035 401.659 78.1735 402.619 78.9535C403.579 79.7235 405.179 80.1035 407.519 80.1035H410.389C412.589 80.1035 414.539 79.8935 416.169 79.4935C417.839 79.0835 419.379 78.3235 420.769 77.2535C422.149 76.1835 423.469 74.6635 424.679 72.7535C425.879 70.8635 427.129 68.4235 428.409 65.5235L446.009 25.2935C446.399 24.3835 446.599 23.4935 446.599 22.6435C446.599 21.5435 446.229 20.6735 445.519 20.0435H445.499V20.0335Z" fill="#112D69"></path></g><defs><clipPath id="clip0_5434_2800"><rect width="446.541" height="80" fill="white" transform="translate(0.0585938 0.103516)"></rect></clipPath></defs></svg>