<?xml version="1.0" encoding="UTF-8"?>
<svg xmlns="http://www.w3.org/2000/svg" id="Layer_2" width="177.38" height="40" viewBox="0 0 177.38 40">
  <defs>
    <style>.cls-1{fill:#f92e0d;}.cls-2{fill:#0b0b40;}</style>
  </defs>
  <g id="Layer_1-2">
    <path class="cls-1" d="m0,8.58h37.09V0H0v8.58Zm8.58,12.61v15.46c0,.51.67.7.94.26l8.85-14.6c.56-.93,1.56-1.49,2.65-1.49h12.97c1.72,0,3.11,1.39,3.11,3.11v16h-8.96v-15.84c0-.52-.68-.7-.94-.26l-8.41,14.21c-.56.94-1.57,1.88-2.67,1.88H3.09c-1.71,0-3.09-1.38-3.09-3.09V13.96c0-1.71,1.39-3.1,3.1-3.1h33.99v7.24H11.67c-1.71,0-3.09,1.38-3.09,3.09"></path>
    <path class="cls-2" d="m78.68.17c.64,0,.96.32.96.96v4.47c0,.68-.32,1.02-.96,1.02h-25.61v11.05h18.98c.68,0,1.02.32,1.02.96v4.53c0,.64-.34.96-1.02.96h-18.98v14.67c0,.68-.32,1.02-.96,1.02h-5.5c-.64,0-.96-.34-.96-1.02V1.13c0-.64.32-.96.96-.96h32.07Z"></path>
    <path class="cls-2" d="m95.57,40c-3.32,0-5.85-.86-7.56-2.58-1.72-1.72-2.58-4.26-2.58-7.62V10.14c0-3.36.86-5.89,2.58-7.59,1.72-1.7,4.24-2.55,7.56-2.55h21.47c3.4,0,5.94.83,7.62,2.49,1.68,1.66,2.52,4.21,2.52,7.65v2.38c0,.64-.32.96-.96.96h-5.61c-.68,0-1.02-.32-1.02-.96v-1.93c0-1.47-.35-2.56-1.05-3.26-.7-.7-1.78-1.05-3.26-1.05h-17.9c-3.02,0-4.53,1.51-4.53,4.53v18.36c0,1.51.37,2.63,1.1,3.37.74.74,1.88,1.1,3.43,1.1h18.19c2.91,0,4.36-1.45,4.36-4.36v-4.31h-14.39c-.64,0-.96-.32-.96-.96v-4.08c0-.64.32-.96.96-.96h20.91c.64,0,.96.32.96.96v9.86c0,3.36-.85,5.9-2.55,7.62-1.7,1.72-4.21,2.58-7.54,2.58h-21.76Z"></path>
    <path class="cls-2" d="m155.06,7.76h-.34l-4.36,9.06-3.68,7.76h16.37l-7.99-16.83Zm22.21,30.59c.08.15.11.34.11.57,0,.61-.38.91-1.13.91h-5.16c-.38,0-.67-.08-.88-.23-.21-.15-.41-.4-.6-.74l-3.74-7.99h-22.1l-3.74,7.99c-.26.64-.76.96-1.47.96h-5.21c-.34,0-.6-.09-.79-.28-.19-.19-.28-.41-.28-.68s.04-.47.11-.62L150.47,1.08c.15-.34.33-.58.54-.71.21-.13.52-.2.93-.2h5.84c.72,0,1.21.3,1.47.91l18.02,37.28Z"></path>
  </g>
</svg>
