<svg version="1.1" id="Layer_1" xmlns="http://www.w3.org/2000/svg" xmlns:xlink="http://www.w3.org/1999/xlink" x="0px" y="0px" width="120" viewBox="0 0 120 120" enable-background="new 0 0 192 192" xml:space="preserve" height="120"><path fill="transparent" opacity="1.000000" stroke="none" d="M120.625 41.25v79.336H0.625c0 -25.39 0 -50.82 0.228 -76.523 6.978 3.49 9.075 2.516 14.084 -1.96C23.012 34.888 32.065 29.742 42.45 26.762c7.454 -2.138 15.027 -2.431 22.719 -2.479 9.487 -0.06 18.096 2.998 26.739 6.563 2.381 2.054 4.694 3.938 7.095 5.7 0.305 0.224 1.07 -0.178 1.841 -0.254 1.798 1.413 3.26 2.963 4.982 4.127 2.378 1.607 4.109 4.573 7.679 3.906 2.614 -0.489 5.251 -0.879 7.12 -3.075m-21.25 6.875s-0.006 0.005 -0.006 -0.454c-0.613 -2.246 -1.873 -3.772 -4.692 -4.084 -0.312 -0.359 -0.624 -0.717 -0.982 -1.516 -0.483 -0.658 -0.821 -1.606 -1.469 -1.927 -5.876 -2.915 -11.499 -6.477 -18.115 -7.596 -1.335 -0.226 -2.739 -0.044 -4.575 -0.048 -0.463 -0.013 -0.925 -0.027 -1.541 -0.516 -0.326 -0.223 -0.65 -0.637 -0.979 -0.639 -4.341 -0.036 -8.725 -0.378 -13.01 0.12 -2.87 0.334 -5.6 1.88 -8.898 2.888 -4.904 2.067 -9.931 3.896 -14.654 6.316 -1.946 0.997 -3.239 3.267 -5.138 5.109 -0.298 0.173 -0.596 0.346 -1.344 0.542 -2.646 1.32 -3.321 3.699 -3.335 6.374 -0.007 1.472 -0.429 3.254 2.191 3.718 0.309 0.36 0.619 0.72 1.049 1.558C26.996 59.475 29.335 59.091 30.625 56.875c0 0 -0.007 -0.009 0.447 -0.008 0.683 -0.623 1.367 -1.247 2.267 -2.156 0.328 -0.129 0.655 -0.258 1.431 -0.405 2.266 -1.426 4.552 -2.822 6.791 -4.289 1.188 -0.777 2.294 -1.676 3.826 -2.554 0.259 -0.019 0.519 -0.037 1.183 -0.053 0.322 -0.367 0.643 -0.735 1.464 -1.135 3.572 -0.879 7.144 -1.757 11.262 -2.584 5.442 0.854 10.884 1.708 16.533 2.94 1.604 0.699 3.208 1.399 5.206 2.15 0.49 0.196 0.98 0.392 1.51 0.986 0.611 0.281 1.221 0.562 2.197 0.889 0.299 0.193 0.598 0.385 0.937 1.011 1.917 1.846 3.63 4.01 5.825 5.424 1.462 0.941 3.671 1.816 5.685 -0.219 0 0 0.304 -0.033 0.557 0.268 2.107 -0.834 4.57 -1.448 2.881 -5.108 -0.003 -0.469 -0.005 -0.938 0.3 -1.678A267.5 267.5 0 0 1 99.375 48.125m-18.75 13.125s-0.002 0.001 0.001 -0.458c-0.942 -1.147 -1.688 -2.573 -2.857 -3.396 -7.049 -4.958 -15.025 -6.336 -23.303 -4.752 -5.068 0.97 -9.802 3.333 -13.385 7.3 -1.769 1.958 -2.436 4.486 -1.188 6.917 1.266 2.467 3.506 3.071 6.102 1.938 2.064 -0.901 4.196 -1.681 6.164 -2.761 5.382 -2.951 10.758 -3.206 16.283 -0.447 2.712 1.354 5.477 2.606 8.243 3.849 1.618 0.726 5.59 -1.022 6.133 -2.914 0.625 -2.181 0.627 -4.392 -2.193 -5.275m-13.893 50.621c8.804 -2.154 17.122 -14.091 12.882 -24.344 -2.836 -6.859 -7.055 -11.781 -14.417 -12.794 -4.094 -0.563 -9.104 -0.865 -12.473 0.97 -8.208 4.47 -12.352 11.819 -10.865 21.683 0.91 6.034 8.328 14.069 13.869 14.949 2.754 2.252 8.668 2.002 11.003 -0.464" stroke-width="0.625"/><path fill="transparent" opacity="1.000000" stroke="none" d="M0.625 33.75V0.65h120c0 10.195 0 20.418 -0.235 30.932 -0.705 0.295 -1.175 0.296 -1.805 0.213 -0.466 -0.449 -0.772 -0.813 -1.084 -1.405 -1.858 -3.815 -4.588 -6.206 -8.884 -6.711 -0.297 -0.196 -0.42 -0.352 -0.52 -0.718 -0.419 -0.278 -0.819 -0.379 -1.412 -0.509 -0.497 -0.401 -0.801 -0.774 -1.13 -1.364 -0.621 -0.504 -1.219 -0.789 -1.811 -1.081 0.004 -0.006 -0.007 0.007 -0.033 -0.216 -0.857 -0.686 -1.689 -1.149 -2.664 -1.617 -0.144 -0.006 -0.431 -0.035 -0.461 -0.234 -0.633 -0.276 -1.236 -0.353 -2.037 -0.451 -0.691 -0.217 -1.184 -0.414 -1.713 -0.819 -0.859 -0.684 -1.681 -1.158 -2.704 -1.638 -0.465 -0.022 -0.731 -0.038 -1.044 -0.265 -1.896 -0.885 -3.745 -1.56 -5.825 -2.242 -0.692 -0.031 -1.153 -0.053 -1.646 -0.247 -0.436 -0.243 -0.841 -0.315 -1.472 -0.419 -1.114 -0.229 -2.001 -0.426 -2.93 -0.862 -0.77 -0.695 -1.483 -1.522 -2.228 -1.552 -7.679 -0.304 -15.362 -0.512 -23.046 -0.634 -0.733 -0.012 -1.478 0.736 -2.476 1.141 -1.121 0.018 -1.983 0.025 -3.002 -0.122 -1.102 0.141 -2.047 0.438 -3.264 0.747 -3.391 0.466 -6.508 0.919 -9.869 1.376 -1.739 0.425 -3.317 0.667 -4.71 1.309 -1.787 0.824 -3.427 1.969 -5.358 3.013 -9.422 3.444 -17.224 8.942 -24.111 15.844C2.461 32.813 1.475 33.214 0.625 33.751" stroke-width="0.625"/><path fill="#EBDDA2" opacity="1.000000" stroke="none" d="M108.116 23.138c0.081 0.189 0.204 0.344 0.599 0.728 3.083 2.424 5.938 4.588 8.791 6.752 0.306 0.364 0.613 0.727 1.167 1.358 0.816 0.561 1.384 0.856 1.952 1.15v7.836c-1.869 2.485 -4.506 2.875 -7.12 3.364 -3.57 0.667 -5.301 -2.298 -7.679 -3.906 -1.722 -1.164 -3.184 -2.712 -5.073 -4.314 -1.084 -1.141 -1.857 -2.058 -2.401 -2.978 0.952 0.345 1.751 0.593 2.386 1.061 3.394 2.506 6.593 5.322 10.189 7.48 1.397 0.838 3.971 0.844 5.44 0.102 1.374 -0.693 2.627 -2.804 2.816 -4.421 0.376 -3.227 -4.499 -8.462 -8.094 -9.287 -0.429 -0.277 -0.711 -0.466 -1.037 -0.867 -0.282 -0.544 -0.453 -0.977 -0.771 -1.194 -8.861 -6.044 -18.084 -11.34 -28.831 -13.252 -18.604 -3.311 -36.778 -2.172 -54.17 5.756 -2.929 1.336 -5.542 3.363 -8.519 5.119 -2.575 1.693 -4.933 3.336 -7.509 5.012 -4.014 1.929 -6.466 5.124 -8.168 8.838 -1.107 2.416 1.019 5.931 3.591 6.23 2.843 0.329 5.389 -0.031 7.7 -2.304 12.163 -11.961 27.184 -17.554 43.916 -18.848 11.011 -0.851 21.794 0.587 31.955 5.094 2.994 1.328 5.584 3.564 8.132 5.387 -1.988 -0.796 -3.749 -1.596 -5.51 -2.396 -8.602 -3.356 -17.211 -6.414 -26.698 -6.354 -7.692 0.049 -15.265 0.341 -22.719 2.479 -10.385 2.979 -19.438 8.125 -27.513 15.34 -5.009 4.476 -7.106 5.45 -14.084 1.667C0.625 40.611 0.625 37.473 0.625 34.042c0.85 -0.829 1.836 -1.23 2.528 -1.924 6.887 -6.902 14.688 -12.4 24.344 -15.866 3.668 -1.475 6.873 -2.89 10.078 -4.305 3.118 -0.453 6.235 -0.905 9.869 -1.351 1.403 -0.2 2.291 -0.406 3.179 -0.613 0.862 -0.008 1.724 -0.016 3.139 -0.013 9.534 0.429 18.515 0.846 27.496 1.264 0.887 0.198 1.775 0.394 3.004 0.766 0.691 0.266 1.039 0.356 1.388 0.446 0.461 0.023 0.922 0.046 1.75 0.24a540 540 0 0 0 5.737 2.289c0.265 0.016 0.531 0.032 1.045 0.258 1.063 0.688 1.877 1.166 2.691 1.644 0.493 0.196 0.986 0.393 1.814 0.764 0.867 0.283 1.398 0.389 1.93 0.497 0 0 0.287 0.029 0.481 0.237 1.01 0.685 1.825 1.161 2.639 1.638 0 0 0.011 -0.013 0.098 0.17 0.639 0.495 1.192 0.809 1.744 1.122 0.305 0.372 0.609 0.746 1.213 1.298 0.641 0.297 0.983 0.416 1.324 0.534" stroke-width="0.625"/><path fill="#E8E4CD" opacity="1.000000" stroke="none" d="M120.625 32.917c-0.568 -0.086 -1.136 -0.381 -1.792 -0.856 0.381 -0.182 0.852 -0.184 1.557 -0.186 0.235 0.278 0.235 0.556 0.235 1.042" stroke-width="0.625"/><path fill="#CBCACB" opacity="1.000000" stroke="none" d="M55.628 111.871c-5.439 -0.415 -12.857 -8.45 -13.767 -14.484 -1.487 -9.863 2.657 -17.212 10.865 -21.683 3.369 -1.835 8.379 -1.533 12.473 -0.97 7.362 1.013 11.581 5.934 14.417 12.794 4.239 10.253 -4.078 22.19 -13.388 24.344 -3.871 0 -7.235 0 -10.6 -0.001m-8.036 -7.961c4.763 6.179 11.242 7.664 18.363 5.917 5.579 -1.369 9.628 -5.507 11.334 -10.758 2.324 -7.151 1.175 -13.844 -5.736 -18.859 -6.121 -4.442 -10.874 -5.821 -18.539 -1.65 -9.168 4.988 -12.074 16.333 -5.421 25.351" stroke-width="0.625"/><path fill="#E9E1BC" opacity="1.000000" stroke="none" d="M80.623 61.252c2.822 0.881 2.821 3.093 2.195 5.273 -0.543 1.893 -4.516 3.641 -6.133 2.914 -2.766 -1.242 -5.531 -2.494 -8.243 -3.849 -5.525 -2.759 -10.901 -2.504 -16.283 0.447 -1.968 1.079 -4.1 1.859 -6.164 2.761 -2.596 1.134 -4.836 0.53 -6.102 -1.938 -1.248 -2.431 -0.581 -4.959 1.188 -6.917 3.583 -3.967 8.317 -6.329 13.385 -7.299 8.278 -1.584 16.254 -0.206 23.303 4.752 1.17 0.823 1.916 2.249 2.667 3.538 -1.975 -1.006 -3.76 -2.151 -5.73 -3.321 -0.431 -0.068 -0.676 -0.112 -0.963 -0.383 -0.367 -0.609 -0.623 -1.212 -1.029 -1.341 -5.175 -1.636 -10.489 -2.898 -15.898 -2.01 -4.794 0.787 -9.539 2.179 -13.321 5.515 -2.817 2.486 -3.419 5.711 -1.692 7.634 1.489 1.659 4.407 1.366 7.306 -0.892 3.244 -2.527 6.921 -4.112 10.957 -3.559 4.427 0.606 8.752 1.953 13.256 3.004 0.134 0.029 0.404 0.075 0.453 0.292 1.527 2.268 3.877 3.129 5.697 1.81 1.095 -0.794 0.896 -3.396 1.232 -5.194 0.074 -0.394 -0.049 -0.824 -0.081 -1.237" stroke-width="0.625"/><path fill="#ECDC97" opacity="1.000000" stroke="none" d="M100.621 50.626c0.002 0.469 0.004 0.938 -0.158 1.766 -1.1 1.722 -2.034 3.086 -2.97 4.449 0 0 -0.304 0.033 -0.712 0.03 -2.394 -0.253 -4.702 0.181 -5.353 -2.456 0.512 -0.038 0.804 -0.057 1.283 -0.05 0.436 0.063 0.684 0.101 0.983 0.3 0.47 0.24 0.889 0.319 1.561 0.39 3.145 -0.755 4.066 -3.883 1.719 -6.35 -2.237 -2.352 -5.009 -4.194 -7.592 -6.452 -0.457 -0.451 -0.869 -0.71 -1.464 -1.063 -0.703 -0.194 -1.224 -0.294 -1.876 -0.447 -0.131 -0.054 -0.394 -0.159 -0.428 -0.354 -0.444 -0.458 -0.853 -0.722 -1.484 -1.014 -0.668 -0.053 -1.114 -0.078 -1.741 -0.188 -0.686 -0.255 -1.191 -0.425 -1.675 -0.714 0.021 -0.119 0.013 -0.359 0.098 -0.458 -0.019 -0.429 -0.123 -0.759 -0.201 -1.121 0.026 -0.031 0.081 -0.092 0.324 -0.074 1.228 0.301 2.276 0.453 3.188 0.89 3.231 1.547 6.416 3.192 9.619 4.8 0.313 0.359 0.624 0.717 1.186 1.344 1.647 1.604 3.044 2.939 4.441 4.275 0 0 0.006 -0.005 0.004 0.214 0.414 0.906 0.831 1.594 1.248 2.281" stroke-width="0.625"/><path fill="#ECDC97" opacity="1.000000" stroke="none" d="M85.639 51.234a43.75 43.75 0 0 1 -1.172 -0.776 40.625 40.625 0 0 0 -1.962 -1.089c-0.49 -0.195 -0.98 -0.391 -1.771 -0.801 -1.904 -0.914 -3.508 -1.614 -5.111 -2.314 -5.442 -0.854 -10.884 -1.708 -16.606 -2.744 -0.284 -0.288 -0.289 -0.393 -0.083 -0.642 2.806 -0.249 5.402 -0.352 8.197 -0.436 0.468 0.02 0.735 0.021 1.173 0.196 1.338 0.239 2.506 0.302 3.926 0.375 1.085 0.066 1.92 0.124 2.813 0.317 0.181 0.293 0.329 0.421 0.567 0.731 1.292 0.676 2.521 1.139 3.927 1.678 0.661 0.256 1.143 0.438 1.679 0.806 0.473 0.435 0.889 0.683 1.489 1.023 0.7 0.203 1.218 0.313 1.925 0.474 0.446 0.094 0.703 0.136 0.945 0.324 -0.014 0.144 0.008 0.434 0.05 0.627 0.454 0.454 0.866 0.714 1.426 1.133 0.846 0.313 1.544 0.467 2.336 0.769 0.448 0.449 0.801 0.749 1.163 1.242 0.046 0.45 0.086 0.706 0.099 1.136 -0.044 0.291 -0.063 0.408 -0.304 0.514 -1.718 -0.855 -3.211 -1.7 -4.705 -2.545" stroke-width="0.625"/><path fill="#EBDC9A" opacity="1.000000" stroke="none" d="M24.424 46.296c0.297 -0.173 0.595 -0.346 1.287 -0.58 0.71 -0.019 1.027 0.024 1.306 0.281 -0.943 1.856 -1.847 3.497 -2.749 5.162 0.002 0.024 0.05 0.025 -0.156 0.077 -0.056 1.296 0.095 2.541 0.277 3.985 0.451 0.448 0.871 0.696 1.511 0.956 0.661 -0.001 1.101 -0.015 1.747 -0.018 0.517 -0.224 0.831 -0.459 1.341 -0.704 0.716 -0.552 1.234 -1.092 1.975 -1.644 1.141 -0.612 2.041 -1.244 2.984 -1.804 1.814 -1.08 3.653 -2.12 5.44 -2.965 -1.717 1.901 -3.391 3.591 -5.066 5.281 -0.328 0.129 -0.655 0.258 -1.296 0.551 -1.012 0.772 -1.71 1.381 -2.407 1.991 0 0 0.007 0.01 -0.251 0.041 -2.375 0.216 -4.492 0.4 -6.61 0.585 -0.309 -0.361 -0.619 -0.721 -1.125 -1.413 -1.776 -3.954 0.001 -6.869 1.792 -9.782" stroke-width="0.625"/><path fill="#EAE2C7" opacity="1.000000" stroke="none" d="M27.054 45.784c-0.316 -0.044 -0.633 -0.086 -1.189 -0.144 1.351 -1.704 2.644 -3.974 4.59 -4.971 4.723 -2.421 9.749 -4.249 14.912 -6.141 0.263 0.294 0.267 0.413 0.128 0.694a621.25 621.25 0 0 1 -15.168 7.864c-0.673 0.429 -1.139 0.839 -1.686 1.407 -0.23 0.48 -0.381 0.801 -0.71 1.137 -0.411 0.063 -0.645 0.107 -0.878 0.153" stroke-width="0.625"/><path fill="#E8E3C8" opacity="1.000000" stroke="none" d="M45.637 35.059c-0.003 -0.119 -0.006 -0.237 -0.016 -0.533 2.786 -1.181 5.515 -2.727 8.385 -3.061 4.284 -0.498 8.669 -0.156 13.01 -0.12 0.328 0.003 0.653 0.416 0.787 0.895 -1.688 0.432 -3.184 0.61 -4.972 0.807 -5.925 0.684 -11.56 1.348 -17.194 2.011" stroke-width="0.625"/><path fill="#E8E3C8" opacity="1.000000" stroke="none" d="M93.719 42.291c-3.179 -1.388 -6.364 -3.033 -9.596 -4.58 -0.912 -0.437 -1.96 -0.589 -3.259 -1.096 -0.818 -0.544 -1.282 -0.977 -1.831 -1.163 -3 -1.018 -6.02 -1.975 -9.034 -2.954 1.373 0.006 2.777 -0.176 4.112 0.05 6.615 1.119 12.238 4.681 18.114 7.596 0.649 0.322 0.988 1.269 1.492 2.147" stroke-width="0.625"/><path fill="#EBDC9A" opacity="1.000000" stroke="none" d="m58.724 43.012 0.02 0.471c-3.566 1.035 -7.139 1.914 -11.158 2.819 -0.772 0.386 -1.097 0.746 -1.422 1.105 -0.259 0.019 -0.519 0.037 -1.198 0.098 -1.556 0.389 -2.694 0.736 -3.754 0.891 1.947 -1.454 3.817 -2.715 5.879 -4.091 1.303 -0.485 2.416 -0.855 3.648 -1.067 0.683 -0.109 1.246 -0.378 2.009 -0.671 0.465 -0.045 0.731 -0.064 1.126 0.079 1.703 0.231 3.276 0.299 4.85 0.367" stroke-width="0.625"/><path fill="#ECDC97" opacity="1.000000" stroke="none" d="M69.768 32.499a277.5 277.5 0 0 1 9.265 2.953c0.549 0.186 1.014 0.619 1.589 1.144 0.071 0.207 0.016 0.269 -0.244 0.276 -1.775 -0.381 -3.291 -0.771 -5.061 -1.183 -1.28 -0.088 -2.304 -0.153 -3.396 -0.394 -0.681 -0.246 -1.292 -0.318 -2.103 -0.388 -0.463 0.002 -0.726 0.001 -1.071 -0.214 -1.11 -0.431 -2.139 -0.648 -3.415 -0.877 -0.906 -0.014 -1.564 -0.017 -2.219 -0.213 0.006 -0.32 0.008 -0.449 0.009 -0.577 1.496 -0.177 2.993 -0.354 4.758 -0.549 0.73 -0.004 1.193 0.009 1.887 0.021" stroke-width="0.625"/><path fill="#EAE2C7" opacity="1.000000" stroke="none" d="M41.136 48.587c1.137 -0.347 2.274 -0.694 3.636 -1.066 -0.919 0.819 -2.025 1.719 -3.212 2.496a141.875 141.875 0 0 1 -7.014 4.298c1.45 -1.681 3.124 -3.371 5.054 -5.301 0.683 -0.302 1.109 -0.364 1.536 -0.425" stroke-width="0.625"/><path fill="#EAE2C3" opacity="1.000000" stroke="none" d="M85.659 51.451c1.474 0.627 2.968 1.472 4.821 2.404 0.529 0.216 0.651 0.381 0.729 0.579 0.87 2.617 3.177 2.184 5.419 2.448 -1.453 2.026 -3.661 1.151 -5.123 0.21 -2.196 -1.414 -3.908 -3.578 -5.846 -5.641" stroke-width="0.625"/><path fill="#DCDCDC" opacity="1.000000" stroke="none" d="M55.678 112.103c3.314 -0.231 6.679 -0.231 10.311 -0.221 -1.592 2.456 -7.506 2.706 -10.311 0.221" stroke-width="0.625"/><path fill="#EAE2C7" opacity="1.000000" stroke="none" d="M24.199 46.307c-1.566 2.901 -3.343 5.816 -1.726 9.686 -2.263 -0.046 -1.842 -1.829 -1.834 -3.301 0.014 -2.675 0.689 -5.054 3.561 -6.386" stroke-width="0.625"/><path fill="#E8E3C8" opacity="1.000000" stroke="none" d="M98.122 33.131c0.773 0.916 1.547 1.833 2.411 2.938 -0.461 0.3 -1.226 0.702 -1.531 0.478 -2.4 -1.762 -4.713 -3.646 -7.094 -5.7 1.719 0.591 3.481 1.391 5.598 2.211 0.356 0.02 0.616 0.074 0.616 0.074" stroke-width="0.625"/><path fill="#EAE2C7" opacity="1.000000" stroke="none" d="M23.817 57.729c2.058 -0.423 4.175 -0.607 6.545 -0.828 -1.027 2.19 -3.366 2.573 -6.545 0.828" stroke-width="0.625"/><path fill="#E8E3C8" opacity="1.000000" stroke="none" d="M97.62 56.99c0.809 -1.513 1.744 -2.877 2.843 -4.365 1.853 3.067 -0.609 3.681 -2.844 4.365" stroke-width="0.625"/><path fill="#E8E3C8" opacity="1.000000" stroke="none" d="M99.369 47.9c-1.397 -1.106 -2.794 -2.441 -4.279 -3.964 2.407 -0.038 3.667 1.488 4.28 3.964" stroke-width="0.625"/><path fill="#EAE2C3" opacity="1.000000" stroke="none" d="M75.726 46.443q2.25 0.767 4.811 2.099 -2.25 -0.766 -4.811 -2.099" stroke-width="0.625"/><path fill="#E8E3C8" opacity="1.000000" stroke="none" d="M100.774 50.49c-0.571 -0.551 -0.988 -1.239 -1.406 -2.143 0.519 0.524 1.039 1.265 1.406 2.143" stroke-width="0.625"/><path fill="#EAE2C7" opacity="1.000000" stroke="none" d="M30.844 56.866c0.471 -0.61 1.169 -1.219 2.072 -1.849 -0.478 0.603 -1.162 1.227 -2.072 1.85" stroke-width="0.625"/><path fill="#EAE2C3" opacity="1.000000" stroke="none" d="M82.525 49.569c0.542 0.097 1.104 0.393 1.759 0.866 -0.519 -0.104 -1.129 -0.386 -1.759 -0.866" stroke-width="0.625"/><path fill="#EAE2C7" opacity="1.000000" stroke="none" d="M46.367 47.409c0.122 -0.361 0.448 -0.721 0.969 -1.091 -0.124 0.357 -0.445 0.725 -0.969 1.091" stroke-width="0.625"/><path fill="#E8E4CD" opacity="1.000000" stroke="none" d="M81.216 10.996c-8.939 -0.179 -17.921 -0.596 -27.196 -1.034 0.444 -0.416 1.189 -1.164 1.923 -1.152 7.684 0.122 15.367 0.331 23.046 0.634 0.744 0.029 1.458 0.856 2.228 1.552" stroke-width="0.625"/><path fill="#E8E4CD" opacity="1.000000" stroke="none" d="M117.501 30.389c-2.849 -1.936 -5.703 -4.1 -8.654 -6.451 4.067 0.244 6.796 2.636 8.654 6.45" stroke-width="0.625"/><path fill="#E8E4CD" opacity="1.000000" stroke="none" d="M37.331 11.952c-2.961 1.411 -6.166 2.825 -9.606 4.262 1.469 -0.985 3.109 -2.129 4.896 -2.953 1.394 -0.642 2.971 -0.884 4.71 -1.309" stroke-width="0.625"/><path fill="#E8E4CD" opacity="1.000000" stroke="none" d="M93.089 14.766c-1.742 -0.495 -3.533 -1.201 -5.458 -2.071 1.713 0.511 3.562 1.186 5.458 2.071" stroke-width="0.625"/><path fill="#E8E4CD" opacity="1.000000" stroke="none" d="M50.465 9.829c-0.731 0.361 -1.618 0.568 -2.749 0.754 0.702 -0.316 1.647 -0.613 2.749 -0.754" stroke-width="0.625"/><path fill="#E8E4CD" opacity="1.000000" stroke="none" d="M103.712 19.79c-0.789 -0.253 -1.604 -0.729 -2.469 -1.409 0.781 0.26 1.613 0.722 2.469 1.409" stroke-width="0.625"/><path fill="#E8E4CD" opacity="1.000000" stroke="none" d="M96.837 16.668c-0.777 -0.269 -1.592 -0.747 -2.455 -1.429 0.773 0.271 1.596 0.745 2.455 1.429" stroke-width="0.625"/><path fill="#E8E4CD" opacity="1.000000" stroke="none" d="M100.588 17.939c-0.503 0.092 -1.034 -0.015 -1.703 -0.276 0.466 -0.077 1.069 0 1.702 0.276" stroke-width="0.625"/><path fill="#E8E4CD" opacity="1.000000" stroke="none" d="M105.556 21.088c-0.529 -0.096 -1.081 -0.409 -1.725 -0.899 0.506 0.109 1.103 0.395 1.725 0.899" stroke-width="0.625"/><path fill="#E8E4CD" opacity="1.000000" stroke="none" d="M85.619 12.277c-0.318 0.08 -0.666 -0.01 -1.131 -0.244 0.289 -0.071 0.694 0.001 1.13 0.244" stroke-width="0.625"/><path fill="#E8E4CD" opacity="1.000000" stroke="none" d="M108.097 22.96c-0.323 0.058 -0.664 -0.06 -1.113 -0.329 0.294 -0.05 0.694 0.051 1.113 0.329" stroke-width="0.625"/><path fill="#EFD359" opacity="1.000000" stroke="none" d="M98.351 33.126c-0.229 0.004 -0.488 -0.049 -0.617 -0.073 -2.904 -1.844 -5.495 -4.08 -8.489 -5.407 -10.161 -4.506 -20.944 -5.945 -31.955 -5.094 -16.732 1.294 -31.754 6.887 -43.917 18.848 -2.311 2.272 -4.857 2.634 -7.699 2.304 -2.572 -0.298 -4.698 -3.814 -3.591 -6.23 1.702 -3.714 4.153 -6.908 8.214 -8.794 0.263 0.011 0.35 0.1 0.249 0.28 -2.319 2.72 -4.811 5.076 -6.672 7.856 -1.655 2.471 -0.587 4.407 2.631 5.626 0.68 -0.002 1.134 -0.014 1.802 -0.021 1.119 -0.598 2.022 -1.202 3.089 -1.886 0.479 -0.434 0.796 -0.791 1.317 -1.167 0.896 -0.638 1.587 -1.256 2.486 -1.909 1.316 -1.064 2.422 -2.094 3.731 -3.131 0.688 -0.415 1.172 -0.823 1.675 -1.225 0.016 0.006 -0.007 -0.021 0.208 -0.034 1.329 -0.828 2.442 -1.644 3.777 -2.487 2.15 -1.069 4.079 -2.109 6.241 -3.154 4.136 -1.288 7.996 -2.728 11.953 -3.816 4.234 -1.164 8.558 -1.998 13.049 -2.976 0.483 -0.009 0.758 -0.019 1.327 -0.013 7.192 0.611 14.091 1.206 21.22 1.819 0.694 0.031 1.156 0.044 1.761 0.233 3.786 1.584 7.521 2.793 11.044 4.454 4.276 2.016 8.372 4.414 12.639 6.817 0.634 0.485 1.175 0.8 1.76 1.319 0.663 0.681 1.281 1.157 2.075 1.665 0.463 0.222 0.749 0.413 1.073 0.824 2.25 3.298 4.881 3.804 7.761 1.626 0.456 -0.448 0.721 -0.853 1.144 -1.401 0.621 -3.051 -1.202 -4.647 -3.397 -6.256 -0.644 -0.291 -1.154 -0.429 -1.704 -0.775 -0.461 -1.071 -0.882 -1.935 -1.304 -2.8 3.45 0.737 8.324 5.972 7.948 9.199 -0.189 1.617 -1.442 3.728 -2.816 4.421 -1.469 0.741 -4.044 0.736 -5.44 -0.102 -3.597 -2.157 -6.796 -4.974 -10.189 -7.48 -0.635 -0.469 -1.434 -0.716 -2.386 -1.061" stroke-width="0.625"/><path fill="#EFD359" opacity="1.000000" stroke="none" d="M17.977 23.576c2.759 -1.708 5.372 -3.735 8.3 -5.07 17.394 -7.929 35.566 -9.067 54.171 -5.757 10.748 1.913 19.97 7.208 28.831 13.252 0.319 0.217 0.489 0.65 0.526 1.226 -0.695 0.253 -1.188 0.263 -1.833 0.195 -0.45 -0.252 -0.746 -0.428 -1.086 -0.796 -0.45 -0.462 -0.856 -0.731 -1.452 -1.094 -1.285 -0.691 -2.38 -1.288 -3.536 -2.083 -1.094 -0.859 -2.126 -1.523 -3.353 -2.205 -0.452 -0.042 -0.709 -0.066 -1.027 -0.287 -0.879 -0.66 -1.698 -1.123 -2.712 -1.6 -0.459 -0.031 -0.722 -0.048 -1.047 -0.272 -4.011 -1.697 -7.958 -3.188 -12.11 -4.686 -0.478 -0.016 -0.75 -0.024 -1.177 -0.195 -0.895 -0.244 -1.636 -0.325 -2.581 -0.415 -0.474 -0.015 -0.745 -0.022 -1.192 -0.2 -1.526 -0.254 -2.876 -0.336 -4.498 -0.426 -1.54 -0.009 -2.808 -0.01 -4.264 -0.193 -4.228 -0.057 -8.267 0.066 -12.552 0.191 -0.899 0.019 -1.553 0.036 -2.478 0.02 -1.774 0.173 -3.276 0.379 -4.982 0.588 -0.475 0.011 -0.747 0.019 -1.286 0.007 -3.64 0.816 -7.013 1.653 -10.585 2.496 -0.464 0.029 -0.729 0.05 -1.196 0.071 -0.514 0.371 -0.826 0.744 -1.125 1.136 0.013 0.019 -0.021 -0.014 -0.198 0.004 -0.465 0.206 -0.751 0.394 -1.256 0.603 -0.9 0.244 -1.583 0.468 -2.495 0.696 -4.035 1.666 -7.84 3.325 -11.686 4.936 -0.041 -0.048 -0.119 -0.144 -0.119 -0.144" stroke-width="0.625"/><path fill="#EFD359" opacity="1.000000" stroke="none" d="M10.514 28.648c2.313 -1.688 4.67 -3.331 7.246 -5.024 0.217 -0.048 0.296 0.048 0.231 0.276 -2.493 1.779 -4.919 3.329 -7.344 4.879 0 0 -0.088 -0.089 -0.134 -0.132" stroke-width="0.625"/><path fill="#F1CC29" opacity="1.000000" stroke="none" d="M108.126 27.499c0.492 -0.009 0.984 -0.019 1.722 -0.061 0.529 0.158 0.811 0.347 1.24 0.624 0.568 0.953 0.99 1.816 1.226 2.894 -1.52 -1.01 -2.854 -2.234 -4.188 -3.458" stroke-width="0.625"/><path fill="#A19FA0" opacity="1.000000" stroke="none" d="M47.479 103.711c-6.54 -8.819 -3.634 -20.164 5.534 -25.152 7.664 -4.17 12.417 -2.791 18.539 1.65 6.912 5.016 8.06 11.709 5.736 18.86 -1.706 5.251 -5.755 9.389 -11.334 10.758 -7.12 1.747 -13.599 0.263 -18.475 -6.116m10.514 -3.043c4.741 1.261 7.196 0.308 9.687 -3.76 1.441 -2.354 1.188 -6.063 -0.557 -8.161 -2.352 -2.826 -6.719 -4.368 -9.665 -2.821 -2.429 1.275 -4.315 3.145 -4.458 6.513 -0.166 3.871 1.531 6.231 4.994 8.229" stroke-width="0.625"/><path fill="#ECDA8A" opacity="1.000000" stroke="none" d="M73.188 65.552c-4.369 -1.024 -8.694 -2.37 -13.121 -2.976 -4.036 -0.552 -7.714 1.032 -10.957 3.559 -2.898 2.258 -5.817 2.551 -7.306 0.892 -1.726 -1.923 -1.124 -5.148 1.693 -7.634 3.781 -3.336 8.527 -4.728 13.321 -5.515 5.409 -0.887 10.723 0.374 15.898 2.01 0.406 0.129 0.663 0.731 0.789 1.33 -5.085 -1.688 -10.166 -2.772 -15.373 -2.134 -5.316 0.652 -10.667 1.598 -14.372 6.172 -0.005 -0.004 0.003 0.003 -0.194 0.095 -1.282 1.538 -2.206 2.957 -0.446 4.6 1.741 1.625 3.26 0.446 4.675 -0.414 0.899 -0.546 1.523 -1.544 2.404 -2.365 0.134 -0.026 0.399 -0.085 0.645 -0.075 4.157 -0.617 8.05 -1.494 11.985 -1.775 2.166 -0.155 4.404 0.691 6.824 1.109 0.641 0.091 1.067 0.159 1.541 0.428 0.697 1.031 1.346 1.863 1.995 2.694" stroke-width="0.625"/><path fill="#F0D14D" opacity="1.000000" stroke="none" d="M73.322 65.581c-0.783 -0.86 -1.431 -1.691 -1.899 -2.751 1.989 0.719 3.797 1.669 5.595 2.612 1.389 -2.006 1.329 -2.591 -0.366 -4.106 -5.679 -5.074 -18.393 -6.803 -25.372 -3.484 -2.484 1.181 -5.01 2.275 -7.516 3.409 3.7 -4.579 9.05 -5.525 14.367 -6.177 5.206 -0.637 10.288 0.446 15.414 2.361 0.485 0.055 0.73 0.099 1.229 0.358 1.359 1.285 2.754 2.187 3.489 3.468 0.796 1.386 0.975 3.125 1.424 4.709 -1.587 -0.021 -3.175 -0.025 -4.763 -0.074 -0.401 -0.013 -0.799 -0.164 -1.198 -0.252 0 0 -0.271 -0.046 -0.405 -0.074" stroke-width="0.625"/><path fill="#ECDA8A" opacity="1.000000" stroke="none" d="M73.775 65.873c0.351 -0.129 0.748 0.022 1.15 0.034 1.586 0.049 3.174 0.053 4.762 0.074 -0.449 -1.585 -0.628 -3.324 -1.424 -4.709 -0.736 -1.281 -2.131 -2.183 -3.304 -3.444 1.716 0.954 3.501 2.1 5.475 3.335 0.189 0.089 0.191 0.088 0.19 0.089 0.031 0.414 0.154 0.844 0.081 1.238 -0.337 1.798 -0.138 4.4 -1.233 5.194 -1.819 1.319 -4.169 0.458 -5.697 -1.81" stroke-width="0.625"/><path fill="#F4C80B" opacity="1.000000" stroke="none" d="M53.746 42.482c-0.266 0.019 -0.532 0.039 -1.21 0.033 -0.912 0.172 -1.414 0.368 -1.916 0.564 -1.113 0.37 -2.225 0.74 -3.765 1.191 -0.903 0.089 -1.379 0.096 -1.996 -0.042 -2.76 1.188 -5.379 2.521 -8.188 3.879 -0.443 0.045 -0.696 0.066 -1.182 0.086 -2.101 0.552 -3.711 1.34 -3.779 3.731 -0.457 0.228 -0.742 0.417 -1.231 0.626 -0.698 0.599 -1.192 1.178 -1.956 1.769 -1.348 -0.006 -2.427 -0.024 -3.539 -0.264 -0.246 -1.106 -0.456 -1.988 -0.667 -2.87 0 0 -0.048 -0.002 0.175 -0.009 1.994 -1.847 3.762 -3.687 5.557 -5.715 0.041 -0.44 0.056 -0.692 0.158 -1.075 0.249 -0.259 0.413 -0.388 0.657 -0.472 0.081 0.044 0.263 0.056 0.348 0.237 2.094 0.663 7.408 -2.306 9.063 -4.732 0.656 -0.065 1.093 -0.109 1.769 -0.146 7.768 -2.629 15.377 -4.496 23.471 -3.103 1.426 0.246 2.988 -0.302 4.686 -0.491 0.461 0.004 0.725 0.016 1.062 0.244 2.459 1.087 4.825 2.019 7.242 2.791 0.65 0.208 1.454 -0.069 2.188 -0.123 0.505 0.171 1.01 0.341 1.69 0.804 0.781 0.61 1.386 0.927 2.204 1.25a20.625 20.625 0 0 0 1.061 -0.062s0.263 0.106 0.414 0.378c0.654 1.011 1.023 1.911 1.683 2.462 2.641 2.205 5.425 4.24 8.027 6.488 0.543 0.469 0.534 1.578 0.779 2.391 -0.926 0.169 -1.867 0.529 -2.774 0.459 -1.093 -0.084 -2.158 -0.534 -3.235 -0.826 -0.354 -0.3 -0.708 -0.6 -1.147 -1.275 -0.863 -1.894 -1.627 -3.439 -3.804 -2.447 -0.258 -0.043 -0.514 -0.086 -0.976 -0.402 -1.117 -3.663 -4.124 -2.911 -6.479 -3.446 -0.001 0.004 0.004 -0.005 -0.038 -0.213 -1.066 -0.461 -2.089 -0.712 -3.113 -0.966 -0.834 -0.057 -1.669 -0.116 -2.866 -0.313 -0.703 -0.43 -1.042 -0.721 -1.208 -1.042 0.395 -1.638 -0.191 -1.934 -2.366 -1.212 -0.689 0.185 -1.172 0.369 -1.896 0.556 -1.331 -0.194 -2.421 -0.391 -3.543 -0.762 -0.437 -0.059 -0.842 0.056 -1.525 0.183 -1.947 0.042 -3.616 0.07 -5.504 0.077 -0.734 0.362 -1.248 0.746 -1.891 1.212 -0.297 0.215 -0.401 0.388 -0.44 0.598" stroke-width="0.625"/><path fill="#F0CE38" opacity="1.000000" stroke="none" d="M90.55 52.128c1.07 0.098 2.135 0.548 3.228 0.633 0.907 0.071 1.849 -0.289 2.775 -0.459 -0.246 -0.814 -0.237 -1.922 -0.78 -2.391 -2.602 -2.248 -5.386 -4.283 -8.027 -6.488 -0.66 -0.551 -1.029 -1.45 -1.552 -2.407 0.501 -0.119 1.022 -0.02 1.764 0.37 0.637 0.546 1.054 0.802 1.47 1.058 2.537 2.067 5.309 3.909 7.547 6.261 2.347 2.467 1.426 5.595 -1.835 6.189a13.75 13.75 0 0 0 -1.496 -0.39c-0.249 -0.037 -0.497 -0.076 -0.978 -0.343 -0.819 -0.509 -1.404 -0.79 -1.991 -1.071a16.875 16.875 0 0 1 -0.125 -0.961" stroke-width="0.625"/><path fill="#F0CE38" opacity="1.000000" stroke="none" d="M80.715 38.473c-0.755 0.173 -1.559 0.449 -2.209 0.241 -2.417 -0.772 -4.783 -1.704 -7.041 -2.848 0.26 -0.314 0.393 -0.356 0.525 -0.398 1.024 0.066 2.047 0.132 3.392 0.425 1.996 0.891 3.671 1.555 5.346 2.219 0 0 0.008 0.241 -0.013 0.359" stroke-width="0.625"/><path fill="#EED462" opacity="1.000000" stroke="none" d="M80.813 38.016a36 36 0 0 1 -5.175 -2.1c1.45 0.185 2.965 0.575 4.714 0.988 0.338 0.353 0.443 0.684 0.461 1.113" stroke-width="0.625"/><path fill="#F0CE38" opacity="1.000000" stroke="none" d="M84.375 40.639c-0.605 -0.317 -1.21 -0.634 -1.809 -1.159 0.451 -0.183 0.897 -0.158 1.567 0.101 0.231 0.508 0.237 0.783 0.242 1.058" stroke-width="0.625"/><path fill="#EED462" opacity="1.000000" stroke="none" d="M90.649 53.264c0.613 0.106 1.198 0.386 1.829 0.871 -0.246 0.222 -0.538 0.241 -1.05 0.279 -0.297 -0.179 -0.419 -0.343 -0.724 -0.549 -0.118 -0.193 -0.1 -0.309 -0.056 -0.601" stroke-width="0.625"/><path fill="#EED462" opacity="1.000000" stroke="none" d="M93.694 54.664c0.325 -0.083 0.701 -0.003 1.192 0.236 -0.302 0.083 -0.722 0.004 -1.192 -0.236" stroke-width="0.625"/><path fill="#EED462" opacity="1.000000" stroke="none" d="M84.588 40.645c-0.219 -0.281 -0.224 -0.556 -0.232 -1.037 0.406 0.059 0.816 0.323 1.259 0.781 -0.249 0.217 -0.531 0.239 -1.027 0.256" stroke-width="0.625"/><path fill="#EED462" opacity="1.000000" stroke="none" d="M89.382 42.252c-0.371 -0.065 -0.787 -0.321 -1.243 -0.773 0.374 0.063 0.786 0.323 1.244 0.773" stroke-width="0.625"/><path fill="#EED462" opacity="1.000000" stroke="none" d="M63.139 40.585c1.09 0.198 2.18 0.396 3.509 0.798 0.254 0.479 0.269 0.754 0.284 1.029 -2.596 0.104 -5.191 0.208 -7.997 0.456 -1.784 0.076 -3.357 0.009 -5.06 -0.222 -0.089 -0.374 0.014 -0.546 0.533 -0.741 0.863 -0.445 1.377 -0.828 1.89 -1.211 1.669 -0.029 3.337 -0.057 5.497 -0.076 0.775 -0.005 1.059 -0.019 1.344 -0.033" stroke-width="0.625"/><path fill="#F0CE38" opacity="1.000000" stroke="none" d="M78.136 44.36c2.354 0.539 5.362 -0.213 6.29 3.399 -0.502 0.112 -1.02 0.003 -1.761 -0.397 -0.65 -0.531 -1.077 -0.772 -1.504 -1.014 -0.482 -0.181 -0.964 -0.362 -1.719 -0.772a56.25 56.25 0 0 1 -1.306 -1.216" stroke-width="0.625"/><path fill="#F0CE38" opacity="1.000000" stroke="none" d="M85.576 48.356c2.192 -1.136 2.956 0.409 3.726 2.154 -0.706 0.073 -1.405 -0.081 -2.289 -0.589 -0.6 -0.613 -1.014 -0.872 -1.429 -1.131 0 0 -0.022 -0.29 -0.008 -0.434" stroke-width="0.625"/><path fill="#EED462" opacity="1.000000" stroke="none" d="M78.136 44.364c0.345 0.325 0.689 0.654 1.128 1.136 -1.133 -0.309 -2.361 -0.772 -3.429 -1.454 0.875 -0.042 1.59 0.136 2.305 0.313 0 0 -0.004 0.009 -0.004 0.006" stroke-width="0.625"/><path fill="#F0CE38" opacity="1.000000" stroke="none" d="M78.097 44.15c-0.673 0.031 -1.388 -0.146 -2.328 -0.318 -0.398 -0.092 -0.546 -0.22 -0.726 -0.512 0.964 0.117 1.988 0.37 3.054 0.831" stroke-width="0.625"/><path fill="#EED462" opacity="1.000000" stroke="none" d="M70.737 41.861c0.34 0.291 0.68 0.581 1.131 1.003 -1.057 0.066 -2.225 0.003 -3.487 -0.368 0.042 -0.467 0.206 -0.589 0.639 -0.659 0.734 0.018 1.225 0.021 1.717 0.024" stroke-width="0.625"/><path fill="#F0CE38" opacity="1.000000" stroke="none" d="M68.777 41.822c-0.191 0.085 -0.354 0.207 -0.566 0.499 -0.344 0.131 -0.613 0.131 -1.079 0.111 -0.214 -0.295 -0.229 -0.57 -0.242 -1.053 0.485 -0.393 0.969 -0.576 1.659 -0.559 0.214 0.468 0.222 0.735 0.229 1.002" stroke-width="0.625"/><path fill="#EED462" opacity="1.000000" stroke="none" d="M85.626 48.984q0.559 0.099 1.24 0.779 -0.559 -0.099 -1.24 -0.779" stroke-width="0.625"/><path fill="#EED462" opacity="1.000000" stroke="none" d="M81.217 46.536c0.372 0.054 0.799 0.296 1.266 0.734 -0.377 -0.051 -0.794 -0.299 -1.266 -0.734" stroke-width="0.625"/><path fill="#EED462" opacity="1.000000" stroke="none" d="M30.684 52.531c0.284 -0.189 0.569 -0.378 1.214 -0.698 1.514 -1.3 2.669 -2.471 3.824 -3.641 0.253 -0.02 0.506 -0.041 1.176 -0.096 2.978 -1.264 5.54 -2.494 8.103 -3.723a28.75 28.75 0 0 1 1.664 0.011c-1.634 1.294 -3.505 2.556 -5.452 4.009 -0.503 0.254 -0.93 0.316 -1.571 0.406 -2.042 1.086 -3.881 2.125 -5.696 3.206 -0.943 0.561 -1.843 1.192 -3.016 1.589 -0.251 -0.49 -0.249 -0.777 -0.246 -1.066" stroke-width="0.625"/><path fill="#F0CE38" opacity="1.000000" stroke="none" d="M30.024 45.65c-1.769 1.84 -3.539 3.68 -5.533 5.503 0.679 -1.659 1.584 -3.3 2.526 -5.156 0.271 -0.259 0.504 -0.304 1.155 -0.354 0.896 -0.001 1.374 0.003 1.853 0.006" stroke-width="0.625"/><path fill="#F2CB22" opacity="1.000000" stroke="none" d="M24.111 51.237c0.418 0.831 0.628 1.713 0.861 2.986 0.017 0.5 0.013 0.611 -0.147 0.737 -0.26 0.031 -0.363 0.047 -0.467 0.063 -0.151 -1.244 -0.301 -2.489 -0.246 -3.786" stroke-width="0.625"/><path fill="#F0CE38" opacity="1.000000" stroke="none" d="M24.98 54.944c0.004 -0.11 0.008 -0.221 0.025 -0.498 1.092 -0.15 2.171 -0.133 3.515 0.025 0.266 0.141 0.264 0.443 0.072 0.499 -0.512 0.431 -0.831 0.806 -1.15 1.18 -0.441 0.014 -0.881 0.027 -1.576 -0.149a8.563 8.563 0 0 1 -0.886 -1.056" stroke-width="0.625"/><path fill="#F2CB22" opacity="1.000000" stroke="none" d="M28.784 54.913s0.002 -0.301 0.006 -0.453c0.498 -0.731 0.993 -1.31 1.69 -1.909 0.202 0.268 0.199 0.555 0.228 1.057 -0.486 0.756 -1.004 1.296 -1.716 1.709 -0.193 -0.126 -0.209 -0.404 -0.209 -0.404" stroke-width="0.625"/><path fill="#EED462" opacity="1.000000" stroke="none" d="M28.592 54.969c0.192 -0.056 0.208 0.222 0.203 0.36 -0.318 0.372 -0.631 0.607 -1.148 0.831 0.114 -0.385 0.433 -0.76 0.945 -1.191" stroke-width="0.625"/><path fill="#EED462" opacity="1.000000" stroke="none" d="M24.824 54.96c0.367 0.273 0.578 0.563 0.822 1.029 -0.387 -0.071 -0.806 -0.319 -1.258 -0.767 0.073 -0.215 0.176 -0.231 0.436 -0.263" stroke-width="0.625"/><path fill="#EED462" opacity="1.000000" stroke="none" d="M41.804 39.266c-0.438 0.044 -0.874 0.089 -1.755 0.159 -3.27 1.532 -6.096 3.039 -8.922 4.546 0 0 -0.182 -0.013 -0.331 -0.256 -0.186 -0.379 -0.224 -0.514 -0.262 -0.649 4.939 -2.561 9.878 -5.121 14.961 -7.844 5.777 -0.827 11.411 -1.491 17.337 -2.175 0.289 0.108 0.288 0.237 0.089 0.722 -5.352 1.077 -10.544 1.603 -15.639 2.616 -1.941 0.386 -3.659 1.888 -5.478 2.882" stroke-width="0.625"/><path fill="#EED462" opacity="1.000000" stroke="none" d="M30.049 45.462c-0.504 0.184 -0.982 0.18 -1.7 0.164 -0.088 -0.333 0.063 -0.654 0.527 -1.11 0.624 -0.09 0.934 -0.044 1.245 0.001 -0.016 0.252 -0.031 0.504 -0.073 0.944" stroke-width="0.625"/><path fill="#EBDC9A" opacity="1.000000" stroke="none" d="M30.206 44.387c-0.396 0.086 -0.706 0.04 -1.25 -0.029 0.232 -0.434 0.698 -0.843 1.371 -1.272 0.245 0.115 0.283 0.25 0.388 0.585 -0.096 0.329 -0.259 0.456 -0.509 0.716" stroke-width="0.625"/><path fill="#EED462" opacity="1.000000" stroke="none" d="M50.739 43.238c0.383 -0.354 0.884 -0.55 1.598 -0.696 -0.352 0.318 -0.916 0.586 -1.598 0.696" stroke-width="0.625"/><path fill="#F0CE38" opacity="1.000000" stroke="none" d="M42.044 39.274c1.579 -1.002 3.297 -2.504 5.238 -2.89 5.096 -1.013 10.288 -1.539 15.634 -2.423 0.852 -0.163 1.511 -0.159 2.489 0.073 1.354 0.444 2.389 0.659 3.423 0.874 0.264 0 0.528 0.001 0.984 0.196 0.192 0.324 0.191 0.454 0.191 0.584 -1.499 0.181 -3.061 0.729 -4.487 0.484 -8.094 -1.393 -15.704 0.474 -23.471 3.103" stroke-width="0.625"/><path fill="#EED462" opacity="1.000000" stroke="none" d="M68.748 34.694c-0.954 -0.001 -1.989 -0.216 -3.096 -0.648 0.957 0 1.986 0.217 3.096 0.648" stroke-width="0.625"/><path fill="#EED462" opacity="1.000000" stroke="none" d="M70.201 35.68c-0.198 -0.122 -0.197 -0.253 -0.191 -0.578 0.617 -0.124 1.229 -0.053 1.91 0.194 -0.064 0.216 -0.196 0.258 -0.53 0.356 -0.465 0.044 -0.728 0.033 -1.189 0.028" stroke-width="0.625"/><path fill="#F4C705" opacity="1.000000" stroke="none" d="M107.972 27.422c1.488 1.301 2.822 2.524 4.381 3.742 0.735 0.131 1.246 0.27 1.89 0.791 1.169 2.311 2.203 4.24 3.238 6.169 -0.265 0.405 -0.53 0.809 -1.252 1.241 -2.816 -0.592 -5.174 -1.211 -7.531 -1.831 -0.288 -0.19 -0.574 -0.381 -1.056 -0.819 -0.831 -0.717 -1.465 -1.185 -2.099 -1.653 -0.541 -0.315 -1.081 -0.629 -1.737 -1.338 -1.13 -1.186 -2.054 -2.15 -3.175 -2.742 -5.358 -2.835 -10.721 -5.673 -16.2 -8.261 -1.236 -0.584 -2.941 -0.173 -4.429 -0.22 -0.463 -0.013 -0.925 -0.026 -1.676 -0.268 -6.769 -4.103 -13.873 -2.664 -20.809 -2.591 -0.219 0.003 -0.431 0.63 -0.646 0.966 -0.276 0.01 -0.551 0.019 -1.214 -0.144 -1.505 -0.259 -2.681 -0.616 -3.729 -0.386 -4.509 0.988 -9.081 1.852 -13.429 3.349 -2.741 0.944 -6.353 0.578 -7.896 4.006 -1.929 1.041 -3.859 2.081 -6.138 3.011 -1.521 0.806 -2.692 1.722 -3.862 2.639 0 0 0.023 0.027 -0.206 0.031 -0.707 0.411 -1.186 0.817 -1.663 1.222 -1.107 1.03 -2.214 2.059 -3.756 3.127 -1.112 0.667 -1.789 1.296 -2.466 1.925 -0.316 0.356 -0.633 0.712 -1.336 1.151 -1.286 0.68 -2.183 1.277 -3.08 1.874 -0.454 0.013 -0.907 0.026 -1.627 -0.186 -1.396 -2.161 -3.216 -4.266 -0.772 -6.246 5.076 -4.112 10.283 -8.074 15.579 -11.898 2.755 -1.989 5.817 -3.553 8.74 -5.308 0.683 -0.222 1.366 -0.446 2.371 -0.549 0.658 -0.175 0.993 -0.469 1.328 -0.762 0 0 0.033 0.034 0.216 -0.003 0.498 -0.397 0.815 -0.757 1.131 -1.119 0.265 -0.021 0.53 -0.042 1.156 0.088 3.485 -0.41 6.615 -0.94 9.724 -1.572 0.379 -0.077 0.647 -0.696 0.967 -1.064 0.271 -0.008 0.542 -0.016 1.197 0.137 1.946 -0.133 3.51 -0.425 5.074 -0.719 0.654 -0.017 1.308 -0.034 2.405 0.112 4.476 0.051 8.509 -0.062 12.542 -0.175 1.269 0.001 2.537 0.003 4.145 0.231 1.762 0.278 3.184 0.328 4.606 0.378 0.271 0.006 0.542 0.013 1.069 0.23 1.065 0.266 1.874 0.321 2.683 0.376 0.273 0.008 0.546 0.017 1.077 0.251 4.213 1.709 8.166 3.192 12.119 4.674 0.263 0.018 0.525 0.034 1.014 0.288 1.065 0.683 1.904 1.129 2.743 1.575 0.258 0.024 0.516 0.048 0.998 0.309 1.276 0.886 2.33 1.534 3.383 2.181 1.095 0.598 2.19 1.196 3.509 2.086a10.813 10.813 0 0 0 1.462 1.087c0.296 0.175 0.591 0.351 1.041 0.603" stroke-width="0.625"/><path fill="#F2CA1F" opacity="1.000000" stroke="none" d="M29.782 18.784c-2.694 1.75 -5.756 3.313 -8.511 5.302C15.976 27.909 10.769 31.871 5.694 35.983c-2.444 1.98 -0.624 4.084 0.546 6.235 -2.953 -0.995 -4.02 -2.932 -2.365 -5.402 1.861 -2.779 4.353 -5.136 6.672 -7.856 2.527 -1.73 4.953 -3.281 7.485 -5.012 3.911 -1.839 7.716 -3.498 11.751 -5.164" stroke-width="0.625"/><path fill="#F2CA1E" opacity="1.000000" stroke="none" d="M80.144 22.676c1.345 -0.129 3.05 -0.539 4.286 0.044 5.479 2.589 10.842 5.427 16.2 8.263 1.121 0.593 2.045 1.556 3.081 2.572 -4.152 -2.01 -8.248 -4.408 -12.523 -6.424 -3.523 -1.661 -7.259 -2.869 -11.044 -4.454" stroke-width="0.625"/><path fill="#F2CA1E" opacity="1.000000" stroke="none" d="M30.832 27.429c1.311 -3.424 4.923 -3.059 7.664 -4.002 4.348 -1.497 8.92 -2.362 13.429 -3.349 1.048 -0.229 2.225 0.128 3.522 0.386 -4.104 1.151 -8.428 1.984 -12.662 3.149 -3.956 1.088 -7.817 2.527 -11.953 3.816" stroke-width="0.625"/><path fill="#F2CA1E" opacity="1.000000" stroke="none" d="M57.162 20.625c-0.078 -0.352 0.134 -0.98 0.353 -0.983 6.936 -0.073 14.04 -1.512 20.579 2.572 -6.841 -0.384 -13.74 -0.979 -20.932 -1.59" stroke-width="0.625"/><path fill="#F2CA1E" opacity="1.000000" stroke="none" d="M108.734 37.756c2.321 0.398 4.679 1.017 7.304 1.653 -2.423 2.151 -5.054 1.645 -7.304 -1.653" stroke-width="0.625"/><path fill="#F1CC29" opacity="1.000000" stroke="none" d="M117.64 37.981c-1.194 -1.786 -2.228 -3.715 -3.264 -5.875 2.061 1.228 3.884 2.824 3.264 5.875" stroke-width="0.625"/><path fill="#F2CA1F" opacity="1.000000" stroke="none" d="M20.815 33.07a20 20 0 0 1 3.427 -2.598c-0.984 0.954 -2.098 1.77 -3.427 2.598" stroke-width="0.625"/><path fill="#F2CA1F" opacity="1.000000" stroke="none" d="M8.308 42.421c0.682 -0.604 1.579 -1.2 2.702 -1.802 -0.679 0.6 -1.583 1.204 -2.702 1.802" stroke-width="0.625"/><path fill="#F2CA1F" opacity="1.000000" stroke="none" d="M12.714 39.369c0.472 -0.608 1.149 -1.238 2.052 -1.87 -0.465 0.614 -1.156 1.231 -2.052 1.87" stroke-width="0.625"/><path fill="#F2CA1E" opacity="1.000000" stroke="none" d="M105.586 35.266c0.59 0.264 1.225 0.731 1.88 1.416 -0.598 -0.259 -1.217 -0.736 -1.88 -1.416" stroke-width="0.625"/><path fill="#F2CA1F" opacity="1.000000" stroke="none" d="M18.932 34.329c0.276 -0.398 0.754 -0.804 1.445 -1.221 -0.273 0.398 -0.758 0.805 -1.445 1.221" stroke-width="0.625"/><path fill="#F2CC2A" opacity="1.000000" stroke="none" d="M67.935 12.971c-3.845 0.295 -7.878 0.408 -12.109 0.356 3.842 -0.29 7.881 -0.414 12.109 -0.356" stroke-width="0.625"/><path fill="#F2CC2A" opacity="1.000000" stroke="none" d="M93.759 19.086a150 150 0 0 1 -11.852 -4.46c3.894 1.272 7.841 2.763 11.852 4.46" stroke-width="0.625"/><path fill="#F2CC2A" opacity="1.000000" stroke="none" d="M46.638 13.777c-0.052 0.388 -0.321 1.007 -0.699 1.084 -3.109 0.631 -6.239 1.163 -9.525 1.564 3.211 -0.995 6.584 -1.831 10.225 -2.647" stroke-width="0.625"/><path fill="#F2CC2A" opacity="1.000000" stroke="none" d="M52.905 13.181c-1.293 0.327 -2.856 0.62 -4.6 0.75 1.324 -0.371 2.826 -0.577 4.6 -0.75" stroke-width="0.625"/><path fill="#F2CC2A" opacity="1.000000" stroke="none" d="M76.697 13.591c-1.246 0.121 -2.669 0.071 -4.159 -0.2 1.282 -0.137 2.632 -0.054 4.159 0.2" stroke-width="0.625"/><path fill="#F2CC2A" opacity="1.000000" stroke="none" d="M101.899 23.45c-0.993 -0.451 -2.046 -1.099 -3.129 -1.967 1.003 0.444 2.036 1.107 3.129 1.967" stroke-width="0.625"/><path fill="#F2CC2A" opacity="1.000000" stroke="none" d="M97.519 20.958c-0.779 -0.249 -1.618 -0.694 -2.486 -1.364 0.789 0.241 1.607 0.704 2.486 1.364" stroke-width="0.625"/><path fill="#F2CC2A" opacity="1.000000" stroke="none" d="M80.471 14.205c-0.654 0.107 -1.463 0.053 -2.325 -0.204 0.689 -0.121 1.43 -0.04 2.325 0.204" stroke-width="0.625"/><path fill="#F1CC29" opacity="1.000000" stroke="none" d="M106.886 26.626c-0.369 -0.073 -0.781 -0.338 -1.228 -0.802 0.372 0.071 0.779 0.34 1.228 0.802" stroke-width="0.625"/><path fill="#F2CC2A" opacity="1.000000" stroke="none" d="M34.856 16.344c-0.114 0.362 -0.431 0.723 -0.943 1.101 0.117 -0.356 0.429 -0.729 0.943 -1.1" stroke-width="0.625"/><path fill="#F2CC2A" opacity="1.000000" stroke="none" d="M33.534 17.485c-0.158 0.275 -0.493 0.569 -0.932 0.722 0.181 -0.329 0.468 -0.516 0.932 -0.722" stroke-width="0.625"/><path fill="transparent" opacity="1.000000" stroke="none" d="M57.758 100.604c-3.227 -1.934 -4.924 -4.294 -4.758 -8.166 0.144 -3.367 2.029 -5.237 4.458 -6.512 2.946 -1.546 7.313 -0.004 9.665 2.821 1.745 2.098 1.999 5.806 0.557 8.161 -2.491 4.068 -4.946 5.021 -9.922 3.696" stroke-width="0.625"/><path fill="#F2C919" opacity="1.000000" stroke="none" d="M43.758 61.257c2.511 -1.129 5.038 -2.224 7.521 -3.405 6.98 -3.319 19.694 -1.59 25.372 3.484 1.695 1.515 1.755 2.1 0.366 4.106 -1.798 -0.944 -3.606 -1.893 -5.643 -2.813 -0.656 -0.039 -1.081 -0.108 -1.787 -0.41 -5.263 -3.522 -10.536 -2.596 -15.774 -1.157 -1.169 0.321 -2.149 1.331 -3.216 2.025 0 0 -0.266 0.059 -0.642 0.063 -0.859 0.139 -1.353 0.244 -1.824 0.413 -1.181 0.423 -2.352 0.873 -3.526 1.313l-0.844 -3.616z" stroke-width="0.625"/><path fill="#F0D14D" opacity="1.000000" stroke="none" d="M50.843 63.098c0.821 -0.704 1.801 -1.714 2.971 -2.036 5.239 -1.439 10.511 -2.365 15.559 1.135 -2.141 -0.184 -4.378 -1.03 -6.544 -0.875 -3.936 0.281 -7.829 1.157 -11.986 1.775" stroke-width="0.625"/><path fill="#F0D14D" opacity="1.000000" stroke="none" d="M43.565 61.352c0.478 1.113 0.759 2.319 1.04 3.524 1.175 -0.439 2.345 -0.89 3.526 -1.313 0.471 -0.168 0.964 -0.274 1.69 -0.386 -0.505 0.817 -1.129 1.814 -2.028 2.361 -1.416 0.861 -2.935 2.039 -4.676 0.414 -1.761 -1.643 -0.836 -3.063 0.447 -4.6" stroke-width="0.625"/><path fill="#F0CE38" opacity="1.000000" stroke="none" d="M31.212 44.153c2.741 -1.688 5.567 -3.194 8.619 -4.706 -1.211 2.4 -6.525 5.369 -8.619 4.706" stroke-width="0.625"/><path fill="#F2CB22" opacity="1.000000" stroke="none" d="M44.859 44.229c-2.421 1.375 -4.983 2.604 -7.772 3.844 2.393 -1.323 5.012 -2.656 7.772 -3.844" stroke-width="0.625"/><path fill="#F2CB22" opacity="1.000000" stroke="none" d="M35.489 48.194c-0.922 1.169 -2.077 2.34 -3.419 3.601 -0.292 -2.261 1.318 -3.049 3.419 -3.601" stroke-width="0.625"/><path fill="#F2CB22" opacity="1.000000" stroke="none" d="M69.02 41.837c-0.25 -0.283 -0.258 -0.55 -0.267 -1.019 1.968 -0.921 2.554 -0.625 2.159 1.013a26.875 26.875 0 0 1 -1.892 0.006" stroke-width="0.625"/><path fill="#F0CE38" opacity="1.000000" stroke="none" d="M56.078 40.672q-0.44 0.607 -1.541 1.15 0.44 -0.607 1.541 -1.15" stroke-width="0.625"/><path fill="#F2CB22" opacity="1.000000" stroke="none" d="M63.107 40.411c-0.253 0.188 -0.537 0.201 -1.034 0.194 0.192 -0.138 0.597 -0.253 1.034 -0.194" stroke-width="0.625"/></svg>