<?xml version="1.0" encoding="UTF-8"?>
<svg id="Layer_2" data-name="Layer 2" xmlns="http://www.w3.org/2000/svg" viewBox="0 0 389.83 389.76">
  <defs>
    <style>
      .cls-1 {
        fill: #025295;
      }

      .cls-2 {
        fill: #ef4123;
      }
    </style>
  </defs>
  <g id="Layer_1-2" data-name="Layer 1">
    <path class="cls-2" d="M122.11,205.79c2.23,16.85,10.4,32.35,23.04,43.71,12.64,11.36,28.91,17.85,45.91,18.29,16.99.44,33.58-5.19,46.79-15.89,13.21-10.69,22.17-25.75,25.27-42.46l119.83-65.02c-1.44-5.18-3.06-10.17-4.84-14.97l-114.03,61.86c-.1-1.43-.16-2.86-.35-4.3-2.21-16.69-10.25-32.06-22.7-43.4-12.45-11.34-28.51-17.91-45.33-18.55-16.83-.64-33.34,4.68-46.62,15.03-13.28,10.35-22.48,25.06-25.96,41.53L6.96,245.09c-.3,3.99,1.11,9.62,3.34,15.79l111.35-60.87c.1,1.92.22,3.84.47,5.77Z"/>
    <path class="cls-1" d="M301.08,225.78c-6.62,22.73-20.36,42.74-39.21,57.08-18.85,14.34-41.8,22.25-65.48,22.56-23.68.32-46.83-6.98-66.06-20.81-19.22-13.83-33.5-33.46-40.72-56.01l-74.78,40.88c29.29,70.61,98.88,120.29,180.09,120.29,107.65,0,194.91-87.25,194.91-194.89,0-5.79-.3-11.52-.78-17.18l-87.96,48.08Z"/>
    <path class="cls-1" d="M194.92,0c-27.6-.02-54.89,5.84-80.05,17.18-25.16,11.35-47.61,27.93-65.87,48.63C26.47,88.35,14.22,116,7.65,141.17h-.08C2.56,158.64.01,176.71,0,194.88c0,5.18.25,10.28.64,15.35.08,1.26.15,1.94.15,1.94l87.91-48.06c6.6-22.76,20.34-42.8,39.19-57.16,18.85-14.36,41.82-22.29,65.52-22.61,23.7-.32,46.88,6.98,66.11,20.83,19.23,13.85,33.51,33.51,40.72,56.09l74.82-40.85C345.78,49.72,276.17,0,194.92,0Z"/>
  </g>
</svg>