<svg width="166" height="44" viewBox="0 0 166 44" fill="none" xmlns="http://www.w3.org/2000/svg">
<path fill-rule="evenodd" clip-rule="evenodd" d="M22.3702 44.0002C34.4487 44.0002 44.2403 34.1509 44.2403 22.0011C44.2403 9.85131 34.4487 0.00195312 22.3702 0.00195312C10.2916 0.00195312 0.5 9.85131 0.5 22.0011C0.5 34.1509 10.2916 44.0002 22.3702 44.0002ZM27.0104 9.8864C26.7938 9.53816 26.3675 9.38548 25.9787 9.51929L11.0785 14.6949C10.792 14.7944 10.5771 15.0345 10.5089 15.3313C10.4407 15.6281 10.5294 15.9386 10.7442 16.1547L15.6217 21.0592C15.794 21.2325 16.0174 21.3183 16.2425 21.3183C16.4676 21.3183 16.6927 21.2325 16.8633 21.0592L26.8859 10.9774C27.1759 10.6858 27.227 10.2329 27.0087 9.88469L27.0104 9.8864ZM34.018 17.6883C34.4187 17.5494 34.8604 17.7072 35.0838 18.0675L35.0821 18.0657C35.3055 18.426 35.2527 18.8943 34.9542 19.1945L19.551 34.6886C19.3736 34.867 19.1417 34.9562 18.9097 34.9562C18.6778 34.9562 18.4459 34.867 18.2685 34.6886L10.7732 27.1491C10.5532 26.9278 10.4611 26.6071 10.5311 26.3C10.601 25.9946 10.8244 25.7459 11.1194 25.643L34.018 17.6883Z" fill="#00B2A9"/>
<path d="M55.3125 12.2811C55.3125 10.8046 56.0362 10.0664 57.4835 10.0664C58.9308 10.0664 59.6545 10.8046 59.6545 12.2811C59.6545 13.7987 58.9308 14.5575 57.4835 14.5575C56.0362 14.5575 55.3125 13.7987 55.3125 12.2811ZM55.3892 31.0037V18.4447C55.3892 17.0918 56.0873 16.4153 57.4835 16.4153C58.8796 16.4153 59.5777 17.0918 59.5777 18.4447V31.0037C59.5777 32.3566 58.8796 33.0331 57.4835 33.0331C56.0873 33.0331 55.3892 32.3566 55.3892 31.0037Z" fill="#2E4057"/>
<path d="M63.4568 31.0028V20.4115C63.4568 18.6617 63.5182 18.2277 64.55 17.6393C65.7966 16.9428 67.9522 16.1211 70.8003 16.1211C75.3111 16.1211 77.8965 18.6445 77.8965 22.7171V31.0011C77.8965 32.354 77.1984 33.0304 75.8022 33.0304C74.4061 33.0304 73.7029 32.354 73.6926 31.0011V23.1802C73.6926 21.2452 72.6609 20.1765 70.7218 20.1765C69.5366 20.1765 68.3513 20.4852 67.6589 20.9347V30.9993C67.6589 32.3523 66.9557 33.0287 65.5493 33.0287C64.1532 33.0287 63.4551 32.3523 63.4551 30.9993L63.4568 31.0028Z" fill="#2E4057"/>
<path d="M80.8804 27.9835C80.8804 25.3675 82.8808 22.9349 87.1307 22.9349C88.3773 22.9349 89.5319 23.1048 90.7632 23.4307V22.2384C90.7632 20.7203 89.9327 19.8848 87.5775 19.8848C86.5457 19.8848 85.2991 20.2416 84.4361 20.5813C83.9893 20.7666 83.6363 20.8455 83.4044 20.8455C82.9883 20.8455 82.7734 20.5659 82.3419 19.4508C82.0503 18.7235 81.9411 18.3203 81.9411 18.0424C81.9411 17.6238 82.1407 17.4386 83.1724 17.0354C84.4805 16.5088 86.0205 16.1211 87.8674 16.1211C92.3015 16.1211 94.7794 18.087 94.7794 22.4083V30.1039C94.7794 30.8775 94.5799 31.2652 94.041 31.6221C93.0246 32.3031 90.5927 33.3255 87.4053 33.3255C83.1093 33.3255 80.877 30.8793 80.877 27.9835H80.8804ZM90.7632 29.2684V26.2492C89.6854 25.9233 88.7321 25.7689 87.8845 25.7689C85.8209 25.7689 84.8523 26.6987 84.8523 27.9372C84.8523 29.1758 86.0222 29.9666 87.7003 29.9666C88.8088 29.9666 89.948 29.687 90.7632 29.2701V29.2684Z" fill="#2E4057"/>
<path d="M101.677 31.5002L97.2892 19.4062C97.0743 18.8178 96.873 18.183 96.873 17.7799C96.873 17.315 97.1033 17.1452 98.4591 16.7112C99.4277 16.4024 99.8899 16.2617 100.153 16.2617C100.676 16.2617 100.86 16.6649 101.091 17.4694L104.646 28.8978C104.708 29.0368 104.738 29.0677 104.863 29.0677C105.001 29.0677 105.032 29.0522 105.078 28.8978L108.787 17.3459C109.002 16.6649 109.203 16.2617 109.681 16.2617C109.911 16.2617 110.143 16.308 111.204 16.6649C112.851 17.2378 112.943 17.3922 112.943 17.8262C112.943 18.0578 112.744 18.7406 112.512 19.3599L107.939 31.5311C107.37 33.0338 107.385 33.0338 104.783 33.0338C102.18 33.0338 102.213 33.0338 101.674 31.5002H101.677Z" fill="#2E4057"/>
<path d="M115.545 12.2811C115.545 10.8046 116.269 10.0664 117.716 10.0664C119.163 10.0664 119.887 10.8046 119.887 12.2811C119.887 13.7987 119.163 14.5575 117.716 14.5575C116.269 14.5575 115.545 13.7987 115.545 12.2811ZM115.622 31.0037V18.4447C115.622 17.0918 116.32 16.4153 117.716 16.4153C119.112 16.4153 119.81 17.0918 119.81 18.4447V31.0037C119.81 32.3566 119.112 33.0331 117.716 33.0331C116.32 33.0331 115.622 32.3566 115.622 31.0037Z" fill="#2E4057"/>
<path d="M123.658 27.5652V14.8673C123.658 13.5144 124.356 12.8379 125.752 12.8379C127.149 12.8379 127.847 13.5144 127.847 14.8673V16.4164H131.619C132.891 16.4164 133.527 17.0562 133.527 18.336C133.527 19.6157 132.891 20.2556 131.619 20.2556H127.847V27.1312C127.847 28.742 128.432 29.4076 129.864 29.4076C130.557 29.4076 131.28 29.2223 131.834 29.0044C132.281 28.8346 132.603 28.7248 132.82 28.7248C133.297 28.7248 133.466 29.0182 133.959 30.2276C134.344 31.1728 134.375 31.3581 134.375 31.5742C134.375 31.9773 134.068 32.1781 133.36 32.504C132.175 33.0306 130.773 33.324 129.588 33.324C126.078 33.324 123.662 31.3735 123.662 27.5635L123.658 27.5652Z" fill="#2E4057"/>
<path d="M135.802 27.9835C135.802 25.3675 137.803 22.9349 142.053 22.9349C143.299 22.9349 144.454 23.1048 145.685 23.4307V22.2384C145.685 20.7203 144.855 19.8848 142.499 19.8848C141.468 19.8848 140.221 20.2416 139.358 20.5813C138.911 20.7666 138.558 20.8455 138.326 20.8455C137.91 20.8455 137.695 20.5659 137.264 19.4508C136.972 18.7235 136.863 18.3203 136.863 18.0424C136.863 17.6238 137.063 17.4386 138.094 17.0354C139.402 16.5088 140.942 16.1211 142.789 16.1211C147.223 16.1211 149.701 18.087 149.701 22.4083V30.1039C149.701 30.8775 149.502 31.2652 148.963 31.6221C147.946 32.3031 145.515 33.3255 142.327 33.3255C138.031 33.3255 135.799 30.8793 135.799 27.9835H135.802ZM145.685 29.2684V26.2492C144.607 25.9233 143.654 25.7689 142.806 25.7689C140.743 25.7689 139.774 26.6987 139.774 27.9372C139.774 29.1758 140.944 29.9666 142.622 29.9666C143.731 29.9666 144.87 29.687 145.685 29.2701V29.2684Z" fill="#2E4057"/>
<path d="M153.151 31.5466C152.674 31.2052 152.35 30.9273 152.35 30.6322C152.35 30.3234 152.534 30.0438 153.12 29.1758C153.751 28.2306 153.982 28.0299 154.29 28.0299C154.599 28.0299 154.814 28.2306 155.245 28.4793C156.4 29.1912 157.355 29.6252 159.141 29.6252C160.742 29.6252 161.434 28.9751 161.434 28.1225C161.434 27.4569 160.957 26.9766 159.679 26.6815L157.324 26.1394C154.892 25.5819 152.89 24.0791 152.89 21.3395C152.89 18.0561 155.708 16.1211 159.125 16.1211C161.202 16.1211 162.942 16.7404 164.252 17.6547C164.76 17.9961 164.913 18.274 164.913 18.4919C164.913 18.8178 164.745 19.1266 164.144 20.0255C163.544 20.9244 163.235 21.2177 162.913 21.2177C162.652 21.2177 162.405 21.017 161.866 20.722C161.281 20.3652 160.249 19.8848 159.095 19.8848C157.572 19.8848 156.893 20.4578 156.893 21.2795C156.893 21.9451 157.37 22.3482 158.724 22.657L160.803 23.1219C164.021 23.8338 165.498 25.4292 165.498 28.0316C165.498 31.3613 162.65 33.3272 159.095 33.3272C156.494 33.3272 154.538 32.5381 153.153 31.5466H153.151Z" fill="#2E4057"/>
</svg>
