<svg xmlns="http://www.w3.org/2000/svg" viewBox="0 0 367.61 71.04"><defs><style>.cls-1{fill:#ff001a;}.cls-2{fill:none;}.cls-3{fill:#fff;}</style></defs><g id="katman_2" data-name="katman 2"><g id="katman_1-2" data-name="katman 1"><path class="cls-1" d="M17.05,70.36h0l-.07.41h0Z"/><polygon class="cls-1" points="0 14.5 0 14.5 0 14.5 0 14.5"/><polygon class="cls-1" points="0 14.5 0 14.5 0 14.5 0 14.5"/><path class="cls-1" d="M17.14,70a10.88,10.88,0,0,0,2.47.28l.6,0a10.78,10.78,0,0,0,5-1.49l35.51-20.6a9.78,9.78,0,0,0,4.56-6.41c.68-3.48-.49-7.31-2-10.49v.41c0,.31,0,.6,0,.89s0,.42-.06.63l-.06.46c0,.23-.08.47-.13.7l0,.11-.06.25c-.08.33-.17.67-.28,1,0,.07-.05.13-.07.19l0,.09c-.09.26-.19.53-.3.79l0,.05a2.72,2.72,0,0,1-.11.25,10,10,0,0,1-.51,1,12.77,12.77,0,0,1-4.7,4.7l-35,20.31a4.48,4.48,0,0,1-4.58,0,4.49,4.49,0,0,1-2.3-4V55.62h0l0-38.55-2.13-1.24a2.78,2.78,0,0,0-1.45-.44,3.09,3.09,0,0,0-1.53.44,2.85,2.85,0,0,0-1.48,2.54V59A11.09,11.09,0,0,0,9.87,64.6a8.55,8.55,0,0,0,.53.82l.16.23c.15.2.31.4.47.59l.07.09.09.1c.2.23.42.45.64.66a1.85,1.85,0,0,0,.14.14l.09.08.47.4.32.25c.15.12.31.22.46.33s.43.27.65.4l0,0,.3.18.52.26.23.1a11.77,11.77,0,0,0,2,.69Z"/><polygon class="cls-1" points="0 14.5 0 14.5 0 14.5 0 14.5 0 14.5"/><polygon class="cls-1" points="0 14.5 0 14.5 0 14.5 0 14.5"/><polygon class="cls-1" points="0 14.5 0 14.5 0 14.5 0 14.5"/><polyline class="cls-1" points="0 14.5 0 14.5 0 14.5"/><path class="cls-1" d="M11.41,5.55A12.76,12.76,0,0,1,17.8,7.29l35,20.32a4.64,4.64,0,0,1-.06,8l-2.53,1.47-.42.24h0L16.58,56.55V59a2.91,2.91,0,0,0,1.5,2.62,3,3,0,0,0,1.5.42,3,3,0,0,0,1.44-.4l35-20.3a11.19,11.19,0,0,0,4.09-4.08c.14-.25.28-.53.44-.87l.09-.21,0,0a7.07,7.07,0,0,0,.27-.69l0-.1L61,35.2c.09-.28.18-.58.25-.88,0-.06,0-.12,0-.19l0-.13c0-.2.08-.4.11-.6s0-.27,0-.41a5.11,5.11,0,0,0,.05-.55c0-.25,0-.5,0-.78v-.4c0-.2,0-.39,0-.58a2.46,2.46,0,0,0,0-.28,11.4,11.4,0,0,0-.43-2.09v-.06A11.26,11.26,0,0,0,56,21.87L20.48,1.27A10.75,10.75,0,0,0,15.61,0c-2,0-6.6.85-11.12,7.58A13,13,0,0,1,11.41,5.55Z"/><polygon class="cls-1" points="21.86 70.86 21.86 70.86 21.86 70.87 21.86 70.86"/><polygon class="cls-1" points="21.86 70.87 21.86 70.87 21.86 70.87 21.86 70.87"/><polygon class="cls-1" points="21.86 70.86 21.86 70.87 21.86 70.87 21.86 70.87 21.86 70.87 21.86 70.86 21.86 70.86 21.86 70.86"/><path class="cls-1" d="M11.38,7.19a11.26,11.26,0,0,0-10,6.16A11.11,11.11,0,0,0,.2,18.42V59.63C.45,64.21,3,69.58,13.53,70.35h0l-.33-.19-.08,0c-.25-.14-.5-.3-.74-.46l-.52-.37L11.49,69c-.19-.15-.36-.3-.54-.46l-.08-.07-.19-.17c-.25-.24-.49-.49-.73-.76l-.12-.15-.06-.07a8.19,8.19,0,0,1-.53-.67l-.19-.26c-.24-.35-.43-.64-.6-.94A12.86,12.86,0,0,1,6.75,59V18.39a4.58,4.58,0,0,1,2.31-4,4.73,4.73,0,0,1,2.37-.67,4.34,4.34,0,0,1,2.28.67l2.45,1.43L49.83,35.42,52,34.2a2.86,2.86,0,0,0,1.48-2.59A2.9,2.9,0,0,0,52,29L17,8.71A10.94,10.94,0,0,0,11.4,7.19Z"/><polygon class="cls-1" points="59.52 23.68 59.51 23.68 59.51 23.68 59.52 23.68 59.52 23.68"/><polygon class="cls-1" points="59.51 23.68 59.52 23.68 59.52 23.68 59.51 23.68 59.51 23.68 59.51 23.68"/><polygon class="cls-1" points="0 14.5 0 14.5 0 14.5 0 14.5"/><polygon class="cls-1" points="0 14.5 0 14.5 0 14.5 0 14.5"/><polygon class="cls-1" points="0 14.5 0 14.5 0 14.5 0 14.5 0 14.5"/><line class="cls-1" y1="14.5" y2="14.5"/><path class="cls-1" d="M0,14.5H0"/><path class="cls-1" d="M0,14.5H0"/><polygon class="cls-1" points="0 14.5 0 14.5 0 14.5 0 14.5 0 14.5 0 14.5 0 14.5 0 14.5 0 14.5 0 14.5 0 14.5 0 14.5"/><path class="cls-2" d="M178.28,32.54H152.86s-3.47.13-2.94,4.44c0,0,.73,3.06,3.27,3.06H174.3S179.39,39.47,178.28,32.54Z"/><path class="cls-3" d="M326.45,17.7H347.4s7.7-.24,8,8.22l.17,22.62h12V26.08S368.7,8.76,349.91,8H314.46l.29,40.59h11.67Z"/><path class="cls-3" d="M207.75,37.82h26.84l.11-8.94H207.79c-1.19-11,7.53-11.52,7.53-11.52h23l0-9.35H214.75c-18.7,0-18.88,16.6-18.88,16.6L196,48.54h12Z"/><path class="cls-3" d="M95.3,30h14.9s3.65-.49,5.91,4.11L124,48.54h13.78l-9.91-18.31s-2.06-4-5.89-4.35c0,0,4.23-1.33,6.12-4.64l9-13.37H123.21l-5.8,8.22s-2.33,3.66-6.33,3.94H95.29l.06-12H83.18l0,40.55H95.51Z"/><path class="cls-3" d="M190.33,35.67l.07-13.58s1-13.74-15.36-14.26H148.63l.11,9.61H173s4.47-.39,5,4.13l.23,2.35H150.09s-11.09.36-11.68,12.51c0,0,.15,8.68,7.08,12.11H181.6C185.15,47,189.45,43.6,190.33,35.67ZM174.3,40H153.19c-2.54,0-3.27-3.06-3.27-3.06-.53-4.31,2.94-4.44,2.94-4.44h25.42C179.39,39.47,174.3,40,174.3,40Z"/><path class="cls-3" d="M290.71,32.26s4.14-22.16-15.54-24.33H255.83s-11.9.24-15.18,13.62c0,0-2.11,11,1.52,19a15.27,15.27,0,0,0,8.43,8H283L283,40.08H258s-6.27-.56-5.83-7.82Zm-31.79-15h13.3a5.78,5.78,0,0,1,5.32,2.81,6.93,6.93,0,0,1,.9,4.21l0,.27H252.36C251.73,17.09,258.92,17.26,258.92,17.26Z"/><polygon class="cls-1" points="326.42 49.77 326.42 48.54 314.75 48.54 314.76 49.77 326.42 49.77"/><polygon class="cls-1" points="355.59 49.77 367.59 49.77 367.59 48.54 355.58 48.54 355.59 49.77"/><polygon class="cls-3" points="305.29 49.77 305.3 49.76 305.29 49.77 305.29 49.77"/><path class="cls-3" d="M301.35,7.83h7a0,0,0,0,1,0,0v8.29a0,0,0,0,1,0,0H296.22a0,0,0,0,1,0,0V13A5.13,5.13,0,0,1,301.35,7.83Z"/><polygon class="cls-3" points="296.26 49.77 296.26 49.77 296.26 49.59 296.26 49.77"/><path class="cls-3" d="M308.31,44.64V19.91H296.26V48.54h10.22A5.1,5.1,0,0,0,308.31,44.64Z"/><polygon class="cls-3" points="296.26 48.54 296.26 49.59 296.26 48.54 296.26 48.54"/><path class="cls-1" d="M296.26,48.54v1.23h6.92a5.12,5.12,0,0,0,3.3-1.23Z"/><polygon class="cls-1" points="195.99 48.54 195.99 50.03 207.96 50.03 207.93 48.54 195.99 48.54"/><polygon class="cls-1" points="95.53 49.65 95.51 48.54 83.2 48.54 83.2 49.65 95.53 49.65"/><polygon class="cls-1" points="124.61 49.65 138.39 49.65 137.79 48.54 124.01 48.54 124.61 49.65"/><path class="cls-1" d="M176.61,49.69a14.4,14.4,0,0,0,5-1.15H145.49a12.93,12.93,0,0,0,3.65,1.15Z"/><path class="cls-1" d="M283,49.91V48.54H250.6a19.56,19.56,0,0,0,6.74,1.37Z"/><path class="cls-3" d="M87.59,67h1.49V65.86H88c-1.19,0-1.72-.58-1.72-1.89V58.8h2.81V57.6H86.3V55.2H84.93v2.4H83.54v1.2h1.39v5.06C84.93,66.19,85.6,67,87.59,67Z"/><path class="cls-3" d="M101.93,57.6H98.64c-2.1,0-3.2,1-3.2,3V64c0,1.94,1.1,3,3.2,3h5.88V65.75H98.64A1.69,1.69,0,0,1,96.73,64v-1.1h5.18c2.74,0,3.11-1.29,3.11-2.54C105,58.46,104,57.6,101.93,57.6ZM101.86,62H96.73V60.58a1.69,1.69,0,0,1,1.91-1.78h3.27a1.57,1.57,0,0,1,1.8,1.64C103.71,61.17,103.39,62,101.86,62Z"/><path class="cls-3" d="M120.56,58.8V57.6h-4.9c-2.66,0-4.06,1.62-4.06,4.68S113,67,115.66,67h4.9V65.75h-4.7c-2,0-2.9-1.1-2.9-3.47s.92-3.48,2.9-3.48Z"/><path class="cls-3" d="M136.23,61.65V67h1.37V61.65c0-3.35-2.6-4-4.78-4h-3.93V53.2h-1.35V67h1.35V58.8h3.93C135.64,58.8,136.23,60.35,136.23,61.65Z"/><path class="cls-3" d="M153.72,61.65V67h1.37V61.65c0-2.69-1.61-4-4.78-4h-4.2c-.86,0-1.08.24-1.08,1.19V67h1.35V59.46a.59.59,0,0,1,.59-.66h3.34C152.57,58.8,153.72,59.76,153.72,61.65Z"/><path class="cls-3" d="M168.24,57.6H166.1c-2.66,0-4.07,1.62-4.07,4.68S163.44,67,166.1,67h2.14c2.66,0,4.06-1.62,4.06-4.69S170.9,57.6,168.24,57.6Zm-.19,8.15h-1.76c-2,0-2.89-1.1-2.89-3.47s.92-3.48,2.89-3.48h1.76c2,0,2.89,1.1,2.89,3.48S170,65.75,168.05,65.75Z"/><rect class="cls-3" x="179.31" y="53.2" width="1.35" height="13.77"/><path class="cls-3" d="M193.86,57.6h-2.14c-2.66,0-4.06,1.62-4.06,4.68s1.4,4.69,4.06,4.69h2.14c2.66,0,4.07-1.62,4.07-4.69S196.52,57.6,193.86,57.6Zm-.19,8.15h-1.76c-2,0-2.89-1.1-2.89-3.47s.92-3.48,2.89-3.48h1.76c2,0,2.89,1.1,2.89,3.48S195.64,65.75,193.67,65.75Z"/><path class="cls-3" d="M214.72,67.39V61.55c0-2.66-1.11-3.95-3.39-3.95h-2.81c-2.67,0-4.07,1.54-4.07,4.45s1.4,4.5,4.07,4.5h4.83v.84c0,1.7-.71,2.43-2.37,2.43h-5.47V71h5.7C213.84,71,214.72,70.1,214.72,67.39Zm-6-1.93c-2,0-2.89-1.06-2.89-3.33s.91-3.33,2.89-3.33h2c1.81,0,2.62.84,2.62,2.74v3.92Z"/><path class="cls-3" d="M229.69,57.6l-3.45,8h-.49a.83.83,0,0,1-.94-.66l-3-7.3h-1.4l3.2,8c.3.75.58,1,1.59,1h.55L223.87,71h1.43l5.8-13.44Z"/><path class="cls-3" d="M254.88,64.28c0-1.16-.36-2.48-3.18-2.48h-2.39c-.77,0-1.79-.15-1.79-1.47q0-1.53,1.68-1.53h5.28V57.6h-5.3c-2.66,0-3,1.47-3,2.57s.33,2.58,3.16,2.58h2.41c.77,0,1.79.16,1.79,1.51a1.43,1.43,0,0,1-1.68,1.49h-5.57V67h5.57C253.88,67,254.88,66.07,254.88,64.28Z"/><path class="cls-3" d="M267.57,57.6h-2.14c-2.66,0-4.07,1.62-4.07,4.68S262.77,67,265.43,67h2.14c2.66,0,4.07-1.62,4.07-4.69S270.23,57.6,267.57,57.6Zm-.19,8.15h-1.76c-2,0-2.89-1.1-2.89-3.47s.92-3.48,2.89-3.48h1.76c2,0,2.89,1.1,2.89,3.48S269.35,65.75,267.38,65.75Z"/><rect class="cls-3" x="278.64" y="53.2" width="1.35" height="13.77"/><path class="cls-3" d="M291.48,67h1.89c2.54,0,4.06-1.35,4.06-3.61V57.6h-1.31v5.68c0,1.5-1.11,2.47-2.83,2.47h-1.66c-1.7,0-2.85-1-2.85-2.47V57.6h-1.37v5.76C287.41,65.62,288.93,67,291.48,67Z"/><path class="cls-3" d="M307.88,67h1.49V65.86h-1.06c-1.19,0-1.72-.58-1.72-1.89V58.8h2.82V57.6h-2.82V55.2h-1.37v2.4h-1.38v1.2h1.38v5.06C305.22,66.19,305.9,67,307.88,67Z"/><rect class="cls-3" x="315.94" y="53.78" width="1.37" height="1.61"/><rect class="cls-3" x="315.94" y="57.6" width="1.35" height="9.38"/><path class="cls-3" d="M330.5,57.6h-2.14c-2.66,0-4.07,1.62-4.07,4.68S325.7,67,328.36,67h2.14c2.66,0,4.07-1.62,4.07-4.69S333.16,57.6,330.5,57.6Zm-.19,8.15h-1.76c-2,0-2.89-1.1-2.89-3.47s.92-3.48,2.89-3.48h1.76c2,0,2.89,1.1,2.89,3.48S332.28,65.75,330.31,65.75Z"/><path class="cls-3" d="M350.26,61.65V67h1.37V61.65c0-2.69-1.61-4-4.78-4h-4.2c-.86,0-1.08.24-1.08,1.19V67h1.35V59.46a.59.59,0,0,1,.59-.66h3.34C349.11,58.8,350.26,59.76,350.26,61.65Z"/><path class="cls-3" d="M367.25,64.28c0-1.16-.37-2.48-3.18-2.48h-2.39c-.77,0-1.8-.15-1.8-1.47,0-1,.57-1.53,1.68-1.53h5.28V57.6h-5.3c-2.66,0-3,1.47-3,2.57s.33,2.58,3.16,2.58h2.41c.77,0,1.8.16,1.8,1.51a1.43,1.43,0,0,1-1.68,1.49h-5.57V67h5.57C366.24,67,367.25,66.07,367.25,64.28Z"/></g></g></svg>