<?xml version="1.0" encoding="utf-8"?>
<!-- Generator: Adobe Illustrator 24.2.3, SVG Export Plug-In . SVG Version: 6.00 Build 0)  -->
<svg version="1.1" id="Layer_1" xmlns="http://www.w3.org/2000/svg" xmlns:xlink="http://www.w3.org/1999/xlink" x="0px" y="0px"
	 viewBox="0 0 130 47.9" style="enable-background:new 0 0 130 47.9;" xml:space="preserve">
<style type="text/css">
	.st0{fill:#FFFFFF;}
	.st1{fill:#1563FF;}
</style>
<g>
	<path class="st0" d="M103.1,12.6h17.2c5.4,0,9.8,4.4,9.8,9.8v25.5h-10.2V25.3c0-1.8-1.5-3.3-3.3-3.3l0,0c-1.8,0-3.3,1.5-3.3,3.3
		v22.5h-10.1V12.6z"/>
	<polygon class="st0" points="30.7,47.9 30.7,29 39.7,47.9 50,47.9 39,23.9 49.7,0 39.4,0 30.7,19.1 30.7,19.1 30.7,0 20.4,0 
		20.4,47.9 30.7,47.9 	"/>
	<rect class="st1" width="20.4" height="47.9"/>
	<path class="st0" d="M62.2,25.5v22.4H52V22.3c0-5.4,4.4-9.8,9.8-9.8H69V22h-3.4C63.8,22,62.2,23.5,62.2,25.5z"/>
	<g>
		<path class="st0" d="M98.2,20.6c-0.6-1.8-1.5-3.3-2.7-4.5c-2.4-2.4-5.6-3.6-9.6-3.6c-2,0-3.8,0.3-5.4,0.9
			c-1.7,0.6-3.1,1.5-4.3,2.7c-1.2,1.2-2.1,2.7-2.7,4.5c-0.6,1.7-0.9,3.6-0.9,5.8v2.9v0.9l0,0v0.9V34c0,2.2,0.3,4.1,0.9,5.8
			c0.6,1.8,1.5,3.3,2.7,4.5c1.2,1.2,2.6,2.1,4.3,2.7c1.6,0.6,3.4,0.9,5.4,0.9c4,0,7.2-1.2,9.6-3.6c1.2-1.2,2.1-2.7,2.7-4.5
			c0.6-1.7,0.9-3.6,0.9-5.8v-2.9v-0.9l0,0v-0.9v-2.9C99.1,24.3,98.8,22.3,98.2,20.6z M89.2,30.2v4.9c0,1.8-1.5,3.3-3.3,3.3
			c-1.8,0-3.3-1.5-3.3-3.3v-4.9l0,0v-4.9c0-1.8,1.5-3.3,3.3-3.3c1.8,0,3.3,1.5,3.3,3.3V30.2L89.2,30.2z"/>
	</g>
</g>
</svg>
