<?xml version="1.0" encoding="utf-8"?>
<!-- Generator: Adobe Illustrator 26.0.3, SVG Export Plug-In . SVG Version: 6.00 Build 0)  -->
<svg version="1.1" id="Layer_1" xmlns="http://www.w3.org/2000/svg" xmlns:xlink="http://www.w3.org/1999/xlink" x="0px" y="0px"
	 viewBox="0 0 580 551.8" style="enable-background:new 0 0 580 551.8;" xml:space="preserve">
<style type="text/css">
	.st0{fill:#8E8E8E;}
</style>
<g>
	<path class="st0" d="M344.9,232.7L318.6,54.1c-5.1-34.6-37.3-58.6-71.9-53.4l44.8,304l48-7.1l14.7-2.2l148.5-21.9
		c-5.1-34.6-37.3-58.5-71.9-53.4L344.9,232.7z"/>
	<path class="st0" d="M165.5,319L24,431.1c-27.4,21.7-32,61.6-10.3,89l240.9-190.8l-30.1-38l-9.2-11.7L122,162
		c-27.4,21.7-32,61.6-10.3,89L165.5,319z"/>
	<path class="st0" d="M329.9,431.2l167.9,66.5c32.5,12.9,69.4-3,82.3-35.6L294.3,348.9L276.5,394l-5.5,13.9l-55.3,139.5
		c32.5,12.9,69.4-3,82.2-35.6L329.9,431.2z"/>
</g>
</svg>
