<?xml version="1.0" encoding="UTF-8"?>
<svg xmlns="http://www.w3.org/2000/svg" xmlns:xlink="http://www.w3.org/1999/xlink" width="250px" height="58px" viewBox="0 0 248 58" version="1.1">
  <g id="surface1">
    <path style=" stroke:none;fill-rule:nonzero;fill:rgb(43.921569%,43.529412%,43.529412%);fill-opacity:1;" d="M 57.835938 23.339844 C 57.835938 21.40625 58.121094 19.761719 58.621094 18.257812 C 59.195312 16.824219 59.910156 15.605469 60.910156 14.601562 C 61.910156 13.601562 63.054688 12.882812 64.484375 12.3125 C 65.84375 11.808594 67.414062 11.523438 69.132812 11.523438 C 70.847656 11.523438 72.132812 11.808594 73.421875 12.3125 C 74.707031 12.882812 75.851562 13.601562 76.851562 14.53125 C 77.851562 15.460938 78.566406 16.609375 79.140625 17.96875 C 79.710938 19.332031 79.925781 20.761719 79.925781 22.339844 C 79.925781 23.914062 79.640625 25.347656 79.140625 26.707031 C 78.640625 28.070312 77.851562 29.144531 76.921875 30.144531 C 75.996094 31.078125 74.851562 31.863281 73.636719 32.367188 C 72.347656 32.867188 70.988281 33.152344 69.488281 33.152344 C 67.988281 33.152344 66.558594 32.867188 65.34375 32.222656 C 64.125 31.648438 63.199219 30.863281 62.554688 30.003906 L 62.554688 40.746094 L 57.90625 40.746094 L 57.90625 23.269531 Z M 68.773438 29.070312 C 69.703125 29.070312 70.5625 28.929688 71.347656 28.570312 C 72.132812 28.210938 72.777344 27.78125 73.347656 27.136719 C 73.921875 26.566406 74.351562 25.847656 74.636719 24.988281 C 74.921875 24.199219 75.066406 23.269531 75.066406 22.339844 C 75.066406 21.40625 74.921875 20.546875 74.636719 19.761719 C 74.351562 18.972656 73.921875 18.257812 73.347656 17.683594 C 72.777344 17.109375 72.132812 16.609375 71.347656 16.324219 C 70.5625 15.964844 69.703125 15.820312 68.773438 15.820312 C 67.84375 15.820312 66.988281 15.964844 66.199219 16.324219 C 65.414062 16.679688 64.769531 17.109375 64.199219 17.683594 C 63.625 18.257812 63.199219 18.972656 62.910156 19.761719 C 62.625 20.546875 62.410156 21.480469 62.410156 22.410156 C 62.410156 23.339844 62.554688 24.273438 62.910156 25.0625 C 63.199219 25.847656 63.625 26.566406 64.199219 27.210938 C 64.769531 27.78125 65.414062 28.285156 66.199219 28.640625 C 66.988281 29 67.84375 29.144531 68.773438 29.144531 "></path>
    <path style=" stroke:none;fill-rule:nonzero;fill:rgb(43.921569%,43.529412%,43.529412%);fill-opacity:1;" d="M 102.300781 32.582031 C 102.015625 32.582031 101.585938 32.722656 101.015625 32.796875 C 100.445312 32.796875 99.730469 32.9375 98.941406 33.011719 C 98.15625 33.011719 97.296875 33.152344 96.296875 33.226562 C 95.296875 33.226562 94.296875 33.296875 93.222656 33.296875 C 91.078125 33.296875 89.363281 33.082031 88.003906 32.722656 C 86.644531 32.367188 85.574219 31.863281 84.789062 31.21875 C 84 30.574219 83.5 29.929688 83.214844 29.070312 C 82.929688 28.285156 82.785156 27.425781 82.785156 26.566406 C 82.785156 25.707031 82.929688 24.488281 83.285156 23.628906 C 83.644531 22.769531 84.214844 22.050781 84.929688 21.480469 C 85.71875 20.90625 86.71875 20.476562 88.003906 20.191406 C 89.292969 19.902344 90.792969 19.761719 92.578125 19.761719 C 94.367188 19.761719 94.582031 19.761719 95.511719 19.832031 C 96.441406 19.832031 97.15625 19.976562 97.585938 20.046875 C 97.585938 19.117188 97.441406 18.328125 97.082031 17.683594 C 96.796875 17.039062 96.367188 16.539062 95.796875 16.179688 C 95.226562 15.820312 94.582031 15.605469 93.867188 15.460938 C 93.082031 15.320312 92.292969 15.246094 91.363281 15.246094 C 89.792969 15.246094 88.578125 15.390625 87.648438 15.75 C 86.71875 16.105469 86.074219 16.394531 85.789062 16.679688 C 85.644531 16.539062 85.429688 16.324219 85.144531 15.890625 C 84.859375 15.535156 84.714844 15.03125 84.714844 14.53125 C 84.714844 14.03125 84.789062 13.742188 85.003906 13.386719 C 85.214844 13.027344 85.574219 12.667969 86.074219 12.382812 C 86.574219 12.097656 87.289062 11.882812 88.148438 11.738281 C 89.003906 11.59375 90.148438 11.523438 91.4375 11.523438 C 92.722656 11.523438 94.511719 11.667969 95.796875 12.023438 C 97.082031 12.3125 98.226562 12.8125 99.230469 13.527344 C 100.15625 14.246094 100.945312 15.105469 101.445312 16.25 C 101.945312 17.398438 102.230469 18.6875 102.230469 20.332031 L 102.230469 32.652344 Z M 97.726562 23.484375 C 97.441406 23.484375 96.941406 23.339844 96.226562 23.269531 C 95.441406 23.125 94.367188 23.125 92.867188 23.125 C 91.363281 23.125 89.648438 23.414062 88.789062 23.984375 C 87.933594 24.558594 87.503906 25.417969 87.503906 26.636719 C 87.503906 27.855469 87.574219 27.566406 87.789062 27.996094 C 87.933594 28.425781 88.289062 28.785156 88.71875 29.070312 C 89.148438 29.359375 89.71875 29.574219 90.507812 29.714844 C 91.222656 29.859375 92.152344 29.929688 93.292969 29.929688 C 94.4375 29.929688 95.511719 29.929688 96.296875 29.789062 C 97.011719 29.714844 97.511719 29.644531 97.796875 29.574219 L 97.796875 23.628906 Z M 97.726562 23.484375 "></path>
    <path style=" stroke:none;fill-rule:nonzero;fill:rgb(43.921569%,43.529412%,43.529412%);fill-opacity:1;" d="M 107.09375 19.472656 C 107.09375 16.96875 107.878906 15.03125 109.378906 13.671875 C 110.882812 12.3125 113.027344 11.59375 115.742188 11.59375 C 118.460938 11.59375 118.886719 11.808594 119.960938 12.3125 C 121.03125 12.8125 121.605469 13.527344 121.605469 14.53125 C 121.605469 15.535156 121.460938 15.460938 121.246094 15.890625 C 120.960938 16.324219 120.746094 16.609375 120.605469 16.679688 C 120.175781 16.464844 119.601562 16.25 118.886719 16.035156 C 118.171875 15.820312 117.457031 15.75 116.527344 15.75 C 113.3125 15.75 111.738281 17.46875 111.738281 20.835938 L 111.738281 32.722656 L 107.09375 32.722656 Z M 107.09375 19.472656 "></path>
    <path style=" stroke:none;fill-rule:nonzero;fill:rgb(43.921569%,43.529412%,43.529412%);fill-opacity:1;" d="M 125.609375 36.164062 C 125.75 36.164062 125.964844 36.304688 126.324219 36.449219 C 126.679688 36.59375 127.179688 36.734375 127.683594 36.878906 C 128.253906 37.023438 128.898438 37.164062 129.613281 37.238281 C 130.328125 37.378906 131.183594 37.378906 132.042969 37.378906 C 132.902344 37.378906 133.902344 37.308594 134.757812 37.09375 C 135.6875 36.878906 136.476562 36.519531 137.191406 36.019531 C 137.90625 35.519531 138.476562 34.730469 138.90625 33.800781 C 139.335938 32.867188 139.550781 31.648438 139.550781 30.144531 L 139.550781 29.644531 C 138.90625 30.359375 138.046875 31.078125 136.832031 31.722656 C 135.617188 32.367188 134.257812 32.722656 132.542969 32.722656 C 130.828125 32.722656 129.613281 32.4375 128.324219 31.9375 C 127.039062 31.433594 125.964844 30.71875 125.035156 29.789062 C 124.105469 28.855469 123.390625 27.78125 122.890625 26.492188 C 122.390625 25.203125 122.105469 23.769531 122.105469 22.265625 C 122.105469 20.761719 122.390625 19.257812 122.964844 17.96875 C 123.535156 16.679688 124.320312 15.535156 125.25 14.601562 C 126.25 13.671875 127.394531 12.882812 128.753906 12.382812 C 130.113281 11.808594 131.613281 11.59375 133.257812 11.59375 C 134.902344 11.59375 136.261719 11.808594 137.546875 12.3125 C 138.835938 12.742188 140.050781 13.457031 140.980469 14.460938 C 141.980469 15.390625 142.695312 16.609375 143.265625 18.113281 C 143.839844 19.617188 144.054688 21.335938 144.054688 23.339844 L 144.054688 29.214844 C 144.054688 31.363281 143.765625 33.226562 143.195312 34.730469 C 142.625 36.304688 141.765625 37.523438 140.765625 38.527344 C 139.691406 39.527344 138.476562 40.246094 137.046875 40.675781 C 135.617188 41.105469 134.042969 41.320312 132.398438 41.320312 C 130.753906 41.320312 130.253906 41.320312 129.324219 41.105469 C 128.398438 40.960938 127.609375 40.816406 126.894531 40.675781 C 126.179688 40.53125 125.609375 40.316406 125.109375 40.171875 C 124.679688 40.03125 124.320312 39.886719 124.105469 39.742188 L 125.394531 36.234375 Z M 133.402344 28.855469 C 134.332031 28.855469 135.1875 28.714844 135.902344 28.355469 C 136.691406 27.996094 137.332031 27.566406 137.832031 26.996094 C 138.40625 26.421875 138.835938 25.777344 139.121094 24.917969 C 139.40625 24.128906 139.621094 23.269531 139.621094 22.265625 C 139.621094 21.265625 139.476562 20.476562 139.121094 19.6875 C 138.835938 18.902344 138.40625 18.183594 137.832031 17.613281 C 137.261719 17.039062 136.617188 16.539062 135.902344 16.25 C 135.117188 15.890625 134.332031 15.75 133.402344 15.75 C 132.472656 15.75 131.613281 15.890625 130.828125 16.25 C 130.039062 16.609375 129.398438 17.039062 128.824219 17.683594 C 128.253906 18.257812 127.824219 18.972656 127.539062 19.761719 C 127.253906 20.546875 127.109375 21.40625 127.109375 22.265625 C 127.109375 24.199219 127.683594 25.777344 128.824219 26.996094 C 129.96875 28.210938 131.472656 28.785156 133.402344 28.785156 "></path>
    <path style=" stroke:none;fill-rule:nonzero;fill:rgb(43.921569%,43.529412%,43.529412%);fill-opacity:1;" d="M 166.859375 31.148438 C 166.644531 31.292969 166.285156 31.507812 165.859375 31.722656 C 165.429688 31.9375 164.785156 32.222656 164.140625 32.4375 C 163.425781 32.652344 162.640625 32.867188 161.710938 33.011719 C 160.78125 33.152344 159.78125 33.226562 158.707031 33.226562 C 157.636719 33.226562 155.777344 33.011719 154.417969 32.507812 C 153.132812 32.078125 151.917969 31.363281 150.917969 30.433594 C 149.914062 29.5 149.128906 28.425781 148.558594 27.066406 C 147.984375 25.777344 147.699219 24.199219 147.699219 22.480469 C 147.699219 20.761719 147.984375 19.332031 148.558594 17.96875 C 149.128906 16.609375 149.914062 15.460938 150.917969 14.460938 C 151.917969 13.457031 153.0625 12.742188 154.417969 12.238281 C 155.777344 11.738281 157.277344 11.453125 158.851562 11.453125 C 160.425781 11.453125 161.496094 11.667969 162.640625 12.023438 C 163.710938 12.382812 164.640625 12.882812 165.429688 13.527344 C 166.144531 14.171875 166.714844 14.890625 167.144531 15.675781 C 167.5 16.464844 167.714844 17.398438 167.714844 18.328125 C 167.714844 19.257812 167.574219 20.117188 167.214844 20.90625 C 166.859375 21.695312 166.214844 22.339844 165.355469 22.910156 C 164.429688 23.484375 163.210938 23.914062 161.710938 24.199219 C 160.210938 24.488281 158.28125 24.703125 155.921875 24.703125 C 153.5625 24.703125 154.847656 24.703125 154.417969 24.703125 C 153.917969 24.703125 153.417969 24.703125 152.917969 24.703125 C 153.132812 26.0625 153.777344 27.210938 154.917969 28.070312 C 156.0625 28.929688 157.636719 29.359375 159.78125 29.359375 C 161.925781 29.359375 161.140625 29.359375 161.710938 29.214844 C 162.28125 29.070312 162.855469 29 163.355469 28.785156 C 163.855469 28.640625 164.214844 28.425781 164.570312 28.285156 C 164.929688 28.140625 165.144531 27.996094 165.355469 27.925781 L 167.074219 31.21875 Z M 152.488281 21.480469 C 153.132812 21.480469 153.703125 21.480469 154.277344 21.480469 L 155.992188 21.480469 C 157.492188 21.480469 158.707031 21.40625 159.636719 21.191406 C 160.566406 20.976562 161.28125 20.761719 161.78125 20.476562 C 162.28125 20.191406 162.640625 19.832031 162.785156 19.472656 C 162.925781 19.117188 162.996094 18.6875 162.996094 18.257812 C 162.996094 17.253906 162.570312 16.464844 161.78125 15.890625 C 160.925781 15.390625 159.925781 15.105469 158.707031 15.105469 C 157.492188 15.105469 156.851562 15.246094 156.0625 15.605469 C 155.277344 15.964844 154.632812 16.464844 154.132812 17.039062 C 153.632812 17.613281 153.203125 18.328125 152.917969 19.042969 C 152.632812 19.832031 152.488281 20.546875 152.417969 21.40625 "></path>
    <path style=" stroke:none;fill-rule:nonzero;fill:rgb(43.921569%,43.529412%,43.529412%);fill-opacity:1;" d="M 171.648438 27.566406 C 171.863281 27.710938 172.148438 27.855469 172.648438 28.070312 C 173.148438 28.285156 173.722656 28.5 174.4375 28.714844 C 175.152344 28.929688 176.007812 29.144531 176.9375 29.285156 C 177.867188 29.429688 178.867188 29.5 179.941406 29.5 C 181.011719 29.5 182.515625 29.285156 183.445312 28.929688 C 184.375 28.570312 184.800781 27.925781 184.800781 26.996094 C 184.800781 26.0625 184.515625 25.632812 183.945312 25.277344 C 183.371094 24.847656 182.371094 24.628906 180.871094 24.414062 L 177.652344 24.058594 C 176.582031 23.914062 175.582031 23.769531 174.652344 23.484375 C 173.722656 23.199219 172.933594 22.839844 172.292969 22.339844 C 171.648438 21.835938 171.148438 21.265625 170.789062 20.546875 C 170.433594 19.832031 170.21875 18.972656 170.21875 17.96875 C 170.21875 16.96875 170.363281 16.25 170.71875 15.460938 C 171.078125 14.675781 171.578125 14.03125 172.363281 13.386719 C 173.078125 12.8125 174.078125 12.3125 175.292969 11.953125 C 176.507812 11.59375 177.941406 11.453125 179.582031 11.453125 C 182.441406 11.453125 184.589844 11.738281 186.160156 12.382812 C 187.734375 13.027344 188.519531 13.816406 188.519531 14.816406 C 188.519531 15.820312 188.519531 15.460938 188.304688 15.675781 C 188.164062 15.890625 188.019531 16.105469 187.875 16.324219 C 187.734375 16.539062 187.589844 16.679688 187.375 16.824219 C 187.234375 16.96875 187.089844 17.039062 187.019531 17.039062 C 186.875 16.894531 186.660156 16.753906 186.304688 16.539062 C 185.945312 16.324219 185.445312 16.105469 184.800781 15.820312 C 184.160156 15.605469 183.445312 15.390625 182.585938 15.175781 C 181.726562 15.03125 180.726562 14.890625 179.582031 14.890625 C 176.4375 14.890625 174.867188 15.75 174.867188 17.398438 C 174.867188 19.042969 175.152344 18.613281 175.792969 19.042969 C 176.367188 19.402344 177.222656 19.6875 178.367188 19.832031 L 182.515625 20.332031 C 184.800781 20.621094 186.519531 21.265625 187.734375 22.195312 C 188.949219 23.125 189.59375 24.488281 189.59375 26.351562 C 189.59375 28.210938 188.804688 30.003906 187.160156 31.292969 C 185.515625 32.507812 183.230469 33.152344 180.15625 33.152344 C 177.082031 33.152344 177.367188 33.011719 176.152344 32.796875 C 174.9375 32.582031 173.9375 32.292969 173.007812 32.007812 C 172.148438 31.722656 171.433594 31.433594 170.863281 31.148438 C 170.289062 30.863281 169.933594 30.648438 169.789062 30.503906 L 171.578125 27.351562 Z M 171.648438 27.566406 "></path>
    <path style=" stroke:none;fill-rule:nonzero;fill:rgb(43.921569%,43.529412%,43.529412%);fill-opacity:1;" d="M 203.460938 11.59375 C 205.035156 11.59375 206.535156 11.882812 207.894531 12.382812 C 209.253906 12.882812 210.46875 13.671875 211.46875 14.675781 C 212.46875 15.675781 213.253906 16.824219 213.828125 18.113281 C 214.398438 19.402344 214.683594 20.90625 214.683594 22.410156 C 214.683594 23.914062 214.398438 25.347656 213.828125 26.707031 C 213.253906 27.996094 212.46875 29.144531 211.46875 30.144531 C 210.46875 31.148438 209.253906 31.863281 207.894531 32.4375 C 206.535156 33.011719 205.035156 33.296875 203.460938 33.296875 C 201.890625 33.296875 200.386719 33.011719 199.027344 32.4375 C 197.671875 31.863281 196.457031 31.148438 195.453125 30.144531 C 194.453125 29.214844 193.667969 28.070312 193.09375 26.707031 C 192.523438 25.417969 192.238281 23.984375 192.238281 22.410156 C 192.238281 20.835938 192.523438 19.402344 193.09375 18.113281 C 193.667969 16.824219 194.453125 15.675781 195.453125 14.675781 C 196.457031 13.671875 197.671875 12.957031 199.027344 12.382812 C 200.386719 11.808594 201.890625 11.59375 203.460938 11.59375 M 203.460938 29.144531 C 204.390625 29.144531 205.25 29 206.035156 28.640625 C 206.820312 28.285156 207.464844 27.855469 208.035156 27.210938 C 208.609375 26.566406 209.039062 25.921875 209.324219 25.0625 C 209.609375 24.273438 209.824219 23.414062 209.824219 22.410156 C 209.824219 21.40625 209.679688 20.546875 209.324219 19.761719 C 209.039062 18.902344 208.609375 18.183594 208.035156 17.613281 C 207.464844 17.039062 206.820312 16.539062 206.035156 16.179688 C 205.25 15.820312 204.390625 15.675781 203.460938 15.675781 C 202.53125 15.675781 201.675781 15.820312 200.886719 16.179688 C 200.101562 16.539062 199.457031 16.96875 198.886719 17.613281 C 198.3125 18.183594 197.886719 18.902344 197.597656 19.761719 C 197.3125 20.621094 197.097656 21.480469 197.097656 22.410156 C 197.097656 23.339844 197.242188 24.273438 197.597656 25.0625 C 197.886719 25.847656 198.3125 26.566406 198.886719 27.210938 C 199.457031 27.855469 200.101562 28.285156 200.886719 28.640625 C 201.675781 29 202.53125 29.144531 203.460938 29.144531 "></path>
    <path style=" stroke:none;fill-rule:nonzero;fill:rgb(43.921569%,43.529412%,43.529412%);fill-opacity:1;" d="M 218.761719 10.878906 C 218.761719 9.375 218.976562 8.15625 219.402344 7.082031 C 219.832031 6.007812 220.40625 5.148438 221.121094 4.503906 C 221.835938 3.859375 222.765625 3.359375 223.765625 3 C 224.765625 2.714844 225.910156 2.5 227.125 2.5 C 229.339844 2.5 230.914062 2.785156 231.84375 3.285156 C 232.773438 3.789062 233.203125 4.503906 233.203125 5.292969 C 233.203125 6.078125 233.058594 6.152344 232.84375 6.507812 C 232.558594 6.867188 232.273438 7.152344 231.984375 7.296875 C 231.558594 6.9375 230.984375 6.652344 230.199219 6.4375 C 229.484375 6.222656 228.625 6.078125 227.839844 6.078125 C 226.265625 6.078125 225.125 6.507812 224.40625 7.296875 C 223.691406 8.085938 223.40625 9.304688 223.40625 10.808594 L 223.40625 12.023438 L 229.554688 12.023438 C 230.484375 12.023438 231.058594 12.238281 231.484375 12.597656 C 231.84375 12.957031 232.058594 13.527344 232.058594 14.246094 C 232.058594 14.960938 232.058594 15.105469 231.84375 15.535156 C 231.699219 15.964844 231.628906 16.179688 231.484375 16.394531 L 223.40625 16.394531 L 223.40625 32.652344 L 218.761719 32.652344 Z M 218.761719 10.878906 "></path>
    <path style=" stroke:none;fill-rule:nonzero;fill:rgb(43.921569%,43.529412%,43.529412%);fill-opacity:1;" d="M 234.058594 8.515625 C 234.058594 7.726562 234.273438 7.226562 234.703125 6.867188 C 235.132812 6.507812 235.703125 6.367188 236.488281 6.367188 C 237.277344 6.367188 237.417969 6.367188 237.847656 6.582031 C 238.277344 6.722656 238.5625 6.796875 238.707031 6.867188 L 238.707031 12.238281 L 244.640625 12.238281 C 245.570312 12.238281 246.140625 12.453125 246.570312 12.8125 C 246.925781 13.171875 247.140625 13.742188 247.140625 14.460938 C 247.140625 15.175781 247.140625 15.320312 246.925781 15.75 C 246.785156 16.179688 246.714844 16.394531 246.570312 16.609375 L 238.707031 16.609375 L 238.707031 25.707031 C 238.707031 26.421875 238.777344 26.996094 238.992188 27.425781 C 239.207031 27.855469 239.421875 28.210938 239.777344 28.5 C 240.136719 28.785156 240.492188 28.929688 240.992188 29.070312 C 241.421875 29.214844 241.921875 29.214844 242.421875 29.214844 C 243.210938 29.214844 243.925781 29.070312 244.640625 28.855469 C 245.285156 28.640625 245.785156 28.355469 246.140625 28.140625 L 248 31.21875 C 247.785156 31.363281 247.5 31.578125 247.070312 31.863281 C 246.640625 32.078125 246.210938 32.367188 245.640625 32.582031 C 245.070312 32.796875 244.425781 33.011719 243.710938 33.152344 C 242.996094 33.296875 242.210938 33.371094 241.351562 33.371094 C 238.992188 33.371094 237.132812 32.722656 235.917969 31.507812 C 234.703125 30.289062 234.058594 28.640625 234.058594 26.636719 Z M 234.058594 8.515625 "></path>
    <path style=" stroke:none;fill-rule:nonzero;fill:rgb(98.431373%,72.549021%,0%);fill-opacity:1;" d="M 4.074219 27.210938 C 6.148438 28.140625 8.4375 28.570312 10.722656 28.570312 C 14.371094 28.570312 17.371094 31.578125 17.371094 35.230469 C 17.371094 38.882812 16.65625 38.667969 15.441406 39.957031 C 14.15625 41.246094 12.511719 41.894531 10.722656 41.894531 C 8.9375 41.894531 7.292969 41.175781 6.003906 39.957031 C 4.71875 38.667969 4.074219 37.023438 4.074219 35.230469 L 4.074219 27.210938 M 0.214844 19.6875 L 0.214844 35.304688 C 0.214844 41.105469 4.933594 45.832031 10.722656 45.832031 C 13.65625 45.832031 16.226562 44.613281 18.160156 42.753906 C 20.089844 40.816406 21.234375 38.238281 21.234375 35.304688 C 21.234375 29.5 16.515625 24.773438 10.722656 24.773438 C 7.363281 24.773438 4.144531 23.484375 1.714844 21.121094 Z M 0.214844 19.6875 "></path>
    <path style=" stroke:none;fill-rule:nonzero;fill:rgb(23.137255%,62.7451%,85.490197%);fill-opacity:1;" d="M 18.800781 4.433594 C 17.871094 6.507812 17.445312 8.800781 17.445312 11.09375 C 17.445312 14.746094 14.441406 17.753906 10.796875 17.753906 C 7.148438 17.753906 4.21875 14.890625 4.144531 11.238281 L 4.144531 11.023438 C 4.144531 7.367188 7.148438 4.359375 10.796875 4.359375 L 18.800781 4.359375 M 26.308594 0.566406 L 10.722656 0.566406 C 4.933594 0.566406 0.214844 5.292969 0.214844 11.09375 C 0.214844 16.894531 4.933594 21.621094 10.722656 21.621094 C 16.515625 21.621094 21.234375 16.894531 21.234375 11.09375 C 21.234375 7.726562 22.519531 4.503906 24.878906 2.070312 Z M 26.308594 0.566406 "></path>
    <path style=" stroke:none;fill-rule:nonzero;fill:rgb(90.588236%,26.666668%,8.235294%);fill-opacity:1;" d="M 34.242188 4.433594 C 36.03125 4.433594 37.675781 5.148438 38.960938 6.367188 C 40.25 7.65625 40.890625 9.304688 40.890625 11.09375 L 40.890625 19.117188 C 38.820312 18.183594 36.53125 17.753906 34.242188 17.753906 C 31.957031 17.753906 30.8125 17.039062 29.527344 15.820312 C 28.238281 14.53125 27.59375 12.882812 27.59375 11.09375 C 27.59375 7.441406 30.597656 4.433594 34.242188 4.433594 M 34.242188 0.566406 C 28.453125 0.566406 23.734375 5.292969 23.734375 11.09375 C 23.734375 14.03125 24.878906 16.609375 26.808594 18.542969 C 28.738281 20.476562 31.3125 21.621094 34.242188 21.621094 C 37.175781 21.621094 40.820312 22.910156 43.25 25.277344 L 44.753906 26.707031 L 44.753906 11.09375 C 44.753906 8.15625 43.609375 5.578125 41.679688 3.644531 C 39.75 1.710938 37.175781 0.566406 34.242188 0.566406 "></path>
    <path style=" stroke:none;fill-rule:nonzero;fill:rgb(51.764709%,71.764708%,15.294118%);fill-opacity:1;" d="M 34.242188 28.570312 C 37.890625 28.570312 40.890625 31.578125 40.890625 35.230469 C 40.890625 38.882812 37.890625 41.894531 34.242188 41.894531 L 26.238281 41.894531 C 27.167969 39.816406 27.59375 37.523438 27.59375 35.230469 C 27.59375 31.578125 30.597656 28.570312 34.242188 28.570312 M 34.242188 24.703125 C 28.453125 24.703125 23.734375 29.429688 23.734375 35.230469 C 23.734375 38.597656 22.449219 41.820312 20.089844 44.257812 L 18.660156 45.761719 L 34.242188 45.761719 C 40.035156 45.761719 44.753906 41.03125 44.753906 35.230469 C 44.753906 29.429688 40.035156 24.703125 34.242188 24.703125 "></path>
    <path style=" stroke:none;fill-rule:nonzero;fill:rgb(43.921569%,43.529412%,43.529412%);fill-opacity:1;" d="M 116.671875 57.9375 L 115.8125 57.9375 L 115.8125 45.6875 L 116.671875 45.6875 Z M 116.671875 57.9375 "></path>
    <path style=" stroke:none;fill-rule:nonzero;fill:rgb(43.921569%,43.529412%,43.529412%);fill-opacity:1;" d="M 189.304688 57.9375 L 188.449219 57.9375 L 188.449219 45.6875 L 189.304688 45.6875 Z M 189.304688 57.9375 "></path>
    <path style=" stroke:none;fill-rule:nonzero;fill:rgb(43.921569%,43.529412%,43.529412%);fill-opacity:1;" d="M 58.191406 46.332031 C 58.191406 45.976562 58.480469 45.6875 58.835938 45.6875 C 59.195312 45.6875 59.480469 45.976562 59.480469 46.332031 C 59.480469 46.691406 59.195312 46.976562 58.835938 46.976562 C 58.480469 46.976562 58.191406 46.621094 58.191406 46.332031 Z M 59.410156 47.621094 L 59.410156 56.359375 L 58.265625 56.359375 L 58.265625 47.621094 Z M 59.410156 47.621094 "></path>
    <path style=" stroke:none;fill-rule:nonzero;fill:rgb(43.921569%,43.529412%,43.529412%);fill-opacity:1;" d="M 61.125 55.214844 C 61.480469 55.429688 62.054688 55.644531 62.625 55.644531 C 63.484375 55.644531 63.839844 55.214844 63.839844 54.714844 C 63.839844 54.210938 63.484375 53.855469 62.695312 53.566406 C 61.554688 53.136719 61.054688 52.566406 61.054688 51.777344 C 61.054688 50.988281 61.839844 49.914062 63.199219 49.914062 C 64.554688 49.914062 64.414062 50.128906 64.769531 50.273438 L 64.484375 51.132812 C 64.269531 50.988281 63.769531 50.773438 63.199219 50.773438 C 62.625 50.773438 62.125 51.132812 62.125 51.632812 C 62.125 52.136719 62.484375 52.351562 63.339844 52.707031 C 64.414062 53.136719 64.984375 53.640625 64.984375 54.570312 C 64.984375 55.5 64.125 56.433594 62.625 56.433594 C 61.125 56.433594 61.339844 56.289062 60.839844 56.003906 L 61.125 55.144531 Z M 61.125 55.214844 "></path>
    <path style=" stroke:none;fill-rule:nonzero;fill:rgb(43.921569%,43.529412%,43.529412%);fill-opacity:1;" d="M 67.773438 48.265625 L 67.773438 50.058594 L 69.417969 50.058594 L 69.417969 50.917969 L 67.773438 50.917969 L 67.773438 54.285156 C 67.773438 55.070312 67.988281 55.5 68.628906 55.5 C 69.273438 55.5 69.132812 55.5 69.273438 55.429688 L 69.273438 56.289062 C 69.132812 56.359375 68.773438 56.433594 68.34375 56.433594 C 67.914062 56.433594 67.414062 56.289062 67.128906 55.929688 C 66.773438 55.574219 66.699219 55.070312 66.699219 54.285156 L 66.699219 50.847656 L 65.699219 50.847656 L 65.699219 49.984375 L 66.699219 49.984375 L 66.699219 48.480469 L 67.84375 48.195312 Z M 67.773438 48.265625 "></path>
    <path style=" stroke:none;fill-rule:nonzero;fill:rgb(43.921569%,43.529412%,43.529412%);fill-opacity:1;" d="M 74.207031 56.359375 L 74.207031 55.574219 L 74.0625 55.574219 C 73.707031 56.074219 73.0625 56.503906 72.132812 56.503906 C 70.847656 56.503906 70.203125 55.644531 70.203125 54.714844 C 70.203125 53.210938 71.5625 52.351562 73.992188 52.351562 L 73.992188 52.207031 C 73.992188 51.707031 73.847656 50.773438 72.5625 50.773438 C 71.277344 50.773438 71.347656 50.988281 70.917969 51.277344 L 70.632812 50.558594 C 71.132812 50.199219 71.917969 49.984375 72.707031 49.984375 C 74.636719 49.984375 75.066406 51.277344 75.066406 52.566406 L 75.066406 54.929688 C 75.066406 55.5 75.066406 56.003906 75.136719 56.433594 L 74.136719 56.433594 Z M 73.992188 53.136719 C 72.777344 53.136719 71.347656 53.351562 71.347656 54.570312 C 71.347656 55.789062 71.847656 55.644531 72.417969 55.644531 C 72.992188 55.644531 73.777344 55.144531 73.921875 54.570312 C 73.921875 54.425781 73.921875 54.355469 73.921875 54.210938 L 73.921875 53.136719 Z M 73.992188 53.136719 "></path>
    <path style=" stroke:none;fill-rule:nonzero;fill:rgb(43.921569%,43.529412%,43.529412%);fill-opacity:1;" d="M 76.921875 51.777344 C 76.921875 51.132812 76.921875 50.632812 76.921875 50.058594 L 77.925781 50.058594 L 77.925781 51.0625 L 77.996094 51.0625 C 78.28125 50.488281 78.996094 49.914062 80.070312 49.914062 C 81.140625 49.914062 82.285156 50.417969 82.285156 52.566406 L 82.285156 56.289062 L 81.140625 56.289062 L 81.140625 52.707031 C 81.140625 51.707031 80.785156 50.847656 79.710938 50.847656 C 78.640625 50.847656 78.351562 51.347656 78.210938 51.992188 C 78.210938 52.136719 78.140625 52.351562 78.140625 52.492188 L 78.140625 56.289062 L 76.996094 56.289062 L 76.996094 51.707031 Z M 76.921875 51.777344 "></path>
    <path style=" stroke:none;fill-rule:nonzero;fill:rgb(43.921569%,43.529412%,43.529412%);fill-opacity:1;" d="M 84.074219 56.359375 C 84.074219 55.929688 84.074219 55.285156 84.074219 54.714844 L 84.074219 47.121094 L 85.214844 47.121094 L 85.214844 51.0625 C 85.644531 50.34375 86.359375 49.914062 87.359375 49.914062 C 88.933594 49.914062 90.007812 51.203125 90.007812 53.136719 C 90.007812 55.359375 88.578125 56.503906 87.21875 56.503906 C 85.859375 56.503906 85.574219 56.144531 85.144531 55.359375 L 85.144531 56.359375 Z M 85.289062 53.855469 C 85.289062 53.996094 85.289062 54.140625 85.289062 54.285156 C 85.503906 55.070312 86.144531 55.644531 87.003906 55.644531 C 88.21875 55.644531 88.933594 54.640625 88.933594 53.210938 C 88.933594 51.777344 88.289062 50.847656 87.074219 50.847656 C 85.859375 50.847656 85.574219 51.347656 85.359375 52.277344 C 85.359375 52.421875 85.359375 52.566406 85.359375 52.78125 L 85.359375 53.925781 Z M 85.289062 53.855469 "></path>
    <path style=" stroke:none;fill-rule:nonzero;fill:rgb(43.921569%,43.529412%,43.529412%);fill-opacity:1;" d="M 96.726562 54.640625 C 96.726562 55.285156 96.726562 55.859375 96.726562 56.359375 L 95.726562 56.359375 L 95.726562 55.359375 L 95.652344 55.359375 C 95.367188 55.859375 94.726562 56.503906 93.582031 56.503906 C 92.4375 56.503906 91.4375 55.929688 91.4375 53.78125 L 91.4375 50.128906 L 92.578125 50.128906 L 92.578125 53.566406 C 92.578125 54.785156 92.9375 55.574219 94.011719 55.574219 C 95.082031 55.574219 95.296875 55.070312 95.511719 54.570312 C 95.511719 54.425781 95.582031 54.210938 95.582031 53.996094 L 95.582031 50.128906 L 96.726562 50.128906 L 96.726562 54.714844 Z M 96.726562 54.640625 "></path>
    <path style=" stroke:none;fill-rule:nonzero;fill:rgb(43.921569%,43.529412%,43.529412%);fill-opacity:1;" d="M 98.65625 47.121094 L 99.800781 47.121094 L 99.800781 56.289062 L 98.65625 56.289062 Z M 98.65625 47.121094 "></path>
    <path style=" stroke:none;fill-rule:nonzero;fill:rgb(43.921569%,43.529412%,43.529412%);fill-opacity:1;" d="M 133.542969 47.621094 L 134.6875 47.621094 L 134.6875 55.429688 L 138.40625 55.429688 L 138.40625 56.359375 L 133.542969 56.359375 Z M 133.542969 47.621094 "></path>
    <path style=" stroke:none;fill-rule:nonzero;fill:rgb(43.921569%,43.529412%,43.529412%);fill-opacity:1;" d="M 145.125 53.136719 C 145.125 55.429688 143.550781 56.503906 141.980469 56.503906 C 140.40625 56.503906 138.976562 55.285156 138.976562 53.28125 C 138.976562 51.277344 140.335938 49.914062 142.050781 49.914062 C 143.765625 49.914062 145.054688 51.203125 145.054688 53.136719 Z M 140.121094 53.210938 C 140.121094 54.570312 140.90625 55.644531 142.050781 55.644531 C 143.195312 55.644531 143.980469 54.640625 143.980469 53.210938 C 143.980469 51.777344 143.480469 50.773438 142.121094 50.773438 C 140.765625 50.773438 140.191406 51.992188 140.191406 53.210938 Z M 140.121094 53.210938 "></path>
    <path style=" stroke:none;fill-rule:nonzero;fill:rgb(43.921569%,43.529412%,43.529412%);fill-opacity:1;" d="M 146.554688 51.777344 C 146.554688 51.132812 146.554688 50.632812 146.554688 50.058594 L 147.554688 50.058594 L 147.554688 51.0625 L 147.628906 51.0625 C 147.914062 50.488281 148.628906 49.914062 149.699219 49.914062 C 150.773438 49.914062 151.917969 50.417969 151.917969 52.566406 L 151.917969 56.289062 L 150.773438 56.289062 L 150.773438 52.707031 C 150.773438 51.707031 150.414062 50.847656 149.34375 50.847656 C 148.269531 50.847656 147.984375 51.347656 147.84375 51.992188 C 147.84375 52.136719 147.769531 52.351562 147.769531 52.492188 L 147.769531 56.289062 L 146.625 56.289062 L 146.625 51.707031 Z M 146.554688 51.777344 "></path>
    <path style=" stroke:none;fill-rule:nonzero;fill:rgb(43.921569%,43.529412%,43.529412%);fill-opacity:1;" d="M 159.136719 47.121094 L 159.136719 54.714844 C 159.136719 55.285156 159.136719 55.929688 159.136719 56.359375 L 158.136719 56.359375 L 158.136719 55.285156 L 158.066406 55.285156 C 157.707031 56.003906 156.921875 56.503906 155.921875 56.503906 C 154.417969 56.503906 153.273438 55.214844 153.273438 53.28125 C 153.273438 51.203125 154.5625 49.914062 156.0625 49.914062 C 157.566406 49.914062 157.636719 50.34375 157.921875 50.847656 L 157.921875 47.121094 Z M 157.992188 52.636719 C 157.992188 52.492188 157.992188 52.277344 157.992188 52.136719 C 157.851562 51.417969 157.207031 50.847656 156.347656 50.847656 C 155.492188 50.847656 154.492188 51.847656 154.492188 53.28125 C 154.492188 54.714844 155.132812 55.574219 156.347656 55.574219 C 157.566406 55.574219 157.777344 55.070312 157.992188 54.210938 C 157.992188 54.070312 157.992188 53.925781 157.992188 53.710938 Z M 157.992188 52.636719 "></path>
    <path style=" stroke:none;fill-rule:nonzero;fill:rgb(43.921569%,43.529412%,43.529412%);fill-opacity:1;" d="M 166.714844 53.136719 C 166.714844 55.429688 165.144531 56.503906 163.570312 56.503906 C 161.996094 56.503906 160.566406 55.285156 160.566406 53.28125 C 160.566406 51.277344 161.925781 49.914062 163.640625 49.914062 C 165.355469 49.914062 166.644531 51.203125 166.644531 53.136719 Z M 161.710938 53.210938 C 161.710938 54.570312 162.496094 55.644531 163.640625 55.644531 C 164.785156 55.644531 165.570312 54.640625 165.570312 53.210938 C 165.570312 51.777344 165.070312 50.773438 163.710938 50.773438 C 162.355469 50.773438 161.78125 51.992188 161.78125 53.210938 Z M 161.710938 53.210938 "></path>
    <path style=" stroke:none;fill-rule:nonzero;fill:rgb(43.921569%,43.529412%,43.529412%);fill-opacity:1;" d="M 168.144531 51.777344 C 168.144531 51.132812 168.144531 50.632812 168.144531 50.058594 L 169.144531 50.058594 L 169.144531 51.0625 L 169.21875 51.0625 C 169.503906 50.488281 170.21875 49.914062 171.289062 49.914062 C 172.363281 49.914062 173.507812 50.417969 173.507812 52.566406 L 173.507812 56.289062 L 172.363281 56.289062 L 172.363281 52.707031 C 172.363281 51.707031 172.003906 50.847656 170.933594 50.847656 C 169.859375 50.847656 169.574219 51.347656 169.433594 51.992188 C 169.433594 52.136719 169.359375 52.351562 169.359375 52.492188 L 169.359375 56.289062 L 168.214844 56.289062 L 168.214844 51.707031 Z M 168.144531 51.777344 "></path>
    <path style=" stroke:none;fill-rule:nonzero;fill:rgb(43.921569%,43.529412%,43.529412%);fill-opacity:1;" d="M 206.105469 47.765625 C 206.605469 47.695312 207.394531 47.550781 208.179688 47.550781 C 209.324219 47.550781 210.039062 47.765625 210.539062 48.195312 C 210.96875 48.554688 211.253906 49.054688 211.253906 49.769531 C 211.253906 50.488281 210.683594 51.347656 209.753906 51.707031 C 210.609375 51.921875 211.539062 52.636719 211.539062 53.925781 C 211.539062 55.214844 211.253906 55.214844 210.824219 55.644531 C 210.179688 56.21875 209.253906 56.433594 207.824219 56.433594 C 206.394531 56.433594 206.464844 56.433594 206.105469 56.359375 Z M 207.25 51.277344 L 208.25 51.277344 C 209.464844 51.277344 210.109375 50.632812 210.109375 49.84375 C 210.109375 49.054688 209.324219 48.410156 208.179688 48.410156 C 207.035156 48.410156 207.394531 48.410156 207.179688 48.480469 L 207.179688 51.277344 Z M 207.25 55.5 C 207.464844 55.5 207.824219 55.5 208.179688 55.5 C 209.324219 55.5 210.394531 55.070312 210.394531 53.78125 C 210.394531 52.492188 209.394531 52.0625 208.179688 52.0625 L 207.25 52.0625 Z M 207.25 55.5 "></path>
    <path style=" stroke:none;fill-rule:nonzero;fill:rgb(43.921569%,43.529412%,43.529412%);fill-opacity:1;" d="M 213.113281 52.0625 C 213.113281 51.347656 213.113281 50.703125 213.113281 50.128906 L 214.113281 50.128906 L 214.113281 51.347656 L 214.183594 51.347656 C 214.472656 50.488281 215.1875 49.984375 215.902344 49.984375 C 216.617188 49.984375 216.117188 49.984375 216.257812 49.984375 L 216.257812 51.0625 C 216.117188 51.0625 216.042969 51.0625 215.902344 51.0625 C 215.113281 51.0625 214.542969 51.707031 214.398438 52.492188 C 214.398438 52.636719 214.398438 52.851562 214.398438 52.996094 L 214.398438 56.359375 L 213.253906 56.359375 L 213.253906 52.0625 Z M 213.113281 52.0625 "></path>
    <path style=" stroke:none;fill-rule:nonzero;fill:rgb(43.921569%,43.529412%,43.529412%);fill-opacity:1;" d="M 222.550781 54.640625 C 222.550781 55.285156 222.550781 55.859375 222.550781 56.359375 L 221.546875 56.359375 L 221.546875 55.359375 L 221.476562 55.359375 C 221.191406 55.859375 220.546875 56.503906 219.402344 56.503906 C 218.261719 56.503906 217.257812 55.929688 217.257812 53.78125 L 217.257812 50.128906 L 218.402344 50.128906 L 218.402344 53.566406 C 218.402344 54.785156 218.761719 55.574219 219.832031 55.574219 C 220.90625 55.574219 221.121094 55.070312 221.335938 54.570312 C 221.335938 54.425781 221.40625 54.210938 221.40625 53.996094 L 221.40625 50.128906 L 222.550781 50.128906 L 222.550781 54.714844 Z M 222.550781 54.640625 "></path>
    <path style=" stroke:none;fill-rule:nonzero;fill:rgb(43.921569%,43.529412%,43.529412%);fill-opacity:1;" d="M 224.335938 55.214844 C 224.695312 55.429688 225.265625 55.644531 225.839844 55.644531 C 226.695312 55.644531 227.054688 55.214844 227.054688 54.714844 C 227.054688 54.210938 226.695312 53.855469 225.910156 53.566406 C 224.765625 53.136719 224.265625 52.566406 224.265625 51.777344 C 224.265625 50.988281 225.050781 49.914062 226.410156 49.914062 C 227.769531 49.914062 227.625 50.128906 227.984375 50.273438 L 227.695312 51.132812 C 227.480469 50.988281 226.980469 50.773438 226.410156 50.773438 C 225.839844 50.773438 225.335938 51.132812 225.335938 51.632812 C 225.335938 52.136719 225.695312 52.351562 226.554688 52.707031 C 227.625 53.136719 228.195312 53.640625 228.195312 54.570312 C 228.195312 55.5 227.339844 56.433594 225.839844 56.433594 C 224.335938 56.433594 224.550781 56.289062 224.050781 56.003906 L 224.335938 55.144531 Z M 224.335938 55.214844 "></path>
    <path style=" stroke:none;fill-rule:nonzero;fill:rgb(43.921569%,43.529412%,43.529412%);fill-opacity:1;" d="M 229.414062 55.214844 C 229.769531 55.429688 230.34375 55.644531 230.914062 55.644531 C 231.773438 55.644531 232.128906 55.214844 232.128906 54.714844 C 232.128906 54.210938 231.773438 53.855469 230.984375 53.566406 C 229.839844 53.136719 229.339844 52.566406 229.339844 51.777344 C 229.339844 50.988281 230.128906 49.914062 231.484375 49.914062 C 232.84375 49.914062 232.699219 50.128906 233.058594 50.273438 L 232.773438 51.132812 C 232.558594 50.988281 232.058594 50.773438 231.484375 50.773438 C 230.914062 50.773438 230.414062 51.132812 230.414062 51.632812 C 230.414062 52.136719 230.769531 52.351562 231.628906 52.707031 C 232.699219 53.136719 233.273438 53.640625 233.273438 54.570312 C 233.273438 55.5 232.414062 56.433594 230.914062 56.433594 C 229.414062 56.433594 229.628906 56.289062 229.125 56.003906 L 229.414062 55.144531 Z M 229.414062 55.214844 "></path>
    <path style=" stroke:none;fill-rule:nonzero;fill:rgb(43.921569%,43.529412%,43.529412%);fill-opacity:1;" d="M 235.347656 53.425781 C 235.347656 55 236.347656 55.574219 237.492188 55.574219 C 238.636719 55.574219 238.777344 55.429688 239.207031 55.214844 L 239.421875 56.003906 C 238.992188 56.21875 238.347656 56.359375 237.347656 56.359375 C 235.417969 56.359375 234.273438 55.070312 234.273438 53.210938 C 234.273438 51.347656 235.417969 49.84375 237.203125 49.84375 C 238.992188 49.84375 239.777344 51.632812 239.777344 52.78125 C 239.777344 53.925781 239.777344 53.210938 239.777344 53.28125 L 235.347656 53.28125 Z M 238.707031 52.636719 C 238.707031 51.921875 238.421875 50.773438 237.132812 50.773438 C 235.847656 50.773438 235.488281 51.847656 235.417969 52.636719 L 238.777344 52.636719 Z M 238.707031 52.636719 "></path>
    <path style=" stroke:none;fill-rule:nonzero;fill:rgb(43.921569%,43.529412%,43.529412%);fill-opacity:1;" d="M 241.207031 47.121094 L 242.351562 47.121094 L 242.351562 56.289062 L 241.207031 56.289062 Z M 241.207031 47.121094 "></path>
    <path style=" stroke:none;fill-rule:nonzero;fill:rgb(43.921569%,43.529412%,43.529412%);fill-opacity:1;" d="M 244.140625 55.214844 C 244.496094 55.429688 245.070312 55.644531 245.640625 55.644531 C 246.5 55.644531 246.855469 55.214844 246.855469 54.714844 C 246.855469 54.210938 246.5 53.855469 245.710938 53.566406 C 244.570312 53.136719 244.066406 52.566406 244.066406 51.777344 C 244.066406 50.988281 244.855469 49.914062 246.210938 49.914062 C 247.570312 49.914062 247.429688 50.128906 247.785156 50.273438 L 247.5 51.132812 C 247.285156 50.988281 246.785156 50.773438 246.210938 50.773438 C 245.640625 50.773438 245.140625 51.132812 245.140625 51.632812 C 245.140625 52.136719 245.496094 52.351562 246.355469 52.707031 C 247.429688 53.136719 248 53.640625 248 54.570312 C 248 55.5 247.140625 56.433594 245.640625 56.433594 C 244.140625 56.433594 244.355469 56.289062 243.855469 56.003906 L 244.140625 55.144531 Z M 244.140625 55.214844 "></path>
  </g>
</svg>
