<?xml version="1.0" encoding="UTF-8"?>
<!-- Generator: Adobe Illustrator 26.0.1, SVG Export Plug-In . SVG Version: 6.00 Build 0)  -->
<svg xmlns="http://www.w3.org/2000/svg" xmlns:xlink="http://www.w3.org/1999/xlink" version="1.1" id="Layer_1" x="0px" y="0px" viewBox="0 0 435.9 131.8" style="enable-background:new 0 0 435.9 131.8;" xml:space="preserve">
<style type="text/css">
	.st0{fill:#AA182C;}
	.st1{fill:#BCBEC0;}
	.st2{fill:#828487;}
	.st3{fill:#CE0E2D;}
	.st4{fill:#FFFFFF;}
</style>
<g>
	<polygon class="st0" points="348.8,80.1 348.8,118.7 425.9,82.7 386.3,62.6  "></polygon>
	<polygon class="st1" points="385.1,63.7 425.9,44.2 389.1,27 348.8,46.8  "></polygon>
	<polygon class="st2" points="348.8,46.8 390.1,27.5 348.8,8.2  "></polygon>
	<polygon class="st3" points="425.9,82.7 425.9,44.2 384.6,63.4  "></polygon>
	<path class="st4" d="M10,55.7h18.2c0.2,3.6,1.5,6.2,4,8c2.7,1.8,6.2,2.7,10.7,2.7c3.2,0,6-0.6,8.3-1.9c2.1-1.2,3.2-2.9,3.2-5.1   c0-3.2-3.7-5.6-11.2-7.2c-3.2-0.5-5.6-1.1-7.2-1.6c-9.4-2.3-15.8-5.1-19-8.3c-3.6-3.2-5.3-7.5-5.3-12.8c0-6.8,2.6-12.4,7.8-16.8   c5.3-4.1,12.3-6.1,20.9-6.1c9.3,0,16.7,2.1,22.2,6.1c5.2,4.5,7.9,10.3,8.3,17.4H59.2c-3.4,0-6-1.5-7.8-4.5   c-0.7-0.7-1.4-1.4-2.1-2.1c-2.1-1.6-5.1-2.4-8.8-2.4c-3.6,0-6.2,0.5-8,1.6c-1.6,1.1-2.4,2.7-2.4,4.8c0,2.9,4.6,5.3,13.9,7.2   c1.1,0.4,2,0.6,2.8,0.8c0.8,0.2,1.6,0.3,2.3,0.3c9.1,2.3,15.4,5,19,8c3.4,3.2,5.1,7.5,5.1,12.8c0,7.8-2.9,13.9-8.6,18.2   c-5.3,3.9-13.4,5.9-24.1,5.9c-10.2,0-17.7-2-22.7-6.1C12.5,70.4,10,64.4,10,56.5V55.7z"></path>
	<path class="st4" d="M323.6,12.7C317,8.6,309.8,6.6,302,6.6c-3.9,0.2-7.7,0.8-11.4,1.7c-3.7,1-6.8,2.6-9.5,4.9   c-3.2-2.7-6.8-4.5-10.7-5.3c-3.9-0.9-7.9-1.3-12-1.3c-6,0.3-11.5,1.7-16.7,4.3c3.7,3.6,6.3,8.5,7.6,14.7c0.3-0.4,0.7-0.7,1.1-1   c2.5-2,5.3-2.9,8.6-2.9c3.2,0,6.1,1,8.7,2.9c2.6,2,3.9,5.1,3.9,9.4v3.7v41.7h18.4V37.6v-3.7c0-4.3,1.3-7.4,3.9-9.4   c2.6-2,5.5-2.9,8.7-2.9c3.2,0,6.1,1,8.7,2.9c2.6,2,3.9,5.1,3.9,9.4v36.4c0,2.7,0.8,4.9,2.5,6.5c1.7,1.7,3.9,2.5,6.6,2.5h9.4V37.6   C333.5,25.1,330.2,16.8,323.6,12.7z"></path>
	<path class="st4" d="M201.2,79.3h-18.4V37.6v-3.7c0-4.3-1.3-7.4-3.9-9.4c-2.6-2-5.5-2.9-8.7-2.9c-3.2,0-6.1,1-8.6,2.9   c-2.5,2-3.7,5.1-3.7,9.4v45.4h-18.7V37.6c0-12.1,3.2-20.2,9.5-24.3c6.3-4.1,13.3-6.3,21-6.7c4.1,0,8.1,0.4,12,1.3   c3.9,0.9,7.5,2.7,10.7,5.3c2.7-2.3,5.8-4,9.5-4.9c3.7-1,7.4-1.6,11.4-1.7c7.8,0,15.1,2.1,21.7,6.1c6.6,4.1,9.9,12.4,9.9,24.9v41.7   h-9.4c-2.7,0-4.9-0.8-6.6-2.5c-1.7-1.7-2.5-3.9-2.5-6.5V33.8c0-4.3-1.3-7.4-3.9-9.4c-2.6-2-5.5-2.9-8.7-2.9c-3.2,0-6.1,1-8.7,2.9   c-2.6,2-3.9,5.1-3.9,9.4v3.7V79.3z"></path>
	<path class="st4" d="M122.4,76.3c-3.7,2-7.7,3.2-11.9,3.6c-4.2,0.4-7.9,0.7-11.1,0.7c-6.4,0-12-1.7-16.8-5.2   c-4.8-3.5-7.2-9.2-7.2-17.2c0-7.5,2.2-12.8,6.5-16c4.4-3.2,9.9-5.3,16.7-6.4c0.9,0,2-0.1,3.2-0.4c1.2-0.3,2.7-0.5,4.3-0.7   c7.8-1.1,11.8-3.4,11.8-7c0-2.7-1.4-4.4-4.1-5.2c-2.8-0.8-5.3-1.2-7.6-1.2c-2.5,0-4.7,0.4-6.7,1.1c-2,0.7-3.4,2.1-4.3,4H77.3   c0.7-5.5,3.2-10.1,7.5-13.6c4.8-4.1,11.7-6.1,20.6-6.1c10,0,17.5,1.7,22.5,5.1c5.2,3.6,7.8,8.6,7.8,15v24.3   c0,7.1-1.3,12.7-3.9,16.7C129.1,71.7,126,74.6,122.4,76.3z M118.2,43.4c-2.5,1.2-6,2.4-10.4,3.5l-6.1,1.3c-3.2,0.9-5.5,2.1-7,3.5   c-1.2,2-1.9,3.9-1.9,5.9c0,2.7,0.8,4.8,2.4,6.4c1.6,1.4,3.9,2.1,7,2.1c5,0,8.9-1.4,11.8-4.3c2.8-2.8,4.3-6.8,4.3-11.8V43.4z"></path>
	<g>
		<path class="st1" d="M193.7,120.4c-5.1-0.9-7.6-3.3-7.6-7.6V97.2h-3.4v-1.6h3.4v-5.7h2v5.7h5.2v1.6h-5.2v15.6c0,3.2,1.7,5,6.1,5.7    L193.7,120.4z"></path>
		<path class="st1" d="M199.7,107.4c0,5.4,1.6,9.7,7.2,9.7c2.6,0,4.7-0.8,7-2l0.6,1.8c-2.6,1.2-5.3,1.8-8,1.8c-6.6,0-9-5.3-9-11.6    c0-5.3,2-12.1,9-12.1c7.4,0,9,5.6,9,12.3H199.7z M206.4,96.7c-4.4,0-6.5,3.6-6.8,9.1h13.7C213.3,99.8,211.4,96.7,206.4,96.7z"></path>
		<path class="st1" d="M235.2,118.3l-11.7-12.1v12.1h-2V85.6h2v19.5l10.7-9.5h2.3l-11.3,9.8l12.5,12.9H235.2z"></path>
		<path class="st1" d="M256.4,118.3v-13.9c0-4.1-0.8-7.7-5.8-7.7c-3.3,0-5.6,3-6.3,5.1v16.5h-2v-17.9c0-1.9-0.3-2.9-0.4-4.8h1.6    l0.6,3.6c0.8-1.1,2.7-4.1,6.8-4.1c5.7,0,7.5,3.7,7.5,8.9v14.3H256.4z"></path>
		<path class="st1" d="M273.9,118.7c-7.3,0-9.4-5.4-9.4-12c0-6.3,2.2-11.7,9.4-11.7c7.3,0,9.4,5.2,9.4,11.7    C283.3,113.4,281.2,118.7,273.9,118.7z M273.9,96.7c-5.4,0-7.3,4.5-7.3,10.1c0,5.6,1.4,10.3,7.3,10.3c6,0,7.2-4.8,7.2-10.3    C281.1,101.2,279.7,96.7,273.9,96.7z"></path>
		<path class="st1" d="M289.3,118.3V85.6h2v32.7H289.3z"></path>
		<path class="st1" d="M306.8,118.7c-7.3,0-9.4-5.4-9.4-12c0-6.3,2.2-11.7,9.4-11.7c7.3,0,9.4,5.2,9.4,11.7    C316.2,113.4,314.1,118.7,306.8,118.7z M306.8,96.7c-5.4,0-7.3,4.5-7.3,10.1c0,5.6,1.4,10.3,7.3,10.3c6,0,7.2-4.8,7.2-10.3    C314,101.2,312.6,96.7,306.8,96.7z"></path>
		<path class="st1" d="M318.1,125.2l-0.6-1.8c3.5-0.7,4.6-2,4.6-5V95.5h2V118C324.1,121.9,322.5,124.1,318.1,125.2z M321.9,89.5    v-3.4h2.4v3.4H321.9z"></path>
		<path class="st1" d="M331.2,89.5v-3.4h2.4v3.4H331.2z M331.4,118.3V95.5h2v22.7H331.4z"></path>
	</g>
</g>
</svg>
