<svg viewBox="0 0 999.58 831.55" xmlns="http://www.w3.org/2000/svg" data-name="katman 1" id="katman_1">
  <defs>
    <style>
      .cls-1 {
        fill: #1c1c1c;
      }

      .cls-2 {
        fill: #fe7902;
      }
    </style>
  </defs>
  <path d="M157.51,463.54l70.15,52.8c21.12,9.43,42.24,17.73,65.25,20.74,131.25-9.43,284.37,14.33,412.97,0,227.42-25.27,232.7-393.36-15.09-413.35-105.22-8.67-276.45-7.17-382.8,0-94.29,6.03-183.29,52.05-249.67,117.29l-48.65,66.38C9.68,150.51,138.28,18.14,292.53,2.67c133.13,7.17,274.56-8.67,406.56,0,396.38,26.4,408.82,639.26-11.69,664.15-119.93,7.17-246.65-5.66-367.34,0-107.11-15.46-174.24-92.78-161.79-203.28h-.75Z" class="cls-1"></path>
  <path d="M840.9,365.86c-4.53,4.9-37.34-32.43-43.37-36.58-103.34-80.33-489.15-40.73-489.15-40.73-251.55,24.51-248.91,397.88,7.54,417.12,102.21,7.54,260.23,6.41,363.19,0,102.96-6.41,151.61-31.68,212.33-76.56,39.98-29.79,70.15-66.38,98.06-107.11-2.64,160.29-135.77,293.79-294.55,304.73-107.11,7.17-259.47,5.66-367.34,0C103.58,815.41-17.86,658.9,2.13,438.65,15.33,293.45,149.22,173.14,292.53,162.58c69.59-5.39,350.59-6.8,390.72,0,105.6,16.59,170.09,94.66,158.02,203.28h-.38Z" class="cls-2"></path>
</svg>