<?xml version="1.0" encoding="UTF-8"?> <svg xmlns="http://www.w3.org/2000/svg" id="b" viewBox="0 0 111.9 30"><g id="c"><path d="M97.45,0h-.62c.24,0,.47,0,.7.01-.03,0-.05-.01-.08-.01Z" style="fill:#fff; stroke-width:0px;"></path><path d="M95.94,2.29l-1.93,2.44s.03-.03.04-.05c.65-.75,1.3-1.55,1.89-2.39Z" style="fill:#fff; stroke-width:0px;"></path><path d="M93.26,11.37c-.96-.54-2-.91-3.07-1.11L97.58.35c.15-.18.1-.3-.05-.33-.23,0-.47-.01-.7-.01h-21.15v6.65h10.17l-.62.87-5.55,7.78c-.26.39.09.56.48.43,1.09-.39,2.48-.7,4.35-.7.25,0,.49.01.73.03,2.88.2,4.44,1.65,4.44,4.1s-1.67,3.99-4.44,4.12c-.13,0-.25.01-.38.01-2.91,0-4.52-1.61-5.43-3.56l-6.48,3.35c1.9,3.8,6.19,6.86,12.29,6.91.05,0,.09,0,.14,0,5.94,0,10.17-2.66,11.68-6.85.4-1.11.61-2.32.61-3.63,0-4.12-1.9-6.74-4.41-8.15Z" style="fill:#fff; stroke-width:0px;"></path><path d="M78.84,16.76c0-3.16-1.77-5.22-4.67-5.22-2.02,0-3.5.66-4.56,2.13-.7-1.4-1.88-2.13-3.57-2.13-1.55,0-2.76.55-3.53,1.77v-1.43h-3.68v12.58h3.68v-6.77c0-1.88.81-2.83,2.46-2.83,1.55,0,2.02.85,2.02,2.28v7.32l3.68-1.9v-4.86c0-1.88.81-2.83,2.46-2.83,1.55,0,2.02.85,2.02,2.28v3.1l3.68-1.9v-1.56Z" style="fill:#fff; stroke-width:0px;"></path><path d="M22.69,11.53c-2.24,0-4.08.81-5.48,2.39l2.24,2.06c.74-.85,1.69-1.36,3.02-1.36s2.28.59,2.32,2.28h-3.27c-2.76,0-4.93,1.21-4.93,3.68,0,2.94,2.13,4.19,4.67,4.19,1.47,0,2.69-.48,3.53-1.47v1.14h3.68v-7.36c0-3.72-2.21-5.56-5.78-5.56ZM24.79,19.92c0,1.03-1.21,1.91-2.87,1.91-1.21,0-1.69-.52-1.69-1.21,0-.74.52-1.21,1.47-1.21h3.09v.51Z" style="fill:#fff; stroke-width:0px;"></path><polygon points="29.98 14.92 34.98 14.92 29.13 24.3 29.13 24.44 40.28 24.44 40.28 21.39 34.8 21.39 40.61 12.01 40.61 11.86 29.98 11.86 29.98 14.92" style="fill:#fff; stroke-width:0px;"></polygon><rect x="41.79" y="11.86" width="3.68" height="12.58" style="fill:#fff; stroke-width:0px;"></rect><rect x="47.49" width="3.68" height="24.44" style="fill:#fff; stroke-width:0px;"></rect><rect x="53.19" y="11.86" width="3.68" height="12.58" style="fill:#fff; stroke-width:0px;"></rect><polygon points="17.82 9.65 17.82 9.64 21.63 0 17.99 0 14.18 9.65 14.18 9.65 11.24 16.88 11.23 16.9 8.22 9.65 8.22 9.65 8.22 9.64 4.13 0 0 0 4.1 9.65 9.39 21.09 5.66 29.99 9.34 29.99 17.82 9.65" style="fill:#fff; stroke-width:0px;"></polygon><path d="M98.29.07c.02.17-.01.4-.21.66l-4.52,6.07h2.29c4.85,0,7.85,3.22,7.85,8.21,0,4.29-2.23,7.27-5.94,8.01-.04.11-.07.23-.11.34-1.19,3.29-3.92,5.61-7.63,6.65h6.71c8.65,0,15.18-5.69,15.18-15,0-8.74-5.75-14.28-13.61-14.93Z" style="fill:#fff; stroke-width:0px;"></path></g></svg> 