<?xml version="1.0" encoding="utf-8"?>
<svg version="1.0" id="Layer_1" xmlns="http://www.w3.org/2000/svg" xmlns:xlink="http://www.w3.org/1999/xlink" x="0px" y="0px"
	 width="900px" height="300px" viewBox="0 0 900 300" enable-background="new 0 0 900 300" xml:space="preserve">
<path fill="#172531" d="M400.985,175.537l-8.91-100.722c-0.58-6.63-2.57-11.66-6.05-15.14c-3.48-3.48-8.21-5.24-14.132-5.24
	c-9.579,0-17.618,2.34-24.13,6.92c-6.55,4.58-10.479,10.682-11.85,18.28c-0.33,1.76-0.46,3.65-0.46,5.69c0,2.05,0.25,4.21,0.71,6.51
	l19.81,132.54c0.91,6.67,3.4,11.858,7.5,15.59c4.11,3.721,9.25,5.6,15.46,5.6h18.49c6.09,0,11.852-1.879,17.24-5.52
	c5.39-3.681,9.82-8.92,13.312-15.67l68.101-132.54c0.989-1.972,1.899-4.01,2.649-6.102c0.738-2.05,1.317-4.09,1.658-6.1
	c1.36-7.6-0.38-13.7-5.229-18.28c-4.893-4.58-12.103-6.92-21.631-6.92c-5.972,0-11.23,1.76-15.881,5.24
	c-4.641,3.479-8.449,8.51-11.439,15.14L400.985,175.537z"/>
<path fill="#172531" d="M579.898,243.051c17.665,0,30.463-0.638,38.317-1.906c7.856-1.256,14.981-3.448,21.385-6.528
	c9.594-4.415,17.45-10.736,23.503-18.952c6.066-8.164,10.12-17.852,12.169-29.012c2.049-11.418,1.318-20.684-2.09-27.839
	c-3.457-7.164-9.78-12.509-18.993-16.091c8.535-3.963,15.32-9.059,20.354-15.247c5.034-6.189,8.276-13.437,9.821-21.775
	c1.874-10.533,0.938-19.5-2.821-26.911c-3.796-7.413-10.16-12.849-19.075-16.38c-4.9-1.894-10.789-3.243-17.625-4.088
	c-6.826-0.843-17.79-1.265-32.853-1.265h-45.443c-13.919,0-24.072,2.615-30.475,7.752c-6.405,5.177-10.789,14.36-13.137,27.499
	L501.93,208.932c-2.297,12.716-1.195,21.61,3.417,26.614c4.611,5.014,13.827,7.506,27.734,7.506L579.898,243.051L579.898,243.051z
	 M569.951,164.878h26.758c9.049,0,15.278,1.352,18.643,3.996c3.337,2.696,4.438,7.167,3.337,13.395
	c-1.112,6.28-3.8,10.788-8.073,13.527c-4.264,2.78-10.841,4.119-19.715,4.119h-27.261L569.951,164.878z M581.563,100.183h16.297
	c12.851,0,20.912,1.051,24.154,3.161c3.241,2.11,4.354,6.022,3.325,11.664c-0.977,5.396-3.325,9.183-7.041,11.459
	c-3.749,2.275-9.688,3.366-17.791,3.366h-24.286L581.563,100.183z"/>
<path fill="#172531" d="M767.343,104.187l-19.931,110.82c-1.619,8.881-0.289,15.75,3.98,20.62c4.22,4.868,11.02,7.317,20.311,7.317
	c9.359,0,16.989-2.329,22.789-6.869c5.811-4.58,9.49-11.29,11.07-20.05l20.141-111.84h32.75c8.289,0,15-1.88,20.06-5.729
	c5.05-3.802,8.25-9.37,9.569-16.65c1.451-8.1,0.381-14.28-3.27-18.45c-3.651-4.17-9.7-6.3-18.16-6.3H743.552
	c-8.489,0-15.33,2.05-20.51,6.1c-5.229,4.09-8.5,9.98-9.871,17.67c-1.409,7.69-0.289,13.54,3.361,17.472
	c3.649,3.92,9.659,5.89,18.069,5.89L767.343,104.187L767.343,104.187z"/>
<path fill="#FF0000" d="M45.521,234.963c-11.05,0.82-21.05,1.359-29.93,0.68c66.63-15.759,137.561-50.389,174.53-87.647
	c40.16-40.472,27.2-70.9-26.62-75.03c17.7-4.19,35.09-7.04,51.46-8.26c78.02-5.82,103.34,27.699,56.55,74.858
	S123.543,229.154,45.521,234.963z"/>
<path fill="#FF0000" d="M26.673,190.413c-5.68,0.42-10.81,0.43-15.38,0.068c34.24-8.068,70.681-25.829,89.67-44.969
	c20.62-20.78,13.94-36.43-13.72-38.58c9.09-2.14,18.029-3.6,26.449-4.22c40.101-2.95,53.12,14.29,29.091,38.51
	C118.762,165.433,66.772,187.463,26.673,190.413z"/>
</svg>
