<svg width="400" height="46" viewBox="0 0 400 46" fill="none" xmlns="http://www.w3.org/2000/svg">
<path d="M23.7413 21.4879C26.2629 22.078 28.3286 23.3389 29.9381 25.2704C31.5477 27.1482 32.3525 29.4284 32.3525 32.1111C32.3525 36.0814 31.1185 39.1932 28.6505 41.4466C26.1825 43.6464 22.5073 44.7462 17.6249 44.7462H0.885267C0.295089 44.7462 0 44.4512 0 43.861V0.965748C0 0.321916 0.295089 0 0.885267 0H16.2567C20.8708 0 24.4119 1.0194 26.8799 3.0582C29.4016 5.097 30.6624 7.94058 30.6624 11.589C30.6624 14.4325 29.9381 16.6055 28.4895 18.1077C27.0409 19.61 25.4581 20.7367 23.7413 21.4879ZM7.88693 18.0273H16.981C19.0735 18.0273 20.5489 17.4639 21.4074 16.3372C22.3195 15.2105 22.7755 13.8692 22.7755 12.3133C22.7755 10.7037 22.2658 9.41603 21.2464 8.45028C20.2807 7.48454 18.7247 7.00166 16.5786 7.00166H7.88693V18.0273ZM7.88693 37.8251H16.7396C17.759 37.8251 18.8321 37.7178 19.9588 37.5031C21.1391 37.2349 22.1317 36.6447 22.9365 35.7326C23.7949 34.8205 24.2241 33.3451 24.2241 31.3063C24.2241 29.4821 23.634 27.9262 22.4536 26.6385C21.2732 25.3508 19.3954 24.707 16.8201 24.707H7.88693V37.8251Z" fill="url(#paint0_linear_35_11)"/>
<path d="M52.1767 45.551C47.2943 45.551 43.7532 44.1292 41.5535 41.2857C39.3537 38.4421 38.2539 34.7132 38.2539 30.0991V15.4519C38.2539 14.8081 38.5221 14.4862 39.0586 14.4862H39.461C41.5535 14.4862 43.1631 15.0227 44.2898 16.0958C45.4165 17.1688 45.9798 18.9125 45.9798 21.3269V31.0648C45.9798 33.6402 46.57 35.518 47.7504 36.6984C48.9307 37.8787 50.4062 38.4689 52.1767 38.4689C54.0009 38.4689 55.53 37.9324 56.764 36.8593C57.998 35.7326 58.615 33.8279 58.615 31.1453V15.4519C58.615 14.8081 58.9101 14.4862 59.5003 14.4862H59.9027C61.9951 14.4862 63.5779 15.0227 64.6509 16.0958C65.7776 17.1688 66.341 18.9125 66.341 21.3269V30.582C66.341 35.1424 65.2143 38.7908 62.9609 41.5271C60.7075 44.2097 57.1127 45.551 52.1767 45.551Z" fill="url(#paint1_linear_35_11)"/>
<path d="M95.1247 26.2361V43.861C95.1247 44.4512 94.8296 44.7462 94.2395 44.7462H88.1231C87.5329 44.7462 87.2378 44.4512 87.2378 43.861V0.965748C87.2378 0.321916 87.5329 0 88.1231 0H108.887C111.998 0 113.554 1.5291 113.554 4.5873V6.27735C113.554 6.54562 113.447 6.81388 113.232 7.08214C113.072 7.29675 112.803 7.40406 112.428 7.40406H95.1247V19.0735H107.036C110.201 19.0735 111.784 20.5489 111.784 23.4998V25.1094C111.784 25.8605 111.408 26.2361 110.657 26.2361H95.1247Z" fill="url(#paint2_linear_35_11)"/>
<path d="M118.327 6.59927C118.327 5.31161 118.729 4.26538 119.534 3.46059C120.392 2.60215 121.438 2.17293 122.672 2.17293C123.906 2.17293 124.926 2.60215 125.731 3.46059C126.589 4.26538 127.018 5.31161 127.018 6.59927C127.018 7.83328 126.589 8.8795 125.731 9.73794C124.926 10.5964 123.906 11.0256 122.672 11.0256C121.438 11.0256 120.392 10.5964 119.534 9.73794C118.729 8.8795 118.327 7.83328 118.327 6.59927ZM119.695 44.7462C119.158 44.7462 118.89 44.4512 118.89 43.861V15.4519C118.89 14.8081 119.158 14.4862 119.695 14.4862H120.097C122.136 14.4862 123.719 15.0227 124.845 16.0958C125.972 17.1688 126.535 18.9125 126.535 21.3269V43.861C126.535 44.4512 126.24 44.7462 125.65 44.7462H119.695Z" fill="url(#paint3_linear_35_11)"/>
<path d="M141.541 18.9125C142.453 17.1957 143.553 16.0421 144.841 15.4519C146.128 14.8081 147.872 14.4862 150.072 14.4862H150.957C151.493 14.4862 151.762 14.8081 151.762 15.4519V20.9245C151.762 21.5683 151.493 21.8902 150.957 21.8902H148.864C145.914 21.8902 143.982 22.6414 143.07 24.1437C142.212 25.5923 141.782 27.7384 141.782 30.582V43.861C141.782 44.4512 141.514 44.7462 140.978 44.7462H134.942C134.459 44.7462 134.217 44.4512 134.217 43.861V15.4519C134.217 14.8081 134.459 14.4862 134.942 14.4862H135.344C138.831 14.4862 140.897 15.9616 141.541 18.9125Z" fill="url(#paint4_linear_35_11)"/>
<path d="M164.643 18.2687C165.609 16.981 166.789 15.9348 168.184 15.13C169.633 14.3252 171.35 13.9228 173.335 13.9228C178.057 13.9228 181.41 15.6934 183.395 19.2344C184.468 17.7858 185.809 16.5518 187.419 15.5324C189.028 14.4594 190.96 13.9228 193.213 13.9228C197.023 13.9228 200 15.0495 202.147 17.303C204.346 19.5564 205.446 22.9096 205.446 27.3628V43.861C205.446 44.4512 205.124 44.7462 204.48 44.7462H198.525C197.988 44.7462 197.72 44.4512 197.72 43.861V28.2481C197.72 25.5654 197.13 23.6608 195.95 22.5341C194.823 21.4074 193.374 20.844 191.604 20.844C189.833 20.844 188.331 21.4342 187.097 22.6146C185.917 23.7949 185.326 25.6996 185.326 28.3286V43.861C185.326 44.4512 185.058 44.7462 184.522 44.7462H178.486C177.896 44.7462 177.6 44.4512 177.6 43.861V28.2481C177.6 25.5654 177.037 23.6608 175.91 22.5341C174.784 21.4074 173.308 20.844 171.484 20.844C169.66 20.844 168.158 21.4342 166.977 22.6146C165.797 23.7949 165.207 25.6996 165.207 28.3286V43.861C165.207 44.4512 164.912 44.7462 164.321 44.7462H158.205C157.722 44.7462 157.481 44.4512 157.481 43.861V15.4519C157.481 14.8081 157.722 14.4862 158.205 14.4862H158.607C160.163 14.4862 161.451 14.8081 162.47 15.4519C163.544 16.0421 164.268 16.981 164.643 18.2687Z" fill="url(#paint5_linear_35_11)"/>
<path d="M234.863 40.9637C233.79 42.4124 232.422 43.5391 230.759 44.3438C229.095 45.095 227.325 45.4706 225.447 45.4706C222.442 45.4706 219.894 44.7462 217.802 43.2976C215.763 41.849 214.207 39.9175 213.134 37.5031C212.114 35.0888 211.605 32.433 211.605 29.5357C211.605 26.5312 212.168 23.8486 213.295 21.4879C214.421 19.0735 216.031 17.1688 218.123 15.7739C220.27 14.3789 222.764 13.6814 225.608 13.6814C227.969 13.6814 229.954 14.1106 231.563 14.9691C233.227 15.8275 234.541 16.8469 235.507 18.0273C235.936 16.7933 236.634 15.908 237.599 15.3715C238.619 14.7813 239.826 14.4862 241.221 14.4862H241.623C242.213 14.4862 242.509 14.8081 242.509 15.4519V43.861C242.509 44.4512 242.213 44.7462 241.623 44.7462H235.668C235.131 44.7462 234.863 44.4512 234.863 43.861V40.9637ZM227.137 38.2275C228.156 38.2275 229.256 38.0128 230.437 37.5836C231.671 37.1008 232.717 36.2423 233.575 35.0083C234.434 33.7743 234.863 31.9501 234.863 29.5357C234.863 27.1214 234.434 25.324 233.575 24.1437C232.717 22.9096 231.698 22.1049 230.517 21.7293C229.337 21.3001 228.237 21.0855 227.218 21.0855C226.145 21.0855 224.991 21.3269 223.757 21.8098C222.577 22.2926 221.557 23.1511 220.699 24.3851C219.894 25.6191 219.492 27.336 219.492 29.5357C219.492 31.8428 219.921 33.6402 220.779 34.9278C221.691 36.1618 222.738 37.0203 223.918 37.5031C225.098 37.986 226.171 38.2275 227.137 38.2275Z" fill="url(#paint6_linear_35_11)"/>
<path d="M289.198 30.2601V0.965748C289.198 0.321916 289.493 0 290.083 0H290.727C292.819 0 294.402 0.536527 295.475 1.60958C296.548 2.68263 297.085 4.47999 297.085 7.00166V43.861C297.085 44.4512 296.789 44.7462 296.199 44.7462H290.485C289.734 44.7462 289.144 44.3975 288.715 43.7L271.17 15.13V43.861C271.17 44.4512 270.875 44.7462 270.285 44.7462H264.169C263.578 44.7462 263.283 44.4512 263.283 43.861V0.965748C263.283 0.321916 263.578 0 264.169 0H266.583C268.246 0 269.534 0.321916 270.446 0.965748C271.358 1.55593 272.243 2.5485 273.102 3.94347L289.198 30.2601Z" fill="url(#paint7_linear_35_11)"/>
<path d="M327.602 40.9637C326.529 42.4124 325.161 43.5391 323.498 44.3438C321.835 45.095 320.064 45.4706 318.186 45.4706C315.182 45.4706 312.633 44.7462 310.541 43.2976C308.502 41.849 306.946 39.9175 305.873 37.5031C304.854 35.0888 304.344 32.433 304.344 29.5357C304.344 26.5312 304.907 23.8486 306.034 21.4879C307.161 19.0735 308.77 17.1688 310.863 15.7739C313.009 14.3789 315.504 13.6814 318.347 13.6814C320.708 13.6814 322.693 14.1106 324.303 14.9691C325.966 15.8275 327.28 16.8469 328.246 18.0273C328.675 16.7933 329.373 15.908 330.339 15.3715C331.358 14.7813 332.565 14.4862 333.96 14.4862H334.363C334.953 14.4862 335.248 14.8081 335.248 15.4519V43.861C335.248 44.4512 334.953 44.7462 334.363 44.7462H328.407C327.871 44.7462 327.602 44.4512 327.602 43.861V40.9637ZM319.876 38.2275C320.896 38.2275 321.996 38.0128 323.176 37.5836C324.41 37.1008 325.456 36.2423 326.315 35.0083C327.173 33.7743 327.602 31.9501 327.602 29.5357C327.602 27.1214 327.173 25.324 326.315 24.1437C325.456 22.9096 324.437 22.1049 323.257 21.7293C322.076 21.3001 320.976 21.0855 319.957 21.0855C318.884 21.0855 317.73 21.3269 316.496 21.8098C315.316 22.2926 314.297 23.1511 313.438 24.3851C312.633 25.6191 312.231 27.336 312.231 29.5357C312.231 31.8428 312.66 33.6402 313.519 34.9278C314.431 36.1618 315.477 37.0203 316.657 37.5031C317.838 37.986 318.911 38.2275 319.876 38.2275Z" fill="url(#paint8_linear_35_11)"/>
<path d="M341.999 35.9741C343.233 36.9934 344.521 37.7982 345.862 38.3884C347.257 38.9786 348.92 39.2737 350.852 39.2737C354.125 39.2737 355.761 38.2275 355.761 36.135C355.761 35.2229 355.251 34.4986 354.232 33.9621C353.266 33.4256 352.059 32.9159 350.61 32.433C349.216 31.9501 347.794 31.3599 346.345 30.6624C344.896 29.965 343.662 29.0529 342.643 27.9262C341.677 26.7458 341.194 25.1631 341.194 23.1779C341.194 20.9782 341.731 19.2076 342.804 17.8663C343.931 16.4713 345.379 15.4519 347.15 14.8081C348.974 14.1643 350.906 13.8424 352.944 13.8424C355.466 13.8424 357.559 14.2448 359.222 15.0495C360.617 15.6397 361.529 16.364 361.958 17.2225C362.387 18.0273 362.387 19.1808 361.958 20.6831L361.717 21.5683C361.556 21.9976 361.341 22.2122 361.073 22.2122C360.912 22.2122 360.778 22.1853 360.67 22.1317C360.563 22.0244 360.402 21.9439 360.187 21.8902C357.666 20.6562 355.198 20.0392 352.783 20.0392C351.71 20.0392 350.798 20.2538 350.047 20.6831C349.296 21.1123 348.92 21.7829 348.92 22.695C348.92 23.6071 349.403 24.3583 350.369 24.9484C351.388 25.485 352.596 25.9947 353.991 26.4775C355.439 26.9604 356.888 27.5506 358.336 28.2481C359.785 28.9456 360.992 29.8577 361.958 30.9844C362.977 32.1111 363.487 33.6133 363.487 35.4912C363.487 38.4957 362.414 40.9369 360.268 42.8148C358.122 44.6389 355.278 45.551 351.737 45.551C349.484 45.551 347.499 45.1755 345.782 44.4243C344.119 43.6195 342.804 42.5733 341.838 41.2857C340.873 39.998 340.39 38.6567 340.39 37.2617C340.39 36.1887 340.712 35.6521 341.355 35.6521C341.57 35.6521 341.785 35.7594 341.999 35.9741Z" fill="url(#paint9_linear_35_11)"/>
<path d="M369.621 44.7462C369.031 44.7462 368.736 44.4512 368.736 43.861V15.4519C368.736 14.8081 369.031 14.4862 369.621 14.4862H370.024C372.062 14.4862 373.618 15.0227 374.691 16.0958C375.818 17.1688 376.381 18.9125 376.381 21.3269V43.861C376.381 44.4512 376.113 44.7462 375.577 44.7462H369.621Z" fill="url(#paint10_linear_35_11)"/>
<path d="M398.31 37.0203C398.417 36.9666 398.525 36.8861 398.632 36.7788C398.793 36.6715 398.954 36.6179 399.115 36.6179C399.437 36.6179 399.651 36.752 399.759 37.0203C399.92 37.2349 400 37.4763 400 37.7446C400 38.8176 399.759 39.9712 399.276 41.2052C398.793 42.3855 397.988 43.3781 396.861 44.1829C395.735 44.9877 394.179 45.3901 392.194 45.3901C389.672 45.3901 387.66 44.5585 386.158 42.8952C384.709 41.232 383.985 38.6567 383.985 35.1693V0.965748C383.985 0.321916 384.253 0 384.789 0H385.192C387.284 0 388.894 0.536527 390.021 1.60958C391.147 2.62898 391.711 4.34586 391.711 6.76022V34.445C391.711 37.2349 392.703 38.6299 394.688 38.6299C395.493 38.6299 396.164 38.4957 396.7 38.2275C397.237 37.9592 397.773 37.5568 398.31 37.0203Z" fill="url(#paint11_linear_35_11)"/>
<defs>
<linearGradient id="paint0_linear_35_11" x1="198.286" y1="-3.87642" x2="198.286" y2="56.4827" gradientUnits="userSpaceOnUse">
<stop stop-color="#9368E8"/>
<stop offset="1" stop-color="#222B7F"/>
</linearGradient>
<linearGradient id="paint1_linear_35_11" x1="198.286" y1="-3.87642" x2="198.286" y2="56.4827" gradientUnits="userSpaceOnUse">
<stop stop-color="#9368E8"/>
<stop offset="1" stop-color="#222B7F"/>
</linearGradient>
<linearGradient id="paint2_linear_35_11" x1="198.286" y1="-3.87642" x2="198.286" y2="56.4827" gradientUnits="userSpaceOnUse">
<stop stop-color="#9368E8"/>
<stop offset="1" stop-color="#222B7F"/>
</linearGradient>
<linearGradient id="paint3_linear_35_11" x1="198.286" y1="-3.87642" x2="198.286" y2="56.4827" gradientUnits="userSpaceOnUse">
<stop stop-color="#9368E8"/>
<stop offset="1" stop-color="#222B7F"/>
</linearGradient>
<linearGradient id="paint4_linear_35_11" x1="198.286" y1="-3.87642" x2="198.286" y2="56.4827" gradientUnits="userSpaceOnUse">
<stop stop-color="#9368E8"/>
<stop offset="1" stop-color="#222B7F"/>
</linearGradient>
<linearGradient id="paint5_linear_35_11" x1="198.286" y1="-3.87642" x2="198.286" y2="56.4827" gradientUnits="userSpaceOnUse">
<stop stop-color="#9368E8"/>
<stop offset="1" stop-color="#222B7F"/>
</linearGradient>
<linearGradient id="paint6_linear_35_11" x1="198.286" y1="-3.87642" x2="198.286" y2="56.4827" gradientUnits="userSpaceOnUse">
<stop stop-color="#9368E8"/>
<stop offset="1" stop-color="#222B7F"/>
</linearGradient>
<linearGradient id="paint7_linear_35_11" x1="198.286" y1="-3.87642" x2="198.286" y2="56.4827" gradientUnits="userSpaceOnUse">
<stop stop-color="#9368E8"/>
<stop offset="1" stop-color="#222B7F"/>
</linearGradient>
<linearGradient id="paint8_linear_35_11" x1="198.286" y1="-3.87642" x2="198.286" y2="56.4827" gradientUnits="userSpaceOnUse">
<stop stop-color="#9368E8"/>
<stop offset="1" stop-color="#222B7F"/>
</linearGradient>
<linearGradient id="paint9_linear_35_11" x1="198.286" y1="-3.87642" x2="198.286" y2="56.4827" gradientUnits="userSpaceOnUse">
<stop stop-color="#9368E8"/>
<stop offset="1" stop-color="#222B7F"/>
</linearGradient>
<linearGradient id="paint10_linear_35_11" x1="198.286" y1="-3.87642" x2="198.286" y2="56.4827" gradientUnits="userSpaceOnUse">
<stop stop-color="#9368E8"/>
<stop offset="1" stop-color="#222B7F"/>
</linearGradient>
<linearGradient id="paint11_linear_35_11" x1="198.286" y1="-3.87642" x2="198.286" y2="56.4827" gradientUnits="userSpaceOnUse">
<stop stop-color="#9368E8"/>
<stop offset="1" stop-color="#222B7F"/>
</linearGradient>
</defs>
</svg>
