<svg width="240" height="28" viewBox="0 0 240 28" fill="none" xmlns="http://www.w3.org/2000/svg">
<path d="M14.896 13.128C16.4 13.48 17.632 14.232 18.592 15.384C19.552 16.504 20.032 17.864 20.032 19.464C20.032 21.832 19.296 23.688 17.824 25.032C16.352 26.344 14.16 27 11.248 27H1.26402C0.912023 27 0.736023 26.824 0.736023 26.472V0.888013C0.736023 0.504012 0.912023 0.312012 1.26402 0.312012H10.432C13.184 0.312012 15.296 0.920012 16.768 2.13601C18.272 3.35201 19.024 5.04801 19.024 7.22401C19.024 8.92001 18.592 10.216 17.728 11.112C16.864 12.008 15.92 12.68 14.896 13.128ZM5.44002 11.064H10.864C12.112 11.064 12.992 10.728 13.504 10.056C14.048 9.38401 14.32 8.58401 14.32 7.65601C14.32 6.69601 14.016 5.92801 13.408 5.35201C12.832 4.77601 11.904 4.48801 10.624 4.48801H5.44002V11.064ZM5.44002 22.872H10.72C11.328 22.872 11.968 22.808 12.64 22.68C13.344 22.52 13.936 22.168 14.416 21.624C14.928 21.08 15.184 20.2 15.184 18.984C15.184 17.896 14.832 16.968 14.128 16.2C13.424 15.432 12.304 15.048 10.768 15.048H5.44002V22.872Z" fill="url(#paint0_linear_5_67)"/>
<path d="M31.8558 27.48C28.9438 27.48 26.8318 26.632 25.5198 24.936C24.2078 23.24 23.5518 21.016 23.5518 18.264V9.52801C23.5518 9.14401 23.7118 8.95201 24.0318 8.95201H24.2718C25.5198 8.95201 26.4798 9.27201 27.1518 9.91201C27.8238 10.552 28.1598 11.592 28.1598 13.032V18.84C28.1598 20.376 28.5118 21.496 29.2158 22.2C29.9198 22.904 30.7998 23.256 31.8558 23.256C32.9438 23.256 33.8558 22.936 34.5918 22.296C35.3278 21.624 35.6958 20.488 35.6958 18.888V9.52801C35.6958 9.14401 35.8718 8.95201 36.2238 8.95201H36.4638C37.7118 8.95201 38.6558 9.27201 39.2958 9.91201C39.9678 10.552 40.3038 11.592 40.3038 13.032V18.552C40.3038 21.272 39.6318 23.448 38.2878 25.08C36.9438 26.68 34.7998 27.48 31.8558 27.48Z" fill="url(#paint1_linear_5_67)"/>
<path d="M57.4713 15.96V26.472C57.4713 26.824 57.2953 27 56.9433 27H53.2953C52.9433 27 52.7673 26.824 52.7673 26.472V0.888013C52.7673 0.504012 52.9433 0.312012 53.2953 0.312012H65.6793C67.5353 0.312012 68.4633 1.22401 68.4633 3.04801V4.05601C68.4633 4.21601 68.3993 4.37601 68.2713 4.53601C68.1753 4.66401 68.0153 4.72801 67.7913 4.72801H57.4713V11.688H64.5753C66.4633 11.688 67.4073 12.568 67.4073 14.328V15.288C67.4073 15.736 67.1833 15.96 66.7353 15.96H57.4713Z" fill="url(#paint2_linear_5_67)"/>
<path d="M71.3095 4.24801C71.3095 3.48001 71.5495 2.85601 72.0295 2.37601C72.5415 1.86401 73.1655 1.60801 73.9015 1.60801C74.6375 1.60801 75.2455 1.86401 75.7255 2.37601C76.2375 2.85601 76.4935 3.48001 76.4935 4.24801C76.4935 4.98401 76.2375 5.60801 75.7255 6.12001C75.2455 6.63201 74.6375 6.88801 73.9015 6.88801C73.1655 6.88801 72.5415 6.63201 72.0295 6.12001C71.5495 5.60801 71.3095 4.98401 71.3095 4.24801ZM72.1255 27C71.8055 27 71.6455 26.824 71.6455 26.472V9.52801C71.6455 9.14401 71.8055 8.95201 72.1255 8.95201H72.3655C73.5815 8.95201 74.5255 9.27201 75.1975 9.91201C75.8695 10.552 76.2055 11.592 76.2055 13.032V26.472C76.2055 26.824 76.0295 27 75.6775 27H72.1255Z" fill="url(#paint3_linear_5_67)"/>
<path d="M85.1553 11.592C85.6993 10.568 86.3553 9.88001 87.1233 9.52801C87.8913 9.14401 88.9313 8.95201 90.2433 8.95201H90.7713C91.0913 8.95201 91.2513 9.14401 91.2513 9.52801V12.792C91.2513 13.176 91.0913 13.368 90.7713 13.368H89.5233C87.7633 13.368 86.6113 13.816 86.0673 14.712C85.5553 15.576 85.2993 16.856 85.2993 18.552V26.472C85.2993 26.824 85.1393 27 84.8193 27H81.2193C80.9313 27 80.7873 26.824 80.7873 26.472V9.52801C80.7873 9.14401 80.9313 8.95201 81.2193 8.95201H81.4593C83.5393 8.95201 84.7713 9.83201 85.1553 11.592Z" fill="url(#paint4_linear_5_67)"/>
<path d="M98.9343 11.208C99.5103 10.44 100.214 9.81601 101.046 9.33601C101.91 8.85601 102.934 8.61601 104.118 8.61601C106.934 8.61601 108.934 9.67201 110.118 11.784C110.758 10.92 111.558 10.184 112.518 9.57601C113.478 8.93601 114.63 8.61601 115.974 8.61601C118.246 8.61601 120.022 9.28801 121.302 10.632C122.614 11.976 123.27 13.976 123.27 16.632V26.472C123.27 26.824 123.078 27 122.694 27H119.142C118.822 27 118.662 26.824 118.662 26.472V17.16C118.662 15.56 118.31 14.424 117.606 13.752C116.934 13.08 116.07 12.744 115.014 12.744C113.958 12.744 113.062 13.096 112.326 13.8C111.622 14.504 111.27 15.64 111.27 17.208V26.472C111.27 26.824 111.11 27 110.79 27H107.19C106.838 27 106.662 26.824 106.662 26.472V17.16C106.662 15.56 106.326 14.424 105.654 13.752C104.982 13.08 104.102 12.744 103.014 12.744C101.926 12.744 101.03 13.096 100.326 13.8C99.6223 14.504 99.2703 15.64 99.2703 17.208V26.472C99.2703 26.824 99.0943 27 98.7423 27H95.0943C94.8063 27 94.6623 26.824 94.6623 26.472V9.52801C94.6623 9.14401 94.8063 8.95201 95.0943 8.95201H95.3343C96.2623 8.95201 97.0303 9.14401 97.6383 9.52801C98.2783 9.88001 98.7103 10.44 98.9343 11.208Z" fill="url(#paint5_linear_5_67)"/>
<path d="M140.815 24.744C140.175 25.608 139.359 26.28 138.367 26.76C137.375 27.208 136.319 27.432 135.199 27.432C133.407 27.432 131.887 27 130.639 26.136C129.423 25.272 128.495 24.12 127.855 22.68C127.247 21.24 126.943 19.656 126.943 17.928C126.943 16.136 127.279 14.536 127.951 13.128C128.623 11.688 129.583 10.552 130.831 9.72001C132.111 8.88801 133.599 8.47201 135.295 8.47201C136.703 8.47201 137.887 8.72801 138.847 9.24001C139.839 9.75201 140.623 10.36 141.199 11.064C141.455 10.328 141.871 9.80001 142.447 9.48001C143.055 9.12801 143.775 8.95201 144.607 8.95201H144.847C145.199 8.95201 145.375 9.14401 145.375 9.52801V26.472C145.375 26.824 145.199 27 144.847 27H141.295C140.975 27 140.815 26.824 140.815 26.472V24.744ZM136.207 23.112C136.815 23.112 137.471 22.984 138.175 22.728C138.911 22.44 139.535 21.928 140.047 21.192C140.559 20.456 140.815 19.368 140.815 17.928C140.815 16.488 140.559 15.416 140.047 14.712C139.535 13.976 138.927 13.496 138.223 13.272C137.519 13.016 136.863 12.888 136.255 12.888C135.615 12.888 134.927 13.032 134.191 13.32C133.487 13.608 132.879 14.12 132.367 14.856C131.887 15.592 131.647 16.616 131.647 17.928C131.647 19.304 131.903 20.376 132.415 21.144C132.959 21.88 133.583 22.392 134.287 22.68C134.991 22.968 135.631 23.112 136.207 23.112Z" fill="url(#paint6_linear_5_67)"/>
<path d="M173.222 18.36V0.888013C173.222 0.504012 173.398 0.312012 173.75 0.312012H174.134C175.382 0.312012 176.326 0.632012 176.966 1.27201C177.606 1.91201 177.926 2.98401 177.926 4.48801V26.472C177.926 26.824 177.75 27 177.398 27H173.99C173.542 27 173.19 26.792 172.934 26.376L162.47 9.33601V26.472C162.47 26.824 162.294 27 161.942 27H158.294C157.942 27 157.766 26.824 157.766 26.472V0.888013C157.766 0.504012 157.942 0.312012 158.294 0.312012H159.734C160.726 0.312012 161.494 0.504012 162.038 0.888013C162.582 1.24001 163.11 1.83201 163.622 2.66401L173.222 18.36Z" fill="url(#paint7_linear_5_67)"/>
<path d="M196.128 24.744C195.488 25.608 194.672 26.28 193.68 26.76C192.688 27.208 191.632 27.432 190.512 27.432C188.72 27.432 187.2 27 185.952 26.136C184.736 25.272 183.808 24.12 183.168 22.68C182.56 21.24 182.256 19.656 182.256 17.928C182.256 16.136 182.592 14.536 183.264 13.128C183.936 11.688 184.896 10.552 186.144 9.72001C187.424 8.88801 188.912 8.47201 190.608 8.47201C192.016 8.47201 193.2 8.72801 194.16 9.24001C195.152 9.75201 195.936 10.36 196.512 11.064C196.768 10.328 197.184 9.80001 197.76 9.48001C198.368 9.12801 199.088 8.95201 199.92 8.95201H200.16C200.512 8.95201 200.688 9.14401 200.688 9.52801V26.472C200.688 26.824 200.512 27 200.16 27H196.608C196.288 27 196.128 26.824 196.128 26.472V24.744ZM191.52 23.112C192.128 23.112 192.784 22.984 193.488 22.728C194.224 22.44 194.848 21.928 195.36 21.192C195.872 20.456 196.128 19.368 196.128 17.928C196.128 16.488 195.872 15.416 195.36 14.712C194.848 13.976 194.24 13.496 193.536 13.272C192.832 13.016 192.176 12.888 191.568 12.888C190.928 12.888 190.24 13.032 189.504 13.32C188.8 13.608 188.192 14.12 187.68 14.856C187.2 15.592 186.96 16.616 186.96 17.928C186.96 19.304 187.216 20.376 187.728 21.144C188.272 21.88 188.896 22.392 189.6 22.68C190.304 22.968 190.944 23.112 191.52 23.112Z" fill="url(#paint8_linear_5_67)"/>
<path d="M204.715 21.768C205.451 22.376 206.219 22.856 207.019 23.208C207.851 23.56 208.843 23.736 209.995 23.736C211.947 23.736 212.923 23.112 212.923 21.864C212.923 21.32 212.619 20.888 212.011 20.568C211.435 20.248 210.715 19.944 209.851 19.656C209.019 19.368 208.171 19.016 207.307 18.6C206.443 18.184 205.707 17.64 205.099 16.968C204.523 16.264 204.235 15.32 204.235 14.136C204.235 12.824 204.555 11.768 205.195 10.968C205.867 10.136 206.731 9.52801 207.787 9.14401C208.875 8.76001 210.027 8.56801 211.243 8.56801C212.747 8.56801 213.995 8.80801 214.987 9.28801C215.819 9.64001 216.363 10.072 216.619 10.584C216.875 11.064 216.875 11.752 216.619 12.648L216.475 13.176C216.379 13.432 216.251 13.56 216.091 13.56C215.995 13.56 215.915 13.544 215.851 13.512C215.787 13.448 215.691 13.4 215.563 13.368C214.059 12.632 212.587 12.264 211.147 12.264C210.507 12.264 209.963 12.392 209.515 12.648C209.067 12.904 208.843 13.304 208.843 13.848C208.843 14.392 209.131 14.84 209.707 15.192C210.315 15.512 211.035 15.816 211.867 16.104C212.731 16.392 213.595 16.744 214.459 17.16C215.323 17.576 216.043 18.12 216.619 18.792C217.227 19.464 217.531 20.36 217.531 21.48C217.531 23.272 216.891 24.728 215.611 25.848C214.331 26.936 212.635 27.48 210.523 27.48C209.179 27.48 207.995 27.256 206.971 26.808C205.979 26.328 205.195 25.704 204.619 24.936C204.043 24.168 203.755 23.368 203.755 22.536C203.755 21.896 203.947 21.576 204.331 21.576C204.459 21.576 204.587 21.64 204.715 21.768Z" fill="url(#paint9_linear_5_67)"/>
<path d="M221.189 27C220.837 27 220.661 26.824 220.661 26.472V9.52801C220.661 9.14401 220.837 8.95201 221.189 8.95201H221.429C222.645 8.95201 223.573 9.27201 224.213 9.91201C224.885 10.552 225.221 11.592 225.221 13.032V26.472C225.221 26.824 225.061 27 224.741 27H221.189Z" fill="url(#paint10_linear_5_67)"/>
<path d="M238.3 22.392C238.364 22.36 238.428 22.312 238.492 22.248C238.588 22.184 238.684 22.152 238.78 22.152C238.972 22.152 239.1 22.232 239.164 22.392C239.26 22.52 239.308 22.664 239.308 22.824C239.308 23.464 239.164 24.152 238.876 24.888C238.588 25.592 238.108 26.184 237.436 26.664C236.764 27.144 235.836 27.384 234.652 27.384C233.148 27.384 231.948 26.888 231.052 25.896C230.188 24.904 229.756 23.368 229.756 21.288V0.888013C229.756 0.504012 229.916 0.312012 230.236 0.312012H230.476C231.724 0.312012 232.684 0.632012 233.356 1.27201C234.028 1.88001 234.364 2.90401 234.364 4.34401V20.856C234.364 22.52 234.956 23.352 236.14 23.352C236.62 23.352 237.02 23.272 237.34 23.112C237.66 22.952 237.98 22.712 238.3 22.392Z" fill="url(#paint11_linear_5_67)"/>
<defs>
<linearGradient id="paint0_linear_5_67" x1="119" y1="-2" x2="119" y2="34" gradientUnits="userSpaceOnUse">
<stop stop-color="#9368E8"/>
<stop offset="1" stop-color="#222B7F"/>
</linearGradient>
<linearGradient id="paint1_linear_5_67" x1="119" y1="-2" x2="119" y2="34" gradientUnits="userSpaceOnUse">
<stop stop-color="#9368E8"/>
<stop offset="1" stop-color="#222B7F"/>
</linearGradient>
<linearGradient id="paint2_linear_5_67" x1="119" y1="-2" x2="119" y2="34" gradientUnits="userSpaceOnUse">
<stop stop-color="#9368E8"/>
<stop offset="1" stop-color="#222B7F"/>
</linearGradient>
<linearGradient id="paint3_linear_5_67" x1="119" y1="-2" x2="119" y2="34" gradientUnits="userSpaceOnUse">
<stop stop-color="#9368E8"/>
<stop offset="1" stop-color="#222B7F"/>
</linearGradient>
<linearGradient id="paint4_linear_5_67" x1="119" y1="-2" x2="119" y2="34" gradientUnits="userSpaceOnUse">
<stop stop-color="#9368E8"/>
<stop offset="1" stop-color="#222B7F"/>
</linearGradient>
<linearGradient id="paint5_linear_5_67" x1="119" y1="-2" x2="119" y2="34" gradientUnits="userSpaceOnUse">
<stop stop-color="#9368E8"/>
<stop offset="1" stop-color="#222B7F"/>
</linearGradient>
<linearGradient id="paint6_linear_5_67" x1="119" y1="-2" x2="119" y2="34" gradientUnits="userSpaceOnUse">
<stop stop-color="#9368E8"/>
<stop offset="1" stop-color="#222B7F"/>
</linearGradient>
<linearGradient id="paint7_linear_5_67" x1="119" y1="-2" x2="119" y2="34" gradientUnits="userSpaceOnUse">
<stop stop-color="#9368E8"/>
<stop offset="1" stop-color="#222B7F"/>
</linearGradient>
<linearGradient id="paint8_linear_5_67" x1="119" y1="-2" x2="119" y2="34" gradientUnits="userSpaceOnUse">
<stop stop-color="#9368E8"/>
<stop offset="1" stop-color="#222B7F"/>
</linearGradient>
<linearGradient id="paint9_linear_5_67" x1="119" y1="-2" x2="119" y2="34" gradientUnits="userSpaceOnUse">
<stop stop-color="#9368E8"/>
<stop offset="1" stop-color="#222B7F"/>
</linearGradient>
<linearGradient id="paint10_linear_5_67" x1="119" y1="-2" x2="119" y2="34" gradientUnits="userSpaceOnUse">
<stop stop-color="#9368E8"/>
<stop offset="1" stop-color="#222B7F"/>
</linearGradient>
<linearGradient id="paint11_linear_5_67" x1="119" y1="-2" x2="119" y2="34" gradientUnits="userSpaceOnUse">
<stop stop-color="#9368E8"/>
<stop offset="1" stop-color="#222B7F"/>
</linearGradient>
</defs>
</svg>
