<svg width="1440" height="1024" viewBox="0 0 1440 1024" fill="none" xmlns="http://www.w3.org/2000/svg">
<rect width="1440" height="1024" fill="#F9FBFC"/>
<g filter="url(#filter0_d_3_58)">
<path d="M656.16 403.816C657.664 404.168 658.896 404.92 659.856 406.072C660.816 407.192 661.296 408.552 661.296 410.152C661.296 412.52 660.56 414.376 659.088 415.72C657.616 417.032 655.424 417.688 652.512 417.688H642.528C642.176 417.688 642 417.512 642 417.16V391.576C642 391.192 642.176 391 642.528 391H651.696C654.448 391 656.56 391.608 658.032 392.824C659.536 394.04 660.288 395.736 660.288 397.912C660.288 399.608 659.856 400.904 658.992 401.8C658.128 402.696 657.184 403.368 656.16 403.816ZM646.704 401.752H652.128C653.376 401.752 654.256 401.416 654.768 400.744C655.312 400.072 655.584 399.272 655.584 398.344C655.584 397.384 655.28 396.616 654.672 396.04C654.096 395.464 653.168 395.176 651.888 395.176H646.704V401.752ZM646.704 413.56H651.984C652.592 413.56 653.232 413.496 653.904 413.368C654.608 413.208 655.2 412.856 655.68 412.312C656.192 411.768 656.448 410.888 656.448 409.672C656.448 408.584 656.096 407.656 655.392 406.888C654.688 406.12 653.568 405.736 652.032 405.736H646.704V413.56Z" fill="url(#paint0_linear_3_58)"/>
</g>
<g filter="url(#filter1_d_3_58)">
<path d="M699.456 409.048V391.576C699.456 391.192 699.632 391 699.984 391H700.368C701.616 391 702.56 391.32 703.2 391.96C703.84 392.6 704.16 393.672 704.16 395.176V417.16C704.16 417.512 703.984 417.688 703.632 417.688H700.224C699.776 417.688 699.424 417.48 699.168 417.064L688.704 400.024V417.16C688.704 417.512 688.528 417.688 688.176 417.688H684.528C684.176 417.688 684 417.512 684 417.16V391.576C684 391.192 684.176 391 684.528 391H685.968C686.96 391 687.728 391.192 688.272 391.576C688.816 391.928 689.344 392.52 689.856 393.352L699.456 409.048Z" fill="url(#paint1_linear_3_58)"/>
</g>
<g filter="url(#filter2_d_3_58)">
<path d="M669.735 406.648V417.16C669.735 417.512 669.559 417.688 669.207 417.688H665.559C665.207 417.688 665.031 417.512 665.031 417.16V391.576C665.031 391.192 665.207 391 665.559 391H677.943C679.799 391 680.727 391.912 680.727 393.736V394.744C680.727 394.904 680.663 395.064 680.535 395.224C680.439 395.352 680.279 395.416 680.055 395.416H669.735V402.376H676.839C678.727 402.376 679.671 403.256 679.671 405.016V405.976C679.671 406.424 679.447 406.648 678.999 406.648H669.735Z" fill="url(#paint2_linear_3_58)"/>
</g>
<defs>
<filter id="filter0_d_3_58" x="638" y="391" width="27.2959" height="34.688" filterUnits="userSpaceOnUse" color-interpolation-filters="sRGB">
<feFlood flood-opacity="0" result="BackgroundImageFix"/>
<feColorMatrix in="SourceAlpha" type="matrix" values="0 0 0 0 0 0 0 0 0 0 0 0 0 0 0 0 0 0 127 0" result="hardAlpha"/>
<feOffset dy="4"/>
<feGaussianBlur stdDeviation="2"/>
<feComposite in2="hardAlpha" operator="out"/>
<feColorMatrix type="matrix" values="0 0 0 0 0 0 0 0 0 0 0 0 0 0 0 0 0 0 0.25 0"/>
<feBlend mode="normal" in2="BackgroundImageFix" result="effect1_dropShadow_3_58"/>
<feBlend mode="normal" in="SourceGraphic" in2="effect1_dropShadow_3_58" result="shape"/>
</filter>
<filter id="filter1_d_3_58" x="680" y="391" width="28.1599" height="34.688" filterUnits="userSpaceOnUse" color-interpolation-filters="sRGB">
<feFlood flood-opacity="0" result="BackgroundImageFix"/>
<feColorMatrix in="SourceAlpha" type="matrix" values="0 0 0 0 0 0 0 0 0 0 0 0 0 0 0 0 0 0 127 0" result="hardAlpha"/>
<feOffset dy="4"/>
<feGaussianBlur stdDeviation="2"/>
<feComposite in2="hardAlpha" operator="out"/>
<feColorMatrix type="matrix" values="0 0 0 0 0 0 0 0 0 0 0 0 0 0 0 0 0 0 0.25 0"/>
<feBlend mode="normal" in2="BackgroundImageFix" result="effect1_dropShadow_3_58"/>
<feBlend mode="normal" in="SourceGraphic" in2="effect1_dropShadow_3_58" result="shape"/>
</filter>
<filter id="filter2_d_3_58" x="661.031" y="391" width="23.696" height="34.688" filterUnits="userSpaceOnUse" color-interpolation-filters="sRGB">
<feFlood flood-opacity="0" result="BackgroundImageFix"/>
<feColorMatrix in="SourceAlpha" type="matrix" values="0 0 0 0 0 0 0 0 0 0 0 0 0 0 0 0 0 0 127 0" result="hardAlpha"/>
<feOffset dy="4"/>
<feGaussianBlur stdDeviation="2"/>
<feComposite in2="hardAlpha" operator="out"/>
<feColorMatrix type="matrix" values="0 0 0 0 0 0 0 0 0 0 0 0 0 0 0 0 0 0 0.25 0"/>
<feBlend mode="normal" in2="BackgroundImageFix" result="effect1_dropShadow_3_58"/>
<feBlend mode="normal" in="SourceGraphic" in2="effect1_dropShadow_3_58" result="shape"/>
</filter>
<linearGradient id="paint0_linear_3_58" x1="760.264" y1="388.688" x2="760.264" y2="424.688" gradientUnits="userSpaceOnUse">
<stop stop-color="#9368E8"/>
<stop offset="1" stop-color="#222B7F"/>
</linearGradient>
<linearGradient id="paint1_linear_3_58" x1="726.234" y1="388.688" x2="726.234" y2="424.688" gradientUnits="userSpaceOnUse">
<stop stop-color="#9368E8"/>
<stop offset="1" stop-color="#222B7F"/>
</linearGradient>
<linearGradient id="paint2_linear_3_58" x1="731.264" y1="388.688" x2="731.264" y2="424.688" gradientUnits="userSpaceOnUse">
<stop stop-color="#9368E8"/>
<stop offset="1" stop-color="#222B7F"/>
</linearGradient>
</defs>
</svg>
