<?xml version="1.0" encoding="utf-8"?>
<!-- Generator: Adobe Illustrator 24.3.0, SVG Export Plug-In . SVG Version: 6.00 Build 0)  -->
<svg version="1.1" id="katman_1" xmlns="http://www.w3.org/2000/svg" xmlns:xlink="http://www.w3.org/1999/xlink" x="0px" y="0px"
	 viewBox="0 0 325.18 91.59" style="enable-background:new 0 0 325.18 91.59;" xml:space="preserve">
<style type="text/css">
	.st0{fill:#EE3747;}
</style>
<path class="st0" d="M324.85,72.03v19.56h-45.06c-0.64,0-1.28,0-1.9-0.02c-20.63-0.57-31.98-10.33-37.44-18.9l17.12-13.15
	c4.46,6.15,12.51,10.99,22.22,10.99c7.41,0,11.89-1.92,11.89-6.39c0-6.39-11.51-6.91-24.28-11.75
	c-12.39-4.6-20.56-12.13-20.56-25.69C246.84,9.07,262.17,0,278.77,0c17,0,27.21,6.65,32.97,14.17l-15.98,13.67
	c-3.06-3.7-8.43-7.03-16.1-7.03c-6.53,0-9.71,2.42-9.71,5.49c0,6.39,7.03,5.36,23.76,11.37c15.83,5.62,21.58,13.93,21.58,25.69
	c0,3.06-0.38,5.96-1.16,8.66H324.85z"/>
<polygon class="st0" points="214.29,1.26 234.21,1.26 234.21,90.3 211.73,90.3 211.73,43.16 185.43,79.57 159.1,43.16 159.1,90.3 
	136.62,90.3 136.62,1.26 156.56,1.26 185.43,41.76 "/>
<path class="st0" d="M16.74,1.26v19.56H28.3L0,90.3h25.54l4.72-11.63H64.5l4.6,11.63h25.69L58.49,1.26H16.74z M36.65,59.89
	l10.73-27.58l10.73,27.58H36.65z"/>
<rect x="100.32" y="1.26" class="st0" width="24.26" height="89.05"/>
<path class="st0" d="M312.56,6.07c0-3.53,2.73-6.07,6.11-6.07c3.42,0,6.18,2.53,6.18,6.07c0,3.53-2.73,6.07-6.18,6.07
	C315.24,12.14,312.56,9.6,312.56,6.07 M323.81,6.07c0-3.07-2.23-5.15-5.15-5.15c-2.92,0-5.07,2.07-5.07,5.15
	c0,3,2.15,5.07,5.07,5.07C321.58,11.14,323.81,9.06,323.81,6.07 M316.47,2.42h2.46c1.35,0,2.23,0.96,2.23,2.19
	c0,0.88-0.46,1.65-1.23,2.03l1.69,2.8h-1.27l-1.57-2.57h-1.23v2.57h-1.08V2.42z M318.89,5.91c0.69,0,1.15-0.58,1.15-1.27
	c0-0.65-0.46-1.19-1.15-1.19h-1.34v2.46H318.89z"/>
</svg>
