<?xml version="1.0" encoding="utf-8"?>
<!-- Generator: Adobe Illustrator 25.1.0, SVG Export Plug-In . SVG Version: 6.00 Build 0)  -->
<svg version="1.1" id="Layer_1" xmlns="http://www.w3.org/2000/svg" xmlns:xlink="http://www.w3.org/1999/xlink" x="0px" y="0px"
	 viewBox="0 0 296.2 115.3" enable-background="new 0 0 296.2 115.3" xml:space="preserve">
<rect x="-10.7" y="-5.2" display="none" fill="#3C3C3B" width="323.2" height="128.2"/>
<g>
	<circle fill="#1D1D1B" cx="51.1" cy="50" r="48.7"/>
	<ellipse fill="#FFFFFF" cx="51.1" cy="50" rx="47.7" ry="48"/>
	<circle fill="#1D1D1B" cx="51.1" cy="50" r="44.8"/>
	<circle fill="#FFFFFF" cx="51.1" cy="50" r="42.3"/>
</g>
<g>
	<circle fill="#1D1D1B" cx="148.6" cy="50" r="48.7"/>
	<ellipse fill="#FFFFFF" cx="148.6" cy="50" rx="47.7" ry="48"/>
	<circle fill="#1D1D1B" cx="148.6" cy="50" r="44.8"/>
	<circle fill="#FFFFFF" cx="148.6" cy="50" r="42.3"/>
</g>
<g>
	<circle fill="#1D1D1B" cx="246.1" cy="50" r="48.7"/>
	<ellipse fill="#FFFFFF" cx="246.1" cy="50" rx="47.7" ry="48"/>
	<circle fill="#1D1D1B" cx="246.1" cy="50" r="44.8"/>
	<circle fill="#FFFFFF" cx="246.1" cy="50" r="42.3"/>
</g>
<g>
	<path fill="#FFFFFF" d="M65.9,102.9c-0.4,0-0.7,0.1-0.9,0.4c-0.3,0.2-0.4,0.6-0.4,1c0,0.4,0.1,0.6,0.3,0.8c0.2,0.2,0.5,0.3,0.8,0.3
		h0c0.4,0,0.7-0.1,1-0.4c0.3-0.2,0.4-0.6,0.4-1c0-0.4-0.1-0.6-0.3-0.8C66.6,103,66.3,102.9,65.9,102.9z"/>
	<path fill="#FFFFFF" d="M91.9,102.9c-0.4,0-0.7,0.1-0.9,0.4c-0.3,0.2-0.4,0.6-0.4,1c0,0.4,0.1,0.6,0.3,0.8c0.2,0.2,0.5,0.3,0.8,0.3
		h0c0.4,0,0.7-0.1,1-0.4c0.3-0.2,0.4-0.6,0.4-1c0-0.4-0.1-0.6-0.3-0.8C92.5,103,92.2,102.9,91.9,102.9z"/>
	<path fill="#FFFFFF" d="M153.7,102.9c-0.4,0-0.7,0.1-0.9,0.4c-0.3,0.2-0.4,0.6-0.4,1c0,0.4,0.1,0.6,0.3,0.8
		c0.2,0.2,0.5,0.3,0.8,0.3h0c0.4,0,0.7-0.1,1-0.4c0.3-0.2,0.4-0.6,0.4-1c0-0.4-0.1-0.6-0.3-0.8C154.3,103,154.1,102.9,153.7,102.9z"
		/>
	<g>
		<path fill="#FFFFFF" d="M7.2,103.4c-1.4,0-2.6,0.4-3.7,1.1c-1.6,1.1-2.5,2.8-2.5,5.2c0,1.4,0.4,2.4,1.2,3.2
			c0.8,0.8,1.9,1.2,3.2,1.2c1.2,0,2.1-0.2,2.6-0.5l-0.2-1.8c-0.5,0.2-1.2,0.3-1.9,0.3c-1.8,0-2.7-1-2.7-2.8c0-1.5,0.5-2.6,1.4-3.4
			c0.6-0.5,1.4-0.8,2.3-0.8c0.4,0,0.8,0,1.1,0.1c0.3,0.1,0.5,0.2,0.7,0.2l0.6-1.8c-0.1-0.1-0.4-0.2-0.8-0.3
			C8.2,103.4,7.8,103.4,7.2,103.4z"/>
		<path fill="#FFFFFF" d="M14.3,106.2c-1.3,0-2.4,0.5-3.1,1.4c-0.8,0.9-1.2,2-1.2,3.4c0,0.9,0.3,1.7,0.9,2.2
			c0.6,0.6,1.3,0.9,2.2,0.9h0c1.3,0,2.3-0.5,3.1-1.4c0.8-0.9,1.2-2,1.2-3.4c0-0.9-0.3-1.6-0.8-2.2C16,106.5,15.3,106.2,14.3,106.2z
			 M14.7,111.3c-0.2,0.3-0.3,0.6-0.6,0.8c-0.2,0.2-0.5,0.3-0.8,0.3h0c-0.4,0-0.6-0.1-0.8-0.4c-0.2-0.3-0.3-0.6-0.3-1.1
			c0-0.6,0.2-1.3,0.5-2c0.2-0.3,0.4-0.6,0.6-0.8c0.2-0.2,0.5-0.3,0.8-0.3c0.4,0,0.7,0.2,0.9,0.4c0.2,0.3,0.3,0.6,0.3,1
			C15.1,110,15,110.7,14.7,111.3z"/>
		<path fill="#FFFFFF" d="M28.4,106.2c-1,0-1.8,0.5-2.5,1.4c0-0.4-0.2-0.7-0.5-1c-0.1-0.1-0.3-0.3-0.5-0.3c-0.2-0.1-0.5-0.1-0.8-0.1
			c-1,0-1.8,0.5-2.5,1.4h0l0.1-1.2H20c-0.1,0.7-0.2,1.5-0.4,2.4l-0.9,5.1h2.1l0.6-3.4c0.2-0.7,0.4-1.4,0.7-1.8
			c0.3-0.5,0.7-0.7,1-0.7c0.3,0,0.5,0.1,0.6,0.3c0.1,0.2,0.1,0.4,0.1,0.7c0,0.3,0,0.6-0.1,0.8l-0.8,4.1H25l0.6-3.4
			c0.2-0.8,0.4-1.4,0.7-1.8c0.3-0.4,0.6-0.7,1-0.7c0.3,0,0.4,0.1,0.6,0.2c0.1,0.2,0.2,0.4,0.2,0.6c0,0.1,0,0.3,0,0.5
			c0,0.2-0.1,0.3-0.1,0.5l-0.7,4.1h2.1l0.8-4.4c0.1-0.5,0.1-0.9,0.1-1.3C30.2,106.9,29.6,106.2,28.4,106.2z"/>
		<path fill="#FFFFFF" d="M41.6,106.2c-1,0-1.8,0.5-2.5,1.4c0-0.4-0.2-0.7-0.5-1c-0.1-0.1-0.3-0.3-0.5-0.3c-0.2-0.1-0.5-0.1-0.8-0.1
			c-1,0-1.8,0.5-2.5,1.4h0l0.1-1.2h-1.8c-0.1,0.7-0.2,1.5-0.4,2.4l-0.9,5.1h2.1l0.6-3.4c0.2-0.7,0.4-1.4,0.7-1.8
			c0.3-0.5,0.7-0.7,1-0.7c0.3,0,0.5,0.1,0.6,0.3c0.1,0.2,0.1,0.4,0.1,0.7c0,0.3,0,0.6-0.1,0.8l-0.8,4.1h2.1l0.6-3.4
			c0.2-0.8,0.4-1.4,0.7-1.8c0.3-0.4,0.6-0.7,1-0.7c0.3,0,0.4,0.1,0.6,0.2c0.1,0.2,0.2,0.4,0.2,0.6c0,0.1,0,0.3,0,0.5
			c0,0.2-0.1,0.3-0.1,0.5l-0.7,4.1h2.1l0.8-4.4c0.1-0.5,0.1-0.9,0.1-1.3C43.3,106.9,42.8,106.2,41.6,106.2z"/>
		<path fill="#FFFFFF" d="M50.1,109.9c-0.1,0.8-0.4,1.3-0.7,1.8c-0.3,0.4-0.7,0.6-1.1,0.6c-0.3,0-0.4-0.1-0.5-0.3
			c-0.1-0.2-0.2-0.4-0.2-0.6c0-0.3,0-0.6,0.1-1l0.7-4h-2.1l-0.8,4.2c-0.1,0.5-0.1,1-0.1,1.4c0,1.4,0.6,2.1,1.9,2.1
			c0.9,0,1.7-0.5,2.5-1.4l0,0l-0.1,1.2h1.9c0.1-0.7,0.2-1.5,0.4-2.4l0.9-5.1h-2.1L50.1,109.9z"/>
		<path fill="#FFFFFF" d="M59.8,106.2c-1,0-1.9,0.5-2.7,1.4h0l0.1-1.2h-1.9c-0.1,0.7-0.2,1.5-0.4,2.4l-0.9,5.1h2.1l0.6-3.3
			c0.2-0.8,0.5-1.5,0.8-1.9c0.4-0.4,0.7-0.6,1.1-0.6c0.3,0,0.5,0.1,0.6,0.2c0.1,0.2,0.2,0.4,0.2,0.7c0,0.3,0,0.6-0.1,0.8l-0.8,4.2
			h2.2l0.8-4.4c0.1-0.4,0.1-0.9,0.1-1.3C61.6,106.9,61,106.2,59.8,106.2z"/>
		<polygon fill="#FFFFFF" points="63,113.9 65.2,113.9 66.5,106.4 64.4,106.4 		"/>
		<path fill="#FFFFFF" d="M69,107.6c-0.9,0.9-1.4,2-1.4,3.4c0,1,0.3,1.7,0.9,2.3c0.6,0.5,1.3,0.8,2.2,0.8c0.9,0,1.6-0.2,2.1-0.4
			l0-1.7c-0.2,0.1-0.4,0.1-0.6,0.2c-0.2,0.1-0.5,0.1-0.8,0.1c-0.4,0-0.7-0.1-1-0.4c-0.3-0.3-0.4-0.6-0.4-1.2c0-0.7,0.2-1.4,0.7-1.9
			c0.4-0.5,1-0.8,1.8-0.8c0.4,0,0.7,0.1,1,0.2l0.5-1.7c-0.3-0.2-0.8-0.3-1.5-0.3C71,106.2,69.9,106.7,69,107.6z"/>
		<path fill="#FFFFFF" d="M75.8,107.9c-0.9,1.1-1.3,2.3-1.3,3.6c0,0.8,0.2,1.4,0.6,1.9c0.4,0.5,0.9,0.7,1.6,0.7
			c0.4,0,0.9-0.1,1.3-0.4c0.4-0.3,0.8-0.7,1.2-1.3h0c0,0.6-0.1,1.1-0.1,1.5h2c0-1.1,0.1-2.2,0.3-3.4l0.7-3.9
			c-0.7-0.2-1.5-0.4-2.4-0.4C77.9,106.3,76.6,106.8,75.8,107.9z M79.4,109.7c-0.2,0.9-0.4,1.6-0.8,2c-0.3,0.4-0.7,0.6-1,0.6
			c-0.3,0-0.5-0.1-0.7-0.4c-0.2-0.2-0.2-0.5-0.2-0.9c0-0.7,0.2-1.5,0.7-2.1c0.2-0.3,0.5-0.6,0.8-0.8c0.3-0.2,0.6-0.3,0.9-0.3
			c0.2,0,0.4,0,0.6,0.1L79.4,109.7z"/>
		<path fill="#FFFFFF" d="M87.3,104.4l-2.2,0.6l-0.3,1.4h-0.9l-0.3,1.7h0.9l-0.6,3c-0.1,0.5-0.2,1-0.2,1.4c0,0.5,0.2,0.9,0.5,1.2
			c0.3,0.3,0.8,0.5,1.4,0.5c0.5,0,0.9-0.1,1.3-0.2l0.2-1.7c-0.2,0-0.4,0-0.6,0c-0.4,0-0.6-0.2-0.6-0.6c0-0.3,0-0.6,0.1-1l0.5-2.5
			h1.5l0.3-1.7H87L87.3,104.4z"/>
		<polygon fill="#FFFFFF" points="89,113.9 91.1,113.9 92.5,106.4 90.3,106.4 		"/>
		<path fill="#FFFFFF" d="M98,106.2c-1.3,0-2.4,0.5-3.1,1.4c-0.8,0.9-1.2,2-1.2,3.4c0,0.9,0.3,1.7,0.9,2.2c0.6,0.6,1.3,0.9,2.2,0.9
			h0c1.3,0,2.3-0.5,3.1-1.4c0.8-0.9,1.2-2,1.2-3.4c0-0.9-0.3-1.6-0.8-2.2C99.7,106.5,99,106.2,98,106.2z M98.4,111.3
			c-0.2,0.3-0.3,0.6-0.6,0.8c-0.2,0.2-0.5,0.3-0.8,0.3h0c-0.4,0-0.6-0.1-0.8-0.4c-0.2-0.3-0.3-0.6-0.3-1.1c0-0.6,0.2-1.3,0.5-2
			c0.2-0.3,0.4-0.6,0.6-0.8c0.2-0.2,0.5-0.3,0.8-0.3c0.4,0,0.7,0.2,0.9,0.4c0.2,0.3,0.3,0.6,0.3,1C98.8,110,98.7,110.7,98.4,111.3z"
			/>
		<path fill="#FFFFFF" d="M108.2,106.2c-1,0-1.9,0.5-2.7,1.4h0l0.1-1.2h-1.9c-0.1,0.7-0.2,1.5-0.4,2.4l-0.9,5.1h2.1l0.6-3.3
			c0.2-0.8,0.5-1.5,0.8-1.9c0.4-0.4,0.7-0.6,1.1-0.6c0.3,0,0.5,0.1,0.6,0.2c0.1,0.2,0.2,0.4,0.2,0.7c0,0.3,0,0.6-0.1,0.8l-0.8,4.2
			h2.2l0.8-4.4c0.1-0.4,0.1-0.9,0.1-1.3C110,106.9,109.4,106.2,108.2,106.2z"/>
		<path fill="#FFFFFF" d="M118,105.6c0.3-0.2,0.6-0.3,1.1-0.3c0.4,0,0.8,0,1.2,0.1c0.3,0.1,0.6,0.2,0.7,0.3l0.7-1.9
			c-0.2-0.1-0.5-0.2-0.9-0.4c-0.4-0.1-0.9-0.2-1.5-0.2c-1.1,0-2.1,0.3-2.8,0.9c-0.8,0.6-1.2,1.4-1.2,2.5c0,0.7,0.2,1.2,0.6,1.6
			c0.4,0.5,0.9,0.8,1.4,1.1c0.5,0.2,0.9,0.5,1.1,0.7c0.2,0.2,0.4,0.5,0.4,0.8c0,0.4-0.2,0.7-0.5,0.9c-0.3,0.2-0.7,0.3-1.2,0.3
			c-1,0-1.8-0.2-2.4-0.7l-0.7,1.8c0.5,0.4,1.5,0.7,2.9,0.7c1.2,0,2.1-0.3,2.9-0.9c0.8-0.6,1.2-1.5,1.2-2.6c0-1.2-0.7-2.1-2-2.8
			c-0.5-0.2-0.8-0.5-1.1-0.7c-0.3-0.2-0.5-0.5-0.5-0.8C117.6,106.1,117.8,105.8,118,105.6z"/>
		<path fill="#FFFFFF" d="M127.2,106.2c-1.3,0-2.4,0.5-3.1,1.4c-0.8,0.9-1.2,2-1.2,3.4c0,0.9,0.3,1.7,0.9,2.2
			c0.6,0.6,1.3,0.9,2.2,0.9h0c1.3,0,2.3-0.5,3.1-1.4c0.8-0.9,1.2-2,1.2-3.4c0-0.9-0.3-1.6-0.8-2.2
			C129,106.5,128.2,106.2,127.2,106.2z M127.6,111.3c-0.2,0.3-0.3,0.6-0.6,0.8c-0.2,0.2-0.5,0.3-0.8,0.3h0c-0.4,0-0.6-0.1-0.8-0.4
			c-0.2-0.3-0.3-0.6-0.3-1.1c0-0.6,0.2-1.3,0.5-2c0.2-0.3,0.4-0.6,0.6-0.8c0.2-0.2,0.5-0.3,0.8-0.3c0.4,0,0.7,0.2,0.9,0.4
			c0.2,0.3,0.3,0.6,0.3,1C128.1,110,127.9,110.7,127.6,111.3z"/>
		<polygon fill="#FFFFFF" points="131.6,113.9 133.8,113.9 135.8,103 133.6,103 		"/>
		<path fill="#FFFFFF" d="M141.2,109.9c-0.1,0.8-0.4,1.3-0.7,1.8c-0.3,0.4-0.7,0.6-1.1,0.6c-0.3,0-0.4-0.1-0.5-0.3
			c-0.1-0.2-0.2-0.4-0.2-0.6c0-0.3,0-0.6,0.1-1l0.7-4h-2.1l-0.8,4.2c-0.1,0.5-0.1,1-0.1,1.4c0,1.4,0.6,2.1,1.9,2.1
			c0.9,0,1.7-0.5,2.5-1.4l0,0l-0.1,1.2h1.9c0.1-0.7,0.2-1.5,0.4-2.4l0.9-5.1h-2.1L141.2,109.9z"/>
		<path fill="#FFFFFF" d="M149.2,104.4L147,105l-0.3,1.4h-0.9l-0.3,1.7h0.9l-0.6,3c-0.1,0.5-0.2,1-0.2,1.4c0,0.5,0.2,0.9,0.5,1.2
			c0.3,0.3,0.8,0.5,1.4,0.5c0.5,0,0.9-0.1,1.3-0.2l0.2-1.7c-0.2,0-0.4,0-0.6,0c-0.4,0-0.6-0.2-0.6-0.6c0-0.3,0-0.6,0.1-1l0.5-2.5
			h1.5l0.3-1.7h-1.6L149.2,104.4z"/>
		<polygon fill="#FFFFFF" points="150.8,113.9 152.9,113.9 154.3,106.4 152.2,106.4 		"/>
		<path fill="#FFFFFF" d="M159.8,106.2c-1.3,0-2.4,0.5-3.1,1.4c-0.8,0.9-1.2,2-1.2,3.4c0,0.9,0.3,1.7,0.9,2.2
			c0.6,0.6,1.3,0.9,2.2,0.9h0c1.3,0,2.3-0.5,3.1-1.4c0.8-0.9,1.2-2,1.2-3.4c0-0.9-0.3-1.6-0.8-2.2
			C161.6,106.5,160.8,106.2,159.8,106.2z M160.2,111.3c-0.2,0.3-0.3,0.6-0.6,0.8c-0.2,0.2-0.5,0.3-0.8,0.3h0c-0.4,0-0.6-0.1-0.8-0.4
			c-0.2-0.3-0.3-0.6-0.3-1.1c0-0.6,0.2-1.3,0.5-2c0.2-0.3,0.4-0.6,0.6-0.8c0.2-0.2,0.5-0.3,0.8-0.3c0.4,0,0.7,0.2,0.9,0.4
			c0.2,0.3,0.3,0.6,0.3,1C160.7,110,160.5,110.7,160.2,111.3z"/>
		<path fill="#FFFFFF" d="M170,106.2c-1,0-1.9,0.5-2.7,1.4h0l0.1-1.2h-1.9c-0.1,0.7-0.2,1.5-0.4,2.4l-0.9,5.1h2.1l0.6-3.3
			c0.2-0.8,0.5-1.5,0.8-1.9c0.4-0.4,0.7-0.6,1.1-0.6c0.3,0,0.5,0.1,0.6,0.2c0.1,0.2,0.2,0.4,0.2,0.7c0,0.3,0,0.6-0.1,0.8l-0.8,4.2
			h2.2l0.8-4.4c0.1-0.4,0.1-0.9,0.1-1.3C171.9,106.9,171.2,106.2,170,106.2z"/>
		<path fill="#FFFFFF" d="M177,107.8c0.3,0,0.6,0,0.9,0.1c0.2,0.1,0.4,0.1,0.6,0.2l0.5-1.6c-0.4-0.2-1-0.4-1.9-0.4
			c-1,0-1.7,0.2-2.3,0.7c-0.6,0.5-0.9,1.1-0.9,1.9c0,0.5,0.2,0.9,0.5,1.2c0.3,0.3,0.7,0.6,1.1,0.8c0.3,0.2,0.6,0.3,0.7,0.5
			c0.1,0.2,0.2,0.3,0.2,0.5c0,0.4-0.3,0.7-0.9,0.7c-0.4,0-0.7-0.1-1-0.2c-0.4-0.1-0.6-0.2-0.9-0.3l-0.5,1.6c0.5,0.3,1.3,0.5,2.2,0.6
			c1,0,1.8-0.2,2.4-0.7c0.6-0.5,0.9-1.1,0.9-2c0-0.3,0-0.5-0.1-0.7c-0.1-0.2-0.2-0.4-0.4-0.6c-0.3-0.3-0.7-0.6-1.1-0.8
			c-0.6-0.3-1-0.5-1-0.9C176.1,108.1,176.4,107.9,177,107.8z"/>
		<path fill="#FFFFFF" d="M195.1,103.5l-1.7,4.6c-0.4,1.1-0.8,2.2-1.1,3.3h0c0.1-1,0.1-2.1,0.1-3.3l0-4.6H190l-1.8,4.6
			c-0.4,1.2-0.8,2.3-1.2,3.3h0c0-1,0.1-2.1,0.1-3.4v-4.6h-2.2l0.4,10.4h2.4l1.7-4.2c0.5-1.2,0.9-2.4,1.2-3.5h0
			c-0.1,1.1-0.1,2.3-0.1,3.4l0.1,4.2h2.3l4.4-10.4H195.1z"/>
		<path fill="#FFFFFF" d="M203.1,106.2c-0.9,0-1.7,0.4-2.3,1.1h0l0.8-4.4h-2.1l-2,10.9h2.1l0.6-3.4c0.1-0.8,0.4-1.4,0.7-1.8
			c0.3-0.4,0.7-0.7,1.1-0.7c0.3,0,0.5,0.1,0.6,0.2c0.1,0.2,0.2,0.4,0.2,0.6c0,0.3,0,0.6-0.1,0.9l-0.8,4.1h2.1l0.8-4.3
			c0.1-0.5,0.1-0.9,0.1-1.4C204.9,106.9,204.3,106.2,203.1,106.2z"/>
		<path fill="#FFFFFF" d="M212.7,106.8c-0.5-0.4-1.1-0.6-1.8-0.6c-1.3,0-2.3,0.5-3.1,1.5c-0.8,0.9-1.1,2-1.1,3.2
			c0,2.1,1.1,3.1,3.2,3.2c0.4,0,0.9,0,1.4-0.1c0.5-0.1,0.9-0.2,1.4-0.5l-0.1-1.6c-0.6,0.3-1.3,0.5-2,0.5c-0.6,0-1.1-0.2-1.4-0.6
			c-0.2-0.3-0.2-0.5-0.2-0.8c1.5,0,2.6-0.1,3.5-0.5c0.8-0.4,1.2-1.1,1.3-2C213.4,107.8,213.2,107.2,212.7,106.8z M211.4,108.5
			c0,0.7-0.8,1-2.5,0.9c0.1-0.4,0.2-0.7,0.5-1.1c0.3-0.3,0.7-0.5,1.2-0.5c0.3,0,0.5,0.1,0.6,0.2
			C211.3,108.1,211.4,108.3,211.4,108.5L211.4,108.5z"/>
		<path fill="#FFFFFF" d="M220.3,106.2c-1,0-1.9,0.5-2.7,1.4h0l0.1-1.2h-1.9c-0.1,0.7-0.2,1.5-0.4,2.4l-0.9,5.1h2.1l0.6-3.3
			c0.2-0.8,0.5-1.5,0.8-1.9c0.4-0.4,0.7-0.6,1.1-0.6c0.3,0,0.5,0.1,0.6,0.2c0.1,0.2,0.2,0.4,0.2,0.7c0,0.3,0,0.6-0.1,0.8l-0.8,4.2
			h2.2l0.8-4.4c0.1-0.4,0.1-0.9,0.1-1.3C222.1,106.9,221.5,106.2,220.3,106.2z"/>
		<polygon fill="#FFFFFF" points="227.8,113.9 230,113.9 231.9,103.5 229.7,103.5 		"/>
		<path fill="#FFFFFF" d="M236.5,104.4l-2.2,0.6l-0.3,1.4h-0.9l-0.3,1.7h0.9l-0.6,3c-0.1,0.5-0.2,1-0.2,1.4c0,0.5,0.2,0.9,0.5,1.2
			c0.3,0.3,0.8,0.5,1.4,0.5c0.5,0,0.9-0.1,1.3-0.2l0.2-1.7c-0.2,0-0.4,0-0.6,0c-0.4,0-0.6-0.2-0.6-0.6c0-0.3,0-0.6,0.1-1l0.5-2.5
			h1.5l0.3-1.7h-1.6L236.5,104.4z"/>
		<path fill="#FFFFFF" d="M249.6,107.5c-0.2,0.5-0.4,1-0.7,1.6c-0.2,0.6-0.5,1.2-0.7,1.8h-0.1c0-1.2-0.1-2.3-0.2-3.3l-0.3-4h-2.9
			l-2.5,10.4h2l1-4.3c0.3-1.2,0.5-2.6,0.8-4.1h0c0.1,1.4,0.1,2.8,0.2,4l0.4,4.2h1.7l2-4.2c0.6-1.2,1.2-2.5,1.7-3.9h0
			c-0.3,1.5-0.5,2.9-0.7,4.1l-0.6,4.3h2.1l1.4-10.4h-2.9L249.6,107.5z"/>
		<path fill="#FFFFFF" d="M256.9,107.9c-0.9,1.1-1.3,2.3-1.3,3.6c0,0.8,0.2,1.4,0.6,1.9c0.4,0.5,0.9,0.7,1.6,0.7
			c0.4,0,0.9-0.1,1.3-0.4c0.4-0.3,0.8-0.7,1.2-1.3h0c0,0.6-0.1,1.1-0.1,1.5h2c0-1.1,0.1-2.2,0.3-3.4l0.7-3.9
			c-0.7-0.2-1.5-0.4-2.4-0.4C259.1,106.3,257.8,106.8,256.9,107.9z M260.6,109.7c-0.2,0.9-0.4,1.6-0.8,2c-0.3,0.4-0.7,0.6-1,0.6
			c-0.3,0-0.5-0.1-0.7-0.4c-0.2-0.2-0.2-0.5-0.2-0.9c0-0.7,0.2-1.5,0.7-2.1c0.2-0.3,0.5-0.6,0.8-0.8c0.3-0.2,0.6-0.3,0.9-0.3
			c0.2,0,0.4,0,0.6,0.1L260.6,109.7z"/>
		<path fill="#FFFFFF" d="M268.5,104.4l-2.2,0.6l-0.3,1.4h-0.9l-0.3,1.7h0.9l-0.6,3c-0.1,0.5-0.2,1-0.2,1.4c0,0.5,0.2,0.9,0.5,1.2
			c0.3,0.3,0.8,0.5,1.4,0.5c0.5,0,0.9-0.1,1.3-0.2l0.2-1.7c-0.2,0-0.4,0-0.6,0c-0.4,0-0.6-0.2-0.6-0.6c0-0.3,0-0.6,0.1-1l0.5-2.5
			h1.5l0.3-1.7h-1.6L268.5,104.4z"/>
		<path fill="#FFFFFF" d="M274.3,104.4l-2.2,0.6l-0.3,1.4h-0.9l-0.3,1.7h0.9l-0.6,3c-0.1,0.5-0.2,1-0.2,1.4c0,0.5,0.2,0.9,0.5,1.2
			c0.3,0.3,0.8,0.5,1.4,0.5c0.5,0,0.9-0.1,1.3-0.2l0.2-1.7c-0.2,0-0.4,0-0.6,0c-0.4,0-0.6-0.2-0.6-0.6c0-0.3,0-0.6,0.1-1l0.5-2.5
			h1.5l0.3-1.7H274L274.3,104.4z"/>
		<path fill="#FFFFFF" d="M282.2,106.8c-0.5-0.4-1.1-0.6-1.8-0.6c-1.3,0-2.3,0.5-3.1,1.5c-0.8,0.9-1.1,2-1.1,3.2
			c0,2.1,1.1,3.1,3.2,3.2c0.4,0,0.9,0,1.4-0.1c0.5-0.1,0.9-0.2,1.4-0.5l-0.1-1.6c-0.6,0.3-1.3,0.5-2,0.5c-0.6,0-1.1-0.2-1.4-0.6
			c-0.2-0.3-0.2-0.5-0.2-0.8c1.5,0,2.6-0.1,3.5-0.5c0.8-0.4,1.2-1.1,1.3-2C282.9,107.8,282.6,107.2,282.2,106.8z M280.9,108.5
			c0,0.7-0.8,1-2.5,0.9c0.1-0.4,0.2-0.7,0.5-1.1c0.3-0.3,0.7-0.5,1.2-0.5c0.3,0,0.5,0.1,0.6,0.2
			C280.8,108.1,280.9,108.3,280.9,108.5L280.9,108.5z"/>
		<path fill="#FFFFFF" d="M287.9,106.7c-0.4,0.3-0.7,0.7-1,1.2h-0.1c0.1-0.5,0.1-1,0.1-1.5h-1.8c-0.1,0.8-0.2,1.8-0.4,3l-0.8,4.5
			h2.2l0.5-2.8c0.1-0.8,0.4-1.4,0.7-1.9c0.4-0.5,0.9-0.8,1.5-0.8c0.1,0,0.2,0,0.3,0l0.4-2.2c-0.1,0-0.3,0-0.4,0
			C288.7,106.2,288.3,106.4,287.9,106.7z"/>
		<path fill="#FFFFFF" d="M294.9,110.2c-0.3-0.3-0.7-0.6-1.1-0.8c-0.6-0.3-1-0.5-1-0.9c0-0.4,0.3-0.7,1-0.7c0.3,0,0.6,0,0.9,0.1
			c0.2,0.1,0.4,0.1,0.6,0.2l0.5-1.6c-0.4-0.2-1-0.4-1.9-0.4c-1,0-1.7,0.2-2.3,0.7c-0.6,0.5-0.9,1.1-0.9,1.9c0,0.5,0.2,0.9,0.5,1.2
			c0.3,0.3,0.7,0.6,1.1,0.8c0.3,0.2,0.6,0.3,0.7,0.5c0.1,0.2,0.2,0.3,0.2,0.5c0,0.4-0.3,0.7-0.9,0.7c-0.4,0-0.7-0.1-1-0.2
			c-0.4-0.1-0.6-0.2-0.9-0.3l-0.5,1.6c0.5,0.3,1.3,0.5,2.2,0.6c1,0,1.8-0.2,2.4-0.7c0.6-0.5,0.9-1.1,0.9-2c0-0.3,0-0.5-0.1-0.7
			C295.2,110.5,295.1,110.3,294.9,110.2z"/>
	</g>
</g>
<g>
	<g>
		<path fill="#1D1D1B" d="M51,30.3h4l23.5,40.3h-5.9L66.9,61H39l-5.5,9.6h-5.9L51,30.3z M41.4,56.9h23.1L53,36.9L41.4,56.9z"/>
	</g>
	<g>
		<path fill="#EA0029" d="M47,27.9h4l23.5,40.3h-5.9L63,58.6H35l-5.5,9.6h-5.9L47,27.9z M37.4,54.5h23.1L49,34.5L37.4,54.5z"/>
	</g>
</g>
<g>
	<g>
		<path fill="#1D1D1B" d="M153.3,70.6h-5.5V30.3h5.5V70.6z"/>
	</g>
	<g>
		<path fill="#EA0029" d="M149.4,68.2h-5.5V27.9h5.5V68.2z"/>
	</g>
</g>
<g>
	<g>
		<path fill="#1D1D1B" d="M257.8,52.3l13.1,18.3h-6.6l-12.8-17.7h-17.7v17.7h-5.5V30.3h24.1c7.9,0,14.3,3.9,14.3,11.2
			C266.8,46.8,263.4,51.2,257.8,52.3z M253.6,48.6c4.8,0,7.6-3.2,7.6-7c0-4.2-3.6-7.1-8.8-7.1h-18.5v14.1H253.6z"/>
	</g>
	<g>
		<path fill="#EA0029" d="M253.8,49.9l13.1,18.3h-6.6l-12.8-17.7h-17.7v17.7h-5.5V27.9h24.1c7.9,0,14.3,3.9,14.3,11.2
			C262.9,44.4,259.4,48.9,253.8,49.9z M249.6,46.2c4.8,0,7.6-3.2,7.6-7c0-4.2-3.6-7.1-8.8-7.1h-18.5v14.1H249.6z"/>
	</g>
</g>
</svg>
