<?xml version="1.0" encoding="UTF-8"?>
<svg xmlns="http://www.w3.org/2000/svg" version="1.1" viewBox="0 0 130 130">
  <defs>
    <style>
    img[src*="deneme4.svg"] + svg {
      filter: drop-shadow(20px 20px 20px rgba(60, 65, 124, 0.12)) drop-shadow(-20px -20px 20px rgba(255, 255, 255, 0.9));
      will-change: filter;
    }
      .cls-1 {
        fill: #0072ce;
      }

      .cls-2 {
        fill: #f7f8fc;
        fill-rule: evenodd;
      }
    </style>
  </defs>
  <!-- Generator: Adobe Illustrator 28.7.1, SVG Export Plug-In . SVG Version: 1.2.0 Build 142)  -->
  <g>
    <g id="Layer_1">
      <path class="cls-2" d="M21.6,120.6c-5.8,0-11.2-2.5-14.9-6.9-3.8-4.5-5.3-10.3-4.3-16.1L14.9,25.7c.8-4.5,3.1-8.6,6.6-11.6,3.5-3,8-4.7,12.6-4.7h74.2c5.7,0,11.2,2.5,14.9,6.9,3.8,4.5,5.3,10.3,4.3,16.1l-12.5,71.8c-.8,4.5-3.1,8.6-6.6,11.6-3.5,3-8,4.7-12.6,4.7H21.6Z"/>
      <g>
        <path class="cls-1" d="M107.2,22.5H34.9c-1.7,0-3.4.6-4.7,1.8-1.3,1.1-2.2,2.7-2.5,4.4l-12.1,69.9c-.8,4.6,2.7,8.8,7.3,8.8h72.3c1.7,0,3.4-.6,4.7-1.8,1.3-1.1,2.2-2.7,2.5-4.4l2.4-13.8h-17.4c-1.1,5.7-6.1,10-12,10s-12.3-5.6-12.3-12.5,5.5-12.5,12.3-12.5,10.9,4.3,12,10h18.3l2.6-15h-59c-1.1,5.7-6.1,10-12,10s-12.3-5.6-12.3-12.5,5.5-12.5,12.3-12.5,10.9,4.3,12,10h59.8l2.6-15h-24.4c-1.1,5.7-6.1,10-12,10s-12.3-5.6-12.3-12.5,5.5-12.5,12.3-12.5,10.9,4.3,12,10h25.2l1.9-11.2c.8-4.6-2.7-8.8-7.3-8.8Z"/>
        <ellipse class="cls-1" cx="75.3" cy="85" rx="7.4" ry="7.5"/>
        <ellipse class="cls-1" cx="75.3" cy="45" rx="7.4" ry="7.5"/>
        <ellipse class="cls-1" cx="37.2" cy="65" rx="7.4" ry="7.5"/>
      </g>
    </g>
  </g>
</svg>