<svg xmlns="http://www.w3.org/2000/svg" width="161" height="50" viewBox="0 0 161 50" fill="none"><path d="M52.2549 15.3106C49.5902 15.3316 47.408 15.5209 45.4567 16.0885C45.0161 16.2146 44.7223 16.6141 44.7223 17.0766V17.5181C44.7223 18.1068 45.2259 18.5693 45.8134 18.5273C47.7857 18.4011 50.4714 18.254 51.8772 18.254C53.283 18.254 54.1643 18.6534 54.1643 20.4404C54.1643 20.4615 54.1852 20.6086 54.1852 20.8399C54.1852 21.4075 53.7236 21.849 53.1781 21.849C51.6044 21.849 48.7089 21.849 48.7089 21.849C45.5826 21.849 44.2188 23.7412 44.2188 26.1379V27.7778C44.2188 30.0483 45.8134 31.9195 48.604 31.9825C50.3036 32.0036 52.15 31.2047 53.241 30.595C53.7656 30.3006 54.437 30.5319 54.6678 31.0995L54.7098 31.1836C54.8776 31.5621 55.2343 31.8143 55.654 31.8143H56.7031C57.2696 31.8143 57.7312 31.3518 57.7312 30.7842V20.3353C57.6683 16.572 55.3812 15.2896 52.2549 15.3106ZM54.1433 26.9578C54.1433 27.3573 53.9125 27.7357 53.5348 27.9039C52.5906 28.3034 50.7652 28.9972 49.3384 28.9972C48.4571 28.9972 47.7228 28.7449 47.7228 27.3573V26.3061C47.7228 25.5072 48.0165 24.6452 49.2125 24.5401L53.0522 24.2458C53.6397 24.2037 54.1433 24.6662 54.1433 25.2549V26.9578Z" fill="#265AA6"></path><path d="M68.5997 15.5839H66.6274C66.0609 15.5839 65.5993 15.1214 65.5993 14.5747V12.0939C65.5993 11.5263 65.1377 11.0848 64.5712 11.0848H63.606C63.1024 11.0848 62.6618 11.4632 62.5989 11.9678L62.1583 14.9532C62.0953 15.3526 61.8225 15.689 61.4239 15.7941L60.06 16.1726C59.6194 16.2987 59.3047 16.6981 59.3047 17.1607V17.476C59.3047 18.0437 59.7663 18.4852 60.3328 18.4852H61.0462C61.6127 18.4852 62.0743 18.9477 62.0743 19.4943V25.9907C62.0743 30.2796 63.6899 31.7723 66.0609 31.7723H68.3689C68.9355 31.7723 69.3971 31.3097 69.3971 30.7421V30.3006C69.3971 29.8381 69.1033 29.4386 68.6627 29.3125C67.9913 29.1233 67.131 28.8499 67.131 28.8499C66.2288 28.5556 65.6203 28.03 65.6203 25.5282V19.4523C65.6203 18.8846 66.0819 18.4431 66.6484 18.4431H68.6207C69.1872 18.4431 69.6488 17.9806 69.6488 17.434V16.572C69.6279 16.0464 69.1663 15.5839 68.5997 15.5839Z" fill="#265AA6"></path><path d="M79.1924 15.3106C76.5277 15.3316 74.3455 15.5209 72.3942 16.0885C71.9536 16.2146 71.6598 16.6141 71.6598 17.0766V17.5181C71.6598 18.1068 72.1634 18.5693 72.7509 18.5273C74.7232 18.4011 77.4089 18.254 78.8147 18.254C80.2205 18.254 81.1018 18.6534 81.1018 20.4404C81.1018 20.4615 81.1227 20.6086 81.1227 20.8399C81.1227 21.4075 80.6611 21.849 80.1156 21.849C78.5419 21.849 75.6464 21.849 75.6464 21.849C72.5201 21.849 71.1562 23.7412 71.1562 26.1379V27.7778C71.1562 30.0483 72.7509 31.9195 75.5205 31.9825C77.241 32.0036 79.0665 31.2047 80.1576 30.595C80.6821 30.3006 81.3535 30.5319 81.5843 31.0995L81.6263 31.1836C81.7942 31.5621 82.1509 31.8143 82.5705 31.8143H83.6196C84.1861 31.8143 84.6477 31.3518 84.6477 30.7842V20.3353C84.5848 16.572 82.3187 15.2896 79.1924 15.3106ZM81.0598 26.9578C81.0598 27.3573 80.829 27.7357 80.4513 27.9039C79.5071 28.3034 77.6817 28.9972 76.2549 28.9972C75.3736 28.9972 74.6393 28.7449 74.6393 27.3573V26.3061C74.6393 25.5072 74.933 24.6452 76.129 24.5401L79.9687 24.2458C80.5562 24.2037 81.0598 24.6662 81.0598 25.2549V26.9578Z" fill="#265AA6"></path><path d="M95.8361 22.1434H91.6397C90.7795 22.1434 90.15 22.1013 90.15 20.8399V19.8728C90.15 19.0108 90.2549 18.5062 91.6397 18.5062H98.1651C98.7316 18.5062 99.1933 18.0437 99.1933 17.4971V16.9505C99.1933 16.4669 98.8366 16.0464 98.354 15.9413C96.4866 15.5839 92.9616 15.4578 90.8214 15.4578C87.6951 15.4578 86.625 17.2027 86.625 19.7046V21.1132C86.625 24.2457 88.1777 25.318 91.0312 25.318H95.1857C96.2348 25.318 96.4866 25.7805 96.4866 26.6004V27.6306C96.4866 28.9341 95.3745 28.871 95.1857 28.871H88.3245C87.758 28.871 87.2964 29.3335 87.2964 29.9012V30.4057C87.2964 30.8893 87.6321 31.3098 88.1147 31.4149C90.0031 31.7723 93.9687 31.9615 96.046 31.9615C97.9973 31.9615 99.9906 31.1626 99.9906 27.8408V26.243C100.012 23.9094 98.7736 22.1434 95.8361 22.1434Z" fill="#265AA6"></path><path d="M109.958 15.3106C107.293 15.3316 105.111 15.5209 103.16 16.0885C102.719 16.2146 102.425 16.6141 102.425 17.0766V17.5181C102.425 18.1068 102.929 18.5693 103.517 18.5273C105.489 18.4011 108.175 18.254 109.58 18.254C110.986 18.254 111.867 18.6534 111.867 20.4404C111.867 20.4615 111.888 20.6086 111.888 20.8399C111.888 21.4075 111.427 21.849 110.881 21.849C109.308 21.849 106.412 21.849 106.412 21.849C103.286 21.849 101.922 23.7412 101.922 26.1379V27.7778C101.922 30.0483 103.517 31.9195 106.286 31.9825C108.007 32.0036 109.832 31.2047 110.923 30.595C111.448 30.3006 112.119 30.5319 112.35 31.0995L112.392 31.1836C112.56 31.5621 112.916 31.8143 113.336 31.8143H114.385C114.952 31.8143 115.392 31.3518 115.392 30.7842V20.3353C115.35 16.572 113.084 15.2896 109.958 15.3106ZM111.825 26.9578C111.825 27.3573 111.574 27.7357 111.217 27.9039C110.273 28.3034 108.447 28.9972 107.021 28.9972C106.139 28.9972 105.405 28.7449 105.405 27.3573V26.3061C105.405 25.5072 105.699 24.6452 106.895 24.5401L110.734 24.2458C111.322 24.2037 111.825 24.6662 111.825 25.2549V26.9578Z" fill="#265AA6"></path><path d="M131.354 15.626H129.885C129.403 15.626 128.962 15.9413 128.836 16.4249L125.668 27.4414C125.374 28.4716 123.884 28.5136 123.57 27.4834C123.57 27.4624 123.57 27.4624 123.549 27.4414L120.59 16.4249C120.464 15.9413 120.024 15.626 119.541 15.626H118.072C117.338 15.626 116.813 16.3198 117.023 17.0136L120.087 27.946C120.758 30.3427 122.038 31.3308 123.339 31.6672C123.926 31.8143 124.262 32.4451 124.094 33.0337L122.416 38.6051C122.206 39.3199 122.73 40.0137 123.465 40.0137H123.863C124.22 40.0137 124.535 39.8455 124.745 39.5511L126.549 37.0493C126.612 36.9442 126.675 36.8391 126.717 36.7129L132.403 16.9925C132.613 16.3198 132.088 15.626 131.354 15.626Z" fill="#265AA6"></path><path d="M142.247 15.3106C139.582 15.3316 137.4 15.5209 135.449 16.0885C135.008 16.2146 134.715 16.6141 134.715 17.0766V17.5181C134.715 18.1068 135.218 18.5693 135.806 18.5273C137.778 18.4011 140.464 18.254 141.869 18.254C143.275 18.254 144.156 18.6534 144.156 20.4404C144.156 20.4615 144.177 20.6086 144.177 20.8399C144.177 21.4075 143.716 21.849 143.17 21.849C141.597 21.849 138.701 21.849 138.701 21.849C135.575 21.849 134.211 23.7412 134.211 26.1379V27.7778C134.211 30.0483 135.806 31.9195 138.575 31.9825C140.296 32.0036 142.121 31.2047 143.212 30.595C143.737 30.3006 144.408 30.5319 144.639 31.0995L144.681 31.1836C144.849 31.5621 145.206 31.8143 145.625 31.8143H146.674C147.241 31.8143 147.681 31.3518 147.681 30.7842V20.3353C147.639 16.572 145.373 15.2896 142.247 15.3106ZM144.114 26.9578C144.114 27.3573 143.863 27.7357 143.506 27.9039C142.562 28.3034 140.736 28.9972 139.31 28.9972C138.428 28.9972 137.694 28.7449 137.694 27.3573V26.3061C137.694 25.5072 137.988 24.6452 139.184 24.5401L143.023 24.2458C143.611 24.2037 144.114 24.6662 144.114 25.2549V26.9578Z" fill="#265AA6"></path><path d="M160.019 15.4788C159.705 15.4577 159.327 15.4367 158.97 15.4367C157.334 15.4367 156.054 16.0674 154.921 16.8453C154.375 17.2237 153.599 16.9504 153.389 16.3197C153.242 15.8992 152.865 15.6259 152.424 15.6259H151.312C150.745 15.6259 150.305 16.0884 150.305 16.6351V30.7631C150.305 31.3307 150.766 31.7933 151.312 31.7933H152.802C153.368 31.7933 153.809 31.3307 153.809 30.7631V21.2183C153.809 20.9029 153.956 20.6086 154.186 20.4194C155.55 19.3051 156.767 18.9687 158.593 18.9687C159.012 18.9687 159.453 18.9897 159.831 19.0108C160.418 19.0318 160.901 18.5693 160.901 18.0016V16.5089C160.943 15.9623 160.544 15.5208 160.019 15.4788Z" fill="#265AA6"></path><path d="M18.0743 14.4907C18.2422 14.785 18.5569 14.9742 18.9136 14.9742H25.6908C26.4252 14.9742 26.8868 14.1753 26.5301 13.5236L19.0185 0.488805C18.6408 -0.162935 17.7176 -0.162935 17.3609 0.488805L13.9618 6.37549C13.794 6.66982 13.794 7.04825 13.9618 7.34258L18.0743 14.4907Z" fill="#222D5D"></path><path d="M28.6904 17.3079C28.3127 16.6562 27.3895 16.6562 27.0328 17.3079L23.6337 23.1946C23.4658 23.4889 23.4658 23.8673 23.6337 24.1617L27.7462 31.3098C27.914 31.6041 28.2288 31.7933 28.5855 31.7933H35.3627C36.0971 31.7933 36.5587 30.9944 36.202 30.3427L28.6904 17.3079Z" fill="#265AA6"></path><path d="M25.6886 15.5629H10.6654C9.93102 15.5629 9.46941 16.3618 9.82611 17.0136L13.2252 22.9003C13.3931 23.1946 13.7078 23.3838 14.0645 23.3838H22.3104C22.6462 23.3838 22.9819 23.1946 23.1497 22.9003L26.5488 17.0136C26.8845 16.3618 26.4229 15.5629 25.6886 15.5629Z" fill="#3192D0"></path><path d="M9.32463 17.3079C8.94695 16.6562 8.02374 16.6562 7.64606 17.3079L0.134482 30.3427C-0.243195 30.9944 0.218411 31.7933 0.973765 31.7933H7.75097C8.08669 31.7933 8.4224 31.6041 8.59026 31.3098L12.7027 24.1617C12.8706 23.8673 12.8706 23.4889 12.7027 23.1946L9.32463 17.3079Z" fill="#93D5F6"></path><path d="M75.6295 46.9515C75.4616 47.1197 75.2728 47.2248 75.042 47.3089C74.8112 47.393 74.5594 47.4351 74.3076 47.4351C73.7201 47.4351 73.2585 47.2669 72.9437 46.9095C72.629 46.5521 72.4612 46.0685 72.4612 45.4168V41.212H71.3281V40.4131H72.4612V38.9204H73.3214V40.4341H75.2518V41.233H73.3214V45.3747C73.3214 45.7952 73.4263 46.1106 73.5942 46.3208C73.783 46.531 74.0558 46.6362 74.4125 46.6362C74.5804 46.6362 74.7482 46.6151 74.9161 46.5521C75.0839 46.489 75.2308 46.4049 75.3357 46.2998L75.6295 46.9515Z" fill="#878787"></path><path d="M84.8431 44.1974H79.5556C79.5975 44.9122 79.8493 45.5009 80.3109 45.9424C80.7725 46.3839 81.3391 46.6151 82.0315 46.6151C82.4301 46.6151 82.7868 46.531 83.1015 46.3839C83.4373 46.2367 83.71 46.0054 83.9618 45.7111L84.4444 46.3208C84.1716 46.6992 83.8149 46.9725 83.3953 47.1617C82.9757 47.351 82.514 47.4561 82.0105 47.4561C81.36 47.4561 80.7935 47.3089 80.29 46.9936C79.7864 46.6992 79.4087 46.2787 79.115 45.7321C78.8212 45.1855 78.6953 44.5968 78.6953 43.903C78.6953 43.2093 78.8212 42.6206 79.094 42.074C79.3667 41.5273 79.7234 41.1279 80.206 40.8125C80.6676 40.5182 81.1922 40.371 81.7797 40.371C82.3672 40.371 82.8917 40.5182 83.3533 40.8125C83.8149 41.1069 84.1926 41.5273 84.4444 42.0529C84.7172 42.5785 84.8431 43.1882 84.8431 43.882V44.1974ZM80.269 41.8217C79.8493 42.2422 79.6185 42.8098 79.5556 43.4826H84.0457C83.9828 42.7888 83.752 42.2422 83.3324 41.8217C82.9127 41.4012 82.4091 41.191 81.7797 41.191C81.1922 41.191 80.6886 41.4012 80.269 41.8217Z" fill="#878787"></path><path d="M91.3422 43.882L89.8525 45.3957V47.3719H88.9922V37.5748H89.8525V44.2184L93.6292 40.4341H94.6783L91.9716 43.2723L94.9301 47.3719H93.881L91.3422 43.882Z" fill="#878787"></path><path d="M103.643 41.1279C104.105 41.6325 104.356 42.3683 104.356 43.3354V47.351H103.496V43.4195C103.496 42.7047 103.328 42.1371 102.993 41.7586C102.657 41.3802 102.195 41.191 101.587 41.191C100.915 41.191 100.37 41.4223 99.9712 41.8638C99.5725 42.3053 99.3837 42.9149 99.3837 43.7139V47.351H98.5234V40.4131H99.3417V41.6956C99.5725 41.2751 99.8873 40.9387 100.307 40.7074C100.727 40.4762 101.188 40.35 101.734 40.35C102.531 40.3711 103.16 40.6233 103.643 41.1279Z" fill="#878787"></path><path d="M110.019 46.9936C109.536 46.6992 109.138 46.2787 108.865 45.7321C108.592 45.1855 108.445 44.5968 108.445 43.903C108.445 43.2093 108.592 42.6206 108.865 42.074C109.138 41.5273 109.536 41.1279 110.019 40.8125C110.502 40.5182 111.047 40.371 111.656 40.371C112.264 40.371 112.81 40.5182 113.292 40.8125C113.775 41.1069 114.173 41.5273 114.446 42.074C114.719 42.6206 114.866 43.2093 114.866 43.903C114.866 44.5968 114.719 45.1855 114.446 45.7321C114.173 46.2787 113.796 46.6992 113.292 46.9936C112.81 47.2879 112.264 47.4561 111.656 47.4561C111.047 47.4351 110.502 47.2879 110.019 46.9936ZM112.873 46.2787C113.229 46.0475 113.502 45.7321 113.712 45.3116C113.922 44.8912 114.006 44.4286 114.006 43.903C114.006 43.3774 113.901 42.8939 113.712 42.4944C113.502 42.074 113.229 41.7586 112.873 41.5273C112.516 41.2961 112.117 41.191 111.656 41.191C111.215 41.191 110.816 41.2961 110.439 41.5273C110.061 41.7586 109.809 42.074 109.599 42.4944C109.39 42.9149 109.285 43.3774 109.285 43.903C109.285 44.4286 109.39 44.9122 109.599 45.3116C109.809 45.7321 110.082 46.0475 110.439 46.2787C110.795 46.51 111.194 46.6151 111.656 46.6151C112.117 46.6151 112.516 46.489 112.873 46.2787Z" fill="#878787"></path><path d="M119.023 37.5748H119.884V47.3719H119.023V37.5748Z" fill="#878787"></path><path d="M125.589 46.9936C125.107 46.6992 124.708 46.2787 124.435 45.7321C124.162 45.1855 124.016 44.5968 124.016 43.903C124.016 43.2093 124.162 42.6206 124.435 42.074C124.708 41.5273 125.107 41.1279 125.589 40.8125C126.072 40.5182 126.617 40.371 127.226 40.371C127.834 40.371 128.38 40.5182 128.862 40.8125C129.345 41.1069 129.744 41.5273 130.016 42.074C130.289 42.6206 130.436 43.2093 130.436 43.903C130.436 44.5968 130.289 45.1855 130.016 45.7321C129.744 46.2787 129.366 46.6992 128.862 46.9936C128.38 47.2879 127.834 47.4561 127.226 47.4561C126.617 47.4351 126.072 47.2879 125.589 46.9936ZM128.422 46.2787C128.779 46.0475 129.051 45.7321 129.261 45.3116C129.471 44.8912 129.555 44.4286 129.555 43.903C129.555 43.3774 129.45 42.8939 129.261 42.4944C129.051 42.074 128.779 41.7586 128.422 41.5273C128.065 41.2961 127.667 41.191 127.205 41.191C126.764 41.191 126.366 41.2961 125.988 41.5273C125.61 41.7586 125.358 42.074 125.149 42.4944C124.939 42.9149 124.834 43.3774 124.834 43.903C124.834 44.4286 124.939 44.9122 125.149 45.3116C125.358 45.7321 125.631 46.0475 125.988 46.2787C126.345 46.51 126.743 46.6151 127.205 46.6151C127.667 46.6151 128.065 46.489 128.422 46.2787Z" fill="#878787"></path><path d="M132.892 49.8948C132.661 49.8107 132.473 49.7056 132.305 49.5584L132.598 48.8436C132.85 49.0749 133.186 49.201 133.585 49.201C133.92 49.201 134.172 49.0959 134.361 48.8646C134.55 48.6334 134.634 48.318 134.634 47.8975V40.4341H135.494V47.8975C135.494 48.5493 135.326 49.0539 135.011 49.4323C134.697 49.8107 134.235 49.9999 133.648 49.9999C133.375 49.9999 133.123 49.9579 132.892 49.8948ZM134.613 38.7101C134.487 38.584 134.424 38.4158 134.424 38.2266C134.424 38.0584 134.487 37.8902 134.613 37.764C134.739 37.6379 134.885 37.5748 135.053 37.5748C135.221 37.5748 135.368 37.6379 135.494 37.764C135.62 37.8902 135.683 38.0374 135.683 38.2266C135.683 38.4158 135.62 38.584 135.494 38.7101C135.368 38.8363 135.221 38.8993 135.053 38.8993C134.885 38.8993 134.739 38.8363 134.613 38.7101Z" fill="#878787"></path><path d="M140.293 38.8573C140.188 38.7312 140.125 38.584 140.125 38.4158C140.125 38.2476 140.188 38.0794 140.293 37.9743C140.398 37.8482 140.545 37.7851 140.712 37.7851C140.88 37.7851 141.006 37.8482 141.132 37.9743C141.237 38.1005 141.3 38.2476 141.3 38.4158C141.3 38.584 141.237 38.7522 141.132 38.8573C141.027 38.9835 140.88 39.0465 140.712 39.0465C140.545 39.0465 140.398 38.9835 140.293 38.8573ZM140.251 40.4341H141.111V47.372H140.251V40.4341Z" fill="#878787"></path></svg>