<svg id="Layer_1" data-name="Layer 1" xmlns="http://www.w3.org/2000/svg" viewBox="0 0 1417.32 1345"><defs><style>.cls-1{fill:#ffc425;}.cls-2{fill:#231f20;}</style></defs><title>kreatifdesign_logo</title><path class="cls-1" d="M834.46,877.59a375.16,375.16,0,0,0,63.48,5.48c7.05,0,14.23-.24,21.29-.58L902.8,922.4l173.41-36.5L797.87,1365.16l77.62-319.48-182.62,36.48,17.19-79.48A364.24,364.24,0,0,0,834.46,877.59Z" transform="translate(-29.64 -20.15)"/><path class="cls-1" d="M597.66,20.15a288.5,288.5,0,0,1,111,22.08,19.93,19.93,0,0,0,7.75,1.6,20.7,20.7,0,0,0,7.36-1.37,298.29,298.29,0,0,1,294.57,46.31A19.83,19.83,0,0,0,1031,93.23c.59,0,1.18,0,1.77-.05,8.09-.64,16.05-1.06,24.11-1.06h.12c132.27,0,243.73,89.1,277.88,210.5a19.65,19.65,0,0,0,9.14,11.87c61.62,37,103.07,104.25,103,181.31.1,92.25-59.17,170.46-141.47,199.37A20.88,20.88,0,0,0,1296,702a231.75,231.75,0,0,1-243.12,84.78,22.57,22.57,0,0,0-5.09-.63,20.6,20.6,0,0,0-8.71,2,320.88,320.88,0,0,1-221.8,21.89,21.33,21.33,0,0,0-5-.63,20.37,20.37,0,0,0-18.21,11.41C745,922.4,641.5,992.54,521.23,992.54c-89.83,0-170.17-39-225.8-101.1a19.52,19.52,0,0,0-9.32-5.85,226.84,226.84,0,0,1-147.79-138.2l-4-6.42C69.34,669.13,29.64,574.24,29.64,469.77c.38-223.32,181.08-404,404.5-404.41,0,0,.48,0,2.34,0A20.39,20.39,0,0,0,447,62.45,288.1,288.1,0,0,1,597.66,20.15Z" transform="translate(-29.64 -20.15)"/><path d="M384,368.53,317.9,462.41l66.31,99.73a4.8,4.8,0,0,1,1.16,3c0,1.68-1.38,2.83-3.88,2.83H333.69c-3.31,0-4.73-1.68-6.12-3.87L271.2,472.4v90a5.59,5.59,0,0,1-5.54,5.61H229.27a5.63,5.63,0,0,1-5.56-5.61V366.84a5.34,5.34,0,0,1,5.56-5.26h36.39a5.3,5.3,0,0,1,5.54,5.26V455.2l61.13-90.29a6.4,6.4,0,0,1,6.11-3.34H380.9c3.09,0,4.48,1.39,4.48,3.06A8.63,8.63,0,0,1,384,368.53Z" transform="translate(-29.64 -20.15)"/><path class="cls-2" d="M558,568H515.5c-3,0-4.17-2.83-5.56-5.61l-37.16-70.23-3.11.28c-5.85,0-14.39-.58-19.72-.58v70.53a5.58,5.58,0,0,1-5.52,5.61H408.29a5.62,5.62,0,0,1-5.56-5.61V376c0-9.38,4-11.93,12.47-13.28,12.85-2,36.44-3.62,56.47-3.62,47.22,0,83.56,15.86,83.56,65v3.64c0,29.43-15.55,47.51-35.78,55.5l41.9,78.34a6.78,6.78,0,0,1,.78,3.08C562.14,566.54,561,568,558,568ZM508,424.08c0-17-13-24.69-36.33-24.69-3.94,0-18.37.52-21.72.8v53.31c3.11.27,16.72.55,19.72.55,29.17,0,38.33-7.45,38.33-26.34Z" transform="translate(-29.64 -20.15)"/><path class="cls-2" d="M698.69,566.81c-9.8,1.45-23.9,3.66-53.92,3.66-35.83,0-67.49-9.18-67.49-59.71V418.51c0-50.52,31.94-59.41,67.75-59.41,30,0,43.86,2.21,53.66,3.62,3.83.58,5.54,1.93,5.54,5.55v25.79a5.58,5.58,0,0,1-5.54,5.55H642.23c-13.06,0-17.74,4.51-17.74,18.9v25.33h71.93a5.57,5.57,0,0,1,5.58,5.53v26.4a5.57,5.57,0,0,1-5.58,5.54H624.49v29.45c0,14.4,4.68,18.82,17.74,18.82h56.46a5.62,5.62,0,0,1,5.54,5.55V561C704.22,564.64,702.52,566.28,698.69,566.81Z" transform="translate(-29.64 -20.15)"/><path class="cls-2" d="M889,568h-38.9a5.88,5.88,0,0,1-5.54-5l-10-45.6h-57l-10,45.6a5.88,5.88,0,0,1-5.53,5H723.14c-2.78,0-4.72-1.68-4.72-4.45,0-.3.28-.86.28-1.37l41.35-172.23c6.36-26.62,27-30.82,46.15-30.82s39.39,4.2,45.79,30.82l41.36,172.23a13.63,13.63,0,0,0,.32,1.37C893.67,566.28,891.72,568,889,568ZM809.81,402.67c-.58-2.76-1.14-4.12-3.61-4.12s-3.35,1.36-3.94,4.12l-16.93,76.7h41.41Z" transform="translate(-29.64 -20.15)"/><path class="cls-2" d="M1028.26,400.72H983.2V562.36a5.55,5.55,0,0,1-5.47,5.61H941.26a5.61,5.61,0,0,1-5.53-5.61V400.72H890.46a5.3,5.3,0,0,1-5.56-5.24V366.84a5.31,5.31,0,0,1,5.56-5.26h137.79c3,0,5.82,2.19,5.82,5.26v28.64C1034.08,398.55,1031.28,400.72,1028.26,400.72Z" transform="translate(-29.64 -20.15)"/><path class="cls-2" d="M1093.38,568h-37.17c-3.09,0-5-2.54-5-5.61V424.11c0-3.08,1.9-5.26,5-5.26h37.17a5.1,5.1,0,0,1,5.32,5.26V562.36A5.4,5.4,0,0,1,1093.38,568Z" transform="translate(-29.64 -20.15)"/><path class="cls-2" d="M1093.38,400.91h-37.17c-3.09,0-5-2.53-5-5.6V366.84c0-3.07,1.9-5.26,5-5.26h37.17a5.11,5.11,0,0,1,5.32,5.26v28.47A5.39,5.39,0,0,1,1093.38,400.91Z" transform="translate(-29.64 -20.15)"/><path class="cls-2" d="M1247.33,399.91H1191c-13.1,0-17.79,4.45-17.79,18.89v25h71.92a5.54,5.54,0,0,1,5.53,5.53v26.4a5.54,5.54,0,0,1-5.53,5.54h-71.92v81.05a5.63,5.63,0,0,1-5.53,5.61H1131.5a5.6,5.6,0,0,1-5.51-5.61V418.8c0-50.53,31.92-59.44,67.76-59.44,29.93,0,43.88,2.22,53.57,3.61,3.86.6,5.56,1.94,5.56,5.55v25.83A5.56,5.56,0,0,1,1247.33,399.91Z" transform="translate(-29.64 -20.15)"/></svg>