<svg width="calc(20vw)" style="max-width: 184px; min-width: calc(184px / 1.5);" viewBox="0 0 184 49" fill="none" xmlns="http://www.w3.org/2000/svg">
          <path d="M172.098 44.2254V16.0702H180.104V44.2254H172.098Z" fill="#2D134E"></path>
          <path d="M180.772 8.02585C180.772 10.6175 178.681 12.7184 176.101 12.7184C173.521 12.7184 171.43 10.6175 171.43 8.02585C171.43 5.43423 173.521 3.33331 176.101 3.33331C178.681 3.33331 180.772 5.43423 180.772 8.02585Z" fill="#2D134E"></path>
          <path d="M154.099 15.5674V15.5948C157.782 15.5948 160.579 16.2355 162.517 18.4768C164.456 20.7182 165.425 23.7525 165.425 27.634V44.2254H157.418V29.0551C157.418 26.841 157.394 25.119 156.37 23.8616C155.345 22.6043 153.822 21.9756 151.801 21.9756C149.724 21.9756 148.062 22.7136 146.788 24.217C145.514 25.7203 145.408 27.7442 145.408 30.2316V44.2254H137.401V4.00368H145.408V19.4609C147.706 16.5361 150.25 15.5674 154.099 15.5674Z" fill="#2D134E"></path>
          <path d="M84.0209 4.00368H92.0279V44.2254H84.0209V40.8632C81.6984 43.6633 78.6949 45.0634 74.652 45.0634C70.4944 45.0634 67.0249 43.6633 64.2149 40.8363C61.405 38.0092 60 34.509 60 30.3357C60 26.1086 61.405 22.5815 64.2149 19.7814C67.0249 16.9812 70.523 15.5812 74.6806 15.5812C78.7522 15.5812 81.7271 16.9543 84.0209 19.7275V4.00368ZM75.9996 38.5477V38.4938C78.3795 38.4938 80.3866 37.713 82.021 36.1514C83.6553 34.5898 84.4582 32.6243 84.4582 30.228C84.4582 27.8856 83.6553 25.9471 82.021 24.4124C80.3866 22.8777 78.3795 22.0969 75.9996 22.0969C73.5624 22.0969 71.5553 22.8508 69.9782 24.3854C68.4012 25.9201 67.627 27.8856 67.627 30.2819C67.627 32.7051 68.4012 34.6975 69.9782 36.2322C71.5553 37.7669 73.5624 38.5477 75.9996 38.5477Z" fill="#2D134E"></path>
          <path d="M122.721 16.0702H130.728V44.2254H122.721V40.8632C120.399 43.6633 117.395 45.0634 113.352 45.0634C109.195 45.0634 105.725 43.6633 102.915 40.8363C100.105 38.0092 98.7003 34.509 98.7003 30.3357C98.7003 26.1086 100.105 22.5815 102.915 19.7814C105.725 16.9812 109.223 15.5812 113.381 15.5812C117.453 15.5812 120.427 16.9543 122.721 19.7275V16.0702ZM114.7 38.5477V38.4938C117.08 38.4938 119.087 37.713 120.721 36.1514C122.356 34.5898 123.159 32.6243 123.159 30.228C123.159 27.8856 122.356 25.9471 120.721 24.4124C119.087 22.8777 117.08 22.0969 114.7 22.0969C112.263 22.0969 110.256 22.8508 108.679 24.3854C107.102 25.9201 106.327 27.8856 106.327 30.2819C106.327 32.7051 107.102 34.6975 108.679 36.2322C110.256 37.7669 112.263 38.5477 114.7 38.5477Z" fill="#2D134E"></path>
          <path d="M0 10.9971C0 7.14773 0 5.22305 0.749133 3.7528C1.40809 2.45952 2.45955 1.40806 3.75283 0.749102C5.22308 -3.05176e-05 7.14776 -3.05176e-05 10.9971 -3.05176e-05H37.1152C40.9646 -3.05176e-05 42.8892 -3.05176e-05 44.3595 0.749102C45.6528 1.40806 46.7042 2.45952 47.3632 3.7528C48.1123 5.22305 48.1123 7.14772 48.1123 10.9971V37.1152C48.1123 40.9645 48.1123 42.8892 47.3632 44.3595C46.7042 45.6527 45.6528 46.7042 44.3595 47.3632C42.8892 48.1123 40.9646 48.1123 37.1152 48.1123H10.9971C7.14776 48.1123 5.22308 48.1123 3.75283 47.3632C2.45955 46.7042 1.40809 45.6527 0.749133 44.3595C0 42.8892 0 40.9645 0 37.1152V10.9971Z" fill="#24E0B1"></path>
          <path fill-rule="evenodd" clip-rule="evenodd" d="M15.2216 12.3809C15.2216 13.3135 15.2216 13.7786 15.0718 14.1462C14.873 14.6363 14.49 15.0264 14.0087 15.2289C13.6478 15.3814 13.1899 15.3814 12.2753 15.3814H9.5255C8.42556 15.3814 7.87559 15.3814 7.45574 15.599C7.08623 15.7903 6.78547 16.0966 6.59764 16.4729C6.38281 16.9017 6.38281 17.4618 6.38281 18.582V21.1825C6.38281 22.3027 6.38281 22.8628 6.59642 23.2904C6.78424 23.6667 7.08501 23.973 7.45452 24.1643C7.87436 24.3818 8.42433 24.3818 9.52427 24.3818H12.2741C13.1899 24.3818 13.6466 24.3818 14.0075 24.5344C14.4887 24.7369 14.8717 25.127 15.0706 25.6171C15.2204 25.9846 15.2204 26.451 15.2204 27.3824V30.1829C15.2204 31.3031 15.2204 31.8632 15.434 32.2908C15.6218 32.6671 15.9226 32.9734 16.2921 33.1647C16.7119 33.3823 17.2619 33.3823 18.3618 33.3823H20.9153C22.0152 33.3823 22.5652 33.3823 22.985 33.1647C23.3545 32.9734 23.6553 32.6671 23.8431 32.2908C24.0567 31.8632 24.0567 31.3031 24.0567 30.1829V27.5824C24.0567 26.4622 24.0567 25.9021 23.8431 25.4745C23.6553 25.0982 23.3545 24.7919 22.985 24.6006C22.5652 24.3831 22.0152 24.3831 20.9153 24.3831H18.1654C17.2496 24.3831 16.793 24.3831 16.432 24.2306C15.9508 24.028 15.5678 23.638 15.3689 23.1479C15.2192 22.7803 15.2192 22.314 15.2192 21.3825V18.382C15.2192 17.4493 15.2192 16.9842 15.3689 16.6167C15.5678 16.1266 15.9508 15.7365 16.432 15.534C16.793 15.3814 17.2509 15.3814 18.1654 15.3814H20.9153C22.0152 15.3814 22.5652 15.3814 22.985 15.1639C23.3545 14.9726 23.6553 14.6663 23.8431 14.29C24.0567 13.8624 24.0567 13.3023 24.0567 12.1821V9.58161C24.0567 8.4614 24.0567 7.90129 23.8431 7.47372C23.6553 7.0974 23.3545 6.79109 22.985 6.5998C22.5652 6.38226 22.0152 6.38226 20.9153 6.38226H18.3618C17.2619 6.38226 16.7119 6.38226 16.2921 6.5998C15.9226 6.79109 15.6218 7.0974 15.434 7.47372C15.2204 7.90129 15.2204 8.4614 15.2204 9.58161V12.3821L15.2216 12.3809Z" fill="#2D134E"></path>
          <path fill-rule="evenodd" clip-rule="evenodd" d="M41.517 24.8201C41.3291 24.4438 41.0284 24.1375 40.6588 23.9462C40.239 23.7287 39.689 23.7287 38.5891 23.7287H35.8392C34.9235 23.7287 34.4668 23.7287 34.1059 23.5762C33.6246 23.3736 33.2429 22.9836 33.0428 22.4935C32.893 22.1259 32.893 21.6596 32.893 20.7281V17.9276C32.893 16.8074 32.893 16.2473 32.6794 15.8197C32.4916 15.4434 32.1908 15.1371 31.8213 14.9458C31.4014 14.7283 30.8515 14.7283 29.7515 14.7283H27.1981C26.0982 14.7283 25.5482 14.7283 25.1283 14.9458C24.7588 15.1371 24.4581 15.4434 24.2702 15.8197C24.0566 16.2473 24.0566 16.8074 24.0566 17.9276V20.5281C24.0566 21.6483 24.0566 22.2084 24.2702 22.636C24.4581 23.0123 24.7588 23.3186 25.1283 23.5099C25.5482 23.7274 26.0982 23.7274 27.1981 23.7274H29.9479C30.8625 23.7274 31.3204 23.7274 31.6813 23.88C32.1626 24.0825 32.5443 24.4726 32.7444 24.9627C32.8942 25.3302 32.8942 25.7966 32.8942 26.728V29.7285C32.8942 30.6612 32.8942 31.1263 32.7444 31.4939C32.5456 31.984 32.1626 32.374 31.6813 32.5766C31.3204 32.7291 30.8625 32.7291 29.9479 32.7291H27.1981C26.0982 32.7291 25.5482 32.7291 25.1283 32.9466C24.7588 33.1379 24.4581 33.4442 24.2702 33.8206C24.0566 34.2481 24.0566 34.8082 24.0566 35.9284V38.5289C24.0566 39.6491 24.0566 40.2092 24.2702 40.6368C24.4581 41.0131 24.7588 41.3194 25.1283 41.5107C25.5482 41.7283 26.0982 41.7283 27.1981 41.7283H29.7515C30.8515 41.7283 31.4014 41.7283 31.8213 41.5107C32.1908 41.3194 32.4916 41.0131 32.6794 40.6368C32.893 40.2092 32.893 39.6491 32.893 38.5289V35.7284C32.893 34.7957 32.893 34.3307 33.0428 33.9631C33.2416 33.473 33.6246 33.0829 34.1059 32.8804C34.4668 32.7279 34.9247 32.7279 35.8392 32.7279H38.5891C39.689 32.7279 40.239 32.7279 40.6588 32.5103C41.0284 32.319 41.3291 32.0127 41.517 31.6364C41.7306 31.2088 41.7306 30.6487 41.7306 29.5285V26.928C41.7306 25.8078 41.7306 25.2477 41.517 24.8201Z" fill="#2D134E"></path>
        </svg>
