<?xml version="1.0" encoding="UTF-8"?><svg id="a" xmlns="http://www.w3.org/2000/svg" viewBox="0 0 829.17647 162.19213"><path d="M171.33912,78.90005c0,30.18248,18.90863,49.78281,48.37883,49.78281,28.5565,0,45.72033-20.05465,45.72033-48.68858v-7.09279h-42.61279l-14.37632,16.4465h37.17197c-2.33323,15.21774-11.98114,22.63568-25.9032,22.63568-18.26338,0-29.5941-12.77093-29.5941-33.08362s11.33072-33.15073,29.5941-33.15073c12.17214,0,21.56709,6.58144,24.67464,17.34949h19.16671c-3.7528-20.82877-20.78762-34.04899-43.84135-34.04899-29.4702,0-48.37883,19.66743-48.37883,49.85023m189.23076,0c0,29.92444,19.36288,49.78281,48.44078,49.78281,29.14501,0,48.44078-19.98754,48.44078-49.78281,0-29.92444-19.16675-49.85023-48.44078-49.85023-29.20692,0-48.44078,19.79661-48.44078,49.85023m18.77957,0c0-20.31269,11.46494-32.95476,29.6612-32.95476,18.13432,0,29.6612,12.64207,29.6612,32.95476,0,20.44155-11.39783,32.88733-29.6612,32.88733-18.19627,0-29.6612-12.57464-29.6612-32.88733m87.62083,11.41331c0,24.63321,16.64247,38.3695,41.96749,38.3695,25.06186,0,41.70433-13.7363,41.70433-38.3695V31.04766h-18.52153v56.29745c0,16.25526-9.00257,24.25135-23.18279,24.25135-14.50537,0-23.44091-7.86691-23.44091-24.25135V31.04766h-18.52658v59.2657Zm97.66096,36.37166h18.39244v-36.04651h30.43548c18.65567,0,30.44068-12.12567,30.44068-29.92444,0-17.86588-11.78501-29.6664-30.44068-29.6664h-48.82792V126.68502Zm18.39244-53.39631v-25.08753h28.36549c8.67742,0,13.7311,4.38762,13.7311,12.51289s-5.05368,12.57464-13.7311,12.57464h-28.36549Zm69.22836,17.0864h49.73649v-20.50866h-49.73649v20.50866Zm143.76851,19.35268h-29.78503v-22.83165l30.30646-.12918c9.19358,0,13.85492,3.5464,13.85492,11.15527,0,8.32124-4.66134,11.80556-14.37635,11.80556m-.32003-61.71755c8.02704,0,12.17214,3.47929,12.17214,10.44794,0,7.47969-4.47033,11.41331-12.17214,11.41331h-29.465v-21.86125h29.465Zm21.69095,29.47012c5.69893-4.57887,9.4569-11.73846,9.4569-20.57073,0-15.67207-10.10215-25.86197-29.01075-25.86197h-49.99453V126.68502h50.18554c18.9757,0,31.14785-10.70598,31.14785-27.66321,0-9.87011-4.53224-17.02465-11.78501-21.54145m-103.35469,49.20466h18.52146V31.04766h-18.52146V126.68502Zm-438.95058,0h18.39244v-37.33703h19.55901l22.72855,37.33703h22.34657l-24.15844-38.62754c12.23925-3.87154,20.59661-13.99434,20.59661-27.85981,0-17.41155-10.9487-29.15001-31.15301-29.15001h-48.31172V126.68502Zm18.39244-53.78353v-24.95836h27.72023c9.58596,0,14.63443,4.64566,14.63443,12.58,0,7.92866-5.1827,12.37836-14.63443,12.37836h-27.72023Z"/><path d="M96.77129,19.83442V0l-13.15878,15.06934c-5.22507-1.29556-10.66093-2.05865-16.28865-2.05865C30.14152,13.0107,0,43.02808,0,80.05036c0,26.4921,15.46853,49.32754,37.86697,60.21625v21.92552l14.6355-16.77984c4.77484,1.06965,9.72234,1.68277,14.82139,1.68277,37.18201,0,67.32354-30.01739,67.32354-67.0447,0-26.4921-15.47295-49.32943-37.87611-60.21594ZM16.82836,80.05036c0-27.72559,22.65112-50.27872,50.49549-50.27872,1.11565,0,2.20768,.09547,3.30537,.16667l-28.46222,32.59495c-2.77228,3.17462-4.30004,7.23741-4.30004,11.44954v46.82622c-12.71611-9.13884-21.03861-23.98133-21.03861-40.75866Zm50.49549,50.28345c-.54003,0-1.06367-.06396-1.5996-.08066l26.75203-30.67178c2.77196-3.17462,4.29499-7.23709,4.29499-11.44418v-20.71031h-18.93459v20.18887l-21.03546,24.11209v-37.234l33.99606-38.92213c16.04637,8.42994,27.02173,25.19119,27.02173,44.47865,0,27.73063-22.65112,50.28345-50.49517,50.28345Z"/></svg>