<?xml version="1.0" encoding="utf-8"?>
<!-- Generator: Adobe Illustrator 25.4.1, SVG Export Plug-In . SVG Version: 6.00 Build 0)  -->
<svg version="1.1" id="Ebene_1" xmlns="http://www.w3.org/2000/svg" xmlns:xlink="http://www.w3.org/1999/xlink" x="0px" y="0px"
	 viewBox="0 0 65 32" style="enable-background:new 0 0 65 32;" xml:space="preserve">
<style type="text/css">
	.st0{filter:url(#Adobe_OpacityMaskFilter);}
	.st1{fill-rule:evenodd;clip-rule:evenodd;fill:#FFFFFF;}
	.st2{mask:url(#mask-2_00000028307569089268364550000001244699207966720430_);fill-rule:evenodd;clip-rule:evenodd;fill:#004E9C;}
	.st3{fill-rule:evenodd;clip-rule:evenodd;fill:#0068B3;}
	.st4{fill-rule:evenodd;clip-rule:evenodd;fill:#0082C9;}
	.st5{fill-rule:evenodd;clip-rule:evenodd;fill:#FEFEFE;}
</style>
<defs>
	<filter id="Adobe_OpacityMaskFilter" filterUnits="userSpaceOnUse" x="2.9" y="0" width="24" height="24">
		<feColorMatrix  type="matrix" values="1 0 0 0 0  0 1 0 0 0  0 0 1 0 0  0 0 0 1 0"/>
	</filter>
</defs>
<mask maskUnits="userSpaceOnUse" x="2.9" y="0" width="24" height="24" id="mask-2_00000028307569089268364550000001244699207966720430_">
	<g class="st0">
		<polygon id="path-1_00000065034572814877080900000005480949019030302378_" class="st1" points="2.9,0 26.9,0 26.9,24 2.9,24 		"/>
	</g>
</mask>
<path id="Fill-1" class="st2" d="M18.2,24l8.7-24H15.1c-2.7,0.2-4.2,1.5-5.2,3.8L2.9,24L18.2,24z"/>
<polygon id="Fill-4" class="st3" points="30.7,0 22,24 37.3,24 46,0 "/>
<path id="Fill-5" class="st4" d="M40.7,24L49.4,0h15.3l-7.5,21.1c-1.2,2-2.5,2.6-4.9,2.9H40.7z"/>
<polygon id="Fill-7" class="st5" points="9.2,16.8 12.4,7.8 20.1,7.8 19.8,8.9 13.4,8.9 12.4,11.6 18.4,11.6 18,12.7 12.1,12.7 
	11,15.7 17.6,15.7 17.2,16.8 "/>
<path id="Fill-8" class="st5" d="M47.3,16.8l3.2-8.9h4c0.8,0,1.4,0.1,1.9,0.3c0.4,0.2,0.7,0.5,0.9,0.8c0.1,0.4,0.2,0.8,0,1.2
	c-0.1,0.4-0.4,0.7-0.8,1.1c-0.4,0.3-0.8,0.6-1.4,0.8c0.6,0.2,1,0.4,1.2,0.8c0.2,0.4,0.2,0.8,0,1.3c-0.1,0.4-0.4,0.8-0.7,1.2
	c-0.3,0.4-0.7,0.6-1.1,0.8c-0.4,0.2-0.8,0.3-1.3,0.4c-0.5,0.1-1.1,0.1-1.8,0.1H47.3z M50.6,11.6h2.3c0.6,0,1.1,0,1.4-0.1
	c0.4-0.1,0.7-0.2,1-0.4c0.3-0.2,0.4-0.5,0.6-0.8c0.1-0.3,0.1-0.5,0-0.8c-0.1-0.2-0.3-0.4-0.6-0.5c-0.3-0.1-0.8-0.1-1.6-0.1h-2.1
	L50.6,11.6z M49.1,15.7h2.7c0.5,0,0.8,0,1,0c0.3-0.1,0.6-0.1,0.9-0.2c0.3-0.1,0.5-0.3,0.7-0.5c0.2-0.2,0.4-0.5,0.5-0.8
	c0.1-0.3,0.1-0.6,0-0.9c-0.1-0.2-0.3-0.4-0.7-0.5c-0.3-0.1-0.8-0.1-1.5-0.1h-2.5L49.1,15.7z"/>
<polygon id="Fill-10" class="st5" points="29,16.8 32.2,7.8 40,7.8 39.6,8.9 33.2,8.9 32.3,11.6 38.2,11.6 37.9,12.7 31.9,12.7 
	30.8,15.7 30.5,16.8 "/>
<path id="Fill-11" class="st1" d="M0,31.9l2.1-5.6h4.4L6.2,27H2.6L2,28.7h3.4l-0.2,0.7H1.7L1,31.3h3.7l-0.2,0.7H0z M5.6,31.9l2-5.6
	h0.8l-1.8,4.9h3l-0.2,0.7H5.6z M10.4,31.9l2.1-5.6h4.4L16.6,27H13l-0.6,1.7h3.4l-0.2,0.7h-3.4l-0.7,1.9h3.7l-0.2,0.7H10.4z M16,31.9
	l2-5.6h0.8l-1,2.8l4-2.8H23l-3.4,2.2l1.4,3.3H20l-1.1-2.8L17.5,30l-0.7,1.9H16z M23.2,31.9l1.8-4.9h-2l0.2-0.7h4.8L27.9,27h-2
	L24,31.9H23.2z M26.9,31.9l2.1-5.6h2.7c0.5,0,0.9,0,1.2,0.1c0.2,0.1,0.4,0.3,0.5,0.5c0.1,0.3,0.1,0.5-0.1,0.8
	c-0.1,0.4-0.4,0.7-0.8,1c-0.4,0.3-0.9,0.4-1.5,0.5c0.2,0.1,0.3,0.2,0.4,0.3c0.2,0.2,0.3,0.4,0.4,0.7l0.5,1.5h-1l-0.4-1.2
	c-0.1-0.3-0.2-0.6-0.3-0.8c-0.1-0.2-0.2-0.3-0.3-0.4c-0.1-0.1-0.2-0.1-0.3-0.2c-0.1,0-0.2,0-0.4,0h-0.9l-0.9,2.5H26.9z M28.8,28.8
	h1.7c0.4,0,0.7,0,0.9-0.1s0.4-0.2,0.6-0.3c0.2-0.1,0.3-0.3,0.3-0.5c0.1-0.3,0.1-0.5-0.1-0.7C32.2,27,31.9,27,31.4,27h-1.9L28.8,28.8
	z M33.8,29.2c0.3-0.9,0.9-1.7,1.6-2.2c0.7-0.5,1.5-0.8,2.4-0.8c0.6,0,1,0.1,1.4,0.4c0.4,0.2,0.6,0.6,0.7,1c0.1,0.4,0,0.9-0.2,1.5
	c-0.2,0.6-0.5,1.1-0.9,1.5c-0.4,0.4-0.9,0.8-1.4,1c-0.5,0.2-1.1,0.3-1.6,0.3c-0.6,0-1-0.1-1.4-0.4c-0.4-0.3-0.6-0.6-0.7-1
	C33.5,30.2,33.6,29.7,33.8,29.2L33.8,29.2z M34.6,29.2c-0.3,0.7-0.2,1.2,0,1.6c0.2,0.4,0.7,0.6,1.3,0.6c0.6,0,1.2-0.2,1.7-0.6
	c0.5-0.4,0.9-0.9,1.2-1.7c0.2-0.5,0.2-0.9,0.2-1.2c0-0.3-0.2-0.6-0.4-0.8c-0.3-0.2-0.6-0.3-1-0.3c-0.6,0-1.1,0.2-1.7,0.5
	C35.3,27.8,34.9,28.4,34.6,29.2L34.6,29.2z M39.6,31.9l2.1-5.6h0.8l1.6,4.4l1.6-4.4h0.8l-2.1,5.6h-0.8L42,27.5l-1.6,4.4H39.6z
	 M45.9,31.9l2.1-5.6h0.8l-2.1,5.6H45.9z M48.1,31.9l2.1-5.6h0.8l-1,2.8l4-2.8H55l-3.4,2.2l1.4,3.3H52l-1.1-2.8L49.6,30l-0.7,1.9
	H48.1z"/>
</svg>
