<?xml version="1.0" encoding="UTF-8"?>
<!-- Generator: Adobe Illustrator 27.7.0, SVG Export Plug-In . SVG Version: 6.00 Build 0)  -->
<svg xmlns="http://www.w3.org/2000/svg" xmlns:xlink="http://www.w3.org/1999/xlink" version="1.1" id="Layer_1" x="0px" y="0px" viewBox="0 0 2507.5 990.1" style="enable-background:new 0 0 2507.5 990.1;" xml:space="preserve">
<style type="text/css">
	.st0{fill:#FFFFFF;}
</style>
<g>
	<g>
		<path class="st0" d="M250.7,278c-11.6-7-19.9-15.2-25.1-24.7c-2-3.7-0.6-8.4,3.1-10.4c1.1-0.6,2.3-0.9,3.5-0.9l192.2-3.8    c2.7-0.1,5.1,1.2,5.4,2.9c0,0.2,0,0.4,0,0.6c-0.3,1.5-2.1,2.6-5.3,3.4c-50.9,13-100.1,25.3-147.6,37    C267.5,284.2,258.8,282.9,250.7,278z M471,257.5l-139.6,50.2c-20.6,7.3-21.5,16.6-2.8,27.7c68,40.5,135.7,81.3,203.3,122.3    c25.2,15.3,33.6,10.2,25-15.4c-4.5-13.3-6.8-20.1-6.9-20.5c-12.4-42.1-25.2-84.1-38.5-126c-0.2-0.4-1.6-6.2-4.2-17.5    c-2-8.1-5.3-13.9-10-17.2C489.1,255.4,480.4,254.2,471,257.5z M633.2,477.1c-30.6-57.7-60.6-115.6-90.2-173.7    c-0.6-1.2-1.3-2.3-2-3.2c-5.2-6.8-5.7-4.7-1.6,6.3c20.4,54.6,41.3,110.8,62.6,168.4c3.2,8.6,9,14.9,17.3,18.7    C639.3,503,644,497.5,633.2,477.1z M205.7,303.7c-4.6-12.2-13.5-22.9-26.8-32.1c-10-7-18.1-5.3-24.2,5L71.9,416.8L45,462.7    c-7.4,12.7-5.7,14,5.2,4l32-29.6l118.6-111.8C206.6,319.8,208.5,311.3,205.7,303.7z M519.1,500.8l-142-84.3l-90.2-53    c-0.5-0.3-1-0.5-1.6-0.7c-4.2-1.4-8.8,1.1-10.2,5.5c-3.8,11.4-5.5,23.6-5.3,36.6c1.8,78.4,3,157.5,3.7,237.3    c0.2,18.1,7.9,22.7,23.3,13.8l72.7-41.8l149.3-85.8C534.6,519.2,534.7,510,519.1,500.8z M225.7,376.8c0-1-0.3-1.9-0.7-2.7    c-1.5-2.7-5-3.6-7.7-2c-22.6,12.8-43.7,28.2-63.3,46.5c-33.9,25.9-67.2,52.6-100,80c-0.3,0.3-3.2,2.5-8.8,6.6    c-14.7,11-13.5,22.6,3.7,34.7c33.6,23.7,67.3,47.2,101.1,70.6l56.7,39.3c13.9,9.7,20.8,6.1,20.7-10.8L225.7,376.8z M598.2,561.7    c-21.8,58.7-41.7,118-59.6,178.2c-6.4,21.3-4.6,22,5.5,2.2l95.7-188.2c5.9-11.6,2.4-17.4-10.4-17.4c-8.3,0-15.2,2.5-20.8,7.4    C604.8,547,601.3,553,598.2,561.7z M474.6,785c14.9,6.8,24.4,2.2,28.6-13.9L554,577.6c3.8-14.5-0.7-17.9-13.7-10.4L322.7,693.3    c-14,8.1-13.7,15.5,0.9,22.2L474.6,785z M50,576.3c-4.6-3.7-7.1-3.4-7.3,0.7c0,1.5,0.4,3.2,1.4,5.1    c35.3,61.4,70.9,121.5,106.7,180.4c8.4,13.9,18.2,14.9,29.2,3c13.1-14.2,22.4-28,27.8-41.4c3.1-7.5,1.3-16.1-4.5-21.8    c-13.6-13.3-26.3-24.6-38.1-34C126.9,637.7,88.5,607,50,576.3z M314,756c-0.5-0.2-5.8-2.4-15.9-6.8c-13.4-5.8-27.5-7.1-42.2-4    c-2.8,0.6-5.2,2-6.6,3.9l-26.1,33.6c-11.1,14.4-7.2,21.9,11.8,22.6c60.7,2,206.8,6.3,211.8,3.4c1.7-1,1.6-1.8-0.2-2.5    C401.7,788.5,357.5,771.7,314,756z"></path>
		<path class="st0" d="M250.7,278c-11.6-7-19.9-15.2-25.1-24.7c-2-3.7-0.6-8.4,3.1-10.4c1.1-0.6,2.3-0.9,3.5-0.9l192.2-3.8    c2.7-0.1,5.1,1.2,5.4,2.9c0,0.2,0,0.4,0,0.6c-0.3,1.5-2.1,2.6-5.3,3.4c-50.9,13-100.1,25.3-147.6,37    C267.5,284.2,258.8,282.9,250.7,278z M471,257.5l-139.6,50.2c-20.6,7.3-21.5,16.6-2.8,27.7c68,40.5,135.7,81.3,203.3,122.3    c25.2,15.3,33.6,10.2,25-15.4c-4.5-13.3-6.8-20.1-6.9-20.5c-12.4-42.1-25.2-84.1-38.5-126c-0.2-0.4-1.6-6.2-4.2-17.5    c-2-8.1-5.3-13.9-10-17.2C489.1,255.4,480.4,254.2,471,257.5z M633.2,477.1c-30.6-57.7-60.6-115.6-90.2-173.7    c-0.6-1.2-1.3-2.3-2-3.2c-5.2-6.8-5.7-4.7-1.6,6.3c20.4,54.6,41.3,110.8,62.6,168.4c3.2,8.6,9,14.9,17.3,18.7    C639.3,503,644,497.5,633.2,477.1z M205.7,303.7c-4.6-12.2-13.5-22.9-26.8-32.1c-10-7-18.1-5.3-24.2,5L71.9,416.8L45,462.7    c-7.4,12.7-5.7,14,5.2,4l32-29.6l118.6-111.8C206.6,319.8,208.5,311.3,205.7,303.7z M519.1,500.8l-142-84.3l-90.2-53    c-0.5-0.3-1-0.5-1.6-0.7c-4.2-1.4-8.8,1.1-10.2,5.5c-3.8,11.4-5.5,23.6-5.3,36.6c1.8,78.4,3,157.5,3.7,237.3    c0.2,18.1,7.9,22.7,23.3,13.8l72.7-41.8l149.3-85.8C534.6,519.2,534.7,510,519.1,500.8z M225.7,376.8c0-1-0.3-1.9-0.7-2.7    c-1.5-2.7-5-3.6-7.7-2c-22.6,12.8-43.7,28.2-63.3,46.5c-33.9,25.9-67.2,52.6-100,80c-0.3,0.3-3.2,2.5-8.8,6.6    c-14.7,11-13.5,22.6,3.7,34.7c33.6,23.7,67.3,47.2,101.1,70.6l56.7,39.3c13.9,9.7,20.8,6.1,20.7-10.8L225.7,376.8z M598.2,561.7    c-21.8,58.7-41.7,118-59.6,178.2c-6.4,21.3-4.6,22,5.5,2.2l95.7-188.2c5.9-11.6,2.4-17.4-10.4-17.4c-8.3,0-15.2,2.5-20.8,7.4    C604.8,547,601.3,553,598.2,561.7z M474.6,785c14.9,6.8,24.4,2.2,28.6-13.9L554,577.6c3.8-14.5-0.7-17.9-13.7-10.4L322.7,693.3    c-14,8.1-13.7,15.5,0.9,22.2L474.6,785z M50,576.3c-4.6-3.7-7.1-3.4-7.3,0.7c0,1.5,0.4,3.2,1.4,5.1    c35.3,61.4,70.9,121.5,106.7,180.4c8.4,13.9,18.2,14.9,29.2,3c13.1-14.2,22.4-28,27.8-41.4c3.1-7.5,1.3-16.1-4.5-21.8    c-13.6-13.3-26.3-24.6-38.1-34C126.9,637.7,88.5,607,50,576.3z M314,756c-0.5-0.2-5.8-2.4-15.9-6.8c-13.4-5.8-27.5-7.1-42.2-4    c-2.8,0.6-5.2,2-6.6,3.9l-26.1,33.6c-11.1,14.4-7.2,21.9,11.8,22.6c60.7,2,206.8,6.3,211.8,3.4c1.7-1,1.6-1.8-0.2-2.5    C401.7,788.5,357.5,771.7,314,756z"></path>
	</g>
	<g>
		<path class="st0" d="M1216.9,603.7c-23.7,75.2-88.3,148.7-228.8,148.7c-173.3,0-231.3-121.8-231.3-225.6    c0-118.5,72.7-225.6,231.3-225.6c108.7,0,239.5,48.2,239.5,240.3H817.2c0,88.3,62.9,160.2,170.8,160.2    c101.3,0,146.3-32.7,168.4-98.1L1216.9,603.7L1216.9,603.7z M1167,495.8C1149.9,391.2,1073,352,992.1,352    c-77.6,0-161.8,39.2-174.9,143.8H1167z"></path>
		<path class="st0" d="M1620,440.2c-15.5-68.6-58-88.3-146.3-88.3c-62.9,0-122.6,13.9-122.6,72.7c0,43.3,29.4,53.1,157.7,70.3    c129.9,17.2,183.9,40.1,183.9,122.6c0,85-67.8,134.9-201.9,134.9c-134.8,0-214.9-44.1-214.9-146.3h55.6    c10.6,71.1,50.7,95.6,159.4,95.6c84.2,0,141.4-17.2,141.4-80.9c0-41.7-30.2-61.3-162.6-74.4c-132.4-13.1-179-44.1-179-119.3    c0-73.6,59.7-125.9,183.1-125.9c137.3,0,195.3,49.9,201.9,138.9L1620,440.2L1620,440.2z"></path>
		<path class="st0" d="M1799.9,180.3h60.5v134h120.1v45.8h-120.1v281.1c0,36.8,11.4,54,60.5,54c29.4,0,47.4-2.5,59.7-4.9V741    c-22.9,3.3-46.6,4.9-66.2,4.9c-94.8,0-114.4-36.8-114.4-105.4V360.1h-91.5v-45.8h91.5v-134L1799.9,180.3L1799.9,180.3z"></path>
		<path class="st0" d="M2461.9,603.7c-23.7,75.2-88.3,148.7-228.8,148.7c-173.3,0-231.3-121.8-231.3-225.6    c0-118.5,72.7-225.6,231.3-225.6c108.7,0,239.5,48.2,239.5,240.3h-410.3c0,88.3,62.9,160.2,170.8,160.2    c101.4,0,146.3-32.7,168.4-98.1L2461.9,603.7L2461.9,603.7z M2412.1,495.8c-17.2-104.6-94-143.8-174.9-143.8    c-77.6,0-161.8,39.2-174.9,143.8H2412.1z"></path>
	</g>
</g>
</svg>
