<svg xmlns="http://www.w3.org/2000/svg" width="512" height="512" viewBox="0 0 512 512" fill="none"><g clip-path="url(#clip0_2502_2)"><path d="M222.7 32.1C227.7 49 218.1 66.9 201.2 71.9C121.8 95.6 64 169.1 64 256C64 362 150 448 256 448C362 448 448 362 448 256C448 169.1 390.2 95.6 310.9 71.9C294 66.9 284.3 49 289.4 32.1C294.5 15.2 312.3 5.50002 329.2 10.6C434.9 42.1 512 140 512 256C512 397.4 397.4 512 256 512C114.6 512 0 397.4 0 256C0 140 77.1 42.1 182.9 10.6C199.8 5.60002 217.7 15.2 222.7 32.1Z" fill="#00B6FF"></path></g><defs><clipPath id="clip0_2502_2"><rect width="512" height="512" fill="white"></rect></clipPath></defs></svg>