<?xml version="1.0" encoding="utf-8"?>
<!-- Generator: Adobe Illustrator 26.2.1, SVG Export Plug-In . SVG Version: 6.00 Build 0)  -->
<svg version="1.1" id="Layer_1" xmlns="http://www.w3.org/2000/svg" xmlns:xlink="http://www.w3.org/1999/xlink" x="0px" y="0px"
	 viewBox="0 0 168 70" style="enable-background:new 0 0 168 70;" xml:space="preserve">
<style type="text/css">
	.st0{fill:#454960;}
	.st1{fill:#0049B2;}
	.st2{fill:#007CEC;}
	.st3{fill:#00D8C5;}
	.st4{fill:#0086B7;}
	.st5{fill:#0DCC6C;}
	.st6{fill:#250EFF;}
	.st7{fill:#BCC1C4;}
	.st8{fill:#062A5B;}
	.st9{fill:#0F64EA;}
	.st10{fill:#00DEE6;}
	.st11{fill:url(#SVGID_1_);}
	.st12{fill:#18203F;}
	.st13{fill:#3EC3DA;}
	.st14{fill:#3145A2;}
	.st15{fill:#00BBE5;}
	.st16{fill:#6E6F74;}
	.st17{fill:#37AB49;}
	.st18{fill:#00FD57;}
	.st19{opacity:0.2;}
	.st20{fill:#FFFFFF;}
	.st21{fill:#343748;}
	.st22{fill:#54575C;}
	.st23{fill:#00984D;}
	.st24{fill:#5D5F61;}
	.st25{fill:#FED10A;}
	.st26{fill:#24BBB1;}
	.st27{fill:#EF5098;}
	.st28{fill:#17A8E0;}
	.st29{fill:#93C83E;}
	.st30{fill:#0779A1;}
	.st31{fill:#00AFAA;}
	.st32{fill:#333E48;}
	.st33{fill:#1F3243;}
	.st34{fill:#00ADC6;}
	.st35{fill:#318CC1;}
	.st36{fill:#1D2731;}
	.st37{fill:#EA5504;}
	.st38{fill:#F08300;}
	.st39{fill:#00499F;}
	.st40{fill:#D9340A;}
	.st41{fill:#3E3A39;}
	.st42{fill:#3D4952;}
	.st43{fill:#F06F37;}
	.st44{fill:#EA4335;}
	.st45{fill:#4285F4;}
	.st46{fill:#34A853;}
	.st47{fill:#FBBC05;}
	.st48{fill:#5F6368;}
	.st49{fill:#FBBC04;}
	.st50{fill:#F96702;}
	.st51{fill:#444864;}
	.st52{fill:#FF6911;}
	.st53{fill:#454764;}
	.st54{fill-rule:evenodd;clip-rule:evenodd;fill:#FFFFFF;}
	.st55{fill-rule:evenodd;clip-rule:evenodd;fill:#454960;}
	.st56{fill:#225FBC;}
	.st57{clip-path:url(#SVGID_00000003076260630293512520000017572135599795995066_);fill:#454960;}
	.st58{clip-path:url(#SVGID_00000074420199938554563020000003024960013690778792_);fill:#454960;}
</style>
<g>
	<g>
		<path class="st20" d="M38.8,51.2c9-1.5,15-10,13.5-19c-1.3-7.5-7.3-12.9-14.5-13.6c-1.4-0.2-2.9-0.1-4.5,0.1
			c-1.8,0.3-3.5,0.9-5,1.7c7.9,2.7,12.2,6.8,12.4,10.9c0.1,2.6-1.1,4.4-2.6,6l11.2-0.8c0.3,0,0.4,0.3,0,0.5l-26.7,7.6
			c2.7,3.7,6.9,6.2,11.6,6.7C35.8,51.5,37.3,51.5,38.8,51.2z M31.5,35.4c1.5-5.5-0.2-11.2-4.2-14.3c-5.4,3.4-8.6,9.9-7.4,16.6
			c0.4,2.2,1.2,4.3,2.3,6.1C26.4,42.6,30.2,40.4,31.5,35.4z"/>
		<path class="st0" d="M52.3,32.3c1.5,9-4.5,17.5-13.5,19c-1.5,0.3-3,0.3-4.5,0.1c-4.7-0.5-8.9-3-11.6-6.7L49.4,37
			c0.4-0.1,0.3-0.5,0-0.5l-11.2,0.8c1.6-1.5,2.8-3.4,2.6-6c-0.3-4.2-4.5-8.2-12.4-10.9c1.5-0.8,3.2-1.4,5-1.7c1.5-0.3,3-0.3,4.5-0.1
			C45,19.4,51.1,24.8,52.3,32.3z M19.9,37.7c0.4,2.2,1.2,4.3,2.3,6.1c4.2-1.2,8-3.4,9.3-8.4c1.5-5.5-0.2-11.2-4.2-14.3
			C21.9,24.5,18.7,31,19.9,37.7z"/>
	</g>
	<g>
		<g>
			<polygon class="st0" points="143.9,32.9 143.9,27.2 138.1,27.2 138.1,32.9 134.9,32.9 134.9,19.3 138.1,19.3 138.1,24.7 
				143.9,24.7 143.9,19.3 147,19.3 147,32.9 			"/>
			<path class="st0" d="M75.8,19.3v8.6c0,0.9,0.1,1.8,0.4,2.4c0.3,0.7,0.7,1.2,1.2,1.6c0.5,0.4,1.1,0.7,1.8,0.9
				c0.7,0.2,1.5,0.3,2.4,0.3c0.9,0,1.7-0.1,2.4-0.3c0.7-0.2,1.3-0.5,1.8-0.9c0.5-0.4,0.8-1,1.1-1.6c0.3-0.7,0.4-1.5,0.4-2.4v-8.6h-3
				v8.5c0,0.9-0.2,1.6-0.6,2.1c-0.4,0.5-1.1,0.8-2,0.8c-0.9,0-1.6-0.3-2-0.8c-0.4-0.5-0.6-1.2-0.6-2.1v-8.5H75.8z"/>
			<path class="st0" d="M66.7,32.9V21.8H63v-2.6h10.6v1.2c0,0.7-0.6,1.3-1.3,1.3h-2.4v11.1H66.7z"/>
			<rect x="117.4" y="19.3" class="st0" width="3.2" height="13.7"/>
			<path class="st0" d="M106.9,26.6l0.1,0.1l4,5.2c0.5,0.7,1.3,1,2.1,1h2.5l-5.8-7.4l-0.1-0.1l0.1-0.1l4.8-6.1h-3.3l-4.4,5.9
				l-0.1,0.1l0-0.2v-5.8h-3.2v13.7h3.2v-6.1L106.9,26.6z"/>
			<path class="st0" d="M99.6,32.9c-0.9,0-1.8-0.5-2.3-1.3l-2.5-4.1h-1.6v5.4h-3.2V19.3h5.6c1.4,0,2.6,0.4,3.4,1.1
				c0.8,0.7,1.2,1.8,1.2,3c0,0.6-0.2,1.3-0.5,1.9c-0.3,0.6-0.9,1.1-1.8,1.5l-0.2,0.1l3.8,6H99.6z M93.3,25.5h1.8
				c0.7,0,1.2-0.2,1.5-0.5c0.3-0.4,0.5-0.8,0.5-1.4c0-0.6-0.2-1-0.5-1.4c-0.3-0.4-0.8-0.5-1.5-0.5h-1.8V25.5z"/>
			<path class="st0" d="M123.2,32.3v-2.6c1,0.5,2.3,0.9,3.6,0.9c1.5,0,2.3-0.5,2.3-1.5c0-1.2-1-1.3-3.1-2.2
				c-1.4-0.6-2.8-1.6-2.8-3.9c0-2.7,2-3.9,4.8-3.9c1.5,0,2.8,0.4,3.5,0.6v2.6c-0.7-0.3-2-0.7-3.3-0.7c-1.4,0-2,0.5-2,1.4
				c0,0.9,0.8,1.2,2.2,1.7c1.8,0.9,3.9,1.3,3.9,4.4c0,2.7-2.1,4.1-5,4.1C125.6,33.1,124.3,32.8,123.2,32.3z"/>
		</g>
		<g>
			<path class="st0" d="M128.1,50.8V37.1h8.6v1.2c0,0.7-0.6,1.3-1.3,1.3h-4.1v2.9h4.6v2.3h-4.6v3.3h5.4v2.6H128.1z"/>
			<path class="st0" d="M96.9,50.8V37.1h1.5c0.9,0,1.6,0.7,1.6,1.6v9.6h5v2.5H96.9z"/>
			<rect x="77.3" y="37.1" class="st0" width="3.2" height="13.7"/>
			<path class="st0" d="M92.9,50.8c-0.9,0-1.8-0.5-2.3-1.3l-2.5-4.1h-1.6v5.4h-3.2V37.1H89c1.4,0,2.6,0.4,3.4,1.1
				c0.8,0.7,1.2,1.8,1.2,3c0,0.6-0.2,1.3-0.5,1.9c-0.3,0.6-0.9,1.1-1.8,1.5l-0.2,0.1l3.8,6H92.9z M86.6,43.4h1.8
				c0.7,0,1.2-0.2,1.5-0.5c0.3-0.4,0.5-0.8,0.5-1.4c0-0.6-0.2-1-0.5-1.4c-0.3-0.4-0.8-0.5-1.5-0.5h-1.8V43.4z"/>
			<path class="st0" d="M70.4,37.1h-3.6l-5.2,13.7h2.3c0.6,0,1.1-0.4,1.3-0.9l0.5-1.6h5.5l0.8,2.5h3.4L70.4,37.1z M66.5,45.8
				l1.2-3.5c0.3-0.8,0.6-1.6,0.7-2.2h0c0.2,0.6,0.4,1.4,0.7,2.2l1.2,3.5H66.5z"/>
			<path class="st0" d="M139.2,50.2v-2.6c1,0.5,2.3,0.9,3.6,0.9c1.5,0,2.3-0.5,2.3-1.5c0-1.2-1-1.3-3.1-2.2
				c-1.4-0.6-2.8-1.6-2.8-3.9c0-2.7,2-3.9,4.8-3.9c1.5,0,2.8,0.4,3.5,0.6v2.6c-0.7-0.3-2-0.7-3.3-0.7c-1.4,0-2,0.5-2,1.4
				c0,0.9,0.8,1.2,2.2,1.7c1.8,0.9,3.9,1.3,3.9,4.4c0,2.7-2.1,4.1-5,4.1C141.7,51,140.3,50.6,139.2,50.2z"/>
			<path class="st0" d="M113.2,37.1h2c0.9,0,1.8,0.5,2.3,1.3l3.8,6.1c0.4,0.7,0.9,1.6,1.2,2.2h0.1c0-0.6-0.1-1.5-0.1-2.1v-7.5h2.8
				v13.7h-3.5l-4.6-7.4c-0.4-0.7-0.9-1.5-1.2-2.1h0c0,0.6,0.1,1.3,0.1,2v7.5h-2.8V37.1z"/>
			<rect x="107.1" y="37.1" class="st0" width="3.2" height="13.7"/>
		</g>
	</g>
</g>
</svg>
