<svg width="16" height="16" viewBox="0 0 16 16" fill="none" xmlns="http://www.w3.org/2000/svg">
<rect width="16" height="16" fill="#081539"/>
<path d="M9.36071 6.80257C9.52159 6.73906 9.71506 6.78413 9.83317 6.91116C10.3667 7.44592 10.8982 7.98272 11.4318 8.51953C11.5825 8.67729 11.7597 8.81661 11.8594 9.01535C11.9368 9.17107 12.002 9.34112 12 9.51938C12 10.7507 12 11.9821 12 13.2135C12.002 13.3815 11.8798 13.5352 11.7271 13.5946C11.6314 13.6335 11.5234 13.6192 11.4236 13.6212C9.08987 13.6212 6.7561 13.6212 4.42233 13.6212C4.19221 13.6274 3.98653 13.4081 4.00078 13.1766C4.00282 12.4472 4.00078 11.7178 4.00078 10.9884C4.00078 10.8266 4.10871 10.677 4.2533 10.6114C4.3592 10.5602 4.47935 10.5725 4.59339 10.5704C4.79703 10.5725 5.00068 10.5663 5.20432 10.5725C5.41815 10.5807 5.60754 10.7712 5.61161 10.9884C5.61976 11.1933 5.60958 11.4002 5.61568 11.6051C5.61161 11.7793 5.73176 11.9452 5.89468 12.0067C5.98835 12.0436 6.09221 12.0374 6.192 12.0374C7.44849 12.0354 8.70498 12.0395 9.96147 12.0374C10.1895 12.0374 10.3912 11.8346 10.3871 11.6051C10.3891 11.1728 10.3871 10.7405 10.3891 10.3102C10.3952 9.98242 10.2669 9.6505 10.0327 9.42103C9.58472 8.97233 9.1367 8.52157 8.68869 8.07082C8.5217 7.91511 8.50948 7.63032 8.66221 7.46026C8.7844 7.32299 8.92288 7.198 9.05117 7.06278C9.14485 6.96853 9.23038 6.85174 9.36071 6.80257ZM4.2981 2.01641C4.33883 2.00616 4.37956 2.00002 4.42029 2.00002C6.81108 2.00002 9.20187 2.00002 11.5927 2.00002C11.8045 1.99797 12 2.19261 11.9979 2.40569C11.9979 3.14738 11.9979 3.88908 11.9979 4.63077C12.002 4.84795 11.8045 5.04054 11.5906 5.04259C11.33 5.04464 11.0693 5.04464 10.8086 5.04259C10.6376 5.04259 10.4787 4.92376 10.4156 4.76599C10.3362 4.46071 10.4543 4.12675 10.3443 3.82761C10.273 3.68214 10.1203 3.58175 9.95943 3.58175C8.6561 3.58175 7.35481 3.58175 6.05148 3.58175C5.82137 3.57355 5.60754 3.78049 5.61772 4.01201C5.61772 4.44637 5.61772 4.87868 5.61772 5.31304C5.6055 5.64291 5.74194 5.97688 5.98021 6.2043C6.42823 6.65505 6.87625 7.10375 7.32427 7.55656C7.47293 7.70407 7.49329 7.96223 7.36703 8.12819C7.24688 8.27161 7.10433 8.39659 6.97603 8.53182C6.85181 8.6486 6.74591 8.80842 6.56671 8.83505C6.40786 8.86784 6.24698 8.79612 6.14109 8.67934C5.57699 8.10975 5.00882 7.54016 4.44269 6.97058C4.19221 6.75135 4.013 6.43787 4.00078 6.09981C4.00078 4.88073 4.00078 3.66165 4.00078 2.44257C3.98856 2.25408 4.12093 2.07173 4.2981 2.01641Z" fill="#FF7B07"/>
<path d="M7.86246 9.66141C8.01723 9.62658 8.18625 9.67575 8.29826 9.78844C8.86032 10.3539 9.42238 10.9194 9.98444 11.4849C10.0557 11.5525 10.1229 11.6837 10.0333 11.7615C9.95389 11.8189 9.85003 11.8148 9.75839 11.8189C8.5854 11.8189 7.4124 11.8168 6.24144 11.8189C6.12537 11.8148 5.99503 11.8312 5.89321 11.7595C5.80564 11.6796 5.87285 11.5525 5.94209 11.4849C6.496 10.9256 7.05195 10.3683 7.60586 9.80893C7.67307 9.73722 7.76063 9.67985 7.86246 9.66141Z" fill="white"/>
<path d="M5.94731 3.85271C6.00433 3.83222 6.06542 3.83222 6.12652 3.82812C7.34838 3.82812 8.57025 3.82812 9.79212 3.82812C9.88784 3.83222 10.008 3.83017 10.065 3.92237C10.0956 4.01867 10.0365 4.10882 9.97133 4.17439C9.41538 4.73168 8.86147 5.29102 8.30552 5.84831C8.12631 6.04091 7.79437 6.04091 7.6172 5.84627C7.05514 5.28078 6.49308 4.71734 5.93305 4.1498C5.91473 4.13546 5.89843 4.11497 5.88418 4.09243C5.83327 4.00638 5.83327 3.88345 5.94731 3.85271Z" fill="white"/>
</svg>
