<svg id="katman_1" data-name="katman 1" xmlns="http://www.w3.org/2000/svg" viewBox="0 0 186 54"><defs><style>.cls-1,.cls-2{fill:#fff;}.cls-2{fill-rule:evenodd;}</style></defs><title>logo-register</title><polygon class="cls-1" points="10.97 42.7 19.22 42.7 20.64 35.22 12.38 35.22 10.97 42.7"/><polygon class="cls-1" points="1.73 23.52 0.31 31 21.3 31 22.72 23.52 1.73 23.52"/><path class="cls-2" d="M90.77,27.93q1-6.42-1.7-10.92-3.28-5.54-10.71-5.54a17.08,17.08,0,0,0-12,4.51,18.89,18.89,0,0,0-6,11.56q-1.08,7.26,2.37,11.63c2.39,3,6,4.47,10.77,4.47q11,0,15.86-10.3H82a5.7,5.7,0,0,1-3,2.95,9.25,9.25,0,0,1-4.11,1q-7.16,0-6.39-7.71h22c.11-.58.2-1.14.29-1.68M69.26,24.24a7.92,7.92,0,0,1,8-6.52q5.51,0,5.7,6.52Z"/><polygon class="cls-2" points="142.29 3.08 140.92 12.22 147.07 12.22 146.23 17.85 140.07 17.85 136.33 42.8 127.94 42.8 131.68 17.85 126.6 17.85 127.44 12.22 132.53 12.22 133.9 3.08 142.29 3.08"/><path class="cls-2" d="M92.49,42.8l4.57-30.48H105l-.64,4.26h.19a12.17,12.17,0,0,1,10.11-5c4.12,0,6.87,1.08,8.26,3.26q1.89,2.94.94,9.26l-2.8,18.7h-8.37l2.58-17.18q1.13-7.49-4.24-7.49-6.45,0-7.77,8.75L100.88,42.8Z"/><path class="cls-1" d="M170.45,12.22l-.44,2.9a10.19,10.19,0,0,0-8-3.65A17,17,0,0,0,150,16a18.79,18.79,0,0,0-6,11.56Q143,34.8,146.43,39.17t10.76,4.47c3.58,0,6.31-1.39,9.08-3.55l-.41,2.71H173l4.58-30.58ZM157.86,36.93c-4.61,0-7.72-4.2-7-9.37s5.15-9.38,9.76-9.38,7.72,4.2,6.94,9.38-5.14,9.37-9.75,9.37"/><path class="cls-2" d="M47.08,12.16,30.56,12.1,27.73,31h8.41L37.9,19.25l5.24,0c4.66,0,8.17,1.91,7.24,8.14s-5,8.12-9.65,8.14H35.45v0H27.05L24.32,53.72h8.41L34.37,42.8h8.17c8.77,0,14.79-6.88,16.06-15.32S55.83,12.19,47.08,12.16"/><path class="cls-1" d="M179.82,13.84a2.89,2.89,0,1,1,2.89,2.89A2.89,2.89,0,0,1,179.82,13.84Zm.38,0a2.51,2.51,0,1,0,5,0,2.51,2.51,0,0,0-5,0Zm2.44.36H182v1.31h-.43V12.19H183a1,1,0,0,1,1,1,1,1,0,0,1-.85,1l.89,1.33h-.55Zm-.6-1.63V13.8H183a.59.59,0,0,0,.6-.6.6.6,0,0,0-.6-.63Z"/></svg>