<!DOCTYPE svg PUBLIC "-//W3C//DTD SVG 20010904//EN" "http://www.w3.org/TR/2001/REC-SVG-20010904/DTD/svg10.dtd">
<svg version="1.0" xmlns="http://www.w3.org/2000/svg" width="592px" height="72px" viewBox="0 0 5920 720" preserveAspectRatio="xMidYMid meet">
<g id="layer101" fill="#ffffff" stroke="none">
 <path d="M2254 710 c-82 -9 -119 -26 -162 -74 -45 -52 -56 -115 -49 -302 10 -298 35 -320 382 -330 237 -8 401 6 465 39 85 44 117 146 107 351 -3 67 -11 143 -17 170 -16 60 -61 107 -121 125 -89 27 -434 39 -605 21z m466 -181 c45 -16 60 -58 60 -169 0 -105 -16 -155 -55 -170 -34 -13 -376 -13 -410 0 -43 16 -58 68 -53 191 3 110 11 133 53 149 31 13 367 12 405 -1z"/>
 <path d="M10 375 l0 -335 24 -15 c21 -14 66 -16 348 -13 318 3 324 3 372 27 41 20 52 33 73 78 23 49 24 63 21 171 -4 148 -20 185 -93 222 -49 24 -57 25 -292 28 l-243 4 0 84 0 84 -105 0 -105 0 0 -335z m598 -31 c18 -12 22 -25 22 -67 0 -29 -4 -58 -9 -65 -14 -23 -80 -32 -243 -32 l-158 0 0 90 0 90 183 0 c149 0 187 -3 205 -16z"/>
 <path d="M1000 381 l0 -330 27 -21 c26 -21 33 -21 377 -18 351 3 351 3 393 27 63 36 83 84 83 197 0 112 -17 150 -79 181 l-44 22 29 11 c16 6 34 12 41 15 31 11 47 59 51 151 l4 94 -109 0 -110 0 -6 -72 c-4 -45 -12 -77 -22 -87 -13 -13 -50 -17 -215 -19 l-200 -3 0 90 0 91 -110 0 -110 0 0 -329z m630 -34 c22 -11 25 -20 28 -73 4 -90 7 -88 -235 -92 l-203 -4 0 91 0 91 193 0 c134 0 200 -4 217 -13z"/>
 <path d="M3162 379 l3 -331 24 -19 c22 -18 43 -19 366 -19 l343 0 6 31 c3 17 6 53 6 80 l0 49 -265 0 -265 0 0 60 0 60 265 0 266 0 -3 68 -3 67 -262 3 -263 2 0 140 0 140 -110 0 -111 0 3 -331z"/>
 <path d="M4030 380 c0 -317 1 -331 20 -350 19 -19 33 -20 390 -20 l370 0 0 80 0 80 -280 0 -280 0 0 60 0 60 260 0 260 0 0 70 0 70 -260 0 -260 0 0 60 0 60 280 0 280 0 0 80 0 80 -390 0 -390 0 0 -330z"/>
 <path d="M4960 387 c0 -314 1 -325 21 -351 l21 -27 151 3 152 3 205 255 205 255 3 -258 2 -257 100 0 100 0 0 350 0 350 -170 0 -169 0 -206 -255 c-113 -140 -208 -255 -211 -255 -3 0 -4 114 -3 253 l3 252 -102 3 -102 3 0 -324z"/>
 </g>

</svg>