<svg xmlns="http://www.w3.org/2000/svg" width="172" height="46" viewBox="0 0 172 46"><g transform="translate(1 1)"><path d="M0,23.23V8.04l14.53,7.64-8.7,4.57V26.3ZM10.73,11.51,18,7.69V0l7.26,3.96V19.15Z" transform="translate(0 8.3)" fill="#59b455"/><path d="M0,8.02,15.25,0V15.19L0,23.22V8.02Z" transform="translate(0 0)" fill="#008f47"/><path d="M16.6,15.2,0,23.96V8.77L16.6,0V15.2Z" transform="translate(8.66 20.57)" fill="#026938"/><path d="M85.91,29.181h-.163a10.268,10.268,0,0,1-2.017-.2,6.7,6.7,0,0,1-1.79-.68,9.323,9.323,0,0,1-1.66-1.23l2.06-2a5.685,5.685,0,0,0,1.58,1.09,4.608,4.608,0,0,0,1.723.332l.138,0c.079.005.16.008.24.008a3.37,3.37,0,0,0,2.569-1.188,4.6,4.6,0,0,0,.92-2.921V20.31a4.983,4.983,0,0,1-1.82,1.41,6.5,6.5,0,0,1-4.43,0,4.391,4.391,0,0,1-1.66-1.05,5.271,5.271,0,0,1-1.43-2.62,18.147,18.147,0,0,1-.35-3.88,17.655,17.655,0,0,1,.36-3.88,5.273,5.273,0,0,1,1.42-2.62,4.524,4.524,0,0,1,1.63-1,6.343,6.343,0,0,1,2.113-.361h.077c.044,0,.088,0,.132,0a5.864,5.864,0,0,1,2.187.421,5.005,5.005,0,0,1,1.86,1.58V6.56h3.11v15.9a7.4,7.4,0,0,1-.821,3.5,6,6,0,0,1-2.35,2.35,7.312,7.312,0,0,1-3.459.872Zm-2.24-18.53a8.586,8.586,0,0,0-.65,3.659,8.667,8.667,0,0,0,.65,3.67,3.17,3.17,0,0,0,5.2,0,8.72,8.72,0,0,0,.64-3.67v-.05a8.773,8.773,0,0,0-.64-3.65,2.571,2.571,0,0,0-2.246-1.323,2.443,2.443,0,0,0-.344.023,2.479,2.479,0,0,0-.327-.021A2.6,2.6,0,0,0,83.67,10.651Zm25.979,10.2a6.086,6.086,0,0,1-1.419-2.61,13.88,13.88,0,0,1-.41-3.69,14.27,14.27,0,0,1,.41-3.67,6.151,6.151,0,0,1,1.419-2.569,5.476,5.476,0,0,1,1.21-1,6.325,6.325,0,0,1,1.61-.671,6.976,6.976,0,0,1,1.89-.26h.03l.123,0a6.809,6.809,0,0,1,2.647.532,5.841,5.841,0,0,1,2,1.37,6.009,6.009,0,0,1,1.48,2.61,14.264,14.264,0,0,1,.4,3.66,14.712,14.712,0,0,1-.4,3.69,5.927,5.927,0,0,1-1.49,2.61,6.912,6.912,0,0,1-9.5,0Zm2.41-10.68a3.343,3.343,0,0,0-.83,1.741,13.258,13.258,0,0,0-.22,2.64,13.11,13.11,0,0,0,.22,2.63,3.34,3.34,0,0,0,.87,1.741,3.165,3.165,0,0,0,2.3,1h.089a3.1,3.1,0,0,0,2.277-1,3.286,3.286,0,0,0,.889-1.741,13.76,13.76,0,0,0,.18-2.63,13.976,13.976,0,0,0-.22-2.64,3.294,3.294,0,0,0-.89-1.741,3.088,3.088,0,0,0-2.185-.914c-.051,0-.1,0-.155,0l-.121,0A3.109,3.109,0,0,0,112.06,10.17ZM42.01,22.74H41.98a6.337,6.337,0,0,1-2.169-.381,5.009,5.009,0,0,1-1.69-1,4.964,4.964,0,0,1-1.14-1.85,9.448,9.448,0,0,1-.51-2.25,27.779,27.779,0,0,1,0-5.36,9.54,9.54,0,0,1,.51-2.24,4.911,4.911,0,0,1,1.14-1.83,4.484,4.484,0,0,1,1.69-1.06,6.632,6.632,0,0,1,4.51,0,4.716,4.716,0,0,1,1.91,1.4V.09h3.2L49.38,22.56H46.23V20.85A5.4,5.4,0,0,1,45,21.99a4.747,4.747,0,0,1-1.35.58,7.326,7.326,0,0,1-1.569.17ZM43.2,19.877A2.609,2.609,0,0,0,45.53,18.45a9.394,9.394,0,0,0,.7-3.9l-.05.01a13.659,13.659,0,0,0-.249-2.77,3.427,3.427,0,0,0-1-1.84,3.527,3.527,0,0,0-4.18,0,3.437,3.437,0,0,0-1,1.83,13.658,13.658,0,0,0-.24,2.77,13.8,13.8,0,0,0,.29,2.759,3.546,3.546,0,0,0,1,1.85,3.006,3.006,0,0,0,1.933.7c.055,0,.111,0,.167,0A2.725,2.725,0,0,0,43.2,19.877ZM26.5,22.71l-.161,0a9,9,0,0,1-2.659-.4,5.927,5.927,0,0,1-2.28-1.42,6.713,6.713,0,0,1-1.5-2.58,11.762,11.762,0,0,1-.54-3.79,10.449,10.449,0,0,1,.87-4.38,6.4,6.4,0,0,1,2.32-2.83,6.54,6.54,0,0,1,3.479-1h.184a6.679,6.679,0,0,1,3.516,1,6.188,6.188,0,0,1,2.33,2.72,9.439,9.439,0,0,1,.8,4v1.45H22.53a5.477,5.477,0,0,0,.481,2.4,3.518,3.518,0,0,0,1.37,1.541,4.14,4.14,0,0,0,2.066.553l.144,0c.069,0,.139,0,.208,0A5.113,5.113,0,0,0,28.72,19.6a6.52,6.52,0,0,0,1.74-1.291l2,1.91a9.073,9.073,0,0,1-2.631,1.9,8.1,8.1,0,0,1-3.054.594C26.684,22.714,26.591,22.713,26.5,22.71ZM24.15,9.6A3.225,3.225,0,0,0,22.92,11.08a4.022,4.022,0,0,0-.291.87,4.17,4.17,0,0,1-.046.477c-.028.221-.063.5-.084.823h7.19a6.1,6.1,0,0,0-.46-2.17A3.22,3.22,0,0,0,28.03,9.6a3.373,3.373,0,0,0-1.865-.561h-.133A3.428,3.428,0,0,0,24.15,9.6Zm38.6,13.01v-16h3.14V8.22a5.417,5.417,0,0,1,1.92-1.34,6.009,6.009,0,0,1,2.31-.47A5.36,5.36,0,0,1,74.05,7.88a6,6,0,0,1,1.6,4.5V22.56h-3.2V12.82a4.3,4.3,0,0,0-.42-2A2.694,2.694,0,0,0,70.89,9.65a3.4,3.4,0,0,0-1.66-.34,3.274,3.274,0,0,0-2.37.9,3.538,3.538,0,0,0-.92,2.66v9.74Zm62.581-.04v-16h3.139V8.18a5.421,5.421,0,0,1,1.921-1.34,5.988,5.988,0,0,1,2.309-.47,5.342,5.342,0,0,1,3.93,1.47,6,6,0,0,1,1.6,4.47V22.56h-3.2V12.82a4.314,4.314,0,0,0-.419-2,2.7,2.7,0,0,0-1.14-1.17,3.393,3.393,0,0,0-1.64-.38,3.272,3.272,0,0,0-2.371.9,3.58,3.58,0,0,0-.92,2.66v9.74Zm-25.2-.63a3.91,3.91,0,0,1-1.48-1.63,5.116,5.116,0,0,1-.49-2.22V9.31H96.35V6.84h1.81V1.99h3.2V6.84h3.08V9.31h-3.08v8.64q0,1.86,1.77,1.86h1.31v2.75h-1.91l-.129,0A4.455,4.455,0,0,1,100.13,21.94Zm-96.721.621L0,22.559V.09H8.827A7.707,7.707,0,0,1,12.32.93a5.991,5.991,0,0,1,2.44,2.38,6.814,6.814,0,0,1,.85,3.4,6.007,6.007,0,0,1-1.229,3.87,6.126,6.126,0,0,1-3.21,2.1L16.3,22.559h-4l-4.66-9.45H3.41v9.452Zm.05-12.4h5c.075,0,.15.006.225.006a4,4,0,0,0,2.545-.916,3.254,3.254,0,0,0,1-2.56,3.339,3.339,0,0,0-1-2.59,3.942,3.942,0,0,0-2.56-.945c-.07,0-.141,0-.211.005h-5Zm54.21,12.4H54.46v-16h3.21v16h0Zm.09-19.16H54.37V0h3.39V3.4h0Z" transform="translate(31.77 12.69)" fill="#008f47"/></g></svg>