<?xml version="1.0" encoding="UTF-8"?>
<!-- Generator: Adobe Illustrator 28.1.0, SVG Export Plug-In . SVG Version: 6.00 Build 0)  -->
<svg xmlns="http://www.w3.org/2000/svg" xmlns:xlink="http://www.w3.org/1999/xlink" version="1.1" id="Layer_1" x="0px" y="0px" viewBox="0 0 241.9 55" style="enable-background:new 0 0 241.9 55;" xml:space="preserve">
<style type="text/css">
	.st0{fill-rule:evenodd;clip-rule:evenodd;fill:#FFFFFF;}
	.st1{fill:#FFFFFF;}
</style>
<g>
	<g>
		<g>
			<g>
				<polygon class="st0" points="109.4,6.1 110.6,6.1 100.2,47.7 99,47.7     "></polygon>
				<polygon class="st0" points="118.8,6.1 120,6.1 109.6,47.7 108.4,47.7     "></polygon>
				<polygon class="st0" points="116.5,6.1 117.6,6.1 107.2,47.7 106.1,47.7     "></polygon>
				<polygon class="st0" points="111.8,6.1 113,6.1 102.6,47.7 101.4,47.7     "></polygon>
				<polygon class="st0" points="114.2,6.1 115.3,6.1 104.9,47.7 103.8,47.7     "></polygon>
				<path class="st0" d="M107.1,6.1l-4.6,18.7L95.3,6.1H83.2l-9.3,38l-3.8-38H56.5l-19,32.2c0.2-0.7,0.4-1.4,0.5-2.1      c0.1-0.8,0.2-1.5,0.2-2.3c0-2-0.4-3.7-1.2-5.1c0-0.1-0.1-0.1-0.1-0.2c-0.8-1.3-1.8-2.5-3.2-3.5c-0.1-0.1-0.2-0.2-0.4-0.3      c-1-0.7-2-1.4-3.2-2c-0.1-0.1-0.3-0.2-0.5-0.2c-0.3-0.2-0.6-0.3-1-0.5c-1.6-0.8-2.8-1.4-3.6-1.8c-0.1-0.1-0.2-0.1-0.4-0.2      c-0.6-0.4-1-0.7-1.3-1s-0.4-0.7-0.4-1.1c0-0.6,0.3-1.1,0.8-1.5c0.3-0.2,0.6-0.3,0.9-0.4c0.4-0.1,0.8-0.2,1.3-0.2      c1.2,0,2.4,0.2,3.6,0.6c0.2,0,0.3,0.1,0.5,0.2c0.4,0.2,0.9,0.3,1.3,0.5c1.7,0.8,3.2,1.7,4.5,2.8l6.9-9.2      c-0.2-0.2-0.4-0.3-0.6-0.5c-0.6-0.5-1.3-1-1.9-1.4c-1.4-0.9-3-1.6-4.6-2.2c-1.8-0.6-3.6-1.1-5.5-1.3c-0.1,0-0.3,0-0.5-0.1      c-0.9-0.1-1.8-0.1-2.7-0.1c-0.8,0-1.5,0-2.2,0.1c-1.9,0.2-3.7,0.6-5.3,1.2c-0.9,0.3-1.7,0.7-2.4,1.1c-0.7,0.4-1.4,0.8-2,1.3      c-0.4,0.3-0.8,0.7-1.1,1c-1.3,1.3-2.3,2.8-2.9,4.4c-0.7,1.6-1.1,3.4-1.1,5.3c0,1.9,0.4,3.5,1.1,4.9c0.7,1.4,1.8,2.6,3.2,3.7      s3.2,2.1,5.3,3.1c1.5,0.7,2.6,1.3,3.4,1.7c0.8,0.5,1.3,0.8,1.6,1.2c0.3,0.3,0.4,0.7,0.4,1.1c0,0.2,0,0.5-0.1,0.7      c-0.1,0.3-0.4,0.6-0.7,0.8c-0.5,0.4-1.2,0.5-2.1,0.5c-1.4,0-2.9-0.3-4.4-0.8c-0.4-0.2-0.9-0.3-1.4-0.5c-2-0.9-4-2.2-6-3.9      l-6.6,9.5c1.6,1.4,3.3,2.6,5.2,3.6c0.9,0.4,1.7,0.8,2.7,1.2c1.9,0.8,4,1.3,6.1,1.5c1.2,0.2,2.3,0.2,3.5,0.2      c1.9,0,3.7-0.2,5.3-0.6c0.8-0.2,1.5-0.4,2.2-0.6c0.4-0.1,0.7-0.3,1-0.4c0.2-0.1,0.3-0.1,0.5-0.2c1.5-0.7,2.9-1.7,4-2.8      c0.1-0.1,0.2-0.2,0.3-0.3L32,47.7h13.7l3.2-5.9h11.7l0.4,5.9h24.7l4.8-19.6l7.4,19.6l10.4-41.6L107.1,6.1L107.1,6.1z M53.9,32.3      l5.7-10.8l0.5,10.8H53.9z"></path>
			</g>
		</g>
		<g>
			<g>
				<path class="st0" d="M166.8,40.5c0.4-0.1,0.7-0.2,1-0.4s0.5-0.4,0.7-0.7s0.2-0.7,0.2-1.1l0,0c0-0.3-0.1-0.6-0.1-0.8      c-0.1-0.3-0.2-0.5-0.4-0.7s-0.5-0.4-0.8-0.5s-0.7-0.2-1.1-0.2h-2.5v7.6h0.5v-3.1h2l2.1,3.1h0.7L166.8,40.5z M166.1,40.1h-1.8      v-3.5h1.9c0.6,0,1.1,0.2,1.5,0.5s0.5,0.7,0.6,1.3l0,0c0,0.5-0.2,1-0.6,1.3C167.3,39.9,166.8,40.1,166.1,40.1z"></path>
				<path class="st0" d="M153.7,37.5c-0.3,0.2-0.6,0.5-0.8,1c-0.2,0.4-0.3,0.9-0.3,1.4V40c0,0.6,0.1,1.1,0.3,1.5s0.4,0.7,0.8,0.9      s0.7,0.3,1.1,0.3c0.3,0,0.5,0,0.8-0.1c0.2-0.1,0.4-0.2,0.6-0.3v-1.7h-1.6v-1.1h2.8v3.4c-0.3,0.3-0.7,0.5-1.1,0.7      c-0.4,0.2-0.9,0.3-1.5,0.3c-0.7,0-1.3-0.2-1.8-0.5s-0.9-0.8-1.2-1.3c-0.3-0.6-0.4-1.3-0.4-2V40c0-0.8,0.2-1.4,0.4-2      c0.3-0.6,0.7-1,1.2-1.4c0.5-0.3,1.1-0.5,1.8-0.5c0.5,0,1,0.1,1.3,0.2c0.4,0.1,0.7,0.4,1.1,0.6l-0.8,1c-0.2-0.2-0.4-0.4-0.7-0.5      s-0.6-0.2-1-0.2C154.4,37.1,154.1,37.3,153.7,37.5z"></path>
				<path class="st0" d="M203.7,37.2c-0.2-0.3-0.5-0.6-0.9-0.8s-0.9-0.3-1.4-0.3h-2.2v7.6h0.5v-2.8h1.6c0.5,0,1-0.1,1.4-0.3      s0.7-0.5,1-0.8c0.2-0.4,0.4-0.8,0.4-1.3l0,0C204,37.9,203.9,37.5,203.7,37.2z M203.5,38.5c0,0.6-0.2,1.1-0.6,1.4      c-0.4,0.3-0.9,0.5-1.6,0.5h-1.6v-3.8h1.6c0.4,0,0.8,0.1,1.1,0.2c0.3,0.1,0.6,0.3,0.7,0.6C203.4,37.7,203.5,38,203.5,38.5      L203.5,38.5L203.5,38.5z"></path>
				<path class="st0" d="M180.8,37.8c-0.3-0.6-0.6-1-1.1-1.4c-0.5-0.3-1-0.5-1.7-0.5c-0.6,0-1.2,0.2-1.7,0.5s-0.9,0.8-1.1,1.4      c-0.3,0.6-0.4,1.2-0.4,2v0.1c0,0.8,0.1,1.4,0.4,2c0.3,0.6,0.6,1,1.1,1.4c0.5,0.3,1,0.5,1.7,0.5c0.6,0,1.2-0.2,1.7-0.5      s0.9-0.8,1.1-1.4c0.3-0.6,0.4-1.2,0.4-2v-0.1C181.2,39.1,181.1,38.4,180.8,37.8z M180.6,39.9c0,0.7-0.1,1.2-0.4,1.7      c-0.2,0.5-0.5,0.9-0.9,1.2s-0.9,0.4-1.4,0.4s-1-0.2-1.4-0.4c-0.4-0.3-0.7-0.7-0.9-1.2s-0.4-1.1-0.4-1.8v-0.1      c0-0.7,0.1-1.2,0.4-1.8c0.2-0.5,0.5-0.9,0.9-1.2s0.9-0.4,1.4-0.4s1,0.2,1.4,0.5s0.7,0.7,0.9,1.2      C180.5,38.6,180.6,39.2,180.6,39.9L180.6,39.9z"></path>
				<path class="st0" d="M187.4,36.1h0.5v4.8c0,0.8,0.2,1.4,0.6,1.8c0.4,0.4,0.9,0.6,1.6,0.6c0.6,0,1.2-0.2,1.5-0.6      c0.4-0.4,0.6-1,0.6-1.8v-4.8h0.5v4.8c0,0.6-0.1,1.2-0.3,1.6c-0.2,0.4-0.5,0.8-0.9,1s-0.9,0.3-1.4,0.3s-1-0.1-1.4-0.3      s-0.7-0.6-0.9-1s-0.3-1-0.3-1.6L187.4,36.1z"></path>
			</g>
			<g>
				<path class="st0" d="M189.8,14.5c0.4-0.1,0.7-0.2,1-0.4s0.5-0.4,0.7-0.7s0.2-0.7,0.2-1.1l0,0c0-0.3-0.1-0.6-0.1-0.8      c-0.1-0.3-0.2-0.5-0.4-0.7s-0.5-0.4-0.8-0.5s-0.7-0.2-1.1-0.2h-2.5v7.6h0.5v-3.1h2l2.1,3.1h0.7L189.8,14.5z M189.1,14.1h-1.8      v-3.5h1.9c0.6,0,1.1,0.2,1.5,0.5s0.6,0.7,0.6,1.3l0,0c0,0.5-0.2,1-0.6,1.3C190.3,14,189.8,14.1,189.1,14.1z"></path>
				<path class="st0" d="M179.7,10.1h0.5v4.8c0,0.6-0.1,1.2-0.3,1.6s-0.5,0.8-0.9,1s-0.9,0.3-1.4,0.3s-1-0.1-1.4-0.3s-0.7-0.5-0.9-1      c-0.2-0.4-0.3-1-0.3-1.6v-4.8h0.5v4.8c0,0.8,0.2,1.4,0.6,1.8c0.4,0.4,0.9,0.6,1.6,0.6c0.6,0,1.2-0.2,1.5-0.6      c0.4-0.4,0.6-1,0.6-1.8L179.7,10.1L179.7,10.1z"></path>
				<polygon class="st0" points="221.6,10.1 222.1,10.1 222.1,17.8 221.6,17.8 221.6,11.1 219,15.6 219,15.6 216.4,11.1 216.4,17.8       215.9,17.8 215.9,10.1 216.5,10.1 219,14.6     "></polygon>
				<rect x="198.2" y="10.1" class="st0" width="0.5" height="7.6"></rect>
				<path class="st0" d="M208.3,10.7c-0.3-0.1-0.6-0.2-1-0.2c-0.3,0-0.6,0.1-0.9,0.2c-0.2,0.1-0.4,0.3-0.6,0.5      c-0.1,0.2-0.2,0.4-0.2,0.7l0,0c0,0.2,0.1,0.5,0.1,0.7c0.1,0.2,0.3,0.4,0.6,0.5c0.3,0.2,0.7,0.3,1.2,0.5s1,0.4,1.3,0.6      c0.3,0.2,0.5,0.5,0.7,0.7s0.2,0.5,0.2,0.8l0,0c0,0.4-0.1,0.7-0.3,1s-0.5,0.5-0.8,0.7s-0.7,0.2-1.2,0.3c-0.5,0-0.9-0.1-1.4-0.2      s-0.8-0.4-1.2-0.8l0.4-0.4c0.3,0.3,0.7,0.6,1,0.7c0.4,0.2,0.8,0.2,1.2,0.2c0.3,0,0.6-0.1,0.9-0.2s0.5-0.3,0.6-0.5      s0.2-0.5,0.2-0.8l0,0c0-0.2,0-0.5-0.1-0.7s-0.3-0.4-0.6-0.5c-0.3-0.2-0.6-0.3-1.1-0.5c-0.6-0.2-1-0.4-1.3-0.6      c-0.3-0.2-0.6-0.4-0.7-0.7c-0.1-0.3-0.2-0.5-0.2-0.9l0,0c0-0.4,0.1-0.7,0.3-1s0.4-0.5,0.8-0.7c0.3-0.2,0.7-0.3,1.1-0.3      s0.8,0.1,1.2,0.2s0.7,0.3,1,0.6l-0.3,0.4C208.9,11,208.6,10.8,208.3,10.7z"></path>
				<path class="st0" d="M168.3,11.9c-0.3-0.6-0.6-1-1.1-1.4c-0.5-0.3-1-0.5-1.7-0.5c-0.6,0-1.2,0.2-1.7,0.5s-0.9,0.8-1.1,1.4      c-0.3,0.6-0.4,1.2-0.4,2V14c0,0.8,0.1,1.4,0.4,2c0.3,0.6,0.6,1,1.1,1.4c0.5,0.3,1,0.5,1.7,0.5c0.6,0,1.2-0.2,1.7-0.5      s0.9-0.8,1.1-1.4c0.3-0.6,0.4-1.2,0.4-2v-0.1C168.7,13.2,168.6,12.5,168.3,11.9z M168.2,14c0,0.7-0.1,1.2-0.4,1.8      c-0.2,0.5-0.5,0.9-0.9,1.2s-0.9,0.4-1.4,0.4s-1-0.2-1.4-0.5s-0.7-0.7-0.9-1.2c-0.2-0.5-0.4-1.1-0.4-1.8v-0.1      c0-0.7,0.1-1.2,0.4-1.8c0.2-0.5,0.5-0.9,0.9-1.2s0.9-0.4,1.4-0.4s1,0.2,1.4,0.5s0.7,0.7,0.9,1.2C168,12.7,168.2,13.3,168.2,14      L168.2,14z"></path>
				<polygon class="st0" points="151.4,10.1 151.4,11.3 153.4,11.3 153.4,17.8 154.6,17.8 154.6,11.3 156.6,11.3 156.6,10.1     "></polygon>
			</g>
			<g>
				<path class="st0" d="M213.3,23.1h-0.6l-3,7.7h0.6l0.8-2.1h3.7l0.8,2.1h0.6L213.3,23.1z M211.3,28.1l1.7-4.4l1.7,4.4H211.3z"></path>
				<path class="st0" d="M225.4,27.5c0.4-0.1,0.7-0.2,1-0.4c0.3-0.2,0.5-0.4,0.7-0.7c0.2-0.3,0.2-0.7,0.2-1.1l0,0      c0-0.3-0.1-0.6-0.1-0.8c-0.1-0.3-0.2-0.5-0.4-0.7s-0.5-0.4-0.8-0.5s-0.7-0.2-1.1-0.2h-2.5v7.6h0.5v-3.1h2l2.1,3.1h0.7      L225.4,27.5z M224.6,27.1h-1.8v-3.5h1.9c0.6,0,1.1,0.2,1.5,0.5s0.6,0.7,0.6,1.3l0,0c0,0.5-0.2,1-0.6,1.3      C225.8,26.9,225.3,27.1,224.6,27.1z"></path>
				<polygon class="st0" points="234.1,23.6 234.1,26.6 237.8,26.6 237.8,27.1 234.1,27.1 234.1,30.2 238.2,30.2 238.2,30.7       233.6,30.7 233.6,23.1 238.2,23.1 238.2,23.6     "></polygon>
				<path class="st0" d="M168.8,26.9c0-0.8-0.1-1.4-0.4-2c-0.3-0.6-0.6-1-1.1-1.4c-0.5-0.3-1-0.5-1.7-0.5c-0.6,0-1.2,0.2-1.7,0.5      s-0.9,0.8-1.1,1.4c-0.3,0.6-0.4,1.2-0.4,2V27c0,0.8,0.1,1.4,0.4,2c0.3,0.6,0.6,1,1.1,1.4c0.5,0.3,1,0.5,1.7,0.5      c0.6,0,1.2-0.2,1.7-0.5s0.9-0.8,1.1-1.4C168.6,28.4,168.8,27.7,168.8,26.9L168.8,26.9z M167.9,28.7c-0.2,0.5-0.5,0.9-0.9,1.2      c-0.4,0.3-0.9,0.4-1.4,0.4s-1-0.2-1.4-0.5s-0.7-0.7-0.9-1.2s-0.4-1.1-0.4-1.8v-0.1c0-0.7,0.1-1.2,0.4-1.8      c0.2-0.5,0.5-0.9,0.9-1.2c0.4-0.3,0.9-0.4,1.4-0.4s1,0.2,1.4,0.5s0.7,0.7,0.9,1.2s0.4,1.1,0.4,1.8V27      C168.2,27.6,168.1,28.2,167.9,28.7z"></path>
				<path class="st0" d="M151.9,26.2c-0.2-0.3-0.2-0.6-0.2-1l0,0c0-0.4,0.1-0.8,0.3-1.1c0.2-0.3,0.5-0.6,0.9-0.8s0.8-0.3,1.3-0.3      c0.4,0,0.9,0.1,1.3,0.2c0.4,0.2,0.8,0.4,1.1,0.7l-0.7,1c-0.3-0.2-0.5-0.4-0.8-0.5s-0.6-0.2-0.9-0.2c-0.4,0-0.6,0.1-0.8,0.3      c-0.2,0.2-0.3,0.4-0.3,0.6l0,0c0,0.2,0,0.3,0.1,0.5s0.2,0.3,0.5,0.4s0.6,0.3,1,0.4c0.5,0.2,0.9,0.4,1.2,0.6s0.5,0.4,0.7,0.7      s0.2,0.6,0.2,1l0,0c0,0.5-0.1,0.8-0.3,1.2c-0.2,0.3-0.5,0.6-0.9,0.8c-0.4,0.2-0.8,0.3-1.3,0.3s-1-0.1-1.4-0.3      c-0.5-0.2-0.9-0.5-1.3-0.8l0.8-0.9c0.3,0.3,0.6,0.5,0.9,0.6c0.3,0.2,0.7,0.3,1.1,0.3c0.4,0,0.7-0.1,0.9-0.3      c0.2-0.2,0.3-0.4,0.3-0.7l0,0c0-0.2,0-0.3-0.1-0.4s-0.2-0.3-0.4-0.4s-0.5-0.3-0.9-0.4c-0.5-0.2-0.9-0.4-1.2-0.6      C152.3,26.7,152.1,26.5,151.9,26.2z"></path>
				<polygon class="st0" points="195.6,23.1 196.2,23.1 198.2,29.8 200.1,23.1 200.6,23.1 202.5,29.8 204.5,23.1 205,23.1       202.7,30.8 202.2,30.8 200.3,24.2 198.4,30.8 197.9,30.8     "></polygon>
				<polygon class="st0" points="190.1,23.1 190.1,23.6 187.9,23.6 187.9,30.7 187.3,30.7 187.3,23.6 185.1,23.6 185.1,23.1     "></polygon>
				<polygon class="st0" points="179.5,23.1 179.5,23.6 175.6,23.6 175.6,26.8 179.1,26.8 179.1,27.3 175.6,27.3 175.6,30.7       175,30.7 175,23.1     "></polygon>
			</g>
		</g>
		<g>
			<path class="st1" d="M135.6,39.6c-0.2,0-0.4-0.2-0.4-0.4V14.7c0-0.2,0.2-0.4,0.4-0.4s0.4,0.2,0.4,0.4v24.5     C136,39.4,135.8,39.6,135.6,39.6z"></path>
		</g>
	</g>
</g>
</svg>
