<?xml version="1.0" encoding="utf-8"?>
<!-- Generator: Adobe Illustrator 24.0.1, SVG Export Plug-In . SVG Version: 6.00 Build 0)  -->
<svg version="1.1" id="Layer_1" xmlns="http://www.w3.org/2000/svg" xmlns:xlink="http://www.w3.org/1999/xlink" x="0px" y="0px"
	 viewBox="0 0 1009 391.8" style="enable-background:new 0 0 1009 391.8;" xml:space="preserve">
<style type="text/css">
	.st0{fill:none;}
	.st1{fill:#4A4B65;}
	.st2{fill:#fd7e14;}
</style>
<rect x="-60.2" y="-67.4" class="st0" width="1146.1" height="583.7"/>
<path class="st1" d="M203.3,47.3c-31.4-58.7-169.1-56-192.9,3.9l197.3,9.9C206.6,55.7,205.1,51.1,203.3,47.3"/>
<rect x="-60.2" y="-67.4" class="st0" width="1146.1" height="583.7"/>
<path class="st1" d="M4.3,108.1C0,213.9,109.3,212.5,128.8,266.4c15.4,76.2-32.5,63.4-32,44c-2.2-15.4-0.6-51.6-1.1-62.5H7.3
	c-0.1,35-0.9,77.2,14.7,99.7c40.2,57.6,163.6,48.7,190.9-4.5c39.9-153.6-48-165.1-106.9-211.3c-15.4-8.7-19.8-63.6,3.7-64.7L10.3,58
	C6.3,70.6,4.3,87.3,4.3,108.1"/>
<rect x="-60.2" y="-67.4" class="st0" width="1146.1" height="583.7"/>
<path class="st1" d="M119.9,72.4c4.9,6.2,3.1,40.4,3.4,51.3h88.5c0.1-14.4,0-34.2-1.5-47l-96.7-8.9
	C116.3,68.6,118.5,70.1,119.9,72.4"/>
<rect x="-60.2" y="-67.4" class="st0" width="1146.1" height="583.7"/>
<polygon class="st1" points="408.4,12.8 249.6,12.8 249.6,63.3 408.4,71.3 "/>
<rect x="-60.2" y="-67.4" class="st0" width="1146.1" height="583.7"/>
<polygon class="st1" points="255.2,379.2 420.4,379.2 420.4,305.9 350.5,305.9 350.5,225.3 410,225.3 410,155.6 350.5,155.6 
	350.5,89 255.2,80.3 "/>
<rect x="-60.2" y="-67.4" class="st0" width="1146.1" height="583.7"/>
<path class="st1" d="M645.1,12.8h-87.5c-5,23.3-9.5,45-13.4,65.2l80.3,4L645.1,12.8z"/>
<rect x="-60.2" y="-67.4" class="st0" width="1146.1" height="583.7"/>
<path class="st1" d="M531.1,157.2c-0.9-11.9-3.1-29.1-6.6-51.7l-79.6-7.3c56.3,198.5,40.4,112.3,42.5,281h88.2
	c-1.1-185.2-1.8-115.1,39.4-265.3l-76.1-7C535.8,125,533.2,141.8,531.1,157.2"/>
<rect x="-60.2" y="-67.4" class="st0" width="1146.1" height="583.7"/>
<path class="st1" d="M507.9,12.8h-87.5l17.2,59.9l82.1,4.1C516.5,58.1,512.6,36.8,507.9,12.8"/>
<rect x="-60.2" y="-67.4" class="st0" width="1146.1" height="583.7"/>
<polygon class="st1" points="661.4,379.2 756.7,379.2 756.7,126.8 661.4,118.1 "/>
<rect x="-60.2" y="-67.4" class="st0" width="1146.1" height="583.7"/>
<polygon class="st2" points="756.7,12.8 661.4,12.8 661.4,84 756.7,88.8 "/>
<rect x="-60.2" y="-67.4" class="st0" width="1146.1" height="583.7"/>
<path class="st1" d="M997,170.3c3.4-4.7,6-11.6,7.8-20.7l-86.9-8c-2.6,14.8-11,14.4-27.6,15.3V139l-95.3-8.7v248.8h95.3V214
	c38.9-3.7,26.5,36.5,29,50c0,25.3,0,115.1,0,115.2h88.4c-1.8-144.4,13.9-175-52.5-191.2C975.9,186,989.9,180.1,997,170.3"/>
<rect x="-60.2" y="-67.4" class="st0" width="1146.1" height="583.7"/>
<path class="st1" d="M890.2,75.5c18.5,0.7,26.7,2.5,28.7,21.4l88.5,4.5c0.4-119.8-124.3-81.9-212.5-88.5v77.9l95.3,4.8V75.5
	L890.2,75.5z"/>
</svg>
