<svg id="katman_1" data-name="katman 1" xmlns="http://www.w3.org/2000/svg" viewBox="0 0 1343.44 282.23"><defs><style>.cls-1{fill:#0071ce;}.cls-2{fill:none;stroke:#0071ce;stroke-miterlimit:10;}</style></defs><path class="cls-1" d="M398.62,121.91,368.77,92.06a11.2,11.2,0,0,0-15.85,0L323,122a0,0,0,0,0,0,.06h75.53A.06.06,0,0,0,398.62,121.91Z"/><path class="cls-1" d="M373.84,235.09,434.9,174a11.2,11.2,0,0,0,0-15.85l-10-10.05,0,0h-51a0,0,0,0,0,0,0v86.91S373.82,235.12,373.84,235.09Z"/><path class="cls-1" d="M347.63,148.12H296.85L286.8,158.19a11.2,11.2,0,0,0,0,15.85l60.79,60.79a0,0,0,0,0,.08,0V148.16A0,0,0,0,0,347.63,148.12Z"/><circle class="cls-2" cx="1048.75" cy="141.1" r="11.18" transform="translate(25.84 412.08) rotate(-22.5)"/><path class="cls-1" d="M1043.87,147.19V135h5.19a8.84,8.84,0,0,1,2.84.33,2.77,2.77,0,0,1,1.41,1.17,3.47,3.47,0,0,1,.54,1.92,3.27,3.27,0,0,1-.81,2.27,3.87,3.87,0,0,1-2.41,1.12,5.65,5.65,0,0,1,1.32,1,14.88,14.88,0,0,1,1.4,2l1.49,2.38h-2.95l-1.78-2.65a14.88,14.88,0,0,0-1.3-1.79,1.83,1.83,0,0,0-.74-.51,4.07,4.07,0,0,0-1.24-.14h-.49v5.09Zm2.47-7h1.82a9.35,9.35,0,0,0,2.21-.15,1.33,1.33,0,0,0,.69-.52,1.55,1.55,0,0,0,.25-.91,1.47,1.47,0,0,0-.33-1,1.55,1.55,0,0,0-.93-.48c-.2,0-.8,0-1.79,0h-1.92Z"/><path class="cls-1" d="M481.38,224l11.19-75.83H463.7l4.28-25.9h88.81l-4.42,25.9H524.82L513.77,224Z"/><path class="cls-1" d="M594.15,202.11h28.11a31.18,31.18,0,0,1-14.16,18.2q-10.56,6.39-26.52,6.39-18.92,0-29.9-9.57t-11-25.93q0-20.5,11.95-32.73t32-12.22q19.81,0,30.18,10t10.36,29.25c0,1.2,0,2.41-.11,3.63s-.17,2.45-.31,3.69H570.12v1.31q0,6.84,3.32,10.43t9.66,3.59a14.75,14.75,0,0,0,7.18-1.59A7.8,7.8,0,0,0,594.15,202.11ZM571.36,178h25.9q-.13-6.56-3.25-10.11t-8.77-3.56a12.69,12.69,0,0,0-9.25,3.59Q572.33,171.53,571.36,178Z"/><path class="cls-1" d="M633,198.73h27.69c0,3.41.94,6,2.67,7.91s4.19,2.79,7.38,2.79a10.84,10.84,0,0,0,6.45-1.78,5.4,5.4,0,0,0,.41-8.81,21.59,21.59,0,0,0-6.94-3.44l-1-.42q-30.54-11-30.54-25,0-11.51,9.25-17.54t26.73-6q16.63,0,25.72,6.08t9.7,17.68H684.13v-.55a6.66,6.66,0,0,0-2.53-5.53,11.09,11.09,0,0,0-7-2,9.81,9.81,0,0,0-5.72,1.44,4.66,4.66,0,0,0-2.05,4.05,5,5,0,0,0,2.33,4.19q2.32,1.72,9.06,3.85,1.86.61,5.59,1.73,9.81,2.9,14.3,5.46a20.46,20.46,0,0,1,7.6,7.19,18,18,0,0,1,2.76,9.55q0,12.79-9.67,19.85t-27.41,7q-18.17,0-28.25-7.15t-10.08-20Z"/><path class="cls-1" d="M771.56,194.86h28.38q-3,15.4-13.6,23.55t-27.42,8.15q-18.57,0-29.35-9.67t-10.77-26.1q0-20.16,11.91-32.29t31.8-12.12q18,0,28.21,8.15t10.47,22.65h-27.9c-.09-3.4-1-6-2.83-7.83s-4.35-2.73-7.67-2.73q-6.9,0-10.81,6.56t-3.9,18.16q0,7.4,2.83,11.12t8.43,3.73a11.3,11.3,0,0,0,8-3.11A14.28,14.28,0,0,0,771.56,194.86Z"/><path class="cls-1" d="M809.06,190.24q0-20.1,12.26-32.12t32.83-12q18.51,0,29.28,9.74t10.78,26.44q0,20.79-11.92,32.6T849.46,226.7q-18.65,0-29.52-9.84T809.06,190.24Zm44.4-23.83q-7,0-10.87,6.53t-3.84,18.4q0,7.4,2.73,11t8.46,3.59q6.63,0,10.57-6.56t3.93-17.61q0-7.67-2.72-11.5T853.46,166.41Z"/><path class="cls-1" d="M900.56,224l11.19-75.07h26.17l-1.59,9.74a35.77,35.77,0,0,1,11.19-9.19,28.77,28.77,0,0,1,13.05-3q7.74,0,12.6,3.42a18.3,18.3,0,0,1,6.88,10.26,39.83,39.83,0,0,1,12.05-10.26,29.12,29.12,0,0,1,13.84-3.42q11.05,0,17.47,6.25t6.43,17.1c0,1-.07,2.42-.21,4.1s-.35,3.61-.62,5.77L1022.93,224H994.62l5.8-41.85c.14-.88.24-1.74.31-2.59s.1-1.79.1-2.8a6.82,6.82,0,0,0-1.93-5.25,8.08,8.08,0,0,0-5.66-1.79,9.37,9.37,0,0,0-7.57,3.14Q983,176,981.91,183.4L975.83,224H947.66l5.8-42.13c.14-.87.24-1.73.31-2.55s.1-1.59.1-2.28q0-3.74-2-5.53t-6.12-1.79a8.74,8.74,0,0,0-7.14,3q-2.52,3-3.63,10.08L928.74,224Z"/><path class="cls-1" d="M832.68,270.15l11.05-28H851l4.52,28h-6.81l-.35-3.35h-7.19L840,270.15Zm10.24-9h4.64l-1.19-10.38Z"/><path class="cls-1" d="M876.44,259.47h6.94a14.6,14.6,0,0,1-3.71,8.45,10.67,10.67,0,0,1-15.48-.57q-2.94-3.62-2.94-9.92a21.63,21.63,0,0,1,.84-6,17.06,17.06,0,0,1,2.4-5.15,11.56,11.56,0,0,1,4-3.66,10.65,10.65,0,0,1,5.16-1.25,9.2,9.2,0,0,1,7.26,2.93q2.61,2.94,2.93,8.53l-6.74,0a5.63,5.63,0,0,0-1-3.35,3,3,0,0,0-2.52-1.2c-1.56,0-2.83.89-3.79,2.68a14.7,14.7,0,0,0-1.45,7,8.72,8.72,0,0,0,.93,4.49,3,3,0,0,0,2.73,1.51,3.63,3.63,0,0,0,2.69-1.16A7.3,7.3,0,0,0,876.44,259.47Z"/><path class="cls-1" d="M886.19,270.15l11-28h7.22l4.52,28h-6.8l-.36-3.35h-7.18l-1.14,3.35Zm10.24-9h4.64l-1.19-10.38Z"/><path class="cls-1" d="M914.1,270.15l3.36-28h9a11.87,11.87,0,0,1,5.27,1,8.43,8.43,0,0,1,3.27,3.24,12.62,12.62,0,0,1,1.44,3.68,20.53,20.53,0,0,1,.5,4.7q0,7.52-3.18,11.5t-9.21,4Zm8-6.95h1.67a8.1,8.1,0,0,0,2.59-.32,3.85,3.85,0,0,0,1.55-1.11,7.47,7.47,0,0,0,1.34-2.9,16.4,16.4,0,0,0,.52-4.16c0-2.12-.33-3.62-1-4.48a4,4,0,0,0-3.39-1.29h-1.63Z"/><path class="cls-1" d="M942,270.15l3.45-28h17.45l-.82,6.68H951.64l-.5,3.85h9.25l-.81,6.25h-9.23l-.47,4.49H961l-.78,6.78Z"/><path class="cls-1" d="M966.63,270.15l3.36-28h8.78l1.52,15.16c0,.34.05.7.07,1.06s0,.74,0,1.11,0,.58,0,.75,0,.33,0,.49c.08-.71.18-1.35.3-1.91a10.65,10.65,0,0,1,.42-1.48l5.39-15.18h8.86l-3.29,28h-6.41l3-20.76c-.18.78-.36,1.5-.54,2.18s-.36,1.27-.52,1.77l-5.75,16.81h-5l-1.75-17c0-.4-.07-.94-.09-1.61s0-1.39,0-2.18l-1.92,20.76Z"/><path class="cls-1" d="M1004.45,270.15l1.16-10.26-6.44-17.79h7.73l2.44,8.89a6.92,6.92,0,0,1,.17,1,10.1,10.1,0,0,1,.06,1.12v.39a12,12,0,0,1,.19-1.46,3.68,3.68,0,0,1,.27-.91l3.92-9.06h8.23l-9.35,17.82-1.2,10.23Z"/></svg>