<?xml version="1.0" encoding="utf-8"?>
<!-- Generator: Adobe Illustrator 25.1.0, SVG Export Plug-In . SVG Version: 6.00 Build 0)  -->
<svg version="1.1" id="Слой_1" xmlns="http://www.w3.org/2000/svg" xmlns:xlink="http://www.w3.org/1999/xlink" x="0px" y="0px"
	 viewBox="0 0 503.38 126.87" style="enable-background:new 0 0 503.38 126.87;" xml:space="preserve">
<style type="text/css">
	.st0{fill-rule:evenodd;clip-rule:evenodd;fill:#052039;}
	.st1{fill-rule:evenodd;clip-rule:evenodd;fill:#FA4E58;}
	.st2{fill-rule:evenodd;clip-rule:evenodd;fill:#F41A20;}
	.st3{fill:#052039;}
</style>
<path class="st0" d="M243.38,28.48h-3.52v0h-14.09v56.37h0l0,0.06v0.77h0.02c0.43,7.4,6.56,13.26,14.07,13.26v0h3.52V28.48z
	 M65.37,28.48c-7.78,0-14.09,6.31-14.09,14.09h14.09h0h9.33v42.28v0.83h0.03c0.43,7.4,6.56,13.26,14.07,13.26v0.01h3.52V28.48H88.8
	v0H76.47h-1.76H65.37L65.37,28.48z M137.9,125.37l1.76,0c15.57,0,28.19-12.62,28.19-28.19v-68.7h-17.53h-0.08h-17.5v0l-3.41,0
	c-15.57,0-28.19,12.62-28.19,28.19v14.1c0,15.57,12.62,28.19,28.19,28.19l1.76,0v0h14.09c0-7.78-6.31-14.09-14.09-14.09
	c-7.78,0-12.33-6.31-12.33-14.09h0v-14.1h0c0-7.78,6.31-14.09,14.09-14.09h17.39v54.61c0,7.78-4.55,14.09-12.33,14.09
	c-7.78,0-14.09,6.31-14.09,14.09L137.9,125.37L137.9,125.37z M55.55,98.95l-1.76,0c-15.57,0-28.19-12.62-28.19-28.19h0V42.57H15.52
	h0H1.43c0-7.78,6.31-14.09,14.09-14.09h0H25.6V16.16v-0.83h0.03c0.43-7.4,6.56-13.26,14.07-13.26V2.05h3.52v68.71h0
	c0,7.78,4.55,14.09,12.33,14.09c7.78,0,14.09,6.31,14.09,14.09L55.55,98.95L55.55,98.95z M176.66,56.66v14.1
	c0,15.57,12.62,28.19,28.19,28.19l1.76,0v0h14.09c0-7.78-6.31-14.09-14.09-14.09h0c-7.78,0-12.33-6.31-12.33-14.09h0v-14.1h0
	c0-7.78,6.31-14.09,14.09-14.09h17.39V28.48h-17.53v0l-3.39,0C189.28,28.48,176.66,41.1,176.66,56.66z"/>
<path class="st1" d="M62.42,4.71h15.97c4.41-0.01,7.99,3.45,7.99,7.71l0,7.24H70.4c-4.41,0.02-7.99-3.45-7.99-7.71L62.42,4.71z"/>
<path class="st2" d="M73.6,4.71h10.73c4.41-0.01,7.99,3.45,7.99,7.71l0,7.24l-10.74,0c-4.41,0.02-7.99-3.45-7.99-7.71L73.6,4.71z"/>
<path class="st3" d="M455.94,38.04c3.03,0,5.53,1.89,6.1,5.49h-12.65C449.95,40.2,452.41,38.04,455.94,38.04 M465.25,46.41
	c0.08-0.49,0.11-0.98,0.11-1.48c0-2.76-0.87-5.11-2.65-7.05c-1.74-1.97-4.01-2.95-6.78-2.95c-2.92,0-5.3,0.95-7.16,2.84
	c-1.86,1.89-2.77,4.28-2.77,7.12c0,2.88,0.95,5.26,2.8,7.16c1.89,1.86,4.36,2.8,7.35,2.8c3.71,0,6.48-1.44,8.33-4.28l-2.8-1.59
	c-1.14,1.86-2.95,2.77-5.45,2.77c-3.6,0-6.21-1.97-6.86-5.34H465.25z M438.97,35.43h-3.3v18.94h3.3V44.33
	c0-2.08,0.57-3.56,1.74-4.51c1.17-0.95,2.54-1.36,4.17-1.29v-3.45c-2.84,0-4.81,1.17-5.91,3.52V35.43z M420.64,51.68
	c-1.89,0-3.48-0.64-4.77-1.93c-1.29-1.33-1.93-2.92-1.93-4.85c0-1.93,0.64-3.52,1.93-4.81c1.29-1.33,2.88-1.97,4.77-1.97
	c1.93,0,3.52,0.64,4.81,1.97c1.29,1.29,1.93,2.88,1.93,4.81c0,1.93-0.64,3.52-1.93,4.85C424.16,51.04,422.57,51.68,420.64,51.68z
	 M427.38,38.69c-1.63-2.5-4.01-3.75-7.16-3.75c-2.65,0-4.92,0.98-6.78,2.92c-1.86,1.93-2.8,4.28-2.8,7.05c0,2.77,0.95,5.15,2.8,7.08
	c1.86,1.93,4.13,2.88,6.78,2.88c3.14,0,5.53-1.25,7.16-3.75v3.26h3.3V35.43h-3.3V38.69z M400.18,54.86c3.67,0,6.89-1.93,8.52-4.92
	l-2.8-1.63c-1.06,2.01-3.18,3.3-5.72,3.3c-1.89,0-3.48-0.64-4.77-1.93c-1.25-1.29-1.89-2.88-1.89-4.77c0-1.93,0.64-3.52,1.89-4.81
	c1.29-1.29,2.88-1.93,4.77-1.93c2.54,0,4.66,1.33,5.61,3.33l2.77-1.59c-1.48-3.03-4.62-4.96-8.37-4.96c-2.84,0-5.23,0.95-7.12,2.88
	c-1.89,1.89-2.84,4.24-2.84,7.08c0,2.84,0.95,5.19,2.84,7.12C394.95,53.91,397.34,54.86,400.18,54.86z M379.35,34.94
	c-2.77,0-4.81,1.06-6.14,3.22v-10.3h-3.3v26.51h3.3V44.33c0-4.24,2.2-6.25,5.49-6.25c2.92,0,4.7,1.78,4.7,4.85v11.44h3.3V42.74
	C386.7,37.93,383.78,34.94,379.35,34.94z M366.02,35.43h-5.04v-5.3l-3.3,0.98v4.32h-3.75v3.18h3.75v10.26c0,4.7,2.58,6.25,8.33,5.49
	v-2.95c-3.37,0.15-5.04,0.38-5.04-2.54V38.61h5.04V35.43z M350.68,54.37V26.72h-3.3v27.65H350.68z M332.34,51.68
	c-1.89,0-3.48-0.64-4.77-1.93c-1.29-1.33-1.93-2.92-1.93-4.85c0-1.93,0.64-3.52,1.93-4.81c1.29-1.33,2.88-1.97,4.77-1.97
	c1.93,0,3.52,0.64,4.81,1.97c1.29,1.29,1.93,2.88,1.93,4.81c0,1.93-0.64,3.52-1.93,4.85C335.87,51.04,334.28,51.68,332.34,51.68z
	 M339.09,38.69c-1.63-2.5-4.01-3.75-7.16-3.75c-2.65,0-4.92,0.98-6.78,2.92c-1.86,1.93-2.8,4.28-2.8,7.05c0,2.77,0.95,5.15,2.8,7.08
	c1.86,1.93,4.13,2.88,6.78,2.88c3.14,0,5.53-1.25,7.16-3.75v3.26h3.3V35.43h-3.3V38.69z M310.22,38.04c3.03,0,5.53,1.89,6.1,5.49
	h-12.65C304.24,40.2,306.7,38.04,310.22,38.04z M319.54,46.41c0.08-0.49,0.11-0.98,0.11-1.48c0-2.76-0.87-5.11-2.65-7.05
	c-1.74-1.97-4.01-2.95-6.78-2.95c-2.92,0-5.3,0.95-7.16,2.84c-1.86,1.89-2.77,4.28-2.77,7.12c0,2.88,0.95,5.26,2.8,7.16
	c1.89,1.86,4.36,2.8,7.35,2.8c3.71,0,6.48-1.44,8.33-4.28l-2.8-1.59c-1.14,1.86-2.95,2.77-5.45,2.77c-3.6,0-6.21-1.97-6.86-5.34
	H319.54z M292.54,39.1h-12.88V27.85h-3.52v26.51h3.52V42.44h12.88v11.93h3.48V27.85h-3.48V39.1z"/>
<path class="st3" d="M490.82,83.61c0-1.63,1.52-2.54,3.37-2.54c2.01,0,3.37,0.8,4.05,2.42l2.77-1.55c-1.21-2.46-3.75-3.94-6.82-3.94
	c-1.93,0-3.52,0.53-4.81,1.59c-1.25,1.06-1.89,2.42-1.89,4.05c0,4.01,3.86,5,6.86,5.8c2.08,0.49,3.75,1.33,3.75,2.8
	c0,1.78-1.59,2.58-3.75,2.58c-2.31,0-4.09-1.14-4.7-2.95l-2.84,1.63c1.1,2.69,3.86,4.43,7.54,4.43c2.08,0,3.75-0.53,5.08-1.55
	c1.33-1.02,2.01-2.42,2.01-4.13c0.04-4.05-3.9-5.15-6.86-5.8C492.49,85.88,490.82,85.08,490.82,83.61 M475.52,81.11
	c3.03,0,5.53,1.89,6.1,5.49h-12.65C469.53,83.26,472,81.11,475.52,81.11z M484.84,89.48c0.08-0.49,0.11-0.98,0.11-1.48
	c0-2.76-0.87-5.11-2.65-7.05c-1.74-1.97-4.01-2.95-6.78-2.95c-2.92,0-5.3,0.95-7.16,2.84c-1.86,1.89-2.77,4.28-2.77,7.12
	c0,2.88,0.95,5.26,2.8,7.16c1.89,1.86,4.36,2.8,7.35,2.8c3.71,0,6.48-1.44,8.33-4.28l-2.8-1.59c-1.14,1.86-2.95,2.77-5.45,2.77
	c-3.6,0-6.21-1.97-6.86-5.34H484.84z M461.62,97.43V78.49h-3.3v18.94H461.62z M461.66,75.39c0.91-0.91,0.91-2.42,0-3.33
	c-0.91-0.95-2.42-0.95-3.37,0c-0.91,0.91-0.91,2.42,0,3.33C459.23,76.29,460.75,76.29,461.66,75.39z M450.07,87.85
	c0,1.93-0.64,3.52-1.93,4.81c-1.29,1.29-2.88,1.93-4.81,1.93s-3.52-0.64-4.81-1.93c-1.29-1.29-1.93-2.88-1.93-4.81
	c0-1.89,0.64-3.48,1.93-4.77c1.29-1.29,2.88-1.93,4.81-1.93s3.52,0.64,4.81,1.93C449.42,84.36,450.07,85.95,450.07,87.85z
	 M450.07,81.75c-1.63-2.5-4.01-3.75-7.12-3.75c-2.69,0-5,0.95-6.86,2.88c-1.86,1.89-2.8,4.2-2.8,6.97c0,2.77,0.95,5.08,2.8,7.01
	c1.86,1.93,4.17,2.88,6.86,2.88c3.07,0,5.45-1.25,7.12-3.79v2.69c0,3.6-2.39,5.8-6.33,5.8c-3.07,0-5.15-1.06-6.17-3.18l-2.88,1.63
	c1.55,2.99,4.73,4.62,8.98,4.62c2.65,0,4.92-0.8,6.82-2.35c1.89-1.55,2.84-3.71,2.84-6.51V78.49h-3.26V81.75z M420.45,94.7
	c-1.86,0-3.45-0.64-4.73-1.93c-1.29-1.29-1.93-2.88-1.93-4.81c0-1.93,0.64-3.52,1.93-4.81c1.29-1.29,2.88-1.93,4.73-1.93
	c1.89,0,3.48,0.64,4.77,1.93c1.29,1.29,1.93,2.88,1.93,4.81c0,1.93-0.64,3.52-1.93,4.81C423.93,94.06,422.34,94.7,420.45,94.7z
	 M427.53,95.04c1.93-1.93,2.92-4.28,2.92-7.08c0-2.8-0.98-5.15-2.92-7.08c-1.93-1.93-4.32-2.88-7.08-2.88
	c-2.77,0-5.15,0.95-7.08,2.88c-1.93,1.93-2.88,4.28-2.88,7.08c0,2.8,0.95,5.15,2.88,7.08c1.93,1.93,4.32,2.88,7.08,2.88
	C423.21,97.92,425.6,96.98,427.53,95.04z M406.51,97.43V69.78h-3.3v27.65H406.51z M389.31,94.7c-1.86,0-3.45-0.64-4.73-1.93
	c-1.29-1.29-1.93-2.88-1.93-4.81c0-1.93,0.64-3.52,1.93-4.81c1.29-1.29,2.88-1.93,4.73-1.93c1.89,0,3.48,0.64,4.77,1.93
	c1.29,1.29,1.93,2.88,1.93,4.81c0,1.93-0.64,3.52-1.93,4.81C392.8,94.06,391.2,94.7,389.31,94.7z M396.39,95.04
	c1.93-1.93,2.92-4.28,2.92-7.08c0-2.8-0.98-5.15-2.92-7.08c-1.93-1.93-4.32-2.88-7.08-2.88c-2.77,0-5.15,0.95-7.08,2.88
	c-1.93,1.93-2.88,4.28-2.88,7.08c0,2.8,0.95,5.15,2.88,7.08c1.93,1.93,4.32,2.88,7.08,2.88C392.08,97.92,394.46,96.98,396.39,95.04z
	 M368.48,78c-2.77,0-4.81,1.06-6.14,3.22v-2.73h-3.3v18.94h3.3V87.39c0-4.24,2.2-6.25,5.49-6.25c2.92,0,4.7,1.78,4.7,4.85v11.44h3.3
	V85.8C375.83,80.99,372.91,78,368.48,78z M347.12,78c-2.77,0-4.81,1.06-6.14,3.22v-10.3h-3.3v26.51h3.3V87.39
	c0-4.24,2.2-6.25,5.49-6.25c2.92,0,4.7,1.78,4.7,4.85v11.44h3.3V85.8C354.46,80.99,351.55,78,347.12,78z M325.91,97.92
	c3.67,0,6.89-1.93,8.52-4.92l-2.8-1.63c-1.06,2.01-3.18,3.3-5.72,3.3c-1.89,0-3.48-0.64-4.77-1.93c-1.25-1.29-1.89-2.88-1.89-4.77
	c0-1.93,0.64-3.52,1.89-4.81c1.29-1.29,2.88-1.93,4.77-1.93c2.54,0,4.66,1.33,5.61,3.33l2.77-1.59c-1.48-3.03-4.62-4.96-8.37-4.96
	c-2.84,0-5.23,0.95-7.12,2.88c-1.89,1.89-2.84,4.24-2.84,7.08c0,2.84,0.95,5.19,2.84,7.12C320.68,96.98,323.06,97.92,325.91,97.92z
	 M303.82,81.11c3.03,0,5.53,1.89,6.1,5.49h-12.65C297.84,83.26,300.3,81.11,303.82,81.11z M313.14,89.48
	c0.08-0.49,0.11-0.98,0.11-1.48c0-2.76-0.87-5.11-2.65-7.05c-1.74-1.97-4.01-2.95-6.78-2.95c-2.92,0-5.3,0.95-7.16,2.84
	c-1.86,1.89-2.77,4.28-2.77,7.12c0,2.88,0.95,5.26,2.8,7.16c1.89,1.86,4.36,2.8,7.35,2.8c3.71,0,6.48-1.44,8.33-4.28l-2.8-1.59
	c-1.14,1.86-2.95,2.77-5.45,2.77c-3.6,0-6.21-1.97-6.86-5.34H313.14z M276.13,70.92v3.33h7.8v23.18h3.48V74.25h7.84v-3.33H276.13z"
	/>
</svg>
