<?xml version="1.0" encoding="utf-8"?>
<!-- Generator: Adobe Illustrator 16.0.0, SVG Export Plug-In . SVG Version: 6.00 Build 0)  -->
<!DOCTYPE svg PUBLIC "-//W3C//DTD SVG 1.1//EN" "http://www.w3.org/Graphics/SVG/1.1/DTD/svg11.dtd">
<svg version="1.1" id="Layer_1" xmlns="http://www.w3.org/2000/svg" xmlns:xlink="http://www.w3.org/1999/xlink" x="0px" y="0px"
	 width="238.666px" height="78px" viewBox="0 0 238.666 78" enable-background="new 0 0 238.666 78" xml:space="preserve">
<g>
	<path fill="#FFFFFF" d="M77.366,60.186h7.347v1.014h-3.101v9.154h-1.116v-9.154h-3.13V60.186z"/>
	<path fill="#FFFFFF" d="M85.965,70.354V59.803h1.103v3.615c0,0,1.176-0.559,2.263-0.559c2.014,0,2.483,1,2.483,3.615v3.879h-1.102
		v-3.85c0-1.939-0.221-2.66-1.573-2.66c-1.043,0-2.071,0.441-2.071,0.441v6.068H85.965z"/>
	<path fill="#FFFFFF" d="M99.281,69.398l0.029,0.867c0,0-1.676,0.234-2.865,0.234c-2.189,0-2.91-1.277-2.91-3.775
		c0-2.793,1.205-3.865,3.071-3.865c1.954,0,2.954,1.029,2.954,3.438l-0.06,0.837h-4.849c0,1.573,0.484,2.396,1.925,2.396
		C97.68,69.531,99.281,69.398,99.281,69.398z M98.458,66.254c0-1.822-0.559-2.469-1.852-2.469c-1.249,0-1.954,0.69-1.969,2.469
		H98.458z"/>
	<path fill="#FFFFFF" d="M108.396,60.186c1.983,0,3.026,0.778,3.026,2.586c0,1.322-0.484,1.954-1.308,2.336
		c0.896,0.309,1.616,0.926,1.616,2.396c0,2.146-1.234,2.851-3.145,2.851h-3.879V60.186H108.396z M105.839,61.185v3.512h2.615
		c1.278,0,1.808-0.603,1.808-1.822c0-1.19-0.617-1.689-1.91-1.689H105.839z M105.839,65.681v3.674h2.703
		c1.234,0,2.043-0.397,2.043-1.896c0-1.572-1.338-1.778-2.116-1.778H105.839z"/>
	<path fill="#FFFFFF" d="M119.259,63.006v7.348h-1.103V69.84c0,0-1.103,0.66-2.175,0.66c-2.058,0-2.483-0.955-2.483-3.658v-3.836
		h1.103v3.821c0,2.027,0.176,2.688,1.543,2.688c1.087,0,2.013-0.543,2.013-0.543v-5.967H119.259z"/>
	<path fill="#FFFFFF" d="M126.256,64.079c0,0-1.631-0.235-2.571-0.235c-0.911,0-1.602,0.25-1.602,1.117
		c0,0.69,0.353,0.881,1.91,1.146c1.837,0.309,2.527,0.676,2.527,2.101c0,1.72-1.088,2.292-2.851,2.292
		c-0.94,0-2.587-0.279-2.587-0.279l0.06-0.955c0,0,1.675,0.25,2.424,0.25c1.205,0,1.852-0.264,1.852-1.264
		c0-0.764-0.382-0.955-1.983-1.205c-1.66-0.264-2.454-0.572-2.454-2.042c0-1.616,1.308-2.146,2.646-2.146
		c1.102,0,2.659,0.279,2.659,0.279L126.256,64.079z"/>
	<path fill="#FFFFFF" d="M128.213,60.067h1.103v1.278h-1.103V60.067z M128.213,63.006h1.103v7.348h-1.103V63.006z"/>
	<path fill="#FFFFFF" d="M131.433,70.354v-7.348h1.088v0.515c0,0,1.19-0.661,2.277-0.661c2.028,0,2.483,1,2.483,3.615v3.879h-1.087
		v-3.85c0-1.939-0.221-2.66-1.587-2.66c-1.059,0-2.072,0.544-2.072,0.544v5.966H131.433z"/>
	<path fill="#FFFFFF" d="M144.749,69.398l0.029,0.867c0,0-1.676,0.234-2.865,0.234c-2.189,0-2.91-1.277-2.91-3.775
		c0-2.793,1.205-3.865,3.071-3.865c1.954,0,2.954,1.029,2.954,3.438l-0.06,0.837h-4.849c0,1.573,0.484,2.396,1.925,2.396
		C143.147,69.531,144.749,69.398,144.749,69.398z M143.926,66.254c0-1.822-0.559-2.469-1.852-2.469c-1.249,0-1.954,0.69-1.969,2.469
		H143.926z"/>
	<path fill="#FFFFFF" d="M151.629,64.079c0,0-1.631-0.235-2.571-0.235c-0.911,0-1.602,0.25-1.602,1.117
		c0,0.69,0.353,0.881,1.91,1.146c1.837,0.309,2.527,0.676,2.527,2.101c0,1.72-1.088,2.292-2.851,2.292
		c-0.94,0-2.587-0.279-2.587-0.279l0.06-0.955c0,0,1.675,0.25,2.424,0.25c1.205,0,1.852-0.264,1.852-1.264
		c0-0.764-0.382-0.955-1.983-1.205c-1.66-0.264-2.454-0.572-2.454-2.042c0-1.616,1.308-2.146,2.646-2.146
		c1.102,0,2.659,0.279,2.659,0.279L151.629,64.079z"/>
	<path fill="#FFFFFF" d="M158.465,64.079c0,0-1.631-0.235-2.571-0.235c-0.911,0-1.602,0.25-1.602,1.117
		c0,0.69,0.353,0.881,1.91,1.146c1.837,0.309,2.527,0.676,2.527,2.101c0,1.72-1.088,2.292-2.851,2.292
		c-0.94,0-2.587-0.279-2.587-0.279l0.06-0.955c0,0,1.675,0.25,2.424,0.25c1.205,0,1.852-0.264,1.852-1.264
		c0-0.764-0.382-0.955-1.983-1.205c-1.66-0.264-2.454-0.572-2.454-2.042c0-1.616,1.308-2.146,2.646-2.146
		c1.102,0,2.659,0.279,2.659,0.279L158.465,64.079z"/>
	<path fill="#FFFFFF" d="M165.742,60.186h2.469l2.792,10.168h-1.117l-0.734-2.615h-4.35l-0.734,2.615h-1.117L165.742,60.186z
		 M165.052,66.725h3.85l-1.543-5.57h-0.764L165.052,66.725z"/>
	<path fill="#FFFFFF" d="M177.163,63.08l-0.045,0.896c0,0-1.175-0.133-1.733-0.133c-1.69,0-2.146,0.734-2.146,2.704
		c0,2.175,0.338,2.968,2.16,2.968c0.559,0,1.733-0.132,1.733-0.132l0.045,0.911c0,0-1.367,0.205-2.043,0.205
		c-2.336,0-3.027-1.072-3.027-3.952c0-2.659,0.867-3.688,3.057-3.688C175.84,62.859,177.163,63.08,177.163,63.08z"/>
	<path fill="#FFFFFF" d="M183.573,63.08l-0.045,0.896c0,0-1.175-0.133-1.733-0.133c-1.69,0-2.146,0.734-2.146,2.704
		c0,2.175,0.338,2.968,2.16,2.968c0.559,0,1.733-0.132,1.733-0.132l0.045,0.911c0,0-1.367,0.205-2.043,0.205
		c-2.336,0-3.027-1.072-3.027-3.952c0-2.659,0.867-3.688,3.057-3.688C182.25,62.859,183.573,63.08,183.573,63.08z"/>
	<path fill="#FFFFFF" d="M190.584,69.398l0.029,0.867c0,0-1.676,0.234-2.865,0.234c-2.189,0-2.91-1.277-2.91-3.775
		c0-2.793,1.205-3.865,3.071-3.865c1.954,0,2.954,1.029,2.954,3.438l-0.06,0.837h-4.849c0,1.573,0.484,2.396,1.925,2.396
		C188.982,69.531,190.584,69.398,190.584,69.398z M189.761,66.254c0-1.822-0.559-2.469-1.852-2.469c-1.249,0-1.954,0.69-1.969,2.469
		H189.761z"/>
	<path fill="#FFFFFF" d="M192.674,59.803h1.102v10.551h-1.102V59.803z"/>
	<path fill="#FFFFFF" d="M201.403,69.398l0.029,0.867c0,0-1.676,0.234-2.865,0.234c-2.189,0-2.91-1.277-2.91-3.775
		c0-2.793,1.205-3.865,3.071-3.865c1.954,0,2.954,1.029,2.954,3.438l-0.06,0.837h-4.849c0,1.573,0.484,2.396,1.925,2.396
		C199.802,69.531,201.403,69.398,201.403,69.398z M200.58,66.254c0-1.822-0.559-2.469-1.852-2.469c-1.249,0-1.954,0.69-1.969,2.469
		H200.58z"/>
	<path fill="#FFFFFF" d="M203.404,63.006h1.088v1c0,0,1.278-0.882,2.688-1.161v1.116c-1.381,0.279-2.674,1-2.674,1v5.393h-1.103
		V63.006z"/>
	<path fill="#FFFFFF" d="M213.678,68.986c0.029,0.427,0.382,0.588,0.853,0.646l-0.044,0.867c-0.779,0-1.309-0.146-1.749-0.588
		c0,0-1.322,0.588-2.646,0.588c-1.337,0-2.071-0.764-2.071-2.248c0-1.41,0.734-2.027,2.248-2.174l2.307-0.221v-0.633
		c0-1.027-0.44-1.396-1.322-1.396c-1.028,0-2.777,0.191-2.777,0.191l-0.044-0.838c0,0,1.616-0.323,2.88-0.323
		c1.661,0,2.366,0.764,2.366,2.365V68.986z M210.4,66.9c-0.896,0.088-1.249,0.514-1.249,1.322c0,0.853,0.368,1.352,1.117,1.352
		c1.088,0,2.307-0.455,2.307-0.455v-2.424L210.4,66.9z"/>
	<path fill="#FFFFFF" d="M217.325,63.961v3.513c0,1.602,0.103,2.058,1.058,2.058c0.412,0,1.309-0.089,1.309-0.089l0.073,0.911
		c0,0-0.984,0.162-1.499,0.162c-1.514,0-2.027-0.574-2.027-2.689v-3.865h-1.044v-0.955h1.044v-2.248h1.087v2.248h2.337v0.955
		H217.325z"/>
	<path fill="#FFFFFF" d="M226.981,66.592c0,2.674-0.661,3.908-3.145,3.908c-2.468,0-3.145-1.234-3.145-3.908
		c0-2.527,0.823-3.732,3.145-3.732C226.174,62.859,226.981,64.064,226.981,66.592z M225.851,66.592c0-2.043-0.441-2.777-2.014-2.777
		c-1.558,0-2.013,0.734-2.013,2.777c0,2.086,0.279,2.953,2.013,2.953C225.586,69.545,225.851,68.678,225.851,66.592z"/>
	<path fill="#FFFFFF" d="M228.777,63.006h1.088v1c0,0,1.278-0.882,2.688-1.161v1.116c-1.381,0.279-2.674,1-2.674,1v5.393h-1.103
		V63.006z"/>
</g>
<path fill-rule="evenodd" clip-rule="evenodd" fill="#FFFFFF" d="M142.507,55.804c-1.386,0-2.758,0-4.121-0.008
	c-0.816-0.014-0.915-0.065-0.908-0.854c0.021-1.786-0.073-3.579,0.115-5.373c0.045-0.205,0.045-0.425,0.045-0.618
	c0.016-5.196,0.117-10.401,0-15.614c-0.079-2.616-0.323-5.243-0.463-7.856c-0.096-1.491-0.179-2.98-0.272-4.468
	c-0.057-0.451,0.139-0.669,0.568-0.735c2.133-0.311,4.243-0.636,6.371-0.929c0.757-0.11,1.552-0.139,2.32-0.243
	c0.459-0.058,0.669,0.124,0.695,0.56c0.032,0.163,0.066,0.301,0.077,0.443c0.152,0.962,0.152,0.962,1.073,0.519
	c2.186-1.083,4.492-1.695,6.964-1.681c2.245,0.022,4.263,0.688,5.99,2.048c2.259,1.778,3.916,4.014,4.615,6.875
	c0.597,2.483,0.328,4.927-0.652,7.292c-1.112,2.805-2.812,5.189-5.325,6.907c-1.59,1.045-3.358,1.523-5.189,1.886
	c-1.858,0.384-3.7,0.594-5.602,0.559c-0.324-0.003-0.657-0.003-0.981,0.018c-0.532,0.033-0.629,0.133-0.554,0.674
	c0.393,3.169,0.237,6.321,0.276,9.483v0.174c-0.039,0.869-0.096,0.935-0.929,0.935C145.24,55.804,143.862,55.804,142.507,55.804
	 M148.842,39.108c3.271-0.065,5.574-1.544,6.767-4.389c1.224-3.051,0.832-6.275-1.615-8.465c-1.72-1.532-4.077-1.629-5.768-0.877
	c-0.751,0.326-1.086,0.757-1.046,1.611c0.101,3.556-0.063,7.095,0.14,10.658C147.403,39.125,147.36,39.13,148.842,39.108"/>
<path fill-rule="evenodd" clip-rule="evenodd" fill="#FFFFFF" d="M118.195,19.155c2.541-0.008,5.005,0.336,7.408,1.166
	c0.761,0.267,1.491,0.632,2.184,1.019c1.859,0.997,3.035,2.586,3.767,4.505c0.914,2.43,1.271,4.96,0.99,7.571
	c-0.192,1.708-0.503,3.37-1.155,4.947c-0.825,1.999-2.159,3.475-4.104,4.428c-2.215,1.093-4.559,1.578-6.983,1.885
	c-2.26,0.261-4.52,0.181-6.769-0.171c-1.571-0.264-3.084-0.688-4.547-1.35c-2.192-1.052-3.645-2.774-4.482-5.008
	c-1.551-4.173-1.354-8.333,0.33-12.415c1.086-2.67,3.11-4.388,5.809-5.34C113.09,19.515,115.618,19.134,118.195,19.155
	 M112.917,31.604c-0.045,1.312,0.082,2.625,0.425,3.886c0.243,0.968,0.58,1.897,1.212,2.687c1.016,1.284,2.35,1.986,3.986,1.712
	c1.85-0.31,3.232-1.336,3.824-3.207c0.798-2.42,0.847-4.868,0.497-7.354c-0.124-0.762-0.259-1.534-0.551-2.25
	c-0.77-1.878-2.552-3.073-4.558-3.035c-1.839,0.029-3.464,1.265-4.18,3.138C113.038,28.612,112.872,30.076,112.917,31.604"/>
<path fill-rule="evenodd" clip-rule="evenodd" fill="#FFFFFF" d="M204.05,18.969c3.259,0.031,5.821,0.491,8.249,1.648
	c2.28,1.107,3.76,2.887,4.648,5.222c0.824,2.213,1.137,4.494,1.055,6.848c-0.021,0.989-0.069,1.024-1.066,1.074
	c-5.176,0.236-10.344,0.107-15.499,0.156c-0.258,0.009-0.486,0-0.717,0.009c-0.974,0-1.067,0.102-0.609,1.03
	c1.139,2.484,3.108,3.823,5.792,4.28c2.865,0.488,5.629-0.156,8.317-1.057c0.711-0.232,1.408-0.554,2.086-0.825
	c0.487-0.173,0.642-0.083,0.63,0.419c-0.061,1.569-0.175,3.173-0.35,4.728c-0.081,0.547-0.471,0.655-0.884,0.753
	c-1.652,0.45-3.313,0.81-4.993,1.088c-1.442,0.223-2.934,0.383-4.423,0.423c-3.113,0.114-6.156-0.141-8.984-1.56
	c-3.092-1.538-5.007-4.087-5.953-7.298c-1.506-5.188-0.112-9.724,3.56-13.604c1.387-1.504,3.246-2.282,5.239-2.771
	C201.632,19.155,203.139,18.938,204.05,18.969 M204.521,24.011c-0.57-0.037-1.183,0.14-1.756,0.461
	c-1.485,0.807-2.28,2.079-2.598,3.681c-0.154,0.702-0.02,0.872,0.719,0.848c0.845-0.003,1.718-0.116,2.598-0.121
	c1.544-0.024,3.088-0.024,4.666-0.048c0.973-0.002,1.117-0.2,0.93-1.188C208.62,25.57,206.747,24.027,204.521,24.011"/>
<path fill-rule="evenodd" clip-rule="evenodd" fill="#FFFFFF" d="M96.479,28.295c0,2.491-0.095,4.984,0.026,7.448
	c0.12,2.34,0.083,4.666,0.265,6.975c0.118,1.399,0.047,1.355-1.333,1.442c-2.651,0.18-5.316,0.055-7.966,0.298
	c-0.112,0.003-0.24,0.014-0.352,0.014c-0.795-0.011-0.937-0.104-0.915-0.861c0.086-2.582,0.188-5.139,0.274-7.696
	c0.038-0.356,0.06-0.726,0.063-1.076c0.009-5.287,0.027-10.58,0.027-15.871v-0.623c-0.019-0.365-0.204-0.558-0.573-0.563
	c-0.224-0.008-0.472-0.008-0.713-0.008c-2.094-0.05-4.173,0.071-6.268,0.166c-0.243,0-0.481,0-0.71-0.008
	c-0.443-0.015-0.649-0.263-0.698-0.68c-0.107-1.726-0.171-3.463-0.024-5.188c0.043-0.387,0.223-0.605,0.632-0.608h0.438
	c2.457,0.003,4.901-0.055,7.343,0.056c4.099,0.182,8.187,0.105,12.275,0.082c2.023-0.011,4.062-0.135,6.095-0.122
	c1.612,0.011,1.597,0.013,1.473,1.601c-0.098,1.248-0.154,2.494-0.388,3.739c-0.141,0.883-0.216,0.962-1.088,0.941
	c-1.898-0.037-3.779,0.07-5.649-0.123c-0.383-0.03-0.773-0.025-1.154-0.015c-0.851,0.008-0.895,0.058-0.938,0.925
	C96.397,21.787,96.444,25.057,96.479,28.295"/>
<path fill-rule="evenodd" clip-rule="evenodd" fill="#FFFFFF" d="M183.94,28.295c-0.075,3.38,0.165,6.68,0.222,9.939
	c0.059,1.74,0.104,3.478,0.154,5.209c0.025,0.63,0.013,0.643-0.606,0.741c-0.282,0.041-0.529,0.097-0.789,0.097
	c-2.73-0.027-5.424,0.228-8.156,0.228h-0.366c-0.391,0.019-0.588-0.153-0.585-0.575c0.041-1.53,0.049-3.048,0.086-4.593
	c0.039-0.431,0.108-0.88,0.117-1.329c0.239-6.292,0.199-12.612,0.199-18.906c0-1.369-0.017-1.362-1.344-1.26
	c-1.798,0.161-3.578,0.071-5.377,0.114c-0.546,0-1.081,0.016-1.632,0c-0.877,0-1.025-0.152-0.938-1.067
	c0.108-0.682,0.142-1.366,0.147-2.042c0.003-0.819-0.006-1.629,0.014-2.435c0.022-0.798,0.174-0.903,1.007-0.933
	c1.181-0.063,2.356,0.134,3.57,0.134c7.416,0,14.857,0.004,22.309,0.004c1.452,0,1.452,0,1.313,1.485
	c-0.083,1.242-0.236,2.497-0.236,3.748c0.013,0.84-0.127,0.927-0.945,0.927c-2.164,0-4.294-0.008-6.467-0.008
	c-0.229,0-0.455-0.009-0.727,0c-0.567,0.033-0.668,0.177-0.779,0.766V18.9C184.158,22.062,183.861,25.229,183.94,28.295"/>
<path fill-rule="evenodd" clip-rule="evenodd" fill="#FFFFFF" d="M232.352,13.12c-0.108,5.165-0.271,10.332-0.174,15.502
	c0.113,4.922,0.264,9.852,0.371,14.792c0.021,0.895,0.017,0.942-0.835,0.901c-1.647-0.111-3.305-0.241-4.944-0.173
	c-1.157,0.055-2.307,0.166-3.462,0.233c-0.694,0.048-0.731,0-0.724-0.651c0.024-3.728,0.182-7.452,0.272-11.19
	c0.094-2.902,0.151-5.79,0.094-8.702c-0.107-3.19-0.193-6.384-0.474-9.571c-0.1-1.672-0.173-3.336-0.24-5
	c-0.027-0.647,0.011-0.731,0.663-0.842c1.42-0.251,2.878-0.497,4.33-0.692c1.483-0.19,2.977-0.309,4.463-0.449
	c0.643-0.053,0.79,0.053,0.749,0.651C232.297,9.653,232.373,11.402,232.352,13.12"/>
<path fill="#FFFFFF" d="M39.527,31.872l3.372,2.718c0,0-22.428,1.754-26.401,3.602c-3.658,1.703-8.354,4.971,8.794,9.038
	c7.227,2.034,33.405,3.834,44.913-0.452l-3.614,4.97l-16.922,1.133c0,0-20.986,23.469-26.626,17.153
	c-1.133-1.806,0.223-6.546,0.223-6.546l5.417-3.391c0,0-1.128,5.867,2.485,4.293c3.607-1.583,13.081-11.51,13.081-11.51
	S-5.395,50.391,8.598,37.064C14.464,32.326,39.527,31.872,39.527,31.872"/>
<path fill="#FFFFFF" d="M49.442,46.776h5.191c0,0,24.052-30.853,14.221-39.291c-4.736-4.066-24.377,13.996-24.377,13.996v2.715
	c0,0,19.411-16.258,20.537-5.428C64.34,23.292,56.438,39.997,49.442,46.776"/>
</svg>
